%TF.GenerationSoftware,KiCad,Pcbnew,8.0.1*%
%TF.CreationDate,2024-06-07T18:58:06+02:00*%
%TF.ProjectId,PCB_Plaque_Haute,5043425f-506c-4617-9175-655f48617574,C.Roche*%
%TF.SameCoordinates,Original*%
%TF.FileFunction,Drillmap*%
%TF.FilePolarity,Positive*%
%FSLAX45Y45*%
G04 Gerber Fmt 4.5, Leading zero omitted, Abs format (unit mm)*
G04 Created by KiCad (PCBNEW 8.0.1) date 2024-06-07 18:58:06*
%MOMM*%
%LPD*%
G01*
G04 APERTURE LIST*
%ADD10C,0.100000*%
%ADD11C,0.200000*%
G04 APERTURE END LIST*
D10*
X12550000Y-7200000D02*
G75*
G02*
X11950000Y-7200000I-300000J0D01*
G01*
X11950000Y-7200000D02*
G75*
G02*
X12550000Y-7200000I300000J0D01*
G01*
X15874000Y-14232000D02*
G75*
G02*
X15274000Y-14232000I-300000J0D01*
G01*
X15274000Y-14232000D02*
G75*
G02*
X15874000Y-14232000I300000J0D01*
G01*
X19200000Y-7200000D02*
G75*
G02*
X18600000Y-7200000I-300000J0D01*
G01*
X18600000Y-7200000D02*
G75*
G02*
X19200000Y-7200000I300000J0D01*
G01*
X20274000Y-9932000D02*
G75*
G02*
X10874000Y-9932000I-4700000J0D01*
G01*
X10874000Y-9932000D02*
G75*
G02*
X20274000Y-9932000I4700000J0D01*
G01*
D11*
D10*
X11575000Y-8608000D02*
X11625000Y-8658000D01*
X11625000Y-8608000D02*
X11575000Y-8658000D01*
X11575000Y-8708000D02*
X11625000Y-8758000D01*
X11625000Y-8708000D02*
X11575000Y-8758000D01*
X11575000Y-8808000D02*
X11625000Y-8858000D01*
X11625000Y-8808000D02*
X11575000Y-8858000D01*
X11575000Y-8908000D02*
X11625000Y-8958000D01*
X11625000Y-8908000D02*
X11575000Y-8958000D01*
X11575000Y-9008000D02*
X11625000Y-9058000D01*
X11625000Y-9008000D02*
X11575000Y-9058000D01*
X17925000Y-8375000D02*
X17975000Y-8425000D01*
X17975000Y-8375000D02*
X17925000Y-8425000D01*
X18025000Y-7225000D02*
X18075000Y-7275000D01*
X18075000Y-7225000D02*
X18025000Y-7275000D01*
X18025000Y-7325000D02*
X18075000Y-7375000D01*
X18075000Y-7325000D02*
X18025000Y-7375000D01*
X18025000Y-7975000D02*
X18075000Y-8025000D01*
X18075000Y-7975000D02*
X18025000Y-8025000D01*
X18025000Y-8375000D02*
X18075000Y-8425000D01*
X18075000Y-8375000D02*
X18025000Y-8425000D01*
X18125000Y-7975000D02*
X18175000Y-8025000D01*
X18175000Y-7975000D02*
X18125000Y-8025000D01*
X18125000Y-8375000D02*
X18175000Y-8425000D01*
X18175000Y-8375000D02*
X18125000Y-8425000D01*
X18225000Y-7975000D02*
X18275000Y-8025000D01*
X18275000Y-7975000D02*
X18225000Y-8025000D01*
X18225000Y-8375000D02*
X18275000Y-8425000D01*
X18275000Y-8375000D02*
X18225000Y-8425000D01*
X18325000Y-8375000D02*
X18375000Y-8425000D01*
X18375000Y-8375000D02*
X18325000Y-8425000D01*
X18425000Y-8375000D02*
X18475000Y-8425000D01*
X18475000Y-8375000D02*
X18425000Y-8425000D01*
X19225000Y-9975000D02*
X19275000Y-10025000D01*
X19275000Y-9975000D02*
X19225000Y-10025000D01*
X19225000Y-10075000D02*
X19275000Y-10125000D01*
X19275000Y-10075000D02*
X19225000Y-10125000D01*
X19225000Y-10175000D02*
X19275000Y-10225000D01*
X19275000Y-10175000D02*
X19225000Y-10225000D01*
X19625000Y-9975000D02*
X19675000Y-10025000D01*
X19675000Y-9975000D02*
X19625000Y-10025000D01*
X19625000Y-10075000D02*
X19675000Y-10125000D01*
X19675000Y-10075000D02*
X19625000Y-10125000D01*
X19625000Y-10175000D02*
X19675000Y-10225000D01*
X19675000Y-10175000D02*
X19625000Y-10225000D01*
X11411000Y-9699000D02*
G75*
G02*
X11311000Y-9699000I-50000J0D01*
G01*
X11311000Y-9699000D02*
G75*
G02*
X11411000Y-9699000I50000J0D01*
G01*
X11665000Y-9699000D02*
G75*
G02*
X11565000Y-9699000I-50000J0D01*
G01*
X11565000Y-9699000D02*
G75*
G02*
X11665000Y-9699000I50000J0D01*
G01*
X11919000Y-9699000D02*
G75*
G02*
X11819000Y-9699000I-50000J0D01*
G01*
X11819000Y-9699000D02*
G75*
G02*
X11919000Y-9699000I50000J0D01*
G01*
X12173000Y-9699000D02*
G75*
G02*
X12073000Y-9699000I-50000J0D01*
G01*
X12073000Y-9699000D02*
G75*
G02*
X12173000Y-9699000I50000J0D01*
G01*
X12419000Y-11416000D02*
G75*
G02*
X12319000Y-11416000I-50000J0D01*
G01*
X12319000Y-11416000D02*
G75*
G02*
X12419000Y-11416000I50000J0D01*
G01*
X12427000Y-9699000D02*
G75*
G02*
X12327000Y-9699000I-50000J0D01*
G01*
X12327000Y-9699000D02*
G75*
G02*
X12427000Y-9699000I50000J0D01*
G01*
X12673000Y-11416000D02*
G75*
G02*
X12573000Y-11416000I-50000J0D01*
G01*
X12573000Y-11416000D02*
G75*
G02*
X12673000Y-11416000I50000J0D01*
G01*
X12681000Y-9699000D02*
G75*
G02*
X12581000Y-9699000I-50000J0D01*
G01*
X12581000Y-9699000D02*
G75*
G02*
X12681000Y-9699000I50000J0D01*
G01*
X12927000Y-11416000D02*
G75*
G02*
X12827000Y-11416000I-50000J0D01*
G01*
X12827000Y-11416000D02*
G75*
G02*
X12927000Y-11416000I50000J0D01*
G01*
X12935000Y-9699000D02*
G75*
G02*
X12835000Y-9699000I-50000J0D01*
G01*
X12835000Y-9699000D02*
G75*
G02*
X12935000Y-9699000I50000J0D01*
G01*
X13181000Y-11416000D02*
G75*
G02*
X13081000Y-11416000I-50000J0D01*
G01*
X13081000Y-11416000D02*
G75*
G02*
X13181000Y-11416000I50000J0D01*
G01*
X13189000Y-9699000D02*
G75*
G02*
X13089000Y-9699000I-50000J0D01*
G01*
X13089000Y-9699000D02*
G75*
G02*
X13189000Y-9699000I50000J0D01*
G01*
X17126000Y-9144000D02*
G75*
G02*
X17026000Y-9144000I-50000J0D01*
G01*
X17026000Y-9144000D02*
G75*
G02*
X17126000Y-9144000I50000J0D01*
G01*
X17126000Y-9398000D02*
G75*
G02*
X17026000Y-9398000I-50000J0D01*
G01*
X17026000Y-9398000D02*
G75*
G02*
X17126000Y-9398000I50000J0D01*
G01*
X17126000Y-9652000D02*
G75*
G02*
X17026000Y-9652000I-50000J0D01*
G01*
X17026000Y-9652000D02*
G75*
G02*
X17126000Y-9652000I50000J0D01*
G01*
X17126000Y-9906000D02*
G75*
G02*
X17026000Y-9906000I-50000J0D01*
G01*
X17026000Y-9906000D02*
G75*
G02*
X17126000Y-9906000I50000J0D01*
G01*
X17126000Y-10160000D02*
G75*
G02*
X17026000Y-10160000I-50000J0D01*
G01*
X17026000Y-10160000D02*
G75*
G02*
X17126000Y-10160000I50000J0D01*
G01*
X17126000Y-10414000D02*
G75*
G02*
X17026000Y-10414000I-50000J0D01*
G01*
X17026000Y-10414000D02*
G75*
G02*
X17126000Y-10414000I50000J0D01*
G01*
X17126000Y-10668000D02*
G75*
G02*
X17026000Y-10668000I-50000J0D01*
G01*
X17026000Y-10668000D02*
G75*
G02*
X17126000Y-10668000I50000J0D01*
G01*
X17126000Y-10922000D02*
G75*
G02*
X17026000Y-10922000I-50000J0D01*
G01*
X17026000Y-10922000D02*
G75*
G02*
X17126000Y-10922000I50000J0D01*
G01*
X17126000Y-11176000D02*
G75*
G02*
X17026000Y-11176000I-50000J0D01*
G01*
X17026000Y-11176000D02*
G75*
G02*
X17126000Y-11176000I50000J0D01*
G01*
X17126000Y-11430000D02*
G75*
G02*
X17026000Y-11430000I-50000J0D01*
G01*
X17026000Y-11430000D02*
G75*
G02*
X17126000Y-11430000I50000J0D01*
G01*
X17126000Y-11684000D02*
G75*
G02*
X17026000Y-11684000I-50000J0D01*
G01*
X17026000Y-11684000D02*
G75*
G02*
X17126000Y-11684000I50000J0D01*
G01*
X17126000Y-11938000D02*
G75*
G02*
X17026000Y-11938000I-50000J0D01*
G01*
X17026000Y-11938000D02*
G75*
G02*
X17126000Y-11938000I50000J0D01*
G01*
X17126000Y-12192000D02*
G75*
G02*
X17026000Y-12192000I-50000J0D01*
G01*
X17026000Y-12192000D02*
G75*
G02*
X17126000Y-12192000I50000J0D01*
G01*
X17126000Y-12446000D02*
G75*
G02*
X17026000Y-12446000I-50000J0D01*
G01*
X17026000Y-12446000D02*
G75*
G02*
X17126000Y-12446000I50000J0D01*
G01*
X17126000Y-12700000D02*
G75*
G02*
X17026000Y-12700000I-50000J0D01*
G01*
X17026000Y-12700000D02*
G75*
G02*
X17126000Y-12700000I50000J0D01*
G01*
X18650000Y-9144000D02*
G75*
G02*
X18550000Y-9144000I-50000J0D01*
G01*
X18550000Y-9144000D02*
G75*
G02*
X18650000Y-9144000I50000J0D01*
G01*
X18650000Y-9398000D02*
G75*
G02*
X18550000Y-9398000I-50000J0D01*
G01*
X18550000Y-9398000D02*
G75*
G02*
X18650000Y-9398000I50000J0D01*
G01*
X18650000Y-9652000D02*
G75*
G02*
X18550000Y-9652000I-50000J0D01*
G01*
X18550000Y-9652000D02*
G75*
G02*
X18650000Y-9652000I50000J0D01*
G01*
X18650000Y-9906000D02*
G75*
G02*
X18550000Y-9906000I-50000J0D01*
G01*
X18550000Y-9906000D02*
G75*
G02*
X18650000Y-9906000I50000J0D01*
G01*
X18650000Y-10160000D02*
G75*
G02*
X18550000Y-10160000I-50000J0D01*
G01*
X18550000Y-10160000D02*
G75*
G02*
X18650000Y-10160000I50000J0D01*
G01*
X18650000Y-10414000D02*
G75*
G02*
X18550000Y-10414000I-50000J0D01*
G01*
X18550000Y-10414000D02*
G75*
G02*
X18650000Y-10414000I50000J0D01*
G01*
X18650000Y-10668000D02*
G75*
G02*
X18550000Y-10668000I-50000J0D01*
G01*
X18550000Y-10668000D02*
G75*
G02*
X18650000Y-10668000I50000J0D01*
G01*
X18650000Y-10922000D02*
G75*
G02*
X18550000Y-10922000I-50000J0D01*
G01*
X18550000Y-10922000D02*
G75*
G02*
X18650000Y-10922000I50000J0D01*
G01*
X18650000Y-11176000D02*
G75*
G02*
X18550000Y-11176000I-50000J0D01*
G01*
X18550000Y-11176000D02*
G75*
G02*
X18650000Y-11176000I50000J0D01*
G01*
X18650000Y-11430000D02*
G75*
G02*
X18550000Y-11430000I-50000J0D01*
G01*
X18550000Y-11430000D02*
G75*
G02*
X18650000Y-11430000I50000J0D01*
G01*
X18650000Y-11684000D02*
G75*
G02*
X18550000Y-11684000I-50000J0D01*
G01*
X18550000Y-11684000D02*
G75*
G02*
X18650000Y-11684000I50000J0D01*
G01*
X18650000Y-11938000D02*
G75*
G02*
X18550000Y-11938000I-50000J0D01*
G01*
X18550000Y-11938000D02*
G75*
G02*
X18650000Y-11938000I50000J0D01*
G01*
X18650000Y-12192000D02*
G75*
G02*
X18550000Y-12192000I-50000J0D01*
G01*
X18550000Y-12192000D02*
G75*
G02*
X18650000Y-12192000I50000J0D01*
G01*
X18650000Y-12446000D02*
G75*
G02*
X18550000Y-12446000I-50000J0D01*
G01*
X18550000Y-12446000D02*
G75*
G02*
X18650000Y-12446000I50000J0D01*
G01*
X18650000Y-12700000D02*
G75*
G02*
X18550000Y-12700000I-50000J0D01*
G01*
X18550000Y-12700000D02*
G75*
G02*
X18650000Y-12700000I50000J0D01*
G01*
D11*
X11129777Y-14948484D02*
X11129777Y-14748484D01*
X11129777Y-14748484D02*
X11177396Y-14748484D01*
X11177396Y-14748484D02*
X11205967Y-14758008D01*
X11205967Y-14758008D02*
X11225015Y-14777055D01*
X11225015Y-14777055D02*
X11234539Y-14796103D01*
X11234539Y-14796103D02*
X11244062Y-14834198D01*
X11244062Y-14834198D02*
X11244062Y-14862769D01*
X11244062Y-14862769D02*
X11234539Y-14900865D01*
X11234539Y-14900865D02*
X11225015Y-14919912D01*
X11225015Y-14919912D02*
X11205967Y-14938960D01*
X11205967Y-14938960D02*
X11177396Y-14948484D01*
X11177396Y-14948484D02*
X11129777Y-14948484D01*
X11329777Y-14948484D02*
X11329777Y-14815150D01*
X11329777Y-14853246D02*
X11339301Y-14834198D01*
X11339301Y-14834198D02*
X11348824Y-14824674D01*
X11348824Y-14824674D02*
X11367872Y-14815150D01*
X11367872Y-14815150D02*
X11386920Y-14815150D01*
X11453586Y-14948484D02*
X11453586Y-14815150D01*
X11453586Y-14748484D02*
X11444062Y-14758008D01*
X11444062Y-14758008D02*
X11453586Y-14767531D01*
X11453586Y-14767531D02*
X11463110Y-14758008D01*
X11463110Y-14758008D02*
X11453586Y-14748484D01*
X11453586Y-14748484D02*
X11453586Y-14767531D01*
X11577396Y-14948484D02*
X11558348Y-14938960D01*
X11558348Y-14938960D02*
X11548824Y-14919912D01*
X11548824Y-14919912D02*
X11548824Y-14748484D01*
X11682158Y-14948484D02*
X11663110Y-14938960D01*
X11663110Y-14938960D02*
X11653586Y-14919912D01*
X11653586Y-14919912D02*
X11653586Y-14748484D01*
X11910729Y-14948484D02*
X11910729Y-14748484D01*
X11910729Y-14748484D02*
X11977396Y-14891341D01*
X11977396Y-14891341D02*
X12044062Y-14748484D01*
X12044062Y-14748484D02*
X12044062Y-14948484D01*
X12225015Y-14948484D02*
X12225015Y-14843722D01*
X12225015Y-14843722D02*
X12215491Y-14824674D01*
X12215491Y-14824674D02*
X12196443Y-14815150D01*
X12196443Y-14815150D02*
X12158348Y-14815150D01*
X12158348Y-14815150D02*
X12139301Y-14824674D01*
X12225015Y-14938960D02*
X12205967Y-14948484D01*
X12205967Y-14948484D02*
X12158348Y-14948484D01*
X12158348Y-14948484D02*
X12139301Y-14938960D01*
X12139301Y-14938960D02*
X12129777Y-14919912D01*
X12129777Y-14919912D02*
X12129777Y-14900865D01*
X12129777Y-14900865D02*
X12139301Y-14881817D01*
X12139301Y-14881817D02*
X12158348Y-14872293D01*
X12158348Y-14872293D02*
X12205967Y-14872293D01*
X12205967Y-14872293D02*
X12225015Y-14862769D01*
X12320253Y-14815150D02*
X12320253Y-15015150D01*
X12320253Y-14824674D02*
X12339301Y-14815150D01*
X12339301Y-14815150D02*
X12377396Y-14815150D01*
X12377396Y-14815150D02*
X12396443Y-14824674D01*
X12396443Y-14824674D02*
X12405967Y-14834198D01*
X12405967Y-14834198D02*
X12415491Y-14853246D01*
X12415491Y-14853246D02*
X12415491Y-14910388D01*
X12415491Y-14910388D02*
X12405967Y-14929436D01*
X12405967Y-14929436D02*
X12396443Y-14938960D01*
X12396443Y-14938960D02*
X12377396Y-14948484D01*
X12377396Y-14948484D02*
X12339301Y-14948484D01*
X12339301Y-14948484D02*
X12320253Y-14938960D01*
X12501205Y-14929436D02*
X12510729Y-14938960D01*
X12510729Y-14938960D02*
X12501205Y-14948484D01*
X12501205Y-14948484D02*
X12491682Y-14938960D01*
X12491682Y-14938960D02*
X12501205Y-14929436D01*
X12501205Y-14929436D02*
X12501205Y-14948484D01*
X12501205Y-14824674D02*
X12510729Y-14834198D01*
X12510729Y-14834198D02*
X12501205Y-14843722D01*
X12501205Y-14843722D02*
X12491682Y-14834198D01*
X12491682Y-14834198D02*
X12501205Y-14824674D01*
X12501205Y-14824674D02*
X12501205Y-14843722D01*
D10*
X10819000Y-15252000D02*
X10869000Y-15302000D01*
X10869000Y-15252000D02*
X10819000Y-15302000D01*
D11*
X11167872Y-15168484D02*
X11186920Y-15168484D01*
X11186920Y-15168484D02*
X11205967Y-15178008D01*
X11205967Y-15178008D02*
X11215491Y-15187531D01*
X11215491Y-15187531D02*
X11225015Y-15206579D01*
X11225015Y-15206579D02*
X11234539Y-15244674D01*
X11234539Y-15244674D02*
X11234539Y-15292293D01*
X11234539Y-15292293D02*
X11225015Y-15330388D01*
X11225015Y-15330388D02*
X11215491Y-15349436D01*
X11215491Y-15349436D02*
X11205967Y-15358960D01*
X11205967Y-15358960D02*
X11186920Y-15368484D01*
X11186920Y-15368484D02*
X11167872Y-15368484D01*
X11167872Y-15368484D02*
X11148824Y-15358960D01*
X11148824Y-15358960D02*
X11139301Y-15349436D01*
X11139301Y-15349436D02*
X11129777Y-15330388D01*
X11129777Y-15330388D02*
X11120253Y-15292293D01*
X11120253Y-15292293D02*
X11120253Y-15244674D01*
X11120253Y-15244674D02*
X11129777Y-15206579D01*
X11129777Y-15206579D02*
X11139301Y-15187531D01*
X11139301Y-15187531D02*
X11148824Y-15178008D01*
X11148824Y-15178008D02*
X11167872Y-15168484D01*
X11320253Y-15349436D02*
X11329777Y-15358960D01*
X11329777Y-15358960D02*
X11320253Y-15368484D01*
X11320253Y-15368484D02*
X11310729Y-15358960D01*
X11310729Y-15358960D02*
X11320253Y-15349436D01*
X11320253Y-15349436D02*
X11320253Y-15368484D01*
X11510729Y-15168484D02*
X11415491Y-15168484D01*
X11415491Y-15168484D02*
X11405967Y-15263722D01*
X11405967Y-15263722D02*
X11415491Y-15254198D01*
X11415491Y-15254198D02*
X11434539Y-15244674D01*
X11434539Y-15244674D02*
X11482158Y-15244674D01*
X11482158Y-15244674D02*
X11501205Y-15254198D01*
X11501205Y-15254198D02*
X11510729Y-15263722D01*
X11510729Y-15263722D02*
X11520253Y-15282769D01*
X11520253Y-15282769D02*
X11520253Y-15330388D01*
X11520253Y-15330388D02*
X11510729Y-15349436D01*
X11510729Y-15349436D02*
X11501205Y-15358960D01*
X11501205Y-15358960D02*
X11482158Y-15368484D01*
X11482158Y-15368484D02*
X11434539Y-15368484D01*
X11434539Y-15368484D02*
X11415491Y-15358960D01*
X11415491Y-15358960D02*
X11405967Y-15349436D01*
X11644062Y-15168484D02*
X11663110Y-15168484D01*
X11663110Y-15168484D02*
X11682158Y-15178008D01*
X11682158Y-15178008D02*
X11691682Y-15187531D01*
X11691682Y-15187531D02*
X11701205Y-15206579D01*
X11701205Y-15206579D02*
X11710729Y-15244674D01*
X11710729Y-15244674D02*
X11710729Y-15292293D01*
X11710729Y-15292293D02*
X11701205Y-15330388D01*
X11701205Y-15330388D02*
X11691682Y-15349436D01*
X11691682Y-15349436D02*
X11682158Y-15358960D01*
X11682158Y-15358960D02*
X11663110Y-15368484D01*
X11663110Y-15368484D02*
X11644062Y-15368484D01*
X11644062Y-15368484D02*
X11625015Y-15358960D01*
X11625015Y-15358960D02*
X11615491Y-15349436D01*
X11615491Y-15349436D02*
X11605967Y-15330388D01*
X11605967Y-15330388D02*
X11596443Y-15292293D01*
X11596443Y-15292293D02*
X11596443Y-15244674D01*
X11596443Y-15244674D02*
X11605967Y-15206579D01*
X11605967Y-15206579D02*
X11615491Y-15187531D01*
X11615491Y-15187531D02*
X11625015Y-15178008D01*
X11625015Y-15178008D02*
X11644062Y-15168484D01*
X11834539Y-15168484D02*
X11853586Y-15168484D01*
X11853586Y-15168484D02*
X11872634Y-15178008D01*
X11872634Y-15178008D02*
X11882158Y-15187531D01*
X11882158Y-15187531D02*
X11891682Y-15206579D01*
X11891682Y-15206579D02*
X11901205Y-15244674D01*
X11901205Y-15244674D02*
X11901205Y-15292293D01*
X11901205Y-15292293D02*
X11891682Y-15330388D01*
X11891682Y-15330388D02*
X11882158Y-15349436D01*
X11882158Y-15349436D02*
X11872634Y-15358960D01*
X11872634Y-15358960D02*
X11853586Y-15368484D01*
X11853586Y-15368484D02*
X11834539Y-15368484D01*
X11834539Y-15368484D02*
X11815491Y-15358960D01*
X11815491Y-15358960D02*
X11805967Y-15349436D01*
X11805967Y-15349436D02*
X11796443Y-15330388D01*
X11796443Y-15330388D02*
X11786920Y-15292293D01*
X11786920Y-15292293D02*
X11786920Y-15244674D01*
X11786920Y-15244674D02*
X11796443Y-15206579D01*
X11796443Y-15206579D02*
X11805967Y-15187531D01*
X11805967Y-15187531D02*
X11815491Y-15178008D01*
X11815491Y-15178008D02*
X11834539Y-15168484D01*
X11986920Y-15368484D02*
X11986920Y-15235150D01*
X11986920Y-15254198D02*
X11996443Y-15244674D01*
X11996443Y-15244674D02*
X12015491Y-15235150D01*
X12015491Y-15235150D02*
X12044063Y-15235150D01*
X12044063Y-15235150D02*
X12063110Y-15244674D01*
X12063110Y-15244674D02*
X12072634Y-15263722D01*
X12072634Y-15263722D02*
X12072634Y-15368484D01*
X12072634Y-15263722D02*
X12082158Y-15244674D01*
X12082158Y-15244674D02*
X12101205Y-15235150D01*
X12101205Y-15235150D02*
X12129777Y-15235150D01*
X12129777Y-15235150D02*
X12148824Y-15244674D01*
X12148824Y-15244674D02*
X12158348Y-15263722D01*
X12158348Y-15263722D02*
X12158348Y-15368484D01*
X12253586Y-15368484D02*
X12253586Y-15235150D01*
X12253586Y-15254198D02*
X12263110Y-15244674D01*
X12263110Y-15244674D02*
X12282158Y-15235150D01*
X12282158Y-15235150D02*
X12310729Y-15235150D01*
X12310729Y-15235150D02*
X12329777Y-15244674D01*
X12329777Y-15244674D02*
X12339301Y-15263722D01*
X12339301Y-15263722D02*
X12339301Y-15368484D01*
X12339301Y-15263722D02*
X12348824Y-15244674D01*
X12348824Y-15244674D02*
X12367872Y-15235150D01*
X12367872Y-15235150D02*
X12396443Y-15235150D01*
X12396443Y-15235150D02*
X12415491Y-15244674D01*
X12415491Y-15244674D02*
X12425015Y-15263722D01*
X12425015Y-15263722D02*
X12425015Y-15368484D01*
X12815491Y-15158960D02*
X12644063Y-15416103D01*
X13072634Y-15168484D02*
X13091682Y-15168484D01*
X13091682Y-15168484D02*
X13110729Y-15178008D01*
X13110729Y-15178008D02*
X13120253Y-15187531D01*
X13120253Y-15187531D02*
X13129777Y-15206579D01*
X13129777Y-15206579D02*
X13139301Y-15244674D01*
X13139301Y-15244674D02*
X13139301Y-15292293D01*
X13139301Y-15292293D02*
X13129777Y-15330388D01*
X13129777Y-15330388D02*
X13120253Y-15349436D01*
X13120253Y-15349436D02*
X13110729Y-15358960D01*
X13110729Y-15358960D02*
X13091682Y-15368484D01*
X13091682Y-15368484D02*
X13072634Y-15368484D01*
X13072634Y-15368484D02*
X13053586Y-15358960D01*
X13053586Y-15358960D02*
X13044063Y-15349436D01*
X13044063Y-15349436D02*
X13034539Y-15330388D01*
X13034539Y-15330388D02*
X13025015Y-15292293D01*
X13025015Y-15292293D02*
X13025015Y-15244674D01*
X13025015Y-15244674D02*
X13034539Y-15206579D01*
X13034539Y-15206579D02*
X13044063Y-15187531D01*
X13044063Y-15187531D02*
X13053586Y-15178008D01*
X13053586Y-15178008D02*
X13072634Y-15168484D01*
X13225015Y-15349436D02*
X13234539Y-15358960D01*
X13234539Y-15358960D02*
X13225015Y-15368484D01*
X13225015Y-15368484D02*
X13215491Y-15358960D01*
X13215491Y-15358960D02*
X13225015Y-15349436D01*
X13225015Y-15349436D02*
X13225015Y-15368484D01*
X13358348Y-15168484D02*
X13377396Y-15168484D01*
X13377396Y-15168484D02*
X13396444Y-15178008D01*
X13396444Y-15178008D02*
X13405967Y-15187531D01*
X13405967Y-15187531D02*
X13415491Y-15206579D01*
X13415491Y-15206579D02*
X13425015Y-15244674D01*
X13425015Y-15244674D02*
X13425015Y-15292293D01*
X13425015Y-15292293D02*
X13415491Y-15330388D01*
X13415491Y-15330388D02*
X13405967Y-15349436D01*
X13405967Y-15349436D02*
X13396444Y-15358960D01*
X13396444Y-15358960D02*
X13377396Y-15368484D01*
X13377396Y-15368484D02*
X13358348Y-15368484D01*
X13358348Y-15368484D02*
X13339301Y-15358960D01*
X13339301Y-15358960D02*
X13329777Y-15349436D01*
X13329777Y-15349436D02*
X13320253Y-15330388D01*
X13320253Y-15330388D02*
X13310729Y-15292293D01*
X13310729Y-15292293D02*
X13310729Y-15244674D01*
X13310729Y-15244674D02*
X13320253Y-15206579D01*
X13320253Y-15206579D02*
X13329777Y-15187531D01*
X13329777Y-15187531D02*
X13339301Y-15178008D01*
X13339301Y-15178008D02*
X13358348Y-15168484D01*
X13615491Y-15368484D02*
X13501206Y-15368484D01*
X13558348Y-15368484D02*
X13558348Y-15168484D01*
X13558348Y-15168484D02*
X13539301Y-15197055D01*
X13539301Y-15197055D02*
X13520253Y-15216103D01*
X13520253Y-15216103D02*
X13501206Y-15225627D01*
X13710729Y-15368484D02*
X13748825Y-15368484D01*
X13748825Y-15368484D02*
X13767872Y-15358960D01*
X13767872Y-15358960D02*
X13777396Y-15349436D01*
X13777396Y-15349436D02*
X13796444Y-15320865D01*
X13796444Y-15320865D02*
X13805967Y-15282769D01*
X13805967Y-15282769D02*
X13805967Y-15206579D01*
X13805967Y-15206579D02*
X13796444Y-15187531D01*
X13796444Y-15187531D02*
X13786920Y-15178008D01*
X13786920Y-15178008D02*
X13767872Y-15168484D01*
X13767872Y-15168484D02*
X13729777Y-15168484D01*
X13729777Y-15168484D02*
X13710729Y-15178008D01*
X13710729Y-15178008D02*
X13701206Y-15187531D01*
X13701206Y-15187531D02*
X13691682Y-15206579D01*
X13691682Y-15206579D02*
X13691682Y-15254198D01*
X13691682Y-15254198D02*
X13701206Y-15273246D01*
X13701206Y-15273246D02*
X13710729Y-15282769D01*
X13710729Y-15282769D02*
X13729777Y-15292293D01*
X13729777Y-15292293D02*
X13767872Y-15292293D01*
X13767872Y-15292293D02*
X13786920Y-15282769D01*
X13786920Y-15282769D02*
X13796444Y-15273246D01*
X13796444Y-15273246D02*
X13805967Y-15254198D01*
X13872634Y-15168484D02*
X14005967Y-15168484D01*
X14005967Y-15168484D02*
X13920253Y-15368484D01*
X14072634Y-15168484D02*
X14072634Y-15206579D01*
X14148825Y-15168484D02*
X14148825Y-15206579D01*
X14444063Y-15444674D02*
X14434539Y-15435150D01*
X14434539Y-15435150D02*
X14415491Y-15406579D01*
X14415491Y-15406579D02*
X14405968Y-15387531D01*
X14405968Y-15387531D02*
X14396444Y-15358960D01*
X14396444Y-15358960D02*
X14386920Y-15311341D01*
X14386920Y-15311341D02*
X14386920Y-15273246D01*
X14386920Y-15273246D02*
X14396444Y-15225627D01*
X14396444Y-15225627D02*
X14405968Y-15197055D01*
X14405968Y-15197055D02*
X14415491Y-15178008D01*
X14415491Y-15178008D02*
X14434539Y-15149436D01*
X14434539Y-15149436D02*
X14444063Y-15139912D01*
X14510729Y-15187531D02*
X14520253Y-15178008D01*
X14520253Y-15178008D02*
X14539301Y-15168484D01*
X14539301Y-15168484D02*
X14586920Y-15168484D01*
X14586920Y-15168484D02*
X14605968Y-15178008D01*
X14605968Y-15178008D02*
X14615491Y-15187531D01*
X14615491Y-15187531D02*
X14625015Y-15206579D01*
X14625015Y-15206579D02*
X14625015Y-15225627D01*
X14625015Y-15225627D02*
X14615491Y-15254198D01*
X14615491Y-15254198D02*
X14501206Y-15368484D01*
X14501206Y-15368484D02*
X14625015Y-15368484D01*
X14701206Y-15187531D02*
X14710729Y-15178008D01*
X14710729Y-15178008D02*
X14729777Y-15168484D01*
X14729777Y-15168484D02*
X14777396Y-15168484D01*
X14777396Y-15168484D02*
X14796444Y-15178008D01*
X14796444Y-15178008D02*
X14805968Y-15187531D01*
X14805968Y-15187531D02*
X14815491Y-15206579D01*
X14815491Y-15206579D02*
X14815491Y-15225627D01*
X14815491Y-15225627D02*
X14805968Y-15254198D01*
X14805968Y-15254198D02*
X14691682Y-15368484D01*
X14691682Y-15368484D02*
X14815491Y-15368484D01*
X15053587Y-15368484D02*
X15053587Y-15168484D01*
X15139301Y-15368484D02*
X15139301Y-15263722D01*
X15139301Y-15263722D02*
X15129777Y-15244674D01*
X15129777Y-15244674D02*
X15110730Y-15235150D01*
X15110730Y-15235150D02*
X15082158Y-15235150D01*
X15082158Y-15235150D02*
X15063110Y-15244674D01*
X15063110Y-15244674D02*
X15053587Y-15254198D01*
X15263110Y-15368484D02*
X15244063Y-15358960D01*
X15244063Y-15358960D02*
X15234539Y-15349436D01*
X15234539Y-15349436D02*
X15225015Y-15330388D01*
X15225015Y-15330388D02*
X15225015Y-15273246D01*
X15225015Y-15273246D02*
X15234539Y-15254198D01*
X15234539Y-15254198D02*
X15244063Y-15244674D01*
X15244063Y-15244674D02*
X15263110Y-15235150D01*
X15263110Y-15235150D02*
X15291682Y-15235150D01*
X15291682Y-15235150D02*
X15310730Y-15244674D01*
X15310730Y-15244674D02*
X15320253Y-15254198D01*
X15320253Y-15254198D02*
X15329777Y-15273246D01*
X15329777Y-15273246D02*
X15329777Y-15330388D01*
X15329777Y-15330388D02*
X15320253Y-15349436D01*
X15320253Y-15349436D02*
X15310730Y-15358960D01*
X15310730Y-15358960D02*
X15291682Y-15368484D01*
X15291682Y-15368484D02*
X15263110Y-15368484D01*
X15444063Y-15368484D02*
X15425015Y-15358960D01*
X15425015Y-15358960D02*
X15415491Y-15339912D01*
X15415491Y-15339912D02*
X15415491Y-15168484D01*
X15596444Y-15358960D02*
X15577396Y-15368484D01*
X15577396Y-15368484D02*
X15539301Y-15368484D01*
X15539301Y-15368484D02*
X15520253Y-15358960D01*
X15520253Y-15358960D02*
X15510730Y-15339912D01*
X15510730Y-15339912D02*
X15510730Y-15263722D01*
X15510730Y-15263722D02*
X15520253Y-15244674D01*
X15520253Y-15244674D02*
X15539301Y-15235150D01*
X15539301Y-15235150D02*
X15577396Y-15235150D01*
X15577396Y-15235150D02*
X15596444Y-15244674D01*
X15596444Y-15244674D02*
X15605968Y-15263722D01*
X15605968Y-15263722D02*
X15605968Y-15282769D01*
X15605968Y-15282769D02*
X15510730Y-15301817D01*
X15682158Y-15358960D02*
X15701206Y-15368484D01*
X15701206Y-15368484D02*
X15739301Y-15368484D01*
X15739301Y-15368484D02*
X15758349Y-15358960D01*
X15758349Y-15358960D02*
X15767872Y-15339912D01*
X15767872Y-15339912D02*
X15767872Y-15330388D01*
X15767872Y-15330388D02*
X15758349Y-15311341D01*
X15758349Y-15311341D02*
X15739301Y-15301817D01*
X15739301Y-15301817D02*
X15710730Y-15301817D01*
X15710730Y-15301817D02*
X15691682Y-15292293D01*
X15691682Y-15292293D02*
X15682158Y-15273246D01*
X15682158Y-15273246D02*
X15682158Y-15263722D01*
X15682158Y-15263722D02*
X15691682Y-15244674D01*
X15691682Y-15244674D02*
X15710730Y-15235150D01*
X15710730Y-15235150D02*
X15739301Y-15235150D01*
X15739301Y-15235150D02*
X15758349Y-15244674D01*
X15834539Y-15444674D02*
X15844063Y-15435150D01*
X15844063Y-15435150D02*
X15863111Y-15406579D01*
X15863111Y-15406579D02*
X15872634Y-15387531D01*
X15872634Y-15387531D02*
X15882158Y-15358960D01*
X15882158Y-15358960D02*
X15891682Y-15311341D01*
X15891682Y-15311341D02*
X15891682Y-15273246D01*
X15891682Y-15273246D02*
X15882158Y-15225627D01*
X15882158Y-15225627D02*
X15872634Y-15197055D01*
X15872634Y-15197055D02*
X15863111Y-15178008D01*
X15863111Y-15178008D02*
X15844063Y-15149436D01*
X15844063Y-15149436D02*
X15834539Y-15139912D01*
D10*
X10869000Y-15541000D02*
G75*
G02*
X10769000Y-15541000I-50000J0D01*
G01*
X10769000Y-15541000D02*
G75*
G02*
X10869000Y-15541000I50000J0D01*
G01*
D11*
X11234539Y-15632484D02*
X11120253Y-15632484D01*
X11177396Y-15632484D02*
X11177396Y-15432484D01*
X11177396Y-15432484D02*
X11158348Y-15461055D01*
X11158348Y-15461055D02*
X11139301Y-15480103D01*
X11139301Y-15480103D02*
X11120253Y-15489627D01*
X11320253Y-15613436D02*
X11329777Y-15622960D01*
X11329777Y-15622960D02*
X11320253Y-15632484D01*
X11320253Y-15632484D02*
X11310729Y-15622960D01*
X11310729Y-15622960D02*
X11320253Y-15613436D01*
X11320253Y-15613436D02*
X11320253Y-15632484D01*
X11453586Y-15432484D02*
X11472634Y-15432484D01*
X11472634Y-15432484D02*
X11491682Y-15442008D01*
X11491682Y-15442008D02*
X11501205Y-15451531D01*
X11501205Y-15451531D02*
X11510729Y-15470579D01*
X11510729Y-15470579D02*
X11520253Y-15508674D01*
X11520253Y-15508674D02*
X11520253Y-15556293D01*
X11520253Y-15556293D02*
X11510729Y-15594388D01*
X11510729Y-15594388D02*
X11501205Y-15613436D01*
X11501205Y-15613436D02*
X11491682Y-15622960D01*
X11491682Y-15622960D02*
X11472634Y-15632484D01*
X11472634Y-15632484D02*
X11453586Y-15632484D01*
X11453586Y-15632484D02*
X11434539Y-15622960D01*
X11434539Y-15622960D02*
X11425015Y-15613436D01*
X11425015Y-15613436D02*
X11415491Y-15594388D01*
X11415491Y-15594388D02*
X11405967Y-15556293D01*
X11405967Y-15556293D02*
X11405967Y-15508674D01*
X11405967Y-15508674D02*
X11415491Y-15470579D01*
X11415491Y-15470579D02*
X11425015Y-15451531D01*
X11425015Y-15451531D02*
X11434539Y-15442008D01*
X11434539Y-15442008D02*
X11453586Y-15432484D01*
X11644062Y-15432484D02*
X11663110Y-15432484D01*
X11663110Y-15432484D02*
X11682158Y-15442008D01*
X11682158Y-15442008D02*
X11691682Y-15451531D01*
X11691682Y-15451531D02*
X11701205Y-15470579D01*
X11701205Y-15470579D02*
X11710729Y-15508674D01*
X11710729Y-15508674D02*
X11710729Y-15556293D01*
X11710729Y-15556293D02*
X11701205Y-15594388D01*
X11701205Y-15594388D02*
X11691682Y-15613436D01*
X11691682Y-15613436D02*
X11682158Y-15622960D01*
X11682158Y-15622960D02*
X11663110Y-15632484D01*
X11663110Y-15632484D02*
X11644062Y-15632484D01*
X11644062Y-15632484D02*
X11625015Y-15622960D01*
X11625015Y-15622960D02*
X11615491Y-15613436D01*
X11615491Y-15613436D02*
X11605967Y-15594388D01*
X11605967Y-15594388D02*
X11596443Y-15556293D01*
X11596443Y-15556293D02*
X11596443Y-15508674D01*
X11596443Y-15508674D02*
X11605967Y-15470579D01*
X11605967Y-15470579D02*
X11615491Y-15451531D01*
X11615491Y-15451531D02*
X11625015Y-15442008D01*
X11625015Y-15442008D02*
X11644062Y-15432484D01*
X11834539Y-15432484D02*
X11853586Y-15432484D01*
X11853586Y-15432484D02*
X11872634Y-15442008D01*
X11872634Y-15442008D02*
X11882158Y-15451531D01*
X11882158Y-15451531D02*
X11891682Y-15470579D01*
X11891682Y-15470579D02*
X11901205Y-15508674D01*
X11901205Y-15508674D02*
X11901205Y-15556293D01*
X11901205Y-15556293D02*
X11891682Y-15594388D01*
X11891682Y-15594388D02*
X11882158Y-15613436D01*
X11882158Y-15613436D02*
X11872634Y-15622960D01*
X11872634Y-15622960D02*
X11853586Y-15632484D01*
X11853586Y-15632484D02*
X11834539Y-15632484D01*
X11834539Y-15632484D02*
X11815491Y-15622960D01*
X11815491Y-15622960D02*
X11805967Y-15613436D01*
X11805967Y-15613436D02*
X11796443Y-15594388D01*
X11796443Y-15594388D02*
X11786920Y-15556293D01*
X11786920Y-15556293D02*
X11786920Y-15508674D01*
X11786920Y-15508674D02*
X11796443Y-15470579D01*
X11796443Y-15470579D02*
X11805967Y-15451531D01*
X11805967Y-15451531D02*
X11815491Y-15442008D01*
X11815491Y-15442008D02*
X11834539Y-15432484D01*
X11986920Y-15632484D02*
X11986920Y-15499150D01*
X11986920Y-15518198D02*
X11996443Y-15508674D01*
X11996443Y-15508674D02*
X12015491Y-15499150D01*
X12015491Y-15499150D02*
X12044063Y-15499150D01*
X12044063Y-15499150D02*
X12063110Y-15508674D01*
X12063110Y-15508674D02*
X12072634Y-15527722D01*
X12072634Y-15527722D02*
X12072634Y-15632484D01*
X12072634Y-15527722D02*
X12082158Y-15508674D01*
X12082158Y-15508674D02*
X12101205Y-15499150D01*
X12101205Y-15499150D02*
X12129777Y-15499150D01*
X12129777Y-15499150D02*
X12148824Y-15508674D01*
X12148824Y-15508674D02*
X12158348Y-15527722D01*
X12158348Y-15527722D02*
X12158348Y-15632484D01*
X12253586Y-15632484D02*
X12253586Y-15499150D01*
X12253586Y-15518198D02*
X12263110Y-15508674D01*
X12263110Y-15508674D02*
X12282158Y-15499150D01*
X12282158Y-15499150D02*
X12310729Y-15499150D01*
X12310729Y-15499150D02*
X12329777Y-15508674D01*
X12329777Y-15508674D02*
X12339301Y-15527722D01*
X12339301Y-15527722D02*
X12339301Y-15632484D01*
X12339301Y-15527722D02*
X12348824Y-15508674D01*
X12348824Y-15508674D02*
X12367872Y-15499150D01*
X12367872Y-15499150D02*
X12396443Y-15499150D01*
X12396443Y-15499150D02*
X12415491Y-15508674D01*
X12415491Y-15508674D02*
X12425015Y-15527722D01*
X12425015Y-15527722D02*
X12425015Y-15632484D01*
X12815491Y-15422960D02*
X12644063Y-15680103D01*
X13072634Y-15432484D02*
X13091682Y-15432484D01*
X13091682Y-15432484D02*
X13110729Y-15442008D01*
X13110729Y-15442008D02*
X13120253Y-15451531D01*
X13120253Y-15451531D02*
X13129777Y-15470579D01*
X13129777Y-15470579D02*
X13139301Y-15508674D01*
X13139301Y-15508674D02*
X13139301Y-15556293D01*
X13139301Y-15556293D02*
X13129777Y-15594388D01*
X13129777Y-15594388D02*
X13120253Y-15613436D01*
X13120253Y-15613436D02*
X13110729Y-15622960D01*
X13110729Y-15622960D02*
X13091682Y-15632484D01*
X13091682Y-15632484D02*
X13072634Y-15632484D01*
X13072634Y-15632484D02*
X13053586Y-15622960D01*
X13053586Y-15622960D02*
X13044063Y-15613436D01*
X13044063Y-15613436D02*
X13034539Y-15594388D01*
X13034539Y-15594388D02*
X13025015Y-15556293D01*
X13025015Y-15556293D02*
X13025015Y-15508674D01*
X13025015Y-15508674D02*
X13034539Y-15470579D01*
X13034539Y-15470579D02*
X13044063Y-15451531D01*
X13044063Y-15451531D02*
X13053586Y-15442008D01*
X13053586Y-15442008D02*
X13072634Y-15432484D01*
X13225015Y-15613436D02*
X13234539Y-15622960D01*
X13234539Y-15622960D02*
X13225015Y-15632484D01*
X13225015Y-15632484D02*
X13215491Y-15622960D01*
X13215491Y-15622960D02*
X13225015Y-15613436D01*
X13225015Y-15613436D02*
X13225015Y-15632484D01*
X13358348Y-15432484D02*
X13377396Y-15432484D01*
X13377396Y-15432484D02*
X13396444Y-15442008D01*
X13396444Y-15442008D02*
X13405967Y-15451531D01*
X13405967Y-15451531D02*
X13415491Y-15470579D01*
X13415491Y-15470579D02*
X13425015Y-15508674D01*
X13425015Y-15508674D02*
X13425015Y-15556293D01*
X13425015Y-15556293D02*
X13415491Y-15594388D01*
X13415491Y-15594388D02*
X13405967Y-15613436D01*
X13405967Y-15613436D02*
X13396444Y-15622960D01*
X13396444Y-15622960D02*
X13377396Y-15632484D01*
X13377396Y-15632484D02*
X13358348Y-15632484D01*
X13358348Y-15632484D02*
X13339301Y-15622960D01*
X13339301Y-15622960D02*
X13329777Y-15613436D01*
X13329777Y-15613436D02*
X13320253Y-15594388D01*
X13320253Y-15594388D02*
X13310729Y-15556293D01*
X13310729Y-15556293D02*
X13310729Y-15508674D01*
X13310729Y-15508674D02*
X13320253Y-15470579D01*
X13320253Y-15470579D02*
X13329777Y-15451531D01*
X13329777Y-15451531D02*
X13339301Y-15442008D01*
X13339301Y-15442008D02*
X13358348Y-15432484D01*
X13491682Y-15432484D02*
X13615491Y-15432484D01*
X13615491Y-15432484D02*
X13548825Y-15508674D01*
X13548825Y-15508674D02*
X13577396Y-15508674D01*
X13577396Y-15508674D02*
X13596444Y-15518198D01*
X13596444Y-15518198D02*
X13605967Y-15527722D01*
X13605967Y-15527722D02*
X13615491Y-15546769D01*
X13615491Y-15546769D02*
X13615491Y-15594388D01*
X13615491Y-15594388D02*
X13605967Y-15613436D01*
X13605967Y-15613436D02*
X13596444Y-15622960D01*
X13596444Y-15622960D02*
X13577396Y-15632484D01*
X13577396Y-15632484D02*
X13520253Y-15632484D01*
X13520253Y-15632484D02*
X13501206Y-15622960D01*
X13501206Y-15622960D02*
X13491682Y-15613436D01*
X13710729Y-15632484D02*
X13748825Y-15632484D01*
X13748825Y-15632484D02*
X13767872Y-15622960D01*
X13767872Y-15622960D02*
X13777396Y-15613436D01*
X13777396Y-15613436D02*
X13796444Y-15584865D01*
X13796444Y-15584865D02*
X13805967Y-15546769D01*
X13805967Y-15546769D02*
X13805967Y-15470579D01*
X13805967Y-15470579D02*
X13796444Y-15451531D01*
X13796444Y-15451531D02*
X13786920Y-15442008D01*
X13786920Y-15442008D02*
X13767872Y-15432484D01*
X13767872Y-15432484D02*
X13729777Y-15432484D01*
X13729777Y-15432484D02*
X13710729Y-15442008D01*
X13710729Y-15442008D02*
X13701206Y-15451531D01*
X13701206Y-15451531D02*
X13691682Y-15470579D01*
X13691682Y-15470579D02*
X13691682Y-15518198D01*
X13691682Y-15518198D02*
X13701206Y-15537246D01*
X13701206Y-15537246D02*
X13710729Y-15546769D01*
X13710729Y-15546769D02*
X13729777Y-15556293D01*
X13729777Y-15556293D02*
X13767872Y-15556293D01*
X13767872Y-15556293D02*
X13786920Y-15546769D01*
X13786920Y-15546769D02*
X13796444Y-15537246D01*
X13796444Y-15537246D02*
X13805967Y-15518198D01*
X13977396Y-15499150D02*
X13977396Y-15632484D01*
X13929777Y-15422960D02*
X13882158Y-15565817D01*
X13882158Y-15565817D02*
X14005967Y-15565817D01*
X14072634Y-15432484D02*
X14072634Y-15470579D01*
X14148825Y-15432484D02*
X14148825Y-15470579D01*
X14444063Y-15708674D02*
X14434539Y-15699150D01*
X14434539Y-15699150D02*
X14415491Y-15670579D01*
X14415491Y-15670579D02*
X14405968Y-15651531D01*
X14405968Y-15651531D02*
X14396444Y-15622960D01*
X14396444Y-15622960D02*
X14386920Y-15575341D01*
X14386920Y-15575341D02*
X14386920Y-15537246D01*
X14386920Y-15537246D02*
X14396444Y-15489627D01*
X14396444Y-15489627D02*
X14405968Y-15461055D01*
X14405968Y-15461055D02*
X14415491Y-15442008D01*
X14415491Y-15442008D02*
X14434539Y-15413436D01*
X14434539Y-15413436D02*
X14444063Y-15403912D01*
X14605968Y-15499150D02*
X14605968Y-15632484D01*
X14558348Y-15422960D02*
X14510729Y-15565817D01*
X14510729Y-15565817D02*
X14634539Y-15565817D01*
X14701206Y-15451531D02*
X14710729Y-15442008D01*
X14710729Y-15442008D02*
X14729777Y-15432484D01*
X14729777Y-15432484D02*
X14777396Y-15432484D01*
X14777396Y-15432484D02*
X14796444Y-15442008D01*
X14796444Y-15442008D02*
X14805968Y-15451531D01*
X14805968Y-15451531D02*
X14815491Y-15470579D01*
X14815491Y-15470579D02*
X14815491Y-15489627D01*
X14815491Y-15489627D02*
X14805968Y-15518198D01*
X14805968Y-15518198D02*
X14691682Y-15632484D01*
X14691682Y-15632484D02*
X14815491Y-15632484D01*
X15053587Y-15632484D02*
X15053587Y-15432484D01*
X15139301Y-15632484D02*
X15139301Y-15527722D01*
X15139301Y-15527722D02*
X15129777Y-15508674D01*
X15129777Y-15508674D02*
X15110730Y-15499150D01*
X15110730Y-15499150D02*
X15082158Y-15499150D01*
X15082158Y-15499150D02*
X15063110Y-15508674D01*
X15063110Y-15508674D02*
X15053587Y-15518198D01*
X15263110Y-15632484D02*
X15244063Y-15622960D01*
X15244063Y-15622960D02*
X15234539Y-15613436D01*
X15234539Y-15613436D02*
X15225015Y-15594388D01*
X15225015Y-15594388D02*
X15225015Y-15537246D01*
X15225015Y-15537246D02*
X15234539Y-15518198D01*
X15234539Y-15518198D02*
X15244063Y-15508674D01*
X15244063Y-15508674D02*
X15263110Y-15499150D01*
X15263110Y-15499150D02*
X15291682Y-15499150D01*
X15291682Y-15499150D02*
X15310730Y-15508674D01*
X15310730Y-15508674D02*
X15320253Y-15518198D01*
X15320253Y-15518198D02*
X15329777Y-15537246D01*
X15329777Y-15537246D02*
X15329777Y-15594388D01*
X15329777Y-15594388D02*
X15320253Y-15613436D01*
X15320253Y-15613436D02*
X15310730Y-15622960D01*
X15310730Y-15622960D02*
X15291682Y-15632484D01*
X15291682Y-15632484D02*
X15263110Y-15632484D01*
X15444063Y-15632484D02*
X15425015Y-15622960D01*
X15425015Y-15622960D02*
X15415491Y-15603912D01*
X15415491Y-15603912D02*
X15415491Y-15432484D01*
X15596444Y-15622960D02*
X15577396Y-15632484D01*
X15577396Y-15632484D02*
X15539301Y-15632484D01*
X15539301Y-15632484D02*
X15520253Y-15622960D01*
X15520253Y-15622960D02*
X15510730Y-15603912D01*
X15510730Y-15603912D02*
X15510730Y-15527722D01*
X15510730Y-15527722D02*
X15520253Y-15508674D01*
X15520253Y-15508674D02*
X15539301Y-15499150D01*
X15539301Y-15499150D02*
X15577396Y-15499150D01*
X15577396Y-15499150D02*
X15596444Y-15508674D01*
X15596444Y-15508674D02*
X15605968Y-15527722D01*
X15605968Y-15527722D02*
X15605968Y-15546769D01*
X15605968Y-15546769D02*
X15510730Y-15565817D01*
X15682158Y-15622960D02*
X15701206Y-15632484D01*
X15701206Y-15632484D02*
X15739301Y-15632484D01*
X15739301Y-15632484D02*
X15758349Y-15622960D01*
X15758349Y-15622960D02*
X15767872Y-15603912D01*
X15767872Y-15603912D02*
X15767872Y-15594388D01*
X15767872Y-15594388D02*
X15758349Y-15575341D01*
X15758349Y-15575341D02*
X15739301Y-15565817D01*
X15739301Y-15565817D02*
X15710730Y-15565817D01*
X15710730Y-15565817D02*
X15691682Y-15556293D01*
X15691682Y-15556293D02*
X15682158Y-15537246D01*
X15682158Y-15537246D02*
X15682158Y-15527722D01*
X15682158Y-15527722D02*
X15691682Y-15508674D01*
X15691682Y-15508674D02*
X15710730Y-15499150D01*
X15710730Y-15499150D02*
X15739301Y-15499150D01*
X15739301Y-15499150D02*
X15758349Y-15508674D01*
X15834539Y-15708674D02*
X15844063Y-15699150D01*
X15844063Y-15699150D02*
X15863111Y-15670579D01*
X15863111Y-15670579D02*
X15872634Y-15651531D01*
X15872634Y-15651531D02*
X15882158Y-15622960D01*
X15882158Y-15622960D02*
X15891682Y-15575341D01*
X15891682Y-15575341D02*
X15891682Y-15537246D01*
X15891682Y-15537246D02*
X15882158Y-15489627D01*
X15882158Y-15489627D02*
X15872634Y-15461055D01*
X15872634Y-15461055D02*
X15863111Y-15442008D01*
X15863111Y-15442008D02*
X15844063Y-15413436D01*
X15844063Y-15413436D02*
X15834539Y-15403912D01*
M02*
