%TF.GenerationSoftware,KiCad,Pcbnew,8.0.1*%
%TF.CreationDate,2024-06-10T20:52:02+02:00*%
%TF.ProjectId,PCB_Plaque_Haute,5043425f-506c-4617-9175-655f48617574,C.Roche*%
%TF.SameCoordinates,Original*%
%TF.FileFunction,Drillmap*%
%TF.FilePolarity,Positive*%
%FSLAX45Y45*%
G04 Gerber Fmt 4.5, Leading zero omitted, Abs format (unit mm)*
G04 Created by KiCad (PCBNEW 8.0.1) date 2024-06-10 20:52:02*
%MOMM*%
%LPD*%
G01*
G04 APERTURE LIST*
%ADD10C,0.050000*%
%ADD11C,0.100000*%
%ADD12C,0.200000*%
G04 APERTURE END LIST*
D10*
X20274000Y-9932000D02*
G75*
G02*
X10874000Y-9932000I-4700000J0D01*
G01*
X10874000Y-9932000D02*
G75*
G02*
X20274000Y-9932000I4700000J0D01*
G01*
D11*
X12550000Y-7200000D02*
G75*
G02*
X11950000Y-7200000I-300000J0D01*
G01*
X11950000Y-7200000D02*
G75*
G02*
X12550000Y-7200000I300000J0D01*
G01*
X15874000Y-14232000D02*
G75*
G02*
X15274000Y-14232000I-300000J0D01*
G01*
X15274000Y-14232000D02*
G75*
G02*
X15874000Y-14232000I300000J0D01*
G01*
X19200000Y-7200000D02*
G75*
G02*
X18600000Y-7200000I-300000J0D01*
G01*
X18600000Y-7200000D02*
G75*
G02*
X19200000Y-7200000I300000J0D01*
G01*
D12*
X11132277Y-14945984D02*
X11132277Y-14745984D01*
X11132277Y-14745984D02*
X11179896Y-14745984D01*
X11179896Y-14745984D02*
X11208467Y-14755508D01*
X11208467Y-14755508D02*
X11227515Y-14774555D01*
X11227515Y-14774555D02*
X11237039Y-14793603D01*
X11237039Y-14793603D02*
X11246562Y-14831698D01*
X11246562Y-14831698D02*
X11246562Y-14860269D01*
X11246562Y-14860269D02*
X11237039Y-14898365D01*
X11237039Y-14898365D02*
X11227515Y-14917412D01*
X11227515Y-14917412D02*
X11208467Y-14936460D01*
X11208467Y-14936460D02*
X11179896Y-14945984D01*
X11179896Y-14945984D02*
X11132277Y-14945984D01*
X11332277Y-14945984D02*
X11332277Y-14812650D01*
X11332277Y-14850746D02*
X11341801Y-14831698D01*
X11341801Y-14831698D02*
X11351324Y-14822174D01*
X11351324Y-14822174D02*
X11370372Y-14812650D01*
X11370372Y-14812650D02*
X11389420Y-14812650D01*
X11456086Y-14945984D02*
X11456086Y-14812650D01*
X11456086Y-14745984D02*
X11446562Y-14755508D01*
X11446562Y-14755508D02*
X11456086Y-14765031D01*
X11456086Y-14765031D02*
X11465610Y-14755508D01*
X11465610Y-14755508D02*
X11456086Y-14745984D01*
X11456086Y-14745984D02*
X11456086Y-14765031D01*
X11579896Y-14945984D02*
X11560848Y-14936460D01*
X11560848Y-14936460D02*
X11551324Y-14917412D01*
X11551324Y-14917412D02*
X11551324Y-14745984D01*
X11684658Y-14945984D02*
X11665610Y-14936460D01*
X11665610Y-14936460D02*
X11656086Y-14917412D01*
X11656086Y-14917412D02*
X11656086Y-14745984D01*
X11913229Y-14945984D02*
X11913229Y-14745984D01*
X11913229Y-14745984D02*
X11979896Y-14888841D01*
X11979896Y-14888841D02*
X12046562Y-14745984D01*
X12046562Y-14745984D02*
X12046562Y-14945984D01*
X12227515Y-14945984D02*
X12227515Y-14841222D01*
X12227515Y-14841222D02*
X12217991Y-14822174D01*
X12217991Y-14822174D02*
X12198943Y-14812650D01*
X12198943Y-14812650D02*
X12160848Y-14812650D01*
X12160848Y-14812650D02*
X12141801Y-14822174D01*
X12227515Y-14936460D02*
X12208467Y-14945984D01*
X12208467Y-14945984D02*
X12160848Y-14945984D01*
X12160848Y-14945984D02*
X12141801Y-14936460D01*
X12141801Y-14936460D02*
X12132277Y-14917412D01*
X12132277Y-14917412D02*
X12132277Y-14898365D01*
X12132277Y-14898365D02*
X12141801Y-14879317D01*
X12141801Y-14879317D02*
X12160848Y-14869793D01*
X12160848Y-14869793D02*
X12208467Y-14869793D01*
X12208467Y-14869793D02*
X12227515Y-14860269D01*
X12322753Y-14812650D02*
X12322753Y-15012650D01*
X12322753Y-14822174D02*
X12341801Y-14812650D01*
X12341801Y-14812650D02*
X12379896Y-14812650D01*
X12379896Y-14812650D02*
X12398943Y-14822174D01*
X12398943Y-14822174D02*
X12408467Y-14831698D01*
X12408467Y-14831698D02*
X12417991Y-14850746D01*
X12417991Y-14850746D02*
X12417991Y-14907888D01*
X12417991Y-14907888D02*
X12408467Y-14926936D01*
X12408467Y-14926936D02*
X12398943Y-14936460D01*
X12398943Y-14936460D02*
X12379896Y-14945984D01*
X12379896Y-14945984D02*
X12341801Y-14945984D01*
X12341801Y-14945984D02*
X12322753Y-14936460D01*
X12503705Y-14926936D02*
X12513229Y-14936460D01*
X12513229Y-14936460D02*
X12503705Y-14945984D01*
X12503705Y-14945984D02*
X12494182Y-14936460D01*
X12494182Y-14936460D02*
X12503705Y-14926936D01*
X12503705Y-14926936D02*
X12503705Y-14945984D01*
X12503705Y-14822174D02*
X12513229Y-14831698D01*
X12513229Y-14831698D02*
X12503705Y-14841222D01*
X12503705Y-14841222D02*
X12494182Y-14831698D01*
X12494182Y-14831698D02*
X12503705Y-14822174D01*
X12503705Y-14822174D02*
X12503705Y-14841222D01*
M02*
