%TF.GenerationSoftware,KiCad,Pcbnew,8.0.1*%
%TF.CreationDate,2024-06-07T18:57:59+02:00*%
%TF.ProjectId,PCB_Plaque_Haute,5043425f-506c-4617-9175-655f48617574,C.Roche*%
%TF.SameCoordinates,Original*%
%TF.FileFunction,Legend,Top*%
%TF.FilePolarity,Positive*%
%FSLAX46Y46*%
G04 Gerber Fmt 4.6, Leading zero omitted, Abs format (unit mm)*
G04 Created by KiCad (PCBNEW 8.0.1) date 2024-06-07 18:57:59*
%MOMM*%
%LPD*%
G01*
G04 APERTURE LIST*
%ADD10C,0.050000*%
%ADD11C,0.100000*%
%ADD12C,0.125000*%
%ADD13C,0.150000*%
%ADD14C,0.120000*%
G04 APERTURE END LIST*
D10*
X134500000Y-60750000D02*
X167500000Y-60750000D01*
X167500000Y-138250000D01*
X134500000Y-138250000D01*
X134500000Y-60750000D01*
D11*
X114790752Y-91338972D02*
X114790752Y-91100877D01*
X114933609Y-91386591D02*
X114433609Y-91219925D01*
X114433609Y-91219925D02*
X114933609Y-91053258D01*
X114600276Y-90672306D02*
X114933609Y-90672306D01*
X114409800Y-90791354D02*
X114766942Y-90910401D01*
X114766942Y-90910401D02*
X114766942Y-90600878D01*
X114790752Y-90053259D02*
X114790752Y-89815164D01*
X114933609Y-90100878D02*
X114433609Y-89934212D01*
X114433609Y-89934212D02*
X114933609Y-89767545D01*
X114433609Y-89362784D02*
X114433609Y-89600879D01*
X114433609Y-89600879D02*
X114671704Y-89624688D01*
X114671704Y-89624688D02*
X114647895Y-89600879D01*
X114647895Y-89600879D02*
X114624085Y-89553260D01*
X114624085Y-89553260D02*
X114624085Y-89434212D01*
X114624085Y-89434212D02*
X114647895Y-89386593D01*
X114647895Y-89386593D02*
X114671704Y-89362784D01*
X114671704Y-89362784D02*
X114719323Y-89338974D01*
X114719323Y-89338974D02*
X114838371Y-89338974D01*
X114838371Y-89338974D02*
X114885990Y-89362784D01*
X114885990Y-89362784D02*
X114909800Y-89386593D01*
X114909800Y-89386593D02*
X114933609Y-89434212D01*
X114933609Y-89434212D02*
X114933609Y-89553260D01*
X114933609Y-89553260D02*
X114909800Y-89600879D01*
X114909800Y-89600879D02*
X114885990Y-89624688D01*
X114433609Y-88815165D02*
X114933609Y-88648499D01*
X114933609Y-88648499D02*
X114433609Y-88481832D01*
X114933609Y-88315166D02*
X114600276Y-88315166D01*
X114433609Y-88315166D02*
X114457419Y-88338975D01*
X114457419Y-88338975D02*
X114481228Y-88315166D01*
X114481228Y-88315166D02*
X114457419Y-88291356D01*
X114457419Y-88291356D02*
X114433609Y-88315166D01*
X114433609Y-88315166D02*
X114481228Y-88315166D01*
X114600276Y-88077071D02*
X114933609Y-88077071D01*
X114647895Y-88077071D02*
X114624085Y-88053261D01*
X114624085Y-88053261D02*
X114600276Y-88005642D01*
X114600276Y-88005642D02*
X114600276Y-87934214D01*
X114600276Y-87934214D02*
X114624085Y-87886595D01*
X114624085Y-87886595D02*
X114671704Y-87862785D01*
X114671704Y-87862785D02*
X114933609Y-87862785D01*
X114457419Y-86981833D02*
X114433609Y-87029452D01*
X114433609Y-87029452D02*
X114433609Y-87100881D01*
X114433609Y-87100881D02*
X114457419Y-87172309D01*
X114457419Y-87172309D02*
X114505038Y-87219928D01*
X114505038Y-87219928D02*
X114552657Y-87243738D01*
X114552657Y-87243738D02*
X114647895Y-87267547D01*
X114647895Y-87267547D02*
X114719323Y-87267547D01*
X114719323Y-87267547D02*
X114814561Y-87243738D01*
X114814561Y-87243738D02*
X114862180Y-87219928D01*
X114862180Y-87219928D02*
X114909800Y-87172309D01*
X114909800Y-87172309D02*
X114933609Y-87100881D01*
X114933609Y-87100881D02*
X114933609Y-87053262D01*
X114933609Y-87053262D02*
X114909800Y-86981833D01*
X114909800Y-86981833D02*
X114885990Y-86958024D01*
X114885990Y-86958024D02*
X114719323Y-86958024D01*
X114719323Y-86958024D02*
X114719323Y-87053262D01*
X114933609Y-86743738D02*
X114433609Y-86743738D01*
X114433609Y-86743738D02*
X114933609Y-86458024D01*
X114933609Y-86458024D02*
X114433609Y-86458024D01*
X114933609Y-86219928D02*
X114433609Y-86219928D01*
X114433609Y-86219928D02*
X114433609Y-86100880D01*
X114433609Y-86100880D02*
X114457419Y-86029452D01*
X114457419Y-86029452D02*
X114505038Y-85981833D01*
X114505038Y-85981833D02*
X114552657Y-85958023D01*
X114552657Y-85958023D02*
X114647895Y-85934214D01*
X114647895Y-85934214D02*
X114719323Y-85934214D01*
X114719323Y-85934214D02*
X114814561Y-85958023D01*
X114814561Y-85958023D02*
X114862180Y-85981833D01*
X114862180Y-85981833D02*
X114909800Y-86029452D01*
X114909800Y-86029452D02*
X114933609Y-86100880D01*
X114933609Y-86100880D02*
X114933609Y-86219928D01*
X114433609Y-85100881D02*
X114433609Y-85338976D01*
X114433609Y-85338976D02*
X114671704Y-85362785D01*
X114671704Y-85362785D02*
X114647895Y-85338976D01*
X114647895Y-85338976D02*
X114624085Y-85291357D01*
X114624085Y-85291357D02*
X114624085Y-85172309D01*
X114624085Y-85172309D02*
X114647895Y-85124690D01*
X114647895Y-85124690D02*
X114671704Y-85100881D01*
X114671704Y-85100881D02*
X114719323Y-85077071D01*
X114719323Y-85077071D02*
X114838371Y-85077071D01*
X114838371Y-85077071D02*
X114885990Y-85100881D01*
X114885990Y-85100881D02*
X114909800Y-85124690D01*
X114909800Y-85124690D02*
X114933609Y-85172309D01*
X114933609Y-85172309D02*
X114933609Y-85291357D01*
X114933609Y-85291357D02*
X114909800Y-85338976D01*
X114909800Y-85338976D02*
X114885990Y-85362785D01*
X114433609Y-84934214D02*
X114933609Y-84767548D01*
X114933609Y-84767548D02*
X114433609Y-84600881D01*
D12*
X179177474Y-78408500D02*
X179248902Y-78432309D01*
X179248902Y-78432309D02*
X179367950Y-78432309D01*
X179367950Y-78432309D02*
X179415569Y-78408500D01*
X179415569Y-78408500D02*
X179439378Y-78384690D01*
X179439378Y-78384690D02*
X179463188Y-78337071D01*
X179463188Y-78337071D02*
X179463188Y-78289452D01*
X179463188Y-78289452D02*
X179439378Y-78241833D01*
X179439378Y-78241833D02*
X179415569Y-78218023D01*
X179415569Y-78218023D02*
X179367950Y-78194214D01*
X179367950Y-78194214D02*
X179272712Y-78170404D01*
X179272712Y-78170404D02*
X179225093Y-78146595D01*
X179225093Y-78146595D02*
X179201283Y-78122785D01*
X179201283Y-78122785D02*
X179177474Y-78075166D01*
X179177474Y-78075166D02*
X179177474Y-78027547D01*
X179177474Y-78027547D02*
X179201283Y-77979928D01*
X179201283Y-77979928D02*
X179225093Y-77956119D01*
X179225093Y-77956119D02*
X179272712Y-77932309D01*
X179272712Y-77932309D02*
X179391759Y-77932309D01*
X179391759Y-77932309D02*
X179463188Y-77956119D01*
X179629854Y-77932309D02*
X179748902Y-78432309D01*
X179748902Y-78432309D02*
X179844140Y-78075166D01*
X179844140Y-78075166D02*
X179939378Y-78432309D01*
X179939378Y-78432309D02*
X180058426Y-77932309D01*
X180225093Y-77979928D02*
X180248902Y-77956119D01*
X180248902Y-77956119D02*
X180296521Y-77932309D01*
X180296521Y-77932309D02*
X180415569Y-77932309D01*
X180415569Y-77932309D02*
X180463188Y-77956119D01*
X180463188Y-77956119D02*
X180486997Y-77979928D01*
X180486997Y-77979928D02*
X180510807Y-78027547D01*
X180510807Y-78027547D02*
X180510807Y-78075166D01*
X180510807Y-78075166D02*
X180486997Y-78146595D01*
X180486997Y-78146595D02*
X180201283Y-78432309D01*
X180201283Y-78432309D02*
X180510807Y-78432309D01*
X181082235Y-78408500D02*
X181153663Y-78432309D01*
X181153663Y-78432309D02*
X181272711Y-78432309D01*
X181272711Y-78432309D02*
X181320330Y-78408500D01*
X181320330Y-78408500D02*
X181344139Y-78384690D01*
X181344139Y-78384690D02*
X181367949Y-78337071D01*
X181367949Y-78337071D02*
X181367949Y-78289452D01*
X181367949Y-78289452D02*
X181344139Y-78241833D01*
X181344139Y-78241833D02*
X181320330Y-78218023D01*
X181320330Y-78218023D02*
X181272711Y-78194214D01*
X181272711Y-78194214D02*
X181177473Y-78170404D01*
X181177473Y-78170404D02*
X181129854Y-78146595D01*
X181129854Y-78146595D02*
X181106044Y-78122785D01*
X181106044Y-78122785D02*
X181082235Y-78075166D01*
X181082235Y-78075166D02*
X181082235Y-78027547D01*
X181082235Y-78027547D02*
X181106044Y-77979928D01*
X181106044Y-77979928D02*
X181129854Y-77956119D01*
X181129854Y-77956119D02*
X181177473Y-77932309D01*
X181177473Y-77932309D02*
X181296520Y-77932309D01*
X181296520Y-77932309D02*
X181367949Y-77956119D01*
X181534615Y-77932309D02*
X181653663Y-78432309D01*
X181653663Y-78432309D02*
X181748901Y-78075166D01*
X181748901Y-78075166D02*
X181844139Y-78432309D01*
X181844139Y-78432309D02*
X181963187Y-77932309D01*
X182415568Y-78432309D02*
X182129854Y-78432309D01*
X182272711Y-78432309D02*
X182272711Y-77932309D01*
X182272711Y-77932309D02*
X182225092Y-78003738D01*
X182225092Y-78003738D02*
X182177473Y-78051357D01*
X182177473Y-78051357D02*
X182129854Y-78075166D01*
X183153662Y-77932309D02*
X183153662Y-78289452D01*
X183153662Y-78289452D02*
X183129853Y-78360880D01*
X183129853Y-78360880D02*
X183082234Y-78408500D01*
X183082234Y-78408500D02*
X183010805Y-78432309D01*
X183010805Y-78432309D02*
X182963186Y-78432309D01*
X183606043Y-78432309D02*
X183606043Y-78170404D01*
X183606043Y-78170404D02*
X183582233Y-78122785D01*
X183582233Y-78122785D02*
X183534614Y-78098976D01*
X183534614Y-78098976D02*
X183439376Y-78098976D01*
X183439376Y-78098976D02*
X183391757Y-78122785D01*
X183606043Y-78408500D02*
X183558424Y-78432309D01*
X183558424Y-78432309D02*
X183439376Y-78432309D01*
X183439376Y-78432309D02*
X183391757Y-78408500D01*
X183391757Y-78408500D02*
X183367948Y-78360880D01*
X183367948Y-78360880D02*
X183367948Y-78313261D01*
X183367948Y-78313261D02*
X183391757Y-78265642D01*
X183391757Y-78265642D02*
X183439376Y-78241833D01*
X183439376Y-78241833D02*
X183558424Y-78241833D01*
X183558424Y-78241833D02*
X183606043Y-78218023D01*
X184058424Y-78408500D02*
X184010805Y-78432309D01*
X184010805Y-78432309D02*
X183915567Y-78432309D01*
X183915567Y-78432309D02*
X183867948Y-78408500D01*
X183867948Y-78408500D02*
X183844138Y-78384690D01*
X183844138Y-78384690D02*
X183820329Y-78337071D01*
X183820329Y-78337071D02*
X183820329Y-78194214D01*
X183820329Y-78194214D02*
X183844138Y-78146595D01*
X183844138Y-78146595D02*
X183867948Y-78122785D01*
X183867948Y-78122785D02*
X183915567Y-78098976D01*
X183915567Y-78098976D02*
X184010805Y-78098976D01*
X184010805Y-78098976D02*
X184058424Y-78122785D01*
X184272709Y-78432309D02*
X184272709Y-77932309D01*
X184320328Y-78241833D02*
X184463185Y-78432309D01*
X184463185Y-78098976D02*
X184272709Y-78289452D01*
X178463188Y-81956119D02*
X178415569Y-81932309D01*
X178415569Y-81932309D02*
X178344140Y-81932309D01*
X178344140Y-81932309D02*
X178272712Y-81956119D01*
X178272712Y-81956119D02*
X178225093Y-82003738D01*
X178225093Y-82003738D02*
X178201283Y-82051357D01*
X178201283Y-82051357D02*
X178177474Y-82146595D01*
X178177474Y-82146595D02*
X178177474Y-82218023D01*
X178177474Y-82218023D02*
X178201283Y-82313261D01*
X178201283Y-82313261D02*
X178225093Y-82360880D01*
X178225093Y-82360880D02*
X178272712Y-82408500D01*
X178272712Y-82408500D02*
X178344140Y-82432309D01*
X178344140Y-82432309D02*
X178391759Y-82432309D01*
X178391759Y-82432309D02*
X178463188Y-82408500D01*
X178463188Y-82408500D02*
X178486997Y-82384690D01*
X178486997Y-82384690D02*
X178486997Y-82218023D01*
X178486997Y-82218023D02*
X178391759Y-82218023D01*
X178701283Y-82432309D02*
X178701283Y-81932309D01*
X178701283Y-81932309D02*
X178986997Y-82432309D01*
X178986997Y-82432309D02*
X178986997Y-81932309D01*
X179225093Y-82432309D02*
X179225093Y-81932309D01*
X179225093Y-81932309D02*
X179344141Y-81932309D01*
X179344141Y-81932309D02*
X179415569Y-81956119D01*
X179415569Y-81956119D02*
X179463188Y-82003738D01*
X179463188Y-82003738D02*
X179486998Y-82051357D01*
X179486998Y-82051357D02*
X179510807Y-82146595D01*
X179510807Y-82146595D02*
X179510807Y-82218023D01*
X179510807Y-82218023D02*
X179486998Y-82313261D01*
X179486998Y-82313261D02*
X179463188Y-82360880D01*
X179463188Y-82360880D02*
X179415569Y-82408500D01*
X179415569Y-82408500D02*
X179344141Y-82432309D01*
X179344141Y-82432309D02*
X179225093Y-82432309D01*
X180106045Y-82432309D02*
X180106045Y-81932309D01*
X180106045Y-81932309D02*
X180225093Y-81932309D01*
X180225093Y-81932309D02*
X180296521Y-81956119D01*
X180296521Y-81956119D02*
X180344140Y-82003738D01*
X180344140Y-82003738D02*
X180367950Y-82051357D01*
X180367950Y-82051357D02*
X180391759Y-82146595D01*
X180391759Y-82146595D02*
X180391759Y-82218023D01*
X180391759Y-82218023D02*
X180367950Y-82313261D01*
X180367950Y-82313261D02*
X180344140Y-82360880D01*
X180344140Y-82360880D02*
X180296521Y-82408500D01*
X180296521Y-82408500D02*
X180225093Y-82432309D01*
X180225093Y-82432309D02*
X180106045Y-82432309D01*
X180582236Y-81979928D02*
X180606045Y-81956119D01*
X180606045Y-81956119D02*
X180653664Y-81932309D01*
X180653664Y-81932309D02*
X180772712Y-81932309D01*
X180772712Y-81932309D02*
X180820331Y-81956119D01*
X180820331Y-81956119D02*
X180844140Y-81979928D01*
X180844140Y-81979928D02*
X180867950Y-82027547D01*
X180867950Y-82027547D02*
X180867950Y-82075166D01*
X180867950Y-82075166D02*
X180844140Y-82146595D01*
X180844140Y-82146595D02*
X180558426Y-82432309D01*
X180558426Y-82432309D02*
X180867950Y-82432309D01*
X181463187Y-82432309D02*
X181463187Y-81932309D01*
X181463187Y-81932309D02*
X181582235Y-81932309D01*
X181582235Y-81932309D02*
X181653663Y-81956119D01*
X181653663Y-81956119D02*
X181701282Y-82003738D01*
X181701282Y-82003738D02*
X181725092Y-82051357D01*
X181725092Y-82051357D02*
X181748901Y-82146595D01*
X181748901Y-82146595D02*
X181748901Y-82218023D01*
X181748901Y-82218023D02*
X181725092Y-82313261D01*
X181725092Y-82313261D02*
X181701282Y-82360880D01*
X181701282Y-82360880D02*
X181653663Y-82408500D01*
X181653663Y-82408500D02*
X181582235Y-82432309D01*
X181582235Y-82432309D02*
X181463187Y-82432309D01*
X181915568Y-81932309D02*
X182225092Y-81932309D01*
X182225092Y-81932309D02*
X182058425Y-82122785D01*
X182058425Y-82122785D02*
X182129854Y-82122785D01*
X182129854Y-82122785D02*
X182177473Y-82146595D01*
X182177473Y-82146595D02*
X182201282Y-82170404D01*
X182201282Y-82170404D02*
X182225092Y-82218023D01*
X182225092Y-82218023D02*
X182225092Y-82337071D01*
X182225092Y-82337071D02*
X182201282Y-82384690D01*
X182201282Y-82384690D02*
X182177473Y-82408500D01*
X182177473Y-82408500D02*
X182129854Y-82432309D01*
X182129854Y-82432309D02*
X181986997Y-82432309D01*
X181986997Y-82432309D02*
X181939378Y-82408500D01*
X181939378Y-82408500D02*
X181915568Y-82384690D01*
X182820329Y-82432309D02*
X182820329Y-81932309D01*
X182820329Y-81932309D02*
X182939377Y-81932309D01*
X182939377Y-81932309D02*
X183010805Y-81956119D01*
X183010805Y-81956119D02*
X183058424Y-82003738D01*
X183058424Y-82003738D02*
X183082234Y-82051357D01*
X183082234Y-82051357D02*
X183106043Y-82146595D01*
X183106043Y-82146595D02*
X183106043Y-82218023D01*
X183106043Y-82218023D02*
X183082234Y-82313261D01*
X183082234Y-82313261D02*
X183058424Y-82360880D01*
X183058424Y-82360880D02*
X183010805Y-82408500D01*
X183010805Y-82408500D02*
X182939377Y-82432309D01*
X182939377Y-82432309D02*
X182820329Y-82432309D01*
X183534615Y-82098976D02*
X183534615Y-82432309D01*
X183415567Y-81908500D02*
X183296520Y-82265642D01*
X183296520Y-82265642D02*
X183606043Y-82265642D01*
X184177471Y-82432309D02*
X184177471Y-81932309D01*
X184177471Y-81932309D02*
X184296519Y-81932309D01*
X184296519Y-81932309D02*
X184367947Y-81956119D01*
X184367947Y-81956119D02*
X184415566Y-82003738D01*
X184415566Y-82003738D02*
X184439376Y-82051357D01*
X184439376Y-82051357D02*
X184463185Y-82146595D01*
X184463185Y-82146595D02*
X184463185Y-82218023D01*
X184463185Y-82218023D02*
X184439376Y-82313261D01*
X184439376Y-82313261D02*
X184415566Y-82360880D01*
X184415566Y-82360880D02*
X184367947Y-82408500D01*
X184367947Y-82408500D02*
X184296519Y-82432309D01*
X184296519Y-82432309D02*
X184177471Y-82432309D01*
X184891757Y-81932309D02*
X184796519Y-81932309D01*
X184796519Y-81932309D02*
X184748900Y-81956119D01*
X184748900Y-81956119D02*
X184725090Y-81979928D01*
X184725090Y-81979928D02*
X184677471Y-82051357D01*
X184677471Y-82051357D02*
X184653662Y-82146595D01*
X184653662Y-82146595D02*
X184653662Y-82337071D01*
X184653662Y-82337071D02*
X184677471Y-82384690D01*
X184677471Y-82384690D02*
X184701281Y-82408500D01*
X184701281Y-82408500D02*
X184748900Y-82432309D01*
X184748900Y-82432309D02*
X184844138Y-82432309D01*
X184844138Y-82432309D02*
X184891757Y-82408500D01*
X184891757Y-82408500D02*
X184915566Y-82384690D01*
X184915566Y-82384690D02*
X184939376Y-82337071D01*
X184939376Y-82337071D02*
X184939376Y-82218023D01*
X184939376Y-82218023D02*
X184915566Y-82170404D01*
X184915566Y-82170404D02*
X184891757Y-82146595D01*
X184891757Y-82146595D02*
X184844138Y-82122785D01*
X184844138Y-82122785D02*
X184748900Y-82122785D01*
X184748900Y-82122785D02*
X184701281Y-82146595D01*
X184701281Y-82146595D02*
X184677471Y-82170404D01*
X184677471Y-82170404D02*
X184653662Y-82218023D01*
X185534613Y-82432309D02*
X185534613Y-81932309D01*
X185534613Y-81932309D02*
X185653661Y-81932309D01*
X185653661Y-81932309D02*
X185725089Y-81956119D01*
X185725089Y-81956119D02*
X185772708Y-82003738D01*
X185772708Y-82003738D02*
X185796518Y-82051357D01*
X185796518Y-82051357D02*
X185820327Y-82146595D01*
X185820327Y-82146595D02*
X185820327Y-82218023D01*
X185820327Y-82218023D02*
X185796518Y-82313261D01*
X185796518Y-82313261D02*
X185772708Y-82360880D01*
X185772708Y-82360880D02*
X185725089Y-82408500D01*
X185725089Y-82408500D02*
X185653661Y-82432309D01*
X185653661Y-82432309D02*
X185534613Y-82432309D01*
X185986994Y-81932309D02*
X186320327Y-81932309D01*
X186320327Y-81932309D02*
X186106042Y-82432309D01*
D13*
X147670112Y-75346009D02*
X147812969Y-75393628D01*
X147812969Y-75393628D02*
X147860588Y-75441247D01*
X147860588Y-75441247D02*
X147908207Y-75536485D01*
X147908207Y-75536485D02*
X147908207Y-75679342D01*
X147908207Y-75679342D02*
X147860588Y-75774580D01*
X147860588Y-75774580D02*
X147812969Y-75822200D01*
X147812969Y-75822200D02*
X147717731Y-75869819D01*
X147717731Y-75869819D02*
X147336779Y-75869819D01*
X147336779Y-75869819D02*
X147336779Y-74869819D01*
X147336779Y-74869819D02*
X147670112Y-74869819D01*
X147670112Y-74869819D02*
X147765350Y-74917438D01*
X147765350Y-74917438D02*
X147812969Y-74965057D01*
X147812969Y-74965057D02*
X147860588Y-75060295D01*
X147860588Y-75060295D02*
X147860588Y-75155533D01*
X147860588Y-75155533D02*
X147812969Y-75250771D01*
X147812969Y-75250771D02*
X147765350Y-75298390D01*
X147765350Y-75298390D02*
X147670112Y-75346009D01*
X147670112Y-75346009D02*
X147336779Y-75346009D01*
X148479636Y-75869819D02*
X148384398Y-75822200D01*
X148384398Y-75822200D02*
X148336779Y-75726961D01*
X148336779Y-75726961D02*
X148336779Y-74869819D01*
X149003446Y-75869819D02*
X148908208Y-75822200D01*
X148908208Y-75822200D02*
X148860589Y-75774580D01*
X148860589Y-75774580D02*
X148812970Y-75679342D01*
X148812970Y-75679342D02*
X148812970Y-75393628D01*
X148812970Y-75393628D02*
X148860589Y-75298390D01*
X148860589Y-75298390D02*
X148908208Y-75250771D01*
X148908208Y-75250771D02*
X149003446Y-75203152D01*
X149003446Y-75203152D02*
X149146303Y-75203152D01*
X149146303Y-75203152D02*
X149241541Y-75250771D01*
X149241541Y-75250771D02*
X149289160Y-75298390D01*
X149289160Y-75298390D02*
X149336779Y-75393628D01*
X149336779Y-75393628D02*
X149336779Y-75679342D01*
X149336779Y-75679342D02*
X149289160Y-75774580D01*
X149289160Y-75774580D02*
X149241541Y-75822200D01*
X149241541Y-75822200D02*
X149146303Y-75869819D01*
X149146303Y-75869819D02*
X149003446Y-75869819D01*
X150193922Y-75822200D02*
X150098684Y-75869819D01*
X150098684Y-75869819D02*
X149908208Y-75869819D01*
X149908208Y-75869819D02*
X149812970Y-75822200D01*
X149812970Y-75822200D02*
X149765351Y-75774580D01*
X149765351Y-75774580D02*
X149717732Y-75679342D01*
X149717732Y-75679342D02*
X149717732Y-75393628D01*
X149717732Y-75393628D02*
X149765351Y-75298390D01*
X149765351Y-75298390D02*
X149812970Y-75250771D01*
X149812970Y-75250771D02*
X149908208Y-75203152D01*
X149908208Y-75203152D02*
X150098684Y-75203152D01*
X150098684Y-75203152D02*
X150193922Y-75250771D01*
X151384399Y-75203152D02*
X151384399Y-76203152D01*
X151384399Y-75250771D02*
X151479637Y-75203152D01*
X151479637Y-75203152D02*
X151670113Y-75203152D01*
X151670113Y-75203152D02*
X151765351Y-75250771D01*
X151765351Y-75250771D02*
X151812970Y-75298390D01*
X151812970Y-75298390D02*
X151860589Y-75393628D01*
X151860589Y-75393628D02*
X151860589Y-75679342D01*
X151860589Y-75679342D02*
X151812970Y-75774580D01*
X151812970Y-75774580D02*
X151765351Y-75822200D01*
X151765351Y-75822200D02*
X151670113Y-75869819D01*
X151670113Y-75869819D02*
X151479637Y-75869819D01*
X151479637Y-75869819D02*
X151384399Y-75822200D01*
X152289161Y-75869819D02*
X152289161Y-75203152D01*
X152289161Y-74869819D02*
X152241542Y-74917438D01*
X152241542Y-74917438D02*
X152289161Y-74965057D01*
X152289161Y-74965057D02*
X152336780Y-74917438D01*
X152336780Y-74917438D02*
X152289161Y-74869819D01*
X152289161Y-74869819D02*
X152289161Y-74965057D01*
X152908208Y-75869819D02*
X152812970Y-75822200D01*
X152812970Y-75822200D02*
X152765351Y-75726961D01*
X152765351Y-75726961D02*
X152765351Y-74869819D01*
X153670113Y-75822200D02*
X153574875Y-75869819D01*
X153574875Y-75869819D02*
X153384399Y-75869819D01*
X153384399Y-75869819D02*
X153289161Y-75822200D01*
X153289161Y-75822200D02*
X153241542Y-75726961D01*
X153241542Y-75726961D02*
X153241542Y-75346009D01*
X153241542Y-75346009D02*
X153289161Y-75250771D01*
X153289161Y-75250771D02*
X153384399Y-75203152D01*
X153384399Y-75203152D02*
X153574875Y-75203152D01*
X153574875Y-75203152D02*
X153670113Y-75250771D01*
X153670113Y-75250771D02*
X153717732Y-75346009D01*
X153717732Y-75346009D02*
X153717732Y-75441247D01*
X153717732Y-75441247D02*
X153241542Y-75536485D01*
D12*
X193956119Y-103036811D02*
X193932309Y-103084430D01*
X193932309Y-103084430D02*
X193932309Y-103155859D01*
X193932309Y-103155859D02*
X193956119Y-103227287D01*
X193956119Y-103227287D02*
X194003738Y-103274906D01*
X194003738Y-103274906D02*
X194051357Y-103298716D01*
X194051357Y-103298716D02*
X194146595Y-103322525D01*
X194146595Y-103322525D02*
X194218023Y-103322525D01*
X194218023Y-103322525D02*
X194313261Y-103298716D01*
X194313261Y-103298716D02*
X194360880Y-103274906D01*
X194360880Y-103274906D02*
X194408500Y-103227287D01*
X194408500Y-103227287D02*
X194432309Y-103155859D01*
X194432309Y-103155859D02*
X194432309Y-103108240D01*
X194432309Y-103108240D02*
X194408500Y-103036811D01*
X194408500Y-103036811D02*
X194384690Y-103013002D01*
X194384690Y-103013002D02*
X194218023Y-103013002D01*
X194218023Y-103013002D02*
X194218023Y-103108240D01*
X194432309Y-102798716D02*
X193932309Y-102798716D01*
X193932309Y-102798716D02*
X194432309Y-102513002D01*
X194432309Y-102513002D02*
X193932309Y-102513002D01*
X194432309Y-102274906D02*
X193932309Y-102274906D01*
X193932309Y-102274906D02*
X193932309Y-102155858D01*
X193932309Y-102155858D02*
X193956119Y-102084430D01*
X193956119Y-102084430D02*
X194003738Y-102036811D01*
X194003738Y-102036811D02*
X194051357Y-102013001D01*
X194051357Y-102013001D02*
X194146595Y-101989192D01*
X194146595Y-101989192D02*
X194218023Y-101989192D01*
X194218023Y-101989192D02*
X194313261Y-102013001D01*
X194313261Y-102013001D02*
X194360880Y-102036811D01*
X194360880Y-102036811D02*
X194408500Y-102084430D01*
X194408500Y-102084430D02*
X194432309Y-102155858D01*
X194432309Y-102155858D02*
X194432309Y-102274906D01*
X194289452Y-101417763D02*
X194289452Y-101179668D01*
X194432309Y-101465382D02*
X193932309Y-101298716D01*
X193932309Y-101298716D02*
X194432309Y-101132049D01*
X194432309Y-100965383D02*
X193932309Y-100965383D01*
X193932309Y-100965383D02*
X194432309Y-100679669D01*
X194432309Y-100679669D02*
X193932309Y-100679669D01*
X193932309Y-99822526D02*
X193932309Y-100060621D01*
X193932309Y-100060621D02*
X194170404Y-100084430D01*
X194170404Y-100084430D02*
X194146595Y-100060621D01*
X194146595Y-100060621D02*
X194122785Y-100013002D01*
X194122785Y-100013002D02*
X194122785Y-99893954D01*
X194122785Y-99893954D02*
X194146595Y-99846335D01*
X194146595Y-99846335D02*
X194170404Y-99822526D01*
X194170404Y-99822526D02*
X194218023Y-99798716D01*
X194218023Y-99798716D02*
X194337071Y-99798716D01*
X194337071Y-99798716D02*
X194384690Y-99822526D01*
X194384690Y-99822526D02*
X194408500Y-99846335D01*
X194408500Y-99846335D02*
X194432309Y-99893954D01*
X194432309Y-99893954D02*
X194432309Y-100013002D01*
X194432309Y-100013002D02*
X194408500Y-100060621D01*
X194408500Y-100060621D02*
X194384690Y-100084430D01*
X193932309Y-99655859D02*
X194432309Y-99489193D01*
X194432309Y-99489193D02*
X193932309Y-99322526D01*
D13*
X118454819Y-93238095D02*
X117454819Y-93238095D01*
X117788152Y-92761905D02*
X118454819Y-92761905D01*
X117883390Y-92761905D02*
X117835771Y-92714286D01*
X117835771Y-92714286D02*
X117788152Y-92619048D01*
X117788152Y-92619048D02*
X117788152Y-92476191D01*
X117788152Y-92476191D02*
X117835771Y-92380953D01*
X117835771Y-92380953D02*
X117931009Y-92333334D01*
X117931009Y-92333334D02*
X118454819Y-92333334D01*
X117788152Y-92000000D02*
X117788152Y-91619048D01*
X117454819Y-91857143D02*
X118311961Y-91857143D01*
X118311961Y-91857143D02*
X118407200Y-91809524D01*
X118407200Y-91809524D02*
X118454819Y-91714286D01*
X118454819Y-91714286D02*
X118454819Y-91619048D01*
X118407200Y-90904762D02*
X118454819Y-91000000D01*
X118454819Y-91000000D02*
X118454819Y-91190476D01*
X118454819Y-91190476D02*
X118407200Y-91285714D01*
X118407200Y-91285714D02*
X118311961Y-91333333D01*
X118311961Y-91333333D02*
X117931009Y-91333333D01*
X117931009Y-91333333D02*
X117835771Y-91285714D01*
X117835771Y-91285714D02*
X117788152Y-91190476D01*
X117788152Y-91190476D02*
X117788152Y-91000000D01*
X117788152Y-91000000D02*
X117835771Y-90904762D01*
X117835771Y-90904762D02*
X117931009Y-90857143D01*
X117931009Y-90857143D02*
X118026247Y-90857143D01*
X118026247Y-90857143D02*
X118121485Y-91333333D01*
X118454819Y-90428571D02*
X117788152Y-90428571D01*
X117978628Y-90428571D02*
X117883390Y-90380952D01*
X117883390Y-90380952D02*
X117835771Y-90333333D01*
X117835771Y-90333333D02*
X117788152Y-90238095D01*
X117788152Y-90238095D02*
X117788152Y-90142857D01*
X118550057Y-90047619D02*
X118550057Y-89285714D01*
X117788152Y-89047618D02*
X118788152Y-89047618D01*
X117835771Y-89047618D02*
X117788152Y-88952380D01*
X117788152Y-88952380D02*
X117788152Y-88761904D01*
X117788152Y-88761904D02*
X117835771Y-88666666D01*
X117835771Y-88666666D02*
X117883390Y-88619047D01*
X117883390Y-88619047D02*
X117978628Y-88571428D01*
X117978628Y-88571428D02*
X118264342Y-88571428D01*
X118264342Y-88571428D02*
X118359580Y-88619047D01*
X118359580Y-88619047D02*
X118407200Y-88666666D01*
X118407200Y-88666666D02*
X118454819Y-88761904D01*
X118454819Y-88761904D02*
X118454819Y-88952380D01*
X118454819Y-88952380D02*
X118407200Y-89047618D01*
X118454819Y-87999999D02*
X118407200Y-88095237D01*
X118407200Y-88095237D02*
X118311961Y-88142856D01*
X118311961Y-88142856D02*
X117454819Y-88142856D01*
X118454819Y-87190475D02*
X117931009Y-87190475D01*
X117931009Y-87190475D02*
X117835771Y-87238094D01*
X117835771Y-87238094D02*
X117788152Y-87333332D01*
X117788152Y-87333332D02*
X117788152Y-87523808D01*
X117788152Y-87523808D02*
X117835771Y-87619046D01*
X118407200Y-87190475D02*
X118454819Y-87285713D01*
X118454819Y-87285713D02*
X118454819Y-87523808D01*
X118454819Y-87523808D02*
X118407200Y-87619046D01*
X118407200Y-87619046D02*
X118311961Y-87666665D01*
X118311961Y-87666665D02*
X118216723Y-87666665D01*
X118216723Y-87666665D02*
X118121485Y-87619046D01*
X118121485Y-87619046D02*
X118073866Y-87523808D01*
X118073866Y-87523808D02*
X118073866Y-87285713D01*
X118073866Y-87285713D02*
X118026247Y-87190475D01*
X117788152Y-86285713D02*
X118788152Y-86285713D01*
X118407200Y-86285713D02*
X118454819Y-86380951D01*
X118454819Y-86380951D02*
X118454819Y-86571427D01*
X118454819Y-86571427D02*
X118407200Y-86666665D01*
X118407200Y-86666665D02*
X118359580Y-86714284D01*
X118359580Y-86714284D02*
X118264342Y-86761903D01*
X118264342Y-86761903D02*
X117978628Y-86761903D01*
X117978628Y-86761903D02*
X117883390Y-86714284D01*
X117883390Y-86714284D02*
X117835771Y-86666665D01*
X117835771Y-86666665D02*
X117788152Y-86571427D01*
X117788152Y-86571427D02*
X117788152Y-86380951D01*
X117788152Y-86380951D02*
X117835771Y-86285713D01*
X117788152Y-85380951D02*
X118454819Y-85380951D01*
X117788152Y-85809522D02*
X118311961Y-85809522D01*
X118311961Y-85809522D02*
X118407200Y-85761903D01*
X118407200Y-85761903D02*
X118454819Y-85666665D01*
X118454819Y-85666665D02*
X118454819Y-85523808D01*
X118454819Y-85523808D02*
X118407200Y-85428570D01*
X118407200Y-85428570D02*
X118359580Y-85380951D01*
X118407200Y-84523808D02*
X118454819Y-84619046D01*
X118454819Y-84619046D02*
X118454819Y-84809522D01*
X118454819Y-84809522D02*
X118407200Y-84904760D01*
X118407200Y-84904760D02*
X118311961Y-84952379D01*
X118311961Y-84952379D02*
X117931009Y-84952379D01*
X117931009Y-84952379D02*
X117835771Y-84904760D01*
X117835771Y-84904760D02*
X117788152Y-84809522D01*
X117788152Y-84809522D02*
X117788152Y-84619046D01*
X117788152Y-84619046D02*
X117835771Y-84523808D01*
X117835771Y-84523808D02*
X117931009Y-84476189D01*
X117931009Y-84476189D02*
X118026247Y-84476189D01*
X118026247Y-84476189D02*
X118121485Y-84952379D01*
X118407200Y-84095236D02*
X118454819Y-83999998D01*
X118454819Y-83999998D02*
X118454819Y-83809522D01*
X118454819Y-83809522D02*
X118407200Y-83714284D01*
X118407200Y-83714284D02*
X118311961Y-83666665D01*
X118311961Y-83666665D02*
X118264342Y-83666665D01*
X118264342Y-83666665D02*
X118169104Y-83714284D01*
X118169104Y-83714284D02*
X118121485Y-83809522D01*
X118121485Y-83809522D02*
X118121485Y-83952379D01*
X118121485Y-83952379D02*
X118073866Y-84047617D01*
X118073866Y-84047617D02*
X117978628Y-84095236D01*
X117978628Y-84095236D02*
X117931009Y-84095236D01*
X117931009Y-84095236D02*
X117835771Y-84047617D01*
X117835771Y-84047617D02*
X117788152Y-83952379D01*
X117788152Y-83952379D02*
X117788152Y-83809522D01*
X117788152Y-83809522D02*
X117835771Y-83714284D01*
X118454819Y-82714284D02*
X118454819Y-83285712D01*
X118454819Y-82999998D02*
X117454819Y-82999998D01*
X117454819Y-82999998D02*
X117597676Y-83095236D01*
X117597676Y-83095236D02*
X117692914Y-83190474D01*
X117692914Y-83190474D02*
X117740533Y-83285712D01*
D11*
X125957419Y-105993332D02*
X124957419Y-105993332D01*
X124957419Y-105993332D02*
X125671704Y-105659999D01*
X125671704Y-105659999D02*
X124957419Y-105326666D01*
X124957419Y-105326666D02*
X125957419Y-105326666D01*
X125957419Y-104850475D02*
X124957419Y-104850475D01*
X124957419Y-104850475D02*
X124957419Y-104469523D01*
X124957419Y-104469523D02*
X125005038Y-104374285D01*
X125005038Y-104374285D02*
X125052657Y-104326666D01*
X125052657Y-104326666D02*
X125147895Y-104279047D01*
X125147895Y-104279047D02*
X125290752Y-104279047D01*
X125290752Y-104279047D02*
X125385990Y-104326666D01*
X125385990Y-104326666D02*
X125433609Y-104374285D01*
X125433609Y-104374285D02*
X125481228Y-104469523D01*
X125481228Y-104469523D02*
X125481228Y-104850475D01*
X124957419Y-103850475D02*
X125766942Y-103850475D01*
X125766942Y-103850475D02*
X125862180Y-103802856D01*
X125862180Y-103802856D02*
X125909800Y-103755237D01*
X125909800Y-103755237D02*
X125957419Y-103659999D01*
X125957419Y-103659999D02*
X125957419Y-103469523D01*
X125957419Y-103469523D02*
X125909800Y-103374285D01*
X125909800Y-103374285D02*
X125862180Y-103326666D01*
X125862180Y-103326666D02*
X125766942Y-103279047D01*
X125766942Y-103279047D02*
X124957419Y-103279047D01*
X125957419Y-102279047D02*
X125957419Y-102850475D01*
X125957419Y-102564761D02*
X124957419Y-102564761D01*
X124957419Y-102564761D02*
X125100276Y-102659999D01*
X125100276Y-102659999D02*
X125195514Y-102755237D01*
X125195514Y-102755237D02*
X125243133Y-102850475D01*
D13*
X174954819Y-83833333D02*
X173954819Y-83833333D01*
X174288152Y-83357143D02*
X174954819Y-83357143D01*
X174383390Y-83357143D02*
X174335771Y-83309524D01*
X174335771Y-83309524D02*
X174288152Y-83214286D01*
X174288152Y-83214286D02*
X174288152Y-83071429D01*
X174288152Y-83071429D02*
X174335771Y-82976191D01*
X174335771Y-82976191D02*
X174431009Y-82928572D01*
X174431009Y-82928572D02*
X174954819Y-82928572D01*
X174288152Y-82595238D02*
X174288152Y-82214286D01*
X173954819Y-82452381D02*
X174811961Y-82452381D01*
X174811961Y-82452381D02*
X174907200Y-82404762D01*
X174907200Y-82404762D02*
X174954819Y-82309524D01*
X174954819Y-82309524D02*
X174954819Y-82214286D01*
X174907200Y-81500000D02*
X174954819Y-81595238D01*
X174954819Y-81595238D02*
X174954819Y-81785714D01*
X174954819Y-81785714D02*
X174907200Y-81880952D01*
X174907200Y-81880952D02*
X174811961Y-81928571D01*
X174811961Y-81928571D02*
X174431009Y-81928571D01*
X174431009Y-81928571D02*
X174335771Y-81880952D01*
X174335771Y-81880952D02*
X174288152Y-81785714D01*
X174288152Y-81785714D02*
X174288152Y-81595238D01*
X174288152Y-81595238D02*
X174335771Y-81500000D01*
X174335771Y-81500000D02*
X174431009Y-81452381D01*
X174431009Y-81452381D02*
X174526247Y-81452381D01*
X174526247Y-81452381D02*
X174621485Y-81928571D01*
X174954819Y-81023809D02*
X174288152Y-81023809D01*
X174478628Y-81023809D02*
X174383390Y-80976190D01*
X174383390Y-80976190D02*
X174335771Y-80928571D01*
X174335771Y-80928571D02*
X174288152Y-80833333D01*
X174288152Y-80833333D02*
X174288152Y-80738095D01*
X175050057Y-80642857D02*
X175050057Y-79880952D01*
X174954819Y-79642856D02*
X174288152Y-79642856D01*
X173954819Y-79642856D02*
X174002438Y-79690475D01*
X174002438Y-79690475D02*
X174050057Y-79642856D01*
X174050057Y-79642856D02*
X174002438Y-79595237D01*
X174002438Y-79595237D02*
X173954819Y-79642856D01*
X173954819Y-79642856D02*
X174050057Y-79642856D01*
X174288152Y-79166666D02*
X174954819Y-79166666D01*
X174383390Y-79166666D02*
X174335771Y-79119047D01*
X174335771Y-79119047D02*
X174288152Y-79023809D01*
X174288152Y-79023809D02*
X174288152Y-78880952D01*
X174288152Y-78880952D02*
X174335771Y-78785714D01*
X174335771Y-78785714D02*
X174431009Y-78738095D01*
X174431009Y-78738095D02*
X174954819Y-78738095D01*
X175050057Y-78500000D02*
X175050057Y-77738095D01*
X174907200Y-77071428D02*
X174954819Y-77166666D01*
X174954819Y-77166666D02*
X174954819Y-77357142D01*
X174954819Y-77357142D02*
X174907200Y-77452380D01*
X174907200Y-77452380D02*
X174859580Y-77499999D01*
X174859580Y-77499999D02*
X174764342Y-77547618D01*
X174764342Y-77547618D02*
X174478628Y-77547618D01*
X174478628Y-77547618D02*
X174383390Y-77499999D01*
X174383390Y-77499999D02*
X174335771Y-77452380D01*
X174335771Y-77452380D02*
X174288152Y-77357142D01*
X174288152Y-77357142D02*
X174288152Y-77166666D01*
X174288152Y-77166666D02*
X174335771Y-77071428D01*
X174954819Y-76119047D02*
X174954819Y-76690475D01*
X174954819Y-76404761D02*
X173954819Y-76404761D01*
X173954819Y-76404761D02*
X174097676Y-76499999D01*
X174097676Y-76499999D02*
X174192914Y-76595237D01*
X174192914Y-76595237D02*
X174240533Y-76690475D01*
X189454819Y-88214285D02*
X188454819Y-88214285D01*
X188788152Y-87738095D02*
X189454819Y-87738095D01*
X188883390Y-87738095D02*
X188835771Y-87690476D01*
X188835771Y-87690476D02*
X188788152Y-87595238D01*
X188788152Y-87595238D02*
X188788152Y-87452381D01*
X188788152Y-87452381D02*
X188835771Y-87357143D01*
X188835771Y-87357143D02*
X188931009Y-87309524D01*
X188931009Y-87309524D02*
X189454819Y-87309524D01*
X188788152Y-86976190D02*
X188788152Y-86595238D01*
X188454819Y-86833333D02*
X189311961Y-86833333D01*
X189311961Y-86833333D02*
X189407200Y-86785714D01*
X189407200Y-86785714D02*
X189454819Y-86690476D01*
X189454819Y-86690476D02*
X189454819Y-86595238D01*
X189407200Y-85880952D02*
X189454819Y-85976190D01*
X189454819Y-85976190D02*
X189454819Y-86166666D01*
X189454819Y-86166666D02*
X189407200Y-86261904D01*
X189407200Y-86261904D02*
X189311961Y-86309523D01*
X189311961Y-86309523D02*
X188931009Y-86309523D01*
X188931009Y-86309523D02*
X188835771Y-86261904D01*
X188835771Y-86261904D02*
X188788152Y-86166666D01*
X188788152Y-86166666D02*
X188788152Y-85976190D01*
X188788152Y-85976190D02*
X188835771Y-85880952D01*
X188835771Y-85880952D02*
X188931009Y-85833333D01*
X188931009Y-85833333D02*
X189026247Y-85833333D01*
X189026247Y-85833333D02*
X189121485Y-86309523D01*
X189454819Y-85404761D02*
X188788152Y-85404761D01*
X188978628Y-85404761D02*
X188883390Y-85357142D01*
X188883390Y-85357142D02*
X188835771Y-85309523D01*
X188835771Y-85309523D02*
X188788152Y-85214285D01*
X188788152Y-85214285D02*
X188788152Y-85119047D01*
X189550057Y-85023809D02*
X189550057Y-84261904D01*
X189454819Y-84023808D02*
X188454819Y-84023808D01*
X188788152Y-83547618D02*
X189454819Y-83547618D01*
X188883390Y-83547618D02*
X188835771Y-83499999D01*
X188835771Y-83499999D02*
X188788152Y-83404761D01*
X188788152Y-83404761D02*
X188788152Y-83261904D01*
X188788152Y-83261904D02*
X188835771Y-83166666D01*
X188835771Y-83166666D02*
X188931009Y-83119047D01*
X188931009Y-83119047D02*
X189454819Y-83119047D01*
X188788152Y-82642856D02*
X189788152Y-82642856D01*
X188835771Y-82642856D02*
X188788152Y-82547618D01*
X188788152Y-82547618D02*
X188788152Y-82357142D01*
X188788152Y-82357142D02*
X188835771Y-82261904D01*
X188835771Y-82261904D02*
X188883390Y-82214285D01*
X188883390Y-82214285D02*
X188978628Y-82166666D01*
X188978628Y-82166666D02*
X189264342Y-82166666D01*
X189264342Y-82166666D02*
X189359580Y-82214285D01*
X189359580Y-82214285D02*
X189407200Y-82261904D01*
X189407200Y-82261904D02*
X189454819Y-82357142D01*
X189454819Y-82357142D02*
X189454819Y-82547618D01*
X189454819Y-82547618D02*
X189407200Y-82642856D01*
X188788152Y-81309523D02*
X189454819Y-81309523D01*
X188788152Y-81738094D02*
X189311961Y-81738094D01*
X189311961Y-81738094D02*
X189407200Y-81690475D01*
X189407200Y-81690475D02*
X189454819Y-81595237D01*
X189454819Y-81595237D02*
X189454819Y-81452380D01*
X189454819Y-81452380D02*
X189407200Y-81357142D01*
X189407200Y-81357142D02*
X189359580Y-81309523D01*
X188788152Y-80976189D02*
X188788152Y-80595237D01*
X188454819Y-80833332D02*
X189311961Y-80833332D01*
X189311961Y-80833332D02*
X189407200Y-80785713D01*
X189407200Y-80785713D02*
X189454819Y-80690475D01*
X189454819Y-80690475D02*
X189454819Y-80595237D01*
X189454819Y-79738094D02*
X189454819Y-80309522D01*
X189454819Y-80023808D02*
X188454819Y-80023808D01*
X188454819Y-80023808D02*
X188597676Y-80119046D01*
X188597676Y-80119046D02*
X188692914Y-80214284D01*
X188692914Y-80214284D02*
X188740533Y-80309522D01*
X198407200Y-105928571D02*
X198454819Y-105785714D01*
X198454819Y-105785714D02*
X198454819Y-105547619D01*
X198454819Y-105547619D02*
X198407200Y-105452381D01*
X198407200Y-105452381D02*
X198359580Y-105404762D01*
X198359580Y-105404762D02*
X198264342Y-105357143D01*
X198264342Y-105357143D02*
X198169104Y-105357143D01*
X198169104Y-105357143D02*
X198073866Y-105404762D01*
X198073866Y-105404762D02*
X198026247Y-105452381D01*
X198026247Y-105452381D02*
X197978628Y-105547619D01*
X197978628Y-105547619D02*
X197931009Y-105738095D01*
X197931009Y-105738095D02*
X197883390Y-105833333D01*
X197883390Y-105833333D02*
X197835771Y-105880952D01*
X197835771Y-105880952D02*
X197740533Y-105928571D01*
X197740533Y-105928571D02*
X197645295Y-105928571D01*
X197645295Y-105928571D02*
X197550057Y-105880952D01*
X197550057Y-105880952D02*
X197502438Y-105833333D01*
X197502438Y-105833333D02*
X197454819Y-105738095D01*
X197454819Y-105738095D02*
X197454819Y-105500000D01*
X197454819Y-105500000D02*
X197502438Y-105357143D01*
X198407200Y-104547619D02*
X198454819Y-104642857D01*
X198454819Y-104642857D02*
X198454819Y-104833333D01*
X198454819Y-104833333D02*
X198407200Y-104928571D01*
X198407200Y-104928571D02*
X198311961Y-104976190D01*
X198311961Y-104976190D02*
X197931009Y-104976190D01*
X197931009Y-104976190D02*
X197835771Y-104928571D01*
X197835771Y-104928571D02*
X197788152Y-104833333D01*
X197788152Y-104833333D02*
X197788152Y-104642857D01*
X197788152Y-104642857D02*
X197835771Y-104547619D01*
X197835771Y-104547619D02*
X197931009Y-104500000D01*
X197931009Y-104500000D02*
X198026247Y-104500000D01*
X198026247Y-104500000D02*
X198121485Y-104976190D01*
X198454819Y-104071428D02*
X197788152Y-104071428D01*
X197978628Y-104071428D02*
X197883390Y-104023809D01*
X197883390Y-104023809D02*
X197835771Y-103976190D01*
X197835771Y-103976190D02*
X197788152Y-103880952D01*
X197788152Y-103880952D02*
X197788152Y-103785714D01*
X197788152Y-103547618D02*
X198454819Y-103309523D01*
X198454819Y-103309523D02*
X197788152Y-103071428D01*
X198454819Y-102547618D02*
X198407200Y-102642856D01*
X198407200Y-102642856D02*
X198359580Y-102690475D01*
X198359580Y-102690475D02*
X198264342Y-102738094D01*
X198264342Y-102738094D02*
X197978628Y-102738094D01*
X197978628Y-102738094D02*
X197883390Y-102690475D01*
X197883390Y-102690475D02*
X197835771Y-102642856D01*
X197835771Y-102642856D02*
X197788152Y-102547618D01*
X197788152Y-102547618D02*
X197788152Y-102404761D01*
X197788152Y-102404761D02*
X197835771Y-102309523D01*
X197835771Y-102309523D02*
X197883390Y-102261904D01*
X197883390Y-102261904D02*
X197978628Y-102214285D01*
X197978628Y-102214285D02*
X198264342Y-102214285D01*
X198264342Y-102214285D02*
X198359580Y-102261904D01*
X198359580Y-102261904D02*
X198407200Y-102309523D01*
X198407200Y-102309523D02*
X198454819Y-102404761D01*
X198454819Y-102404761D02*
X198454819Y-102547618D01*
X198454819Y-101785713D02*
X197788152Y-101785713D01*
X197883390Y-101785713D02*
X197835771Y-101738094D01*
X197835771Y-101738094D02*
X197788152Y-101642856D01*
X197788152Y-101642856D02*
X197788152Y-101499999D01*
X197788152Y-101499999D02*
X197835771Y-101404761D01*
X197835771Y-101404761D02*
X197931009Y-101357142D01*
X197931009Y-101357142D02*
X198454819Y-101357142D01*
X197931009Y-101357142D02*
X197835771Y-101309523D01*
X197835771Y-101309523D02*
X197788152Y-101214285D01*
X197788152Y-101214285D02*
X197788152Y-101071428D01*
X197788152Y-101071428D02*
X197835771Y-100976189D01*
X197835771Y-100976189D02*
X197931009Y-100928570D01*
X197931009Y-100928570D02*
X198454819Y-100928570D01*
X198454819Y-100309523D02*
X198407200Y-100404761D01*
X198407200Y-100404761D02*
X198359580Y-100452380D01*
X198359580Y-100452380D02*
X198264342Y-100499999D01*
X198264342Y-100499999D02*
X197978628Y-100499999D01*
X197978628Y-100499999D02*
X197883390Y-100452380D01*
X197883390Y-100452380D02*
X197835771Y-100404761D01*
X197835771Y-100404761D02*
X197788152Y-100309523D01*
X197788152Y-100309523D02*
X197788152Y-100166666D01*
X197788152Y-100166666D02*
X197835771Y-100071428D01*
X197835771Y-100071428D02*
X197883390Y-100023809D01*
X197883390Y-100023809D02*
X197978628Y-99976190D01*
X197978628Y-99976190D02*
X198264342Y-99976190D01*
X198264342Y-99976190D02*
X198359580Y-100023809D01*
X198359580Y-100023809D02*
X198407200Y-100071428D01*
X198407200Y-100071428D02*
X198454819Y-100166666D01*
X198454819Y-100166666D02*
X198454819Y-100309523D01*
X197788152Y-99690475D02*
X197788152Y-99309523D01*
X197454819Y-99547618D02*
X198311961Y-99547618D01*
X198311961Y-99547618D02*
X198407200Y-99499999D01*
X198407200Y-99499999D02*
X198454819Y-99404761D01*
X198454819Y-99404761D02*
X198454819Y-99309523D01*
X198407200Y-98595237D02*
X198454819Y-98690475D01*
X198454819Y-98690475D02*
X198454819Y-98880951D01*
X198454819Y-98880951D02*
X198407200Y-98976189D01*
X198407200Y-98976189D02*
X198311961Y-99023808D01*
X198311961Y-99023808D02*
X197931009Y-99023808D01*
X197931009Y-99023808D02*
X197835771Y-98976189D01*
X197835771Y-98976189D02*
X197788152Y-98880951D01*
X197788152Y-98880951D02*
X197788152Y-98690475D01*
X197788152Y-98690475D02*
X197835771Y-98595237D01*
X197835771Y-98595237D02*
X197931009Y-98547618D01*
X197931009Y-98547618D02*
X198026247Y-98547618D01*
X198026247Y-98547618D02*
X198121485Y-99023808D01*
X197788152Y-97690475D02*
X198454819Y-97690475D01*
X197788152Y-98119046D02*
X198311961Y-98119046D01*
X198311961Y-98119046D02*
X198407200Y-98071427D01*
X198407200Y-98071427D02*
X198454819Y-97976189D01*
X198454819Y-97976189D02*
X198454819Y-97833332D01*
X198454819Y-97833332D02*
X198407200Y-97738094D01*
X198407200Y-97738094D02*
X198359580Y-97690475D01*
X198454819Y-97214284D02*
X197788152Y-97214284D01*
X197978628Y-97214284D02*
X197883390Y-97166665D01*
X197883390Y-97166665D02*
X197835771Y-97119046D01*
X197835771Y-97119046D02*
X197788152Y-97023808D01*
X197788152Y-97023808D02*
X197788152Y-96928570D01*
X197550057Y-96642855D02*
X197502438Y-96595236D01*
X197502438Y-96595236D02*
X197454819Y-96499998D01*
X197454819Y-96499998D02*
X197454819Y-96261903D01*
X197454819Y-96261903D02*
X197502438Y-96166665D01*
X197502438Y-96166665D02*
X197550057Y-96119046D01*
X197550057Y-96119046D02*
X197645295Y-96071427D01*
X197645295Y-96071427D02*
X197740533Y-96071427D01*
X197740533Y-96071427D02*
X197883390Y-96119046D01*
X197883390Y-96119046D02*
X198454819Y-96690474D01*
X198454819Y-96690474D02*
X198454819Y-96071427D01*
D11*
X127623609Y-122976190D02*
X127671228Y-122833333D01*
X127671228Y-122833333D02*
X127718847Y-122785714D01*
X127718847Y-122785714D02*
X127814085Y-122738095D01*
X127814085Y-122738095D02*
X127956942Y-122738095D01*
X127956942Y-122738095D02*
X128052180Y-122785714D01*
X128052180Y-122785714D02*
X128099800Y-122833333D01*
X128099800Y-122833333D02*
X128147419Y-122928571D01*
X128147419Y-122928571D02*
X128147419Y-123309523D01*
X128147419Y-123309523D02*
X127147419Y-123309523D01*
X127147419Y-123309523D02*
X127147419Y-122976190D01*
X127147419Y-122976190D02*
X127195038Y-122880952D01*
X127195038Y-122880952D02*
X127242657Y-122833333D01*
X127242657Y-122833333D02*
X127337895Y-122785714D01*
X127337895Y-122785714D02*
X127433133Y-122785714D01*
X127433133Y-122785714D02*
X127528371Y-122833333D01*
X127528371Y-122833333D02*
X127575990Y-122880952D01*
X127575990Y-122880952D02*
X127623609Y-122976190D01*
X127623609Y-122976190D02*
X127623609Y-123309523D01*
X128147419Y-122309523D02*
X127147419Y-122309523D01*
X127147419Y-122309523D02*
X127861704Y-121976190D01*
X127861704Y-121976190D02*
X127147419Y-121642857D01*
X127147419Y-121642857D02*
X128147419Y-121642857D01*
X128147419Y-121166666D02*
X127147419Y-121166666D01*
X127147419Y-121166666D02*
X127147419Y-120785714D01*
X127147419Y-120785714D02*
X127195038Y-120690476D01*
X127195038Y-120690476D02*
X127242657Y-120642857D01*
X127242657Y-120642857D02*
X127337895Y-120595238D01*
X127337895Y-120595238D02*
X127480752Y-120595238D01*
X127480752Y-120595238D02*
X127575990Y-120642857D01*
X127575990Y-120642857D02*
X127623609Y-120690476D01*
X127623609Y-120690476D02*
X127671228Y-120785714D01*
X127671228Y-120785714D02*
X127671228Y-121166666D01*
X128147419Y-119642857D02*
X128147419Y-120214285D01*
X128147419Y-119928571D02*
X127147419Y-119928571D01*
X127147419Y-119928571D02*
X127290276Y-120023809D01*
X127290276Y-120023809D02*
X127385514Y-120119047D01*
X127385514Y-120119047D02*
X127433133Y-120214285D01*
D13*
X190907200Y-105428571D02*
X190954819Y-105285714D01*
X190954819Y-105285714D02*
X190954819Y-105047619D01*
X190954819Y-105047619D02*
X190907200Y-104952381D01*
X190907200Y-104952381D02*
X190859580Y-104904762D01*
X190859580Y-104904762D02*
X190764342Y-104857143D01*
X190764342Y-104857143D02*
X190669104Y-104857143D01*
X190669104Y-104857143D02*
X190573866Y-104904762D01*
X190573866Y-104904762D02*
X190526247Y-104952381D01*
X190526247Y-104952381D02*
X190478628Y-105047619D01*
X190478628Y-105047619D02*
X190431009Y-105238095D01*
X190431009Y-105238095D02*
X190383390Y-105333333D01*
X190383390Y-105333333D02*
X190335771Y-105380952D01*
X190335771Y-105380952D02*
X190240533Y-105428571D01*
X190240533Y-105428571D02*
X190145295Y-105428571D01*
X190145295Y-105428571D02*
X190050057Y-105380952D01*
X190050057Y-105380952D02*
X190002438Y-105333333D01*
X190002438Y-105333333D02*
X189954819Y-105238095D01*
X189954819Y-105238095D02*
X189954819Y-105000000D01*
X189954819Y-105000000D02*
X190002438Y-104857143D01*
X190907200Y-104047619D02*
X190954819Y-104142857D01*
X190954819Y-104142857D02*
X190954819Y-104333333D01*
X190954819Y-104333333D02*
X190907200Y-104428571D01*
X190907200Y-104428571D02*
X190811961Y-104476190D01*
X190811961Y-104476190D02*
X190431009Y-104476190D01*
X190431009Y-104476190D02*
X190335771Y-104428571D01*
X190335771Y-104428571D02*
X190288152Y-104333333D01*
X190288152Y-104333333D02*
X190288152Y-104142857D01*
X190288152Y-104142857D02*
X190335771Y-104047619D01*
X190335771Y-104047619D02*
X190431009Y-104000000D01*
X190431009Y-104000000D02*
X190526247Y-104000000D01*
X190526247Y-104000000D02*
X190621485Y-104476190D01*
X190954819Y-103571428D02*
X190288152Y-103571428D01*
X190478628Y-103571428D02*
X190383390Y-103523809D01*
X190383390Y-103523809D02*
X190335771Y-103476190D01*
X190335771Y-103476190D02*
X190288152Y-103380952D01*
X190288152Y-103380952D02*
X190288152Y-103285714D01*
X190288152Y-103047618D02*
X190954819Y-102809523D01*
X190954819Y-102809523D02*
X190288152Y-102571428D01*
X190954819Y-102047618D02*
X190907200Y-102142856D01*
X190907200Y-102142856D02*
X190859580Y-102190475D01*
X190859580Y-102190475D02*
X190764342Y-102238094D01*
X190764342Y-102238094D02*
X190478628Y-102238094D01*
X190478628Y-102238094D02*
X190383390Y-102190475D01*
X190383390Y-102190475D02*
X190335771Y-102142856D01*
X190335771Y-102142856D02*
X190288152Y-102047618D01*
X190288152Y-102047618D02*
X190288152Y-101904761D01*
X190288152Y-101904761D02*
X190335771Y-101809523D01*
X190335771Y-101809523D02*
X190383390Y-101761904D01*
X190383390Y-101761904D02*
X190478628Y-101714285D01*
X190478628Y-101714285D02*
X190764342Y-101714285D01*
X190764342Y-101714285D02*
X190859580Y-101761904D01*
X190859580Y-101761904D02*
X190907200Y-101809523D01*
X190907200Y-101809523D02*
X190954819Y-101904761D01*
X190954819Y-101904761D02*
X190954819Y-102047618D01*
X190954819Y-101285713D02*
X190288152Y-101285713D01*
X190383390Y-101285713D02*
X190335771Y-101238094D01*
X190335771Y-101238094D02*
X190288152Y-101142856D01*
X190288152Y-101142856D02*
X190288152Y-100999999D01*
X190288152Y-100999999D02*
X190335771Y-100904761D01*
X190335771Y-100904761D02*
X190431009Y-100857142D01*
X190431009Y-100857142D02*
X190954819Y-100857142D01*
X190431009Y-100857142D02*
X190335771Y-100809523D01*
X190335771Y-100809523D02*
X190288152Y-100714285D01*
X190288152Y-100714285D02*
X190288152Y-100571428D01*
X190288152Y-100571428D02*
X190335771Y-100476189D01*
X190335771Y-100476189D02*
X190431009Y-100428570D01*
X190431009Y-100428570D02*
X190954819Y-100428570D01*
X190954819Y-99809523D02*
X190907200Y-99904761D01*
X190907200Y-99904761D02*
X190859580Y-99952380D01*
X190859580Y-99952380D02*
X190764342Y-99999999D01*
X190764342Y-99999999D02*
X190478628Y-99999999D01*
X190478628Y-99999999D02*
X190383390Y-99952380D01*
X190383390Y-99952380D02*
X190335771Y-99904761D01*
X190335771Y-99904761D02*
X190288152Y-99809523D01*
X190288152Y-99809523D02*
X190288152Y-99666666D01*
X190288152Y-99666666D02*
X190335771Y-99571428D01*
X190335771Y-99571428D02*
X190383390Y-99523809D01*
X190383390Y-99523809D02*
X190478628Y-99476190D01*
X190478628Y-99476190D02*
X190764342Y-99476190D01*
X190764342Y-99476190D02*
X190859580Y-99523809D01*
X190859580Y-99523809D02*
X190907200Y-99571428D01*
X190907200Y-99571428D02*
X190954819Y-99666666D01*
X190954819Y-99666666D02*
X190954819Y-99809523D01*
X190288152Y-99190475D02*
X190288152Y-98809523D01*
X189954819Y-99047618D02*
X190811961Y-99047618D01*
X190811961Y-99047618D02*
X190907200Y-98999999D01*
X190907200Y-98999999D02*
X190954819Y-98904761D01*
X190954819Y-98904761D02*
X190954819Y-98809523D01*
X190907200Y-98095237D02*
X190954819Y-98190475D01*
X190954819Y-98190475D02*
X190954819Y-98380951D01*
X190954819Y-98380951D02*
X190907200Y-98476189D01*
X190907200Y-98476189D02*
X190811961Y-98523808D01*
X190811961Y-98523808D02*
X190431009Y-98523808D01*
X190431009Y-98523808D02*
X190335771Y-98476189D01*
X190335771Y-98476189D02*
X190288152Y-98380951D01*
X190288152Y-98380951D02*
X190288152Y-98190475D01*
X190288152Y-98190475D02*
X190335771Y-98095237D01*
X190335771Y-98095237D02*
X190431009Y-98047618D01*
X190431009Y-98047618D02*
X190526247Y-98047618D01*
X190526247Y-98047618D02*
X190621485Y-98523808D01*
X190288152Y-97190475D02*
X190954819Y-97190475D01*
X190288152Y-97619046D02*
X190811961Y-97619046D01*
X190811961Y-97619046D02*
X190907200Y-97571427D01*
X190907200Y-97571427D02*
X190954819Y-97476189D01*
X190954819Y-97476189D02*
X190954819Y-97333332D01*
X190954819Y-97333332D02*
X190907200Y-97238094D01*
X190907200Y-97238094D02*
X190859580Y-97190475D01*
X190954819Y-96714284D02*
X190288152Y-96714284D01*
X190478628Y-96714284D02*
X190383390Y-96666665D01*
X190383390Y-96666665D02*
X190335771Y-96619046D01*
X190335771Y-96619046D02*
X190288152Y-96523808D01*
X190288152Y-96523808D02*
X190288152Y-96428570D01*
X190954819Y-95571427D02*
X190954819Y-96142855D01*
X190954819Y-95857141D02*
X189954819Y-95857141D01*
X189954819Y-95857141D02*
X190097676Y-95952379D01*
X190097676Y-95952379D02*
X190192914Y-96047617D01*
X190192914Y-96047617D02*
X190240533Y-96142855D01*
X177431009Y-75809524D02*
X177478628Y-75666667D01*
X177478628Y-75666667D02*
X177526247Y-75619048D01*
X177526247Y-75619048D02*
X177621485Y-75571429D01*
X177621485Y-75571429D02*
X177764342Y-75571429D01*
X177764342Y-75571429D02*
X177859580Y-75619048D01*
X177859580Y-75619048D02*
X177907200Y-75666667D01*
X177907200Y-75666667D02*
X177954819Y-75761905D01*
X177954819Y-75761905D02*
X177954819Y-76142857D01*
X177954819Y-76142857D02*
X176954819Y-76142857D01*
X176954819Y-76142857D02*
X176954819Y-75809524D01*
X176954819Y-75809524D02*
X177002438Y-75714286D01*
X177002438Y-75714286D02*
X177050057Y-75666667D01*
X177050057Y-75666667D02*
X177145295Y-75619048D01*
X177145295Y-75619048D02*
X177240533Y-75619048D01*
X177240533Y-75619048D02*
X177335771Y-75666667D01*
X177335771Y-75666667D02*
X177383390Y-75714286D01*
X177383390Y-75714286D02*
X177431009Y-75809524D01*
X177431009Y-75809524D02*
X177431009Y-76142857D01*
X177954819Y-75000000D02*
X177907200Y-75095238D01*
X177907200Y-75095238D02*
X177811961Y-75142857D01*
X177811961Y-75142857D02*
X176954819Y-75142857D01*
X177954819Y-74476190D02*
X177907200Y-74571428D01*
X177907200Y-74571428D02*
X177859580Y-74619047D01*
X177859580Y-74619047D02*
X177764342Y-74666666D01*
X177764342Y-74666666D02*
X177478628Y-74666666D01*
X177478628Y-74666666D02*
X177383390Y-74619047D01*
X177383390Y-74619047D02*
X177335771Y-74571428D01*
X177335771Y-74571428D02*
X177288152Y-74476190D01*
X177288152Y-74476190D02*
X177288152Y-74333333D01*
X177288152Y-74333333D02*
X177335771Y-74238095D01*
X177335771Y-74238095D02*
X177383390Y-74190476D01*
X177383390Y-74190476D02*
X177478628Y-74142857D01*
X177478628Y-74142857D02*
X177764342Y-74142857D01*
X177764342Y-74142857D02*
X177859580Y-74190476D01*
X177859580Y-74190476D02*
X177907200Y-74238095D01*
X177907200Y-74238095D02*
X177954819Y-74333333D01*
X177954819Y-74333333D02*
X177954819Y-74476190D01*
X177907200Y-73285714D02*
X177954819Y-73380952D01*
X177954819Y-73380952D02*
X177954819Y-73571428D01*
X177954819Y-73571428D02*
X177907200Y-73666666D01*
X177907200Y-73666666D02*
X177859580Y-73714285D01*
X177859580Y-73714285D02*
X177764342Y-73761904D01*
X177764342Y-73761904D02*
X177478628Y-73761904D01*
X177478628Y-73761904D02*
X177383390Y-73714285D01*
X177383390Y-73714285D02*
X177335771Y-73666666D01*
X177335771Y-73666666D02*
X177288152Y-73571428D01*
X177288152Y-73571428D02*
X177288152Y-73380952D01*
X177288152Y-73380952D02*
X177335771Y-73285714D01*
X178050057Y-73095238D02*
X178050057Y-72333333D01*
X177288152Y-72095237D02*
X178288152Y-72095237D01*
X177335771Y-72095237D02*
X177288152Y-71999999D01*
X177288152Y-71999999D02*
X177288152Y-71809523D01*
X177288152Y-71809523D02*
X177335771Y-71714285D01*
X177335771Y-71714285D02*
X177383390Y-71666666D01*
X177383390Y-71666666D02*
X177478628Y-71619047D01*
X177478628Y-71619047D02*
X177764342Y-71619047D01*
X177764342Y-71619047D02*
X177859580Y-71666666D01*
X177859580Y-71666666D02*
X177907200Y-71714285D01*
X177907200Y-71714285D02*
X177954819Y-71809523D01*
X177954819Y-71809523D02*
X177954819Y-71999999D01*
X177954819Y-71999999D02*
X177907200Y-72095237D01*
X177954819Y-71190475D02*
X177288152Y-71190475D01*
X176954819Y-71190475D02*
X177002438Y-71238094D01*
X177002438Y-71238094D02*
X177050057Y-71190475D01*
X177050057Y-71190475D02*
X177002438Y-71142856D01*
X177002438Y-71142856D02*
X176954819Y-71190475D01*
X176954819Y-71190475D02*
X177050057Y-71190475D01*
X177954819Y-70571428D02*
X177907200Y-70666666D01*
X177907200Y-70666666D02*
X177811961Y-70714285D01*
X177811961Y-70714285D02*
X176954819Y-70714285D01*
X177907200Y-69809523D02*
X177954819Y-69904761D01*
X177954819Y-69904761D02*
X177954819Y-70095237D01*
X177954819Y-70095237D02*
X177907200Y-70190475D01*
X177907200Y-70190475D02*
X177811961Y-70238094D01*
X177811961Y-70238094D02*
X177431009Y-70238094D01*
X177431009Y-70238094D02*
X177335771Y-70190475D01*
X177335771Y-70190475D02*
X177288152Y-70095237D01*
X177288152Y-70095237D02*
X177288152Y-69904761D01*
X177288152Y-69904761D02*
X177335771Y-69809523D01*
X177335771Y-69809523D02*
X177431009Y-69761904D01*
X177431009Y-69761904D02*
X177526247Y-69761904D01*
X177526247Y-69761904D02*
X177621485Y-70238094D01*
X177954819Y-68809523D02*
X177954819Y-69380951D01*
X177954819Y-69095237D02*
X176954819Y-69095237D01*
X176954819Y-69095237D02*
X177097676Y-69190475D01*
X177097676Y-69190475D02*
X177192914Y-69285713D01*
X177192914Y-69285713D02*
X177240533Y-69380951D01*
D11*
X172926666Y-100611704D02*
X173402856Y-100611704D01*
X172831428Y-100897419D02*
X173164761Y-99897419D01*
X173164761Y-99897419D02*
X173498094Y-100897419D01*
X173831428Y-100897419D02*
X173831428Y-100230752D01*
X173831428Y-100421228D02*
X173879047Y-100325990D01*
X173879047Y-100325990D02*
X173926666Y-100278371D01*
X173926666Y-100278371D02*
X174021904Y-100230752D01*
X174021904Y-100230752D02*
X174117142Y-100230752D01*
X174879047Y-100897419D02*
X174879047Y-99897419D01*
X174879047Y-100849800D02*
X174783809Y-100897419D01*
X174783809Y-100897419D02*
X174593333Y-100897419D01*
X174593333Y-100897419D02*
X174498095Y-100849800D01*
X174498095Y-100849800D02*
X174450476Y-100802180D01*
X174450476Y-100802180D02*
X174402857Y-100706942D01*
X174402857Y-100706942D02*
X174402857Y-100421228D01*
X174402857Y-100421228D02*
X174450476Y-100325990D01*
X174450476Y-100325990D02*
X174498095Y-100278371D01*
X174498095Y-100278371D02*
X174593333Y-100230752D01*
X174593333Y-100230752D02*
X174783809Y-100230752D01*
X174783809Y-100230752D02*
X174879047Y-100278371D01*
X175783809Y-100230752D02*
X175783809Y-100897419D01*
X175355238Y-100230752D02*
X175355238Y-100754561D01*
X175355238Y-100754561D02*
X175402857Y-100849800D01*
X175402857Y-100849800D02*
X175498095Y-100897419D01*
X175498095Y-100897419D02*
X175640952Y-100897419D01*
X175640952Y-100897419D02*
X175736190Y-100849800D01*
X175736190Y-100849800D02*
X175783809Y-100802180D01*
X176260000Y-100897419D02*
X176260000Y-100230752D01*
X176260000Y-99897419D02*
X176212381Y-99945038D01*
X176212381Y-99945038D02*
X176260000Y-99992657D01*
X176260000Y-99992657D02*
X176307619Y-99945038D01*
X176307619Y-99945038D02*
X176260000Y-99897419D01*
X176260000Y-99897419D02*
X176260000Y-99992657D01*
X176736190Y-100230752D02*
X176736190Y-100897419D01*
X176736190Y-100325990D02*
X176783809Y-100278371D01*
X176783809Y-100278371D02*
X176879047Y-100230752D01*
X176879047Y-100230752D02*
X177021904Y-100230752D01*
X177021904Y-100230752D02*
X177117142Y-100278371D01*
X177117142Y-100278371D02*
X177164761Y-100373609D01*
X177164761Y-100373609D02*
X177164761Y-100897419D01*
X177783809Y-100897419D02*
X177688571Y-100849800D01*
X177688571Y-100849800D02*
X177640952Y-100802180D01*
X177640952Y-100802180D02*
X177593333Y-100706942D01*
X177593333Y-100706942D02*
X177593333Y-100421228D01*
X177593333Y-100421228D02*
X177640952Y-100325990D01*
X177640952Y-100325990D02*
X177688571Y-100278371D01*
X177688571Y-100278371D02*
X177783809Y-100230752D01*
X177783809Y-100230752D02*
X177926666Y-100230752D01*
X177926666Y-100230752D02*
X178021904Y-100278371D01*
X178021904Y-100278371D02*
X178069523Y-100325990D01*
X178069523Y-100325990D02*
X178117142Y-100421228D01*
X178117142Y-100421228D02*
X178117142Y-100706942D01*
X178117142Y-100706942D02*
X178069523Y-100802180D01*
X178069523Y-100802180D02*
X178021904Y-100849800D01*
X178021904Y-100849800D02*
X177926666Y-100897419D01*
X177926666Y-100897419D02*
X177783809Y-100897419D01*
X178307619Y-100992657D02*
X179069523Y-100992657D01*
X179307619Y-100897419D02*
X179307619Y-99897419D01*
X179307619Y-99897419D02*
X179879047Y-100897419D01*
X179879047Y-100897419D02*
X179879047Y-99897419D01*
X180783809Y-100897419D02*
X180783809Y-100373609D01*
X180783809Y-100373609D02*
X180736190Y-100278371D01*
X180736190Y-100278371D02*
X180640952Y-100230752D01*
X180640952Y-100230752D02*
X180450476Y-100230752D01*
X180450476Y-100230752D02*
X180355238Y-100278371D01*
X180783809Y-100849800D02*
X180688571Y-100897419D01*
X180688571Y-100897419D02*
X180450476Y-100897419D01*
X180450476Y-100897419D02*
X180355238Y-100849800D01*
X180355238Y-100849800D02*
X180307619Y-100754561D01*
X180307619Y-100754561D02*
X180307619Y-100659323D01*
X180307619Y-100659323D02*
X180355238Y-100564085D01*
X180355238Y-100564085D02*
X180450476Y-100516466D01*
X180450476Y-100516466D02*
X180688571Y-100516466D01*
X180688571Y-100516466D02*
X180783809Y-100468847D01*
X181260000Y-100230752D02*
X181260000Y-100897419D01*
X181260000Y-100325990D02*
X181307619Y-100278371D01*
X181307619Y-100278371D02*
X181402857Y-100230752D01*
X181402857Y-100230752D02*
X181545714Y-100230752D01*
X181545714Y-100230752D02*
X181640952Y-100278371D01*
X181640952Y-100278371D02*
X181688571Y-100373609D01*
X181688571Y-100373609D02*
X181688571Y-100897419D01*
X182307619Y-100897419D02*
X182212381Y-100849800D01*
X182212381Y-100849800D02*
X182164762Y-100802180D01*
X182164762Y-100802180D02*
X182117143Y-100706942D01*
X182117143Y-100706942D02*
X182117143Y-100421228D01*
X182117143Y-100421228D02*
X182164762Y-100325990D01*
X182164762Y-100325990D02*
X182212381Y-100278371D01*
X182212381Y-100278371D02*
X182307619Y-100230752D01*
X182307619Y-100230752D02*
X182450476Y-100230752D01*
X182450476Y-100230752D02*
X182545714Y-100278371D01*
X182545714Y-100278371D02*
X182593333Y-100325990D01*
X182593333Y-100325990D02*
X182640952Y-100421228D01*
X182640952Y-100421228D02*
X182640952Y-100706942D01*
X182640952Y-100706942D02*
X182593333Y-100802180D01*
X182593333Y-100802180D02*
X182545714Y-100849800D01*
X182545714Y-100849800D02*
X182450476Y-100897419D01*
X182450476Y-100897419D02*
X182307619Y-100897419D01*
X183593333Y-100897419D02*
X183021905Y-100897419D01*
X183307619Y-100897419D02*
X183307619Y-99897419D01*
X183307619Y-99897419D02*
X183212381Y-100040276D01*
X183212381Y-100040276D02*
X183117143Y-100135514D01*
X183117143Y-100135514D02*
X183021905Y-100183133D01*
D13*
X177118095Y-126454819D02*
X177118095Y-127264342D01*
X177118095Y-127264342D02*
X177165714Y-127359580D01*
X177165714Y-127359580D02*
X177213333Y-127407200D01*
X177213333Y-127407200D02*
X177308571Y-127454819D01*
X177308571Y-127454819D02*
X177499047Y-127454819D01*
X177499047Y-127454819D02*
X177594285Y-127407200D01*
X177594285Y-127407200D02*
X177641904Y-127359580D01*
X177641904Y-127359580D02*
X177689523Y-127264342D01*
X177689523Y-127264342D02*
X177689523Y-126454819D01*
X178118095Y-127407200D02*
X178260952Y-127454819D01*
X178260952Y-127454819D02*
X178499047Y-127454819D01*
X178499047Y-127454819D02*
X178594285Y-127407200D01*
X178594285Y-127407200D02*
X178641904Y-127359580D01*
X178641904Y-127359580D02*
X178689523Y-127264342D01*
X178689523Y-127264342D02*
X178689523Y-127169104D01*
X178689523Y-127169104D02*
X178641904Y-127073866D01*
X178641904Y-127073866D02*
X178594285Y-127026247D01*
X178594285Y-127026247D02*
X178499047Y-126978628D01*
X178499047Y-126978628D02*
X178308571Y-126931009D01*
X178308571Y-126931009D02*
X178213333Y-126883390D01*
X178213333Y-126883390D02*
X178165714Y-126835771D01*
X178165714Y-126835771D02*
X178118095Y-126740533D01*
X178118095Y-126740533D02*
X178118095Y-126645295D01*
X178118095Y-126645295D02*
X178165714Y-126550057D01*
X178165714Y-126550057D02*
X178213333Y-126502438D01*
X178213333Y-126502438D02*
X178308571Y-126454819D01*
X178308571Y-126454819D02*
X178546666Y-126454819D01*
X178546666Y-126454819D02*
X178689523Y-126502438D01*
X179451428Y-126931009D02*
X179594285Y-126978628D01*
X179594285Y-126978628D02*
X179641904Y-127026247D01*
X179641904Y-127026247D02*
X179689523Y-127121485D01*
X179689523Y-127121485D02*
X179689523Y-127264342D01*
X179689523Y-127264342D02*
X179641904Y-127359580D01*
X179641904Y-127359580D02*
X179594285Y-127407200D01*
X179594285Y-127407200D02*
X179499047Y-127454819D01*
X179499047Y-127454819D02*
X179118095Y-127454819D01*
X179118095Y-127454819D02*
X179118095Y-126454819D01*
X179118095Y-126454819D02*
X179451428Y-126454819D01*
X179451428Y-126454819D02*
X179546666Y-126502438D01*
X179546666Y-126502438D02*
X179594285Y-126550057D01*
X179594285Y-126550057D02*
X179641904Y-126645295D01*
X179641904Y-126645295D02*
X179641904Y-126740533D01*
X179641904Y-126740533D02*
X179594285Y-126835771D01*
X179594285Y-126835771D02*
X179546666Y-126883390D01*
X179546666Y-126883390D02*
X179451428Y-126931009D01*
X179451428Y-126931009D02*
X179118095Y-126931009D01*
D14*
%TO.C,Inter_plaques1*%
X115305000Y-85645000D02*
X116000000Y-85645000D01*
X115305000Y-86330000D02*
X115305000Y-85645000D01*
X115305000Y-87015000D02*
X115305000Y-90890000D01*
X115305000Y-87015000D02*
X115391724Y-87015000D01*
X115305000Y-90890000D02*
X115605507Y-90890000D01*
X116394493Y-90890000D02*
X116695000Y-90890000D01*
X116608276Y-87015000D02*
X116695000Y-87015000D01*
X116695000Y-87015000D02*
X116695000Y-90890000D01*
D11*
%TO.C,MPU1*%
X112640000Y-95990000D02*
X131890000Y-95990000D01*
X112640000Y-97990000D02*
X112640000Y-95990000D01*
X132390000Y-96490000D02*
X131890000Y-95990000D01*
X132390000Y-96490000D02*
X132390000Y-97990000D01*
X132390000Y-97990000D02*
X112640000Y-97990000D01*
X132790000Y-111590000D02*
X112390000Y-111590000D01*
X112390000Y-95790000D01*
X132790000Y-95790000D01*
X132790000Y-111590000D01*
D14*
%TO.C,Inter_in_c1*%
X179940000Y-79305000D02*
X179940000Y-79605507D01*
X179940000Y-80394493D02*
X179940000Y-80695000D01*
X181815000Y-79305000D02*
X179940000Y-79305000D01*
X181815000Y-79305000D02*
X181815000Y-79391724D01*
X181815000Y-80608276D02*
X181815000Y-80695000D01*
X181815000Y-80695000D02*
X179940000Y-80695000D01*
X182500000Y-79305000D02*
X183185000Y-79305000D01*
X183185000Y-79305000D02*
X183185000Y-80000000D01*
%TO.C,Inter_Input1*%
X178815000Y-84695000D02*
X178815000Y-84000000D01*
X179500000Y-84695000D02*
X178815000Y-84695000D01*
X180185000Y-83305000D02*
X185060000Y-83305000D01*
X180185000Y-83391724D02*
X180185000Y-83305000D01*
X180185000Y-84695000D02*
X180185000Y-84608276D01*
X180185000Y-84695000D02*
X185060000Y-84695000D01*
X185060000Y-83605507D02*
X185060000Y-83305000D01*
X185060000Y-84695000D02*
X185060000Y-84394493D01*
%TO.C,Servomoteur2*%
X195805000Y-99315000D02*
X196500000Y-99315000D01*
X195805000Y-100000000D02*
X195805000Y-99315000D01*
X195805000Y-100685000D02*
X195805000Y-102560000D01*
X195805000Y-100685000D02*
X195891724Y-100685000D01*
X195805000Y-102560000D02*
X196105507Y-102560000D01*
X196894493Y-102560000D02*
X197195000Y-102560000D01*
X197108276Y-100685000D02*
X197195000Y-100685000D01*
X197195000Y-100685000D02*
X197195000Y-102560000D01*
D11*
%TO.C,BMP1*%
X122810000Y-113160000D02*
X131810000Y-113160000D01*
X122810000Y-115160000D02*
X122810000Y-113160000D01*
X132310000Y-113660000D02*
X131810000Y-113160000D01*
X132310000Y-113660000D02*
X132310000Y-115160000D01*
X132310000Y-115160000D02*
X122810000Y-115160000D01*
X132510000Y-128760000D02*
X122510000Y-128760000D01*
X122510000Y-112960000D01*
X132510000Y-112960000D01*
X132510000Y-128760000D01*
D14*
%TO.C,Servomoteur1*%
X191805000Y-99315000D02*
X192500000Y-99315000D01*
X191805000Y-100000000D02*
X191805000Y-99315000D01*
X191805000Y-100685000D02*
X191805000Y-102560000D01*
X191805000Y-100685000D02*
X191891724Y-100685000D01*
X191805000Y-102560000D02*
X192105507Y-102560000D01*
X192894493Y-102560000D02*
X193195000Y-102560000D01*
X193108276Y-100685000D02*
X193195000Y-100685000D01*
X193195000Y-100685000D02*
X193195000Y-102560000D01*
%TO.C,Bloc_pile1*%
X179805000Y-72815000D02*
X179805000Y-71940000D01*
X179891724Y-72815000D02*
X179805000Y-72815000D01*
X180105507Y-71940000D02*
X179805000Y-71940000D01*
X181195000Y-71940000D02*
X180894493Y-71940000D01*
X181195000Y-72815000D02*
X181108276Y-72815000D01*
X181195000Y-72815000D02*
X181195000Y-71940000D01*
X181195000Y-73500000D02*
X181195000Y-74185000D01*
X181195000Y-74185000D02*
X180500000Y-74185000D01*
%TO.C,Arduino_Nano1*%
X169360000Y-87500000D02*
X169360000Y-90170000D01*
X169360000Y-92710000D02*
X169360000Y-130940000D01*
X169360000Y-130940000D02*
X174440000Y-130940000D01*
X172030000Y-90170000D02*
X169360000Y-90170000D01*
X172030000Y-92710000D02*
X169360000Y-92710000D01*
X172030000Y-92710000D02*
X172030000Y-90170000D01*
X172030000Y-92710000D02*
X172030000Y-128270000D01*
X172030000Y-128270000D02*
X169360000Y-128270000D01*
X174440000Y-123060000D02*
X182320000Y-123060000D01*
X174440000Y-133480000D02*
X174440000Y-123060000D01*
X182320000Y-123060000D02*
X182320000Y-133480000D01*
X182320000Y-133480000D02*
X174440000Y-133480000D01*
X184730000Y-90170000D02*
X184730000Y-128270000D01*
X184730000Y-90170000D02*
X187400000Y-90170000D01*
X184730000Y-128270000D02*
X187400000Y-128270000D01*
X187400000Y-87500000D02*
X169360000Y-87500000D01*
X187400000Y-130940000D02*
X182320000Y-130940000D01*
X187400000Y-130940000D02*
X187400000Y-87500000D01*
%TD*%
M02*
