%TF.GenerationSoftware,KiCad,Pcbnew,8.0.1*%
%TF.CreationDate,2024-06-10T20:51:59+02:00*%
%TF.ProjectId,PCB_Plaque_Haute,5043425f-506c-4617-9175-655f48617574,C.Roche*%
%TF.SameCoordinates,Original*%
%TF.FileFunction,Copper,L1,Top*%
%TF.FilePolarity,Positive*%
%FSLAX46Y46*%
G04 Gerber Fmt 4.6, Leading zero omitted, Abs format (unit mm)*
G04 Created by KiCad (PCBNEW 8.0.1) date 2024-06-10 20:51:59*
%MOMM*%
%LPD*%
G01*
G04 APERTURE LIST*
%TA.AperFunction,ComponentPad*%
%ADD10R,1.700000X1.700000*%
%TD*%
%TA.AperFunction,ComponentPad*%
%ADD11O,1.700000X1.700000*%
%TD*%
%TA.AperFunction,ComponentPad*%
%ADD12O,1.000000X1.700000*%
%TD*%
%TA.AperFunction,ComponentPad*%
%ADD13R,1.600000X1.600000*%
%TD*%
%TA.AperFunction,ComponentPad*%
%ADD14O,1.600000X1.600000*%
%TD*%
%TA.AperFunction,Conductor*%
%ADD15C,0.200000*%
%TD*%
G04 APERTURE END LIST*
D10*
%TO.P,Servomoteur2,1,Vin*%
%TO.N,Net-(Arduino_Nano1-5V)*%
X197500000Y-107460000D03*
D11*
%TO.P,Servomoteur2,2,AN*%
%TO.N,Net-(Arduino_Nano1-D9)*%
X197500000Y-110000000D03*
%TO.P,Servomoteur2,3,GND*%
%TO.N,Net-(Bloc_pile1-GND)*%
X197500000Y-112540000D03*
%TD*%
D10*
%TO.P,Servomoteur1,1,Vin*%
%TO.N,Net-(Arduino_Nano1-5V)*%
X191500000Y-107460000D03*
D11*
%TO.P,Servomoteur1,2,AN*%
%TO.N,Net-(Arduino_Nano1-D10)*%
X191500000Y-110000000D03*
%TO.P,Servomoteur1,3,GND*%
%TO.N,Net-(Bloc_pile1-GND)*%
X191500000Y-112540000D03*
%TD*%
D10*
%TO.P,Inter_Input1,1,GND*%
%TO.N,Net-(Bloc_pile1-GND)*%
X195000000Y-87650000D03*
D11*
%TO.P,Inter_Input1,2,SW_2*%
%TO.N,Net-(Arduino_Nano1-D2)*%
X195000000Y-90190000D03*
%TO.P,Inter_Input1,3,SW_1*%
%TO.N,Net-(Arduino_Nano1-D3)*%
X195000000Y-92730000D03*
%TO.P,Inter_Input1,4,Jack*%
%TO.N,Net-(Arduino_Nano1-D4)*%
X195000000Y-95270000D03*
%TO.P,Inter_Input1,5,Led_2*%
%TO.N,Net-(Arduino_Nano1-D6)*%
X195000000Y-97810000D03*
%TO.P,Inter_Input1,6,Led_1*%
%TO.N,Net-(Arduino_Nano1-D7)*%
X195000000Y-100350000D03*
%TD*%
D10*
%TO.P,Bloc_pile1,1,VDD*%
%TO.N,Net-(Arduino_Nano1-Vin)*%
X190725000Y-81500000D03*
D11*
%TO.P,Bloc_pile1,2,GND*%
%TO.N,Net-(Bloc_pile1-GND)*%
X193265000Y-81500000D03*
%TD*%
D10*
%TO.P,Inter_Cap_Vol1,1,5V*%
%TO.N,Net-(Inter_Cap_Vol1-GND)*%
X185000000Y-79225000D03*
D11*
%TO.P,Inter_Cap_Vol1,2,Cap*%
%TO.N,Net-(Inter_Cap_Vol1-Cap)*%
X185000000Y-81765000D03*
%TD*%
D12*
%TO.P,Octocoupleur1,1,In_1*%
%TO.N,Net-(Arduino_Nano1-D8)*%
X170000000Y-75800000D03*
%TO.P,Octocoupleur1,2,GND_1*%
%TO.N,Net-(Bloc_pile1-GND)*%
X170000000Y-78340000D03*
%TO.P,Octocoupleur1,3,Out_2*%
%TO.N,Net-(Inter_Cap_Vol1-Cap)*%
X178000000Y-78340000D03*
%TO.P,Octocoupleur1,4,5V_2*%
%TO.N,Net-(Inter_Cap_Vol1-GND)*%
X178000000Y-75800000D03*
%TD*%
D13*
%TO.P,Arduino_Nano1,1,TxD*%
%TO.N,unconnected-(Arduino_Nano1-TxD-Pad1)*%
X170760000Y-91440000D03*
D14*
%TO.P,Arduino_Nano1,2,RxD*%
%TO.N,unconnected-(Arduino_Nano1-RxD-Pad2)*%
X170760000Y-93980000D03*
%TO.P,Arduino_Nano1,3,Reset*%
%TO.N,unconnected-(Arduino_Nano1-Reset-Pad3)*%
X170760000Y-96520000D03*
%TO.P,Arduino_Nano1,4,GND*%
%TO.N,unconnected-(Arduino_Nano1-GND-Pad4)*%
X170760000Y-99060000D03*
%TO.P,Arduino_Nano1,5,D2*%
%TO.N,Net-(Arduino_Nano1-D2)*%
X170760000Y-101600000D03*
%TO.P,Arduino_Nano1,6,D3*%
%TO.N,Net-(Arduino_Nano1-D3)*%
X170760000Y-104140000D03*
%TO.P,Arduino_Nano1,7,D4*%
%TO.N,Net-(Arduino_Nano1-D4)*%
X170760000Y-106680000D03*
%TO.P,Arduino_Nano1,8,D5*%
%TO.N,unconnected-(Arduino_Nano1-D5-Pad8)*%
X170760000Y-109220000D03*
%TO.P,Arduino_Nano1,9,D6*%
%TO.N,Net-(Arduino_Nano1-D6)*%
X170760000Y-111760000D03*
%TO.P,Arduino_Nano1,10,D7*%
%TO.N,Net-(Arduino_Nano1-D7)*%
X170760000Y-114300000D03*
%TO.P,Arduino_Nano1,11,D8*%
%TO.N,Net-(Arduino_Nano1-D8)*%
X170760000Y-116840000D03*
%TO.P,Arduino_Nano1,12,D9*%
%TO.N,Net-(Arduino_Nano1-D9)*%
X170760000Y-119380000D03*
%TO.P,Arduino_Nano1,13,D10*%
%TO.N,Net-(Arduino_Nano1-D10)*%
X170760000Y-121920000D03*
%TO.P,Arduino_Nano1,14,D11*%
%TO.N,unconnected-(Arduino_Nano1-D11-Pad14)*%
X170760000Y-124460000D03*
%TO.P,Arduino_Nano1,15,D12*%
%TO.N,unconnected-(Arduino_Nano1-D12-Pad15)*%
X170760000Y-127000000D03*
%TO.P,Arduino_Nano1,16,D13*%
%TO.N,unconnected-(Arduino_Nano1-D13-Pad16)*%
X186000000Y-127000000D03*
%TO.P,Arduino_Nano1,17,3V3*%
%TO.N,unconnected-(Arduino_Nano1-3V3-Pad17)*%
X186000000Y-124460000D03*
%TO.P,Arduino_Nano1,18,Aref*%
%TO.N,unconnected-(Arduino_Nano1-Aref-Pad18)*%
X186000000Y-121920000D03*
%TO.P,Arduino_Nano1,19,A0*%
%TO.N,unconnected-(Arduino_Nano1-A0-Pad19)*%
X186000000Y-119380000D03*
%TO.P,Arduino_Nano1,20,A1*%
%TO.N,unconnected-(Arduino_Nano1-A1-Pad20)*%
X186000000Y-116840000D03*
%TO.P,Arduino_Nano1,21,A2*%
%TO.N,unconnected-(Arduino_Nano1-A2-Pad21)*%
X186000000Y-114300000D03*
%TO.P,Arduino_Nano1,22,A3*%
%TO.N,unconnected-(Arduino_Nano1-A3-Pad22)*%
X186000000Y-111760000D03*
%TO.P,Arduino_Nano1,23,A4*%
%TO.N,unconnected-(Arduino_Nano1-A4-Pad23)*%
X186000000Y-109220000D03*
%TO.P,Arduino_Nano1,24,A5*%
%TO.N,unconnected-(Arduino_Nano1-A5-Pad24)*%
X186000000Y-106680000D03*
%TO.P,Arduino_Nano1,25,A6*%
%TO.N,unconnected-(Arduino_Nano1-A6-Pad25)*%
X186000000Y-104140000D03*
%TO.P,Arduino_Nano1,26,A7*%
%TO.N,unconnected-(Arduino_Nano1-A7-Pad26)*%
X186000000Y-101600000D03*
%TO.P,Arduino_Nano1,27,5V*%
%TO.N,Net-(Arduino_Nano1-5V)*%
X186000000Y-99060000D03*
%TO.P,Arduino_Nano1,28,Reset*%
%TO.N,unconnected-(Arduino_Nano1-Reset-Pad28)*%
X186000000Y-96520000D03*
%TO.P,Arduino_Nano1,29,GND*%
%TO.N,Net-(Bloc_pile1-GND)*%
X186000000Y-93980000D03*
%TO.P,Arduino_Nano1,30,Vin*%
%TO.N,Net-(Arduino_Nano1-Vin)*%
X186000000Y-91440000D03*
%TD*%
D15*
%TO.N,Net-(Bloc_pile1-GND)*%
X193265000Y-80265000D02*
X193265000Y-81500000D01*
X188000000Y-79500000D02*
X188500000Y-79000000D01*
X188000000Y-83000000D02*
X188000000Y-79500000D01*
X186500000Y-84500000D02*
X188000000Y-83000000D01*
X188500000Y-79000000D02*
X192000000Y-79000000D01*
X170840000Y-78340000D02*
X177000000Y-84500000D01*
X170000000Y-78340000D02*
X170840000Y-78340000D01*
X192000000Y-79000000D02*
X193265000Y-80265000D01*
X177000000Y-84500000D02*
X186500000Y-84500000D01*
X198500000Y-89500000D02*
X198500000Y-103500000D01*
X196650000Y-87650000D02*
X198500000Y-89500000D01*
X195000000Y-87650000D02*
X196650000Y-87650000D01*
X195000000Y-83235000D02*
X195000000Y-87650000D01*
X193265000Y-81500000D02*
X195000000Y-83235000D01*
X186985000Y-93980000D02*
X186000000Y-93980000D01*
X188000000Y-94995000D02*
X186985000Y-93980000D01*
X194000000Y-103500000D02*
X188000000Y-97500000D01*
X188000000Y-97500000D02*
X188000000Y-94995000D01*
X198500000Y-103500000D02*
X194000000Y-103500000D01*
X200500000Y-111000000D02*
X198960000Y-112540000D01*
X198500000Y-103500000D02*
X200500000Y-105500000D01*
X198960000Y-112540000D02*
X197500000Y-112540000D01*
X200500000Y-105500000D02*
X200500000Y-111000000D01*
%TO.N,Net-(Arduino_Nano1-D2)*%
X192190000Y-90190000D02*
X195000000Y-90190000D01*
X191000000Y-89000000D02*
X192190000Y-90190000D01*
X191000000Y-88500000D02*
X191000000Y-89000000D01*
X188000000Y-85500000D02*
X191000000Y-88500000D01*
X182500000Y-85500000D02*
X188000000Y-85500000D01*
%TO.N,Net-(Arduino_Nano1-D3)*%
X177860000Y-104140000D02*
X170760000Y-104140000D01*
X179000000Y-90000000D02*
X179000000Y-103000000D01*
X187697058Y-86000000D02*
X183000000Y-86000000D01*
X183000000Y-86000000D02*
X179000000Y-90000000D01*
X190500000Y-88802942D02*
X187697058Y-86000000D01*
X191730000Y-92730000D02*
X190500000Y-91500000D01*
X190500000Y-91500000D02*
X190500000Y-88802942D01*
X195000000Y-92730000D02*
X191730000Y-92730000D01*
X179000000Y-103000000D02*
X177860000Y-104140000D01*
%TO.N,Net-(Arduino_Nano1-D4)*%
X179320000Y-106680000D02*
X170760000Y-106680000D01*
X180000000Y-90000000D02*
X180000000Y-106000000D01*
X183500000Y-86500000D02*
X180000000Y-90000000D01*
X190000000Y-88868628D02*
X187631372Y-86500000D01*
X190000000Y-94500000D02*
X190000000Y-88868628D01*
X180000000Y-106000000D02*
X179320000Y-106680000D01*
X190770000Y-95270000D02*
X190000000Y-94500000D01*
X195000000Y-95270000D02*
X190770000Y-95270000D01*
X187631372Y-86500000D02*
X183500000Y-86500000D01*
%TO.N,Net-(Arduino_Nano1-D6)*%
X191310000Y-97810000D02*
X195000000Y-97810000D01*
X189500000Y-96000000D02*
X191310000Y-97810000D01*
X184000000Y-87000000D02*
X187565686Y-87000000D01*
X181000000Y-90000000D02*
X184000000Y-87000000D01*
X189500000Y-88934314D02*
X189500000Y-96000000D01*
X181000000Y-107000000D02*
X181000000Y-90000000D01*
X187565686Y-87000000D02*
X189500000Y-88934314D01*
X176240000Y-111760000D02*
X181000000Y-107000000D01*
X170760000Y-111760000D02*
X176240000Y-111760000D01*
%TO.N,Net-(Arduino_Nano1-D7)*%
X192850000Y-100350000D02*
X195000000Y-100350000D01*
X189000000Y-96500000D02*
X192850000Y-100350000D01*
X189000000Y-89000000D02*
X189000000Y-96500000D01*
X187500000Y-87500000D02*
X189000000Y-89000000D01*
X184500000Y-87500000D02*
X187500000Y-87500000D01*
%TO.N,Net-(Arduino_Nano1-D9)*%
X199000000Y-110000000D02*
X197500000Y-110000000D01*
X200000000Y-109000000D02*
X199000000Y-110000000D01*
X200000000Y-106000000D02*
X200000000Y-109000000D01*
X194065686Y-104500000D02*
X198500000Y-104500000D01*
X187365686Y-97800000D02*
X194065686Y-104500000D01*
X184500000Y-117500000D02*
X184500000Y-98500000D01*
X182620000Y-119380000D02*
X184500000Y-117500000D01*
X185200000Y-97800000D02*
X187365686Y-97800000D01*
X184500000Y-98500000D02*
X185200000Y-97800000D01*
X198500000Y-104500000D02*
X200000000Y-106000000D01*
X170760000Y-119380000D02*
X182620000Y-119380000D01*
%TO.N,Net-(Arduino_Nano1-5V)*%
X190500000Y-106460000D02*
X190500000Y-101500000D01*
X190500000Y-101500000D02*
X188060000Y-99060000D01*
X191500000Y-107460000D02*
X190500000Y-106460000D01*
X188060000Y-99060000D02*
X186000000Y-99060000D01*
X191500000Y-107460000D02*
X197500000Y-107460000D01*
%TO.N,Net-(Bloc_pile1-GND)*%
X197500000Y-112540000D02*
X191500000Y-112540000D01*
%TO.N,Net-(Arduino_Nano1-D10)*%
X189000000Y-110000000D02*
X188000000Y-111000000D01*
X191500000Y-110000000D02*
X189000000Y-110000000D01*
X188000000Y-111000000D02*
X188000000Y-119500000D01*
%TO.N,Net-(Arduino_Nano1-D2)*%
X178000000Y-100500000D02*
X178000000Y-90000000D01*
X178000000Y-90000000D02*
X182500000Y-85500000D01*
X176900000Y-101600000D02*
X178000000Y-100500000D01*
X170760000Y-101600000D02*
X176900000Y-101600000D01*
%TO.N,Net-(Arduino_Nano1-D10)*%
X172080000Y-121920000D02*
X170760000Y-121920000D01*
X173350000Y-120650000D02*
X172080000Y-121920000D01*
X188000000Y-119500000D02*
X186850000Y-120650000D01*
X186850000Y-120650000D02*
X173350000Y-120650000D01*
%TO.N,Net-(Arduino_Nano1-D7)*%
X174700000Y-114300000D02*
X182000000Y-107000000D01*
X170760000Y-114300000D02*
X174700000Y-114300000D01*
X182000000Y-90000000D02*
X184500000Y-87500000D01*
X182000000Y-107000000D02*
X182000000Y-90000000D01*
%TD*%
%TA.AperFunction,Conductor*%
%TO.N,Net-(Bloc_pile1-GND)*%
G36*
X156424408Y-52825563D02*
G01*
X157785444Y-52865535D01*
X157789048Y-52865695D01*
X159148268Y-52945602D01*
X159151883Y-52945868D01*
X160508203Y-53065645D01*
X160511749Y-53066011D01*
X161864007Y-53225557D01*
X161867604Y-53226036D01*
X163214524Y-53425201D01*
X163218075Y-53425779D01*
X164108238Y-53584237D01*
X164558623Y-53664410D01*
X164562197Y-53665101D01*
X164949347Y-53745809D01*
X165895110Y-53942971D01*
X165898609Y-53943754D01*
X167222851Y-54260648D01*
X167226330Y-54261535D01*
X168540689Y-54617165D01*
X168544107Y-54618144D01*
X169847469Y-55012209D01*
X169850938Y-55013314D01*
X171142099Y-55445447D01*
X171145535Y-55446653D01*
X172423460Y-55916507D01*
X172426823Y-55917800D01*
X173381896Y-56301139D01*
X173690463Y-56424990D01*
X173693821Y-56426396D01*
X174941999Y-56970451D01*
X174945187Y-56971896D01*
X176176949Y-57552402D01*
X176180189Y-57553988D01*
X177394275Y-58170353D01*
X177397445Y-58172021D01*
X177832465Y-58409183D01*
X178592937Y-58823774D01*
X178596108Y-58825564D01*
X179771898Y-59512100D01*
X179775014Y-59513981D01*
X180930158Y-60234748D01*
X180933218Y-60236720D01*
X182066760Y-60991122D01*
X182069695Y-60993139D01*
X183180557Y-61780463D01*
X183183496Y-61782611D01*
X184270796Y-62602229D01*
X184273612Y-62604417D01*
X184985236Y-63174364D01*
X185336388Y-63455605D01*
X185339196Y-63457923D01*
X186376470Y-64339895D01*
X186379208Y-64342293D01*
X187390159Y-65254352D01*
X187392826Y-65256830D01*
X188376581Y-66198185D01*
X188379174Y-66200741D01*
X189334835Y-67170535D01*
X189337352Y-67173165D01*
X190264148Y-68170615D01*
X190266587Y-68173318D01*
X190701503Y-68669857D01*
X190730867Y-68733257D01*
X190721293Y-68802468D01*
X190675820Y-68855515D01*
X190608887Y-68875557D01*
X190551930Y-68862044D01*
X190425739Y-68797746D01*
X190083206Y-68666260D01*
X190083199Y-68666258D01*
X189728794Y-68571295D01*
X189728790Y-68571294D01*
X189728789Y-68571294D01*
X189366405Y-68513898D01*
X189000001Y-68494696D01*
X188999999Y-68494696D01*
X188633594Y-68513898D01*
X188271211Y-68571294D01*
X188271209Y-68571294D01*
X187916793Y-68666260D01*
X187574260Y-68797746D01*
X187247343Y-68964320D01*
X186939635Y-69164147D01*
X186654498Y-69395047D01*
X186654490Y-69395054D01*
X186395054Y-69654490D01*
X186395047Y-69654498D01*
X186164147Y-69939635D01*
X185964320Y-70247343D01*
X185797746Y-70574260D01*
X185666260Y-70916793D01*
X185571294Y-71271209D01*
X185571294Y-71271211D01*
X185513898Y-71633594D01*
X185494696Y-71999999D01*
X185494696Y-72000000D01*
X185513898Y-72366405D01*
X185571294Y-72728788D01*
X185571294Y-72728790D01*
X185666260Y-73083206D01*
X185797746Y-73425739D01*
X185964320Y-73752656D01*
X186164147Y-74060364D01*
X186164149Y-74060366D01*
X186395051Y-74345506D01*
X186654494Y-74604949D01*
X186654498Y-74604952D01*
X186939635Y-74835852D01*
X187155587Y-74976092D01*
X187247348Y-75035682D01*
X187574264Y-75202255D01*
X187916801Y-75333742D01*
X188271206Y-75428705D01*
X188633596Y-75486102D01*
X188979734Y-75504241D01*
X188999999Y-75505304D01*
X189000000Y-75505304D01*
X189000001Y-75505304D01*
X189019203Y-75504297D01*
X189366404Y-75486102D01*
X189728794Y-75428705D01*
X190083199Y-75333742D01*
X190425736Y-75202255D01*
X190752652Y-75035682D01*
X191060366Y-74835851D01*
X191345506Y-74604949D01*
X191604949Y-74345506D01*
X191835851Y-74060366D01*
X192035682Y-73752652D01*
X192202255Y-73425736D01*
X192333742Y-73083199D01*
X192428705Y-72728794D01*
X192486102Y-72366404D01*
X192505304Y-72000000D01*
X192486102Y-71633596D01*
X192428705Y-71271206D01*
X192378412Y-71083511D01*
X192380075Y-71013665D01*
X192419237Y-70955802D01*
X192483465Y-70928298D01*
X192552368Y-70939884D01*
X192596099Y-70975334D01*
X192870458Y-71328392D01*
X192872650Y-71331299D01*
X193676211Y-72430506D01*
X193678316Y-72433477D01*
X194449224Y-73555743D01*
X194451241Y-73558773D01*
X195169326Y-74672863D01*
X195188901Y-74703232D01*
X195190818Y-74706305D01*
X195353702Y-74976092D01*
X195894550Y-75871906D01*
X195896386Y-75875050D01*
X196565605Y-77060824D01*
X196567347Y-77064020D01*
X197201462Y-78268914D01*
X197203108Y-78272158D01*
X197230008Y-78327128D01*
X197801570Y-79495135D01*
X197803122Y-79498428D01*
X198124072Y-80206204D01*
X198315758Y-80628920D01*
X198365425Y-80738447D01*
X198366875Y-80741774D01*
X198878186Y-81963486D01*
X198892551Y-81997808D01*
X198893907Y-82001187D01*
X199382460Y-83272052D01*
X199383717Y-83275469D01*
X199834772Y-84560188D01*
X199835927Y-84563640D01*
X200249057Y-85860995D01*
X200250111Y-85864480D01*
X200624993Y-87173460D01*
X200625943Y-87176974D01*
X200962216Y-88496314D01*
X200963064Y-88499855D01*
X201260475Y-89828562D01*
X201261218Y-89832126D01*
X201519490Y-91168974D01*
X201520128Y-91172558D01*
X201739047Y-92516427D01*
X201739579Y-92520028D01*
X201918947Y-93869700D01*
X201919374Y-93873316D01*
X202059049Y-95227719D01*
X202059369Y-95231345D01*
X202159218Y-96589228D01*
X202159432Y-96592863D01*
X202219378Y-97953116D01*
X202219485Y-97956755D01*
X202239473Y-99318180D01*
X202239473Y-99321820D01*
X202219485Y-100683244D01*
X202219378Y-100686883D01*
X202159432Y-102047136D01*
X202159218Y-102050771D01*
X202059369Y-103408654D01*
X202059049Y-103412280D01*
X201919374Y-104766683D01*
X201918947Y-104770299D01*
X201739579Y-106119971D01*
X201739047Y-106123572D01*
X201520128Y-107467441D01*
X201519490Y-107471025D01*
X201261218Y-108807873D01*
X201260475Y-108811437D01*
X200963064Y-110140144D01*
X200962216Y-110143685D01*
X200625943Y-111463025D01*
X200624993Y-111466539D01*
X200250111Y-112775519D01*
X200249057Y-112779004D01*
X199835927Y-114076359D01*
X199834772Y-114079811D01*
X199383717Y-115364530D01*
X199382460Y-115367947D01*
X198893907Y-116638812D01*
X198892551Y-116642191D01*
X198366880Y-117898215D01*
X198365425Y-117901552D01*
X197803122Y-119141571D01*
X197801570Y-119144864D01*
X197203110Y-120367838D01*
X197201462Y-120371085D01*
X196567347Y-121575979D01*
X196565605Y-121579175D01*
X195896386Y-122764949D01*
X195894550Y-122768093D01*
X195190828Y-123933678D01*
X195188901Y-123936767D01*
X194451241Y-125081226D01*
X194449224Y-125084256D01*
X193678316Y-126206522D01*
X193676211Y-126209493D01*
X192872650Y-127308700D01*
X192870458Y-127311607D01*
X192034997Y-128386718D01*
X192032721Y-128389559D01*
X191166080Y-129439657D01*
X191163722Y-129442431D01*
X190266587Y-130466681D01*
X190264148Y-130469384D01*
X189337352Y-131466834D01*
X189334835Y-131469464D01*
X188379174Y-132439258D01*
X188376581Y-132441814D01*
X187392826Y-133383169D01*
X187390159Y-133385647D01*
X186379208Y-134297706D01*
X186376470Y-134300104D01*
X185339196Y-135182076D01*
X185336388Y-135184394D01*
X184273641Y-136035559D01*
X184270766Y-136037793D01*
X183183496Y-136857388D01*
X183180557Y-136859536D01*
X182069728Y-137646837D01*
X182066727Y-137648899D01*
X180933218Y-138403279D01*
X180930158Y-138405251D01*
X179775014Y-139126018D01*
X179771898Y-139127899D01*
X178596108Y-139814435D01*
X178592937Y-139816225D01*
X177397470Y-140467965D01*
X177394249Y-140469660D01*
X176180192Y-141086009D01*
X176176922Y-141087610D01*
X175860375Y-141236793D01*
X174945243Y-141668077D01*
X174941948Y-141669571D01*
X173693821Y-142213603D01*
X173690463Y-142215009D01*
X172426841Y-142722192D01*
X172423442Y-142723498D01*
X171145534Y-143193346D01*
X171142099Y-143194552D01*
X169850938Y-143626685D01*
X169847469Y-143627790D01*
X168544156Y-144021841D01*
X168540656Y-144022843D01*
X167226345Y-144378460D01*
X167222818Y-144379359D01*
X165898636Y-144696239D01*
X165895083Y-144697034D01*
X164562197Y-144974898D01*
X164558623Y-144975589D01*
X163218097Y-145214216D01*
X163214503Y-145214801D01*
X161867610Y-145413962D01*
X161864001Y-145414442D01*
X160511786Y-145573984D01*
X160508165Y-145574357D01*
X159151891Y-145694130D01*
X159148260Y-145694397D01*
X157789064Y-145774303D01*
X157785427Y-145774464D01*
X157131198Y-145793678D01*
X157063610Y-145775970D01*
X157016324Y-145724531D01*
X157004355Y-145655695D01*
X157031502Y-145591314D01*
X157083118Y-145553968D01*
X157165736Y-145522255D01*
X157492652Y-145355682D01*
X157800366Y-145155851D01*
X158085506Y-144924949D01*
X158344949Y-144665506D01*
X158575851Y-144380366D01*
X158775682Y-144072652D01*
X158942255Y-143745736D01*
X159073742Y-143403199D01*
X159168705Y-143048794D01*
X159226102Y-142686404D01*
X159245304Y-142320000D01*
X159226102Y-141953596D01*
X159168705Y-141591206D01*
X159073742Y-141236801D01*
X158942255Y-140894264D01*
X158775682Y-140567348D01*
X158575851Y-140259634D01*
X158552515Y-140230817D01*
X158344952Y-139974498D01*
X158344949Y-139974494D01*
X158085506Y-139715051D01*
X157800366Y-139484149D01*
X157800364Y-139484147D01*
X157492656Y-139284320D01*
X157165739Y-139117746D01*
X156823206Y-138986260D01*
X156823199Y-138986258D01*
X156468794Y-138891295D01*
X156468790Y-138891294D01*
X156468789Y-138891294D01*
X156106405Y-138833898D01*
X155740001Y-138814696D01*
X155739999Y-138814696D01*
X155373594Y-138833898D01*
X155011211Y-138891294D01*
X155011209Y-138891294D01*
X154656793Y-138986260D01*
X154314260Y-139117746D01*
X153987343Y-139284320D01*
X153679635Y-139484147D01*
X153394498Y-139715047D01*
X153394490Y-139715054D01*
X153135054Y-139974490D01*
X153135047Y-139974498D01*
X152904147Y-140259635D01*
X152704320Y-140567343D01*
X152537746Y-140894260D01*
X152406260Y-141236793D01*
X152311294Y-141591209D01*
X152311294Y-141591211D01*
X152253898Y-141953594D01*
X152234696Y-142319999D01*
X152234696Y-142320000D01*
X152253898Y-142686405D01*
X152311294Y-143048788D01*
X152311294Y-143048790D01*
X152406260Y-143403206D01*
X152537746Y-143745739D01*
X152704320Y-144072656D01*
X152904147Y-144380364D01*
X152904149Y-144380366D01*
X153135051Y-144665506D01*
X153394494Y-144924949D01*
X153394498Y-144924952D01*
X153679635Y-145155852D01*
X153770409Y-145214801D01*
X153987348Y-145355682D01*
X154314264Y-145522255D01*
X154396879Y-145553967D01*
X154452411Y-145596369D01*
X154476204Y-145662062D01*
X154460703Y-145730191D01*
X154410830Y-145779124D01*
X154348801Y-145793678D01*
X153694572Y-145774464D01*
X153690935Y-145774303D01*
X152331739Y-145694397D01*
X152328108Y-145694130D01*
X150971834Y-145574357D01*
X150968213Y-145573984D01*
X149615998Y-145414442D01*
X149612389Y-145413962D01*
X148265496Y-145214801D01*
X148261902Y-145214216D01*
X146921376Y-144975589D01*
X146917802Y-144974898D01*
X145584916Y-144697034D01*
X145581363Y-144696239D01*
X144257181Y-144379359D01*
X144253654Y-144378460D01*
X142939343Y-144022843D01*
X142935843Y-144021841D01*
X141632530Y-143627790D01*
X141629061Y-143626685D01*
X140337900Y-143194552D01*
X140334465Y-143193346D01*
X139056557Y-142723498D01*
X139053158Y-142722192D01*
X137789536Y-142215009D01*
X137786178Y-142213603D01*
X136955785Y-141851652D01*
X136538031Y-141669562D01*
X136534781Y-141668089D01*
X135303077Y-141087610D01*
X135299807Y-141086009D01*
X134085750Y-140469660D01*
X134082529Y-140467965D01*
X132887062Y-139816225D01*
X132883891Y-139814435D01*
X131708101Y-139127899D01*
X131704985Y-139126018D01*
X130549841Y-138405251D01*
X130546781Y-138403279D01*
X129929859Y-137992701D01*
X129413254Y-137648886D01*
X129410290Y-137646850D01*
X128299442Y-136859536D01*
X128296503Y-136857388D01*
X127608778Y-136338974D01*
X127209213Y-136037777D01*
X127206378Y-136035574D01*
X126494764Y-135465636D01*
X126143611Y-135184394D01*
X126140803Y-135182076D01*
X125103529Y-134300104D01*
X125100791Y-134297706D01*
X124089840Y-133385647D01*
X124087173Y-133383169D01*
X123103418Y-132441814D01*
X123100825Y-132439258D01*
X122145164Y-131469464D01*
X122142647Y-131466834D01*
X121215851Y-130469384D01*
X121213412Y-130466681D01*
X120316277Y-129442431D01*
X120313919Y-129439657D01*
X119447278Y-128389559D01*
X119445002Y-128386718D01*
X118714363Y-127446497D01*
X118609529Y-127311592D01*
X118607349Y-127308700D01*
X118381678Y-127000001D01*
X169454532Y-127000001D01*
X169474364Y-127226686D01*
X169474366Y-127226697D01*
X169533258Y-127446488D01*
X169533261Y-127446497D01*
X169629431Y-127652732D01*
X169629432Y-127652734D01*
X169759954Y-127839141D01*
X169920858Y-128000045D01*
X169920861Y-128000047D01*
X170107266Y-128130568D01*
X170313504Y-128226739D01*
X170533308Y-128285635D01*
X170695230Y-128299801D01*
X170759998Y-128305468D01*
X170760000Y-128305468D01*
X170760002Y-128305468D01*
X170816673Y-128300509D01*
X170986692Y-128285635D01*
X171206496Y-128226739D01*
X171412734Y-128130568D01*
X171599139Y-128000047D01*
X171760047Y-127839139D01*
X171890568Y-127652734D01*
X171986739Y-127446496D01*
X172045635Y-127226692D01*
X172065468Y-127000000D01*
X172045635Y-126773308D01*
X171986739Y-126553504D01*
X171890568Y-126347266D01*
X171760047Y-126160861D01*
X171760045Y-126160858D01*
X171599141Y-125999954D01*
X171412734Y-125869432D01*
X171412728Y-125869429D01*
X171354725Y-125842382D01*
X171302285Y-125796210D01*
X171283133Y-125729017D01*
X171303348Y-125662135D01*
X171354725Y-125617618D01*
X171412734Y-125590568D01*
X171599139Y-125460047D01*
X171760047Y-125299139D01*
X171890568Y-125112734D01*
X171986739Y-124906496D01*
X172045635Y-124686692D01*
X172065468Y-124460000D01*
X172045635Y-124233308D01*
X171986739Y-124013504D01*
X171890568Y-123807266D01*
X171760047Y-123620861D01*
X171760045Y-123620858D01*
X171599141Y-123459954D01*
X171412734Y-123329432D01*
X171412728Y-123329429D01*
X171354725Y-123302382D01*
X171302285Y-123256210D01*
X171283133Y-123189017D01*
X171303348Y-123122135D01*
X171354725Y-123077618D01*
X171412734Y-123050568D01*
X171599139Y-122920047D01*
X171760047Y-122759139D01*
X171890118Y-122573375D01*
X171944693Y-122529752D01*
X171991692Y-122520500D01*
X171993331Y-122520500D01*
X171993347Y-122520501D01*
X172000943Y-122520501D01*
X172159054Y-122520501D01*
X172159057Y-122520501D01*
X172311785Y-122479577D01*
X172361904Y-122450639D01*
X172448716Y-122400520D01*
X172560520Y-122288716D01*
X172560520Y-122288714D01*
X172570728Y-122278507D01*
X172570729Y-122278504D01*
X173562416Y-121286819D01*
X173623739Y-121253334D01*
X173650097Y-121250500D01*
X184682609Y-121250500D01*
X184749648Y-121270185D01*
X184795403Y-121322989D01*
X184805347Y-121392147D01*
X184794991Y-121426905D01*
X184773261Y-121473502D01*
X184773258Y-121473511D01*
X184714366Y-121693302D01*
X184714364Y-121693313D01*
X184694532Y-121919998D01*
X184694532Y-121920001D01*
X184714364Y-122146686D01*
X184714366Y-122146697D01*
X184773258Y-122366488D01*
X184773261Y-122366497D01*
X184869431Y-122572732D01*
X184869432Y-122572734D01*
X184999954Y-122759141D01*
X185160858Y-122920045D01*
X185160861Y-122920047D01*
X185347266Y-123050568D01*
X185405275Y-123077618D01*
X185457714Y-123123791D01*
X185476866Y-123190984D01*
X185456650Y-123257865D01*
X185405275Y-123302382D01*
X185347267Y-123329431D01*
X185347265Y-123329432D01*
X185160858Y-123459954D01*
X184999954Y-123620858D01*
X184869432Y-123807265D01*
X184869431Y-123807267D01*
X184773261Y-124013502D01*
X184773258Y-124013511D01*
X184714366Y-124233302D01*
X184714364Y-124233313D01*
X184694532Y-124459998D01*
X184694532Y-124460001D01*
X184714364Y-124686686D01*
X184714366Y-124686697D01*
X184773258Y-124906488D01*
X184773261Y-124906497D01*
X184869431Y-125112732D01*
X184869432Y-125112734D01*
X184999954Y-125299141D01*
X185160858Y-125460045D01*
X185160861Y-125460047D01*
X185347266Y-125590568D01*
X185405275Y-125617618D01*
X185457714Y-125663791D01*
X185476866Y-125730984D01*
X185456650Y-125797865D01*
X185405275Y-125842382D01*
X185347267Y-125869431D01*
X185347265Y-125869432D01*
X185160858Y-125999954D01*
X184999954Y-126160858D01*
X184869432Y-126347265D01*
X184869431Y-126347267D01*
X184773261Y-126553502D01*
X184773258Y-126553511D01*
X184714366Y-126773302D01*
X184714364Y-126773313D01*
X184694532Y-126999998D01*
X184694532Y-127000001D01*
X184714364Y-127226686D01*
X184714366Y-127226697D01*
X184773258Y-127446488D01*
X184773261Y-127446497D01*
X184869431Y-127652732D01*
X184869432Y-127652734D01*
X184999954Y-127839141D01*
X185160858Y-128000045D01*
X185160861Y-128000047D01*
X185347266Y-128130568D01*
X185553504Y-128226739D01*
X185773308Y-128285635D01*
X185935230Y-128299801D01*
X185999998Y-128305468D01*
X186000000Y-128305468D01*
X186000002Y-128305468D01*
X186056673Y-128300509D01*
X186226692Y-128285635D01*
X186446496Y-128226739D01*
X186652734Y-128130568D01*
X186839139Y-128000047D01*
X187000047Y-127839139D01*
X187130568Y-127652734D01*
X187226739Y-127446496D01*
X187285635Y-127226692D01*
X187305468Y-127000000D01*
X187285635Y-126773308D01*
X187226739Y-126553504D01*
X187130568Y-126347266D01*
X187000047Y-126160861D01*
X187000045Y-126160858D01*
X186839141Y-125999954D01*
X186652734Y-125869432D01*
X186652728Y-125869429D01*
X186594725Y-125842382D01*
X186542285Y-125796210D01*
X186523133Y-125729017D01*
X186543348Y-125662135D01*
X186594725Y-125617618D01*
X186652734Y-125590568D01*
X186839139Y-125460047D01*
X187000047Y-125299139D01*
X187130568Y-125112734D01*
X187226739Y-124906496D01*
X187285635Y-124686692D01*
X187305468Y-124460000D01*
X187285635Y-124233308D01*
X187226739Y-124013504D01*
X187130568Y-123807266D01*
X187000047Y-123620861D01*
X187000045Y-123620858D01*
X186839141Y-123459954D01*
X186652734Y-123329432D01*
X186652728Y-123329429D01*
X186594725Y-123302382D01*
X186542285Y-123256210D01*
X186523133Y-123189017D01*
X186543348Y-123122135D01*
X186594725Y-123077618D01*
X186652734Y-123050568D01*
X186839139Y-122920047D01*
X187000047Y-122759139D01*
X187130568Y-122572734D01*
X187226739Y-122366496D01*
X187285635Y-122146692D01*
X187305468Y-121920000D01*
X187285635Y-121693308D01*
X187226739Y-121473504D01*
X187147044Y-121302600D01*
X187136553Y-121233525D01*
X187165072Y-121169741D01*
X187197426Y-121142811D01*
X187218716Y-121130520D01*
X187330520Y-121018716D01*
X187330520Y-121018714D01*
X187340728Y-121008507D01*
X187340729Y-121008504D01*
X188480520Y-119868716D01*
X188559577Y-119731784D01*
X188600501Y-119579057D01*
X188600501Y-119420942D01*
X188600501Y-119413347D01*
X188600500Y-119413329D01*
X188600500Y-111300097D01*
X188620185Y-111233058D01*
X188636819Y-111212416D01*
X189212417Y-110636819D01*
X189273740Y-110603334D01*
X189300098Y-110600500D01*
X190210909Y-110600500D01*
X190277948Y-110620185D01*
X190323292Y-110672097D01*
X190325965Y-110677830D01*
X190461501Y-110871395D01*
X190461506Y-110871402D01*
X190628597Y-111038493D01*
X190628603Y-111038498D01*
X190814594Y-111168730D01*
X190858219Y-111223307D01*
X190865413Y-111292805D01*
X190833890Y-111355160D01*
X190814595Y-111371880D01*
X190628922Y-111501890D01*
X190628920Y-111501891D01*
X190461891Y-111668920D01*
X190461886Y-111668926D01*
X190326400Y-111862420D01*
X190326399Y-111862422D01*
X190226570Y-112076507D01*
X190226567Y-112076513D01*
X190169364Y-112289999D01*
X190169364Y-112290000D01*
X191066988Y-112290000D01*
X191034075Y-112347007D01*
X191000000Y-112474174D01*
X191000000Y-112605826D01*
X191034075Y-112732993D01*
X191066988Y-112790000D01*
X190169364Y-112790000D01*
X190226567Y-113003486D01*
X190226570Y-113003492D01*
X190326399Y-113217578D01*
X190461894Y-113411082D01*
X190628917Y-113578105D01*
X190822421Y-113713600D01*
X191036507Y-113813429D01*
X191036516Y-113813433D01*
X191250000Y-113870634D01*
X191250000Y-112973012D01*
X191307007Y-113005925D01*
X191434174Y-113040000D01*
X191565826Y-113040000D01*
X191692993Y-113005925D01*
X191750000Y-112973012D01*
X191750000Y-113870633D01*
X191963483Y-113813433D01*
X191963492Y-113813429D01*
X192177578Y-113713600D01*
X192371082Y-113578105D01*
X192538105Y-113411082D01*
X192673600Y-113217578D01*
X192773429Y-113003492D01*
X192773432Y-113003486D01*
X192830636Y-112790000D01*
X191933012Y-112790000D01*
X191965925Y-112732993D01*
X192000000Y-112605826D01*
X192000000Y-112474174D01*
X191965925Y-112347007D01*
X191933012Y-112290000D01*
X192830636Y-112290000D01*
X192830635Y-112289999D01*
X192773432Y-112076513D01*
X192773429Y-112076507D01*
X192673600Y-111862422D01*
X192673599Y-111862420D01*
X192538113Y-111668926D01*
X192538108Y-111668920D01*
X192371078Y-111501890D01*
X192185405Y-111371879D01*
X192141780Y-111317302D01*
X192134588Y-111247804D01*
X192166110Y-111185449D01*
X192185406Y-111168730D01*
X192273184Y-111107267D01*
X192371401Y-111038495D01*
X192538495Y-110871401D01*
X192674035Y-110677830D01*
X192773903Y-110463663D01*
X192835063Y-110235408D01*
X192855659Y-110000000D01*
X192835063Y-109764592D01*
X192773903Y-109536337D01*
X192674035Y-109322171D01*
X192674034Y-109322169D01*
X192538496Y-109128600D01*
X192488951Y-109079055D01*
X192416567Y-109006671D01*
X192383084Y-108945351D01*
X192388068Y-108875659D01*
X192429939Y-108819725D01*
X192460915Y-108802810D01*
X192592331Y-108753796D01*
X192707546Y-108667546D01*
X192793796Y-108552331D01*
X192844091Y-108417483D01*
X192850500Y-108357873D01*
X192850500Y-108184500D01*
X192870185Y-108117461D01*
X192922989Y-108071706D01*
X192974500Y-108060500D01*
X196025501Y-108060500D01*
X196092540Y-108080185D01*
X196138295Y-108132989D01*
X196149501Y-108184500D01*
X196149501Y-108357876D01*
X196155908Y-108417483D01*
X196206202Y-108552328D01*
X196206206Y-108552335D01*
X196292452Y-108667544D01*
X196292455Y-108667547D01*
X196407664Y-108753793D01*
X196407671Y-108753797D01*
X196539081Y-108802810D01*
X196595015Y-108844681D01*
X196619432Y-108910145D01*
X196604580Y-108978418D01*
X196583430Y-109006673D01*
X196461503Y-109128600D01*
X196325965Y-109322169D01*
X196325964Y-109322171D01*
X196226098Y-109536335D01*
X196226094Y-109536344D01*
X196164938Y-109764586D01*
X196164936Y-109764596D01*
X196144341Y-109999999D01*
X196144341Y-110000000D01*
X196164936Y-110235403D01*
X196164938Y-110235413D01*
X196226094Y-110463655D01*
X196226096Y-110463659D01*
X196226097Y-110463663D01*
X196323293Y-110672099D01*
X196325965Y-110677829D01*
X196325967Y-110677834D01*
X196461501Y-110871395D01*
X196461506Y-110871402D01*
X196628597Y-111038493D01*
X196628603Y-111038498D01*
X196814594Y-111168730D01*
X196858219Y-111223307D01*
X196865413Y-111292805D01*
X196833890Y-111355160D01*
X196814595Y-111371880D01*
X196628922Y-111501890D01*
X196628920Y-111501891D01*
X196461891Y-111668920D01*
X196461886Y-111668926D01*
X196326400Y-111862420D01*
X196326399Y-111862422D01*
X196226570Y-112076507D01*
X196226567Y-112076513D01*
X196169364Y-112289999D01*
X196169364Y-112290000D01*
X197066988Y-112290000D01*
X197034075Y-112347007D01*
X197000000Y-112474174D01*
X197000000Y-112605826D01*
X197034075Y-112732993D01*
X197066988Y-112790000D01*
X196169364Y-112790000D01*
X196226567Y-113003486D01*
X196226570Y-113003492D01*
X196326399Y-113217578D01*
X196461894Y-113411082D01*
X196628917Y-113578105D01*
X196822421Y-113713600D01*
X197036507Y-113813429D01*
X197036516Y-113813433D01*
X197250000Y-113870634D01*
X197250000Y-112973012D01*
X197307007Y-113005925D01*
X197434174Y-113040000D01*
X197565826Y-113040000D01*
X197692993Y-113005925D01*
X197750000Y-112973012D01*
X197750000Y-113870633D01*
X197963483Y-113813433D01*
X197963492Y-113813429D01*
X198177578Y-113713600D01*
X198371082Y-113578105D01*
X198538105Y-113411082D01*
X198673600Y-113217578D01*
X198773429Y-113003492D01*
X198773432Y-113003486D01*
X198830636Y-112790000D01*
X197933012Y-112790000D01*
X197965925Y-112732993D01*
X198000000Y-112605826D01*
X198000000Y-112474174D01*
X197965925Y-112347007D01*
X197933012Y-112290000D01*
X198830636Y-112290000D01*
X198830635Y-112289999D01*
X198773432Y-112076513D01*
X198773429Y-112076507D01*
X198673600Y-111862422D01*
X198673599Y-111862420D01*
X198538113Y-111668926D01*
X198538108Y-111668920D01*
X198371078Y-111501890D01*
X198185405Y-111371879D01*
X198141780Y-111317302D01*
X198134588Y-111247804D01*
X198166110Y-111185449D01*
X198185406Y-111168730D01*
X198273184Y-111107267D01*
X198371401Y-111038495D01*
X198538495Y-110871401D01*
X198674035Y-110677830D01*
X198676707Y-110672097D01*
X198722878Y-110619658D01*
X198789091Y-110600500D01*
X198913331Y-110600500D01*
X198913347Y-110600501D01*
X198920943Y-110600501D01*
X199079054Y-110600501D01*
X199079057Y-110600501D01*
X199231785Y-110559577D01*
X199290863Y-110525468D01*
X199368716Y-110480520D01*
X199480520Y-110368716D01*
X199480520Y-110368714D01*
X199490724Y-110358511D01*
X199490727Y-110358506D01*
X200480520Y-109368716D01*
X200559577Y-109231784D01*
X200600501Y-109079057D01*
X200600501Y-108920942D01*
X200600501Y-108913347D01*
X200600500Y-108913329D01*
X200600500Y-105920945D01*
X200600500Y-105920943D01*
X200559577Y-105768216D01*
X200559573Y-105768209D01*
X200480524Y-105631290D01*
X200480521Y-105631286D01*
X200480520Y-105631284D01*
X200368716Y-105519480D01*
X200368715Y-105519479D01*
X200364385Y-105515149D01*
X200364374Y-105515139D01*
X198987590Y-104138355D01*
X198987588Y-104138352D01*
X198868717Y-104019481D01*
X198868716Y-104019480D01*
X198781904Y-103969360D01*
X198781904Y-103969359D01*
X198781900Y-103969358D01*
X198731785Y-103940423D01*
X198579057Y-103899499D01*
X198420943Y-103899499D01*
X198413347Y-103899499D01*
X198413331Y-103899500D01*
X194365783Y-103899500D01*
X194298744Y-103879815D01*
X194278102Y-103863181D01*
X187853276Y-97438355D01*
X187853274Y-97438352D01*
X187734403Y-97319481D01*
X187734395Y-97319475D01*
X187614792Y-97250423D01*
X187614792Y-97250422D01*
X187614787Y-97250421D01*
X187608744Y-97246932D01*
X187597472Y-97240423D01*
X187559289Y-97230192D01*
X187444743Y-97199499D01*
X187312729Y-97199499D01*
X187245690Y-97179814D01*
X187199935Y-97127010D01*
X187189991Y-97057852D01*
X187200347Y-97023095D01*
X187226736Y-96966502D01*
X187226739Y-96966496D01*
X187285635Y-96746692D01*
X187305468Y-96520000D01*
X187285635Y-96293308D01*
X187226739Y-96073504D01*
X187130568Y-95867266D01*
X187000047Y-95680861D01*
X187000045Y-95680858D01*
X186839141Y-95519954D01*
X186652734Y-95389432D01*
X186652732Y-95389431D01*
X186594725Y-95362382D01*
X186594132Y-95362105D01*
X186541694Y-95315934D01*
X186522542Y-95248740D01*
X186542758Y-95181859D01*
X186594134Y-95137341D01*
X186652484Y-95110132D01*
X186838820Y-94979657D01*
X186999657Y-94818820D01*
X187130134Y-94632482D01*
X187226265Y-94426326D01*
X187226269Y-94426317D01*
X187278872Y-94230000D01*
X186433012Y-94230000D01*
X186465925Y-94172993D01*
X186500000Y-94045826D01*
X186500000Y-93914174D01*
X186465925Y-93787007D01*
X186433012Y-93730000D01*
X187278872Y-93730000D01*
X187278872Y-93729999D01*
X187226269Y-93533682D01*
X187226265Y-93533673D01*
X187130134Y-93327517D01*
X186999657Y-93141179D01*
X186838820Y-92980342D01*
X186652482Y-92849865D01*
X186594133Y-92822657D01*
X186541694Y-92776484D01*
X186522542Y-92709291D01*
X186542758Y-92642410D01*
X186594129Y-92597895D01*
X186652734Y-92570568D01*
X186839139Y-92440047D01*
X187000047Y-92279139D01*
X187130568Y-92092734D01*
X187226739Y-91886496D01*
X187285635Y-91666692D01*
X187305468Y-91440000D01*
X187285635Y-91213308D01*
X187226739Y-90993504D01*
X187130568Y-90787266D01*
X187000047Y-90600861D01*
X187000045Y-90600858D01*
X186839141Y-90439954D01*
X186652734Y-90309432D01*
X186652732Y-90309431D01*
X186446497Y-90213261D01*
X186446488Y-90213258D01*
X186226697Y-90154366D01*
X186226693Y-90154365D01*
X186226692Y-90154365D01*
X186226691Y-90154364D01*
X186226686Y-90154364D01*
X186000002Y-90134532D01*
X185999998Y-90134532D01*
X185773313Y-90154364D01*
X185773302Y-90154366D01*
X185553511Y-90213258D01*
X185553502Y-90213261D01*
X185347267Y-90309431D01*
X185347265Y-90309432D01*
X185160858Y-90439954D01*
X184999954Y-90600858D01*
X184869432Y-90787265D01*
X184869431Y-90787267D01*
X184773261Y-90993502D01*
X184773258Y-90993511D01*
X184714366Y-91213302D01*
X184714364Y-91213313D01*
X184694532Y-91439998D01*
X184694532Y-91440001D01*
X184714364Y-91666686D01*
X184714366Y-91666697D01*
X184773258Y-91886488D01*
X184773261Y-91886497D01*
X184869431Y-92092732D01*
X184869432Y-92092734D01*
X184999954Y-92279141D01*
X185160858Y-92440045D01*
X185160861Y-92440047D01*
X185347266Y-92570568D01*
X185405865Y-92597893D01*
X185458305Y-92644065D01*
X185477457Y-92711258D01*
X185457242Y-92778139D01*
X185405867Y-92822657D01*
X185347515Y-92849867D01*
X185161179Y-92980342D01*
X185000342Y-93141179D01*
X184869865Y-93327517D01*
X184773734Y-93533673D01*
X184773730Y-93533682D01*
X184721127Y-93729999D01*
X184721128Y-93730000D01*
X185566988Y-93730000D01*
X185534075Y-93787007D01*
X185500000Y-93914174D01*
X185500000Y-94045826D01*
X185534075Y-94172993D01*
X185566988Y-94230000D01*
X184721128Y-94230000D01*
X184773730Y-94426317D01*
X184773734Y-94426326D01*
X184869865Y-94632482D01*
X185000342Y-94818820D01*
X185161179Y-94979657D01*
X185347518Y-95110134D01*
X185347520Y-95110135D01*
X185405865Y-95137342D01*
X185458305Y-95183514D01*
X185477457Y-95250707D01*
X185457242Y-95317589D01*
X185405867Y-95362105D01*
X185347268Y-95389431D01*
X185347264Y-95389433D01*
X185160858Y-95519954D01*
X184999954Y-95680858D01*
X184869432Y-95867265D01*
X184869431Y-95867267D01*
X184773261Y-96073502D01*
X184773258Y-96073511D01*
X184714366Y-96293302D01*
X184714364Y-96293313D01*
X184694532Y-96519998D01*
X184694532Y-96520001D01*
X184714364Y-96746686D01*
X184714366Y-96746695D01*
X184773258Y-96966488D01*
X184773260Y-96966492D01*
X184773261Y-96966496D01*
X184850516Y-97132169D01*
X184867716Y-97169054D01*
X184878208Y-97238132D01*
X184849688Y-97301916D01*
X184832946Y-97317817D01*
X184019481Y-98131282D01*
X184019479Y-98131285D01*
X183969361Y-98218094D01*
X183969359Y-98218096D01*
X183940425Y-98268209D01*
X183940424Y-98268210D01*
X183940423Y-98268215D01*
X183899499Y-98420943D01*
X183899499Y-98420945D01*
X183899499Y-98589046D01*
X183899500Y-98589059D01*
X183899500Y-117199903D01*
X183879815Y-117266942D01*
X183863181Y-117287584D01*
X182407584Y-118743181D01*
X182346261Y-118776666D01*
X182319903Y-118779500D01*
X171991692Y-118779500D01*
X171924653Y-118759815D01*
X171890119Y-118726625D01*
X171760047Y-118540861D01*
X171760045Y-118540858D01*
X171599141Y-118379954D01*
X171412734Y-118249432D01*
X171412728Y-118249429D01*
X171354725Y-118222382D01*
X171302285Y-118176210D01*
X171283133Y-118109017D01*
X171303348Y-118042135D01*
X171354725Y-117997618D01*
X171369492Y-117990732D01*
X171412734Y-117970568D01*
X171599139Y-117840047D01*
X171760047Y-117679139D01*
X171890568Y-117492734D01*
X171986739Y-117286496D01*
X172045635Y-117066692D01*
X172065468Y-116840000D01*
X172045635Y-116613308D01*
X171986739Y-116393504D01*
X171890568Y-116187266D01*
X171760047Y-116000861D01*
X171760045Y-116000858D01*
X171599141Y-115839954D01*
X171412734Y-115709432D01*
X171412728Y-115709429D01*
X171354725Y-115682382D01*
X171302285Y-115636210D01*
X171283133Y-115569017D01*
X171303348Y-115502135D01*
X171354725Y-115457618D01*
X171412734Y-115430568D01*
X171599139Y-115300047D01*
X171760047Y-115139139D01*
X171890118Y-114953375D01*
X171944693Y-114909752D01*
X171991692Y-114900500D01*
X174613331Y-114900500D01*
X174613347Y-114900501D01*
X174620943Y-114900501D01*
X174779054Y-114900501D01*
X174779057Y-114900501D01*
X174931785Y-114859577D01*
X174981904Y-114830639D01*
X175068716Y-114780520D01*
X175180520Y-114668716D01*
X175180520Y-114668714D01*
X175190728Y-114658507D01*
X175190730Y-114658504D01*
X182368713Y-107480521D01*
X182368716Y-107480520D01*
X182480520Y-107368716D01*
X182530639Y-107281904D01*
X182559577Y-107231785D01*
X182600501Y-107079057D01*
X182600501Y-106920943D01*
X182600501Y-106913348D01*
X182600500Y-106913330D01*
X182600500Y-90300097D01*
X182620185Y-90233058D01*
X182636819Y-90212416D01*
X184712416Y-88136819D01*
X184773739Y-88103334D01*
X184800097Y-88100500D01*
X187199903Y-88100500D01*
X187266942Y-88120185D01*
X187287584Y-88136819D01*
X188363181Y-89212416D01*
X188396666Y-89273739D01*
X188399500Y-89300097D01*
X188399500Y-96413330D01*
X188399499Y-96413348D01*
X188399499Y-96579054D01*
X188399498Y-96579054D01*
X188440423Y-96731785D01*
X188449030Y-96746692D01*
X188449031Y-96746695D01*
X188519475Y-96868709D01*
X188519481Y-96868717D01*
X188638349Y-96987585D01*
X188638355Y-96987590D01*
X192365139Y-100714374D01*
X192365149Y-100714385D01*
X192369479Y-100718715D01*
X192369480Y-100718716D01*
X192481284Y-100830520D01*
X192547442Y-100868716D01*
X192618215Y-100909577D01*
X192770942Y-100950500D01*
X192770943Y-100950500D01*
X193710909Y-100950500D01*
X193777948Y-100970185D01*
X193823292Y-101022097D01*
X193825965Y-101027830D01*
X193961505Y-101221401D01*
X194128599Y-101388495D01*
X194225384Y-101456265D01*
X194322165Y-101524032D01*
X194322167Y-101524033D01*
X194322170Y-101524035D01*
X194536337Y-101623903D01*
X194764592Y-101685063D01*
X194952918Y-101701539D01*
X194999999Y-101705659D01*
X195000000Y-101705659D01*
X195000001Y-101705659D01*
X195039234Y-101702226D01*
X195235408Y-101685063D01*
X195463663Y-101623903D01*
X195677830Y-101524035D01*
X195871401Y-101388495D01*
X196038495Y-101221401D01*
X196174035Y-101027830D01*
X196273903Y-100813663D01*
X196335063Y-100585408D01*
X196355659Y-100350000D01*
X196335063Y-100114592D01*
X196273903Y-99886337D01*
X196174035Y-99672171D01*
X196174034Y-99672169D01*
X196038494Y-99478597D01*
X195871402Y-99311506D01*
X195871396Y-99311501D01*
X195685842Y-99181575D01*
X195642217Y-99126998D01*
X195635023Y-99057500D01*
X195666546Y-98995145D01*
X195685842Y-98978425D01*
X195708026Y-98962891D01*
X195871401Y-98848495D01*
X196038495Y-98681401D01*
X196174035Y-98487830D01*
X196273903Y-98273663D01*
X196335063Y-98045408D01*
X196355659Y-97810000D01*
X196335063Y-97574592D01*
X196273903Y-97346337D01*
X196174035Y-97132171D01*
X196174034Y-97132169D01*
X196038494Y-96938597D01*
X195871402Y-96771506D01*
X195871396Y-96771501D01*
X195685842Y-96641575D01*
X195642217Y-96586998D01*
X195635023Y-96517500D01*
X195666546Y-96455145D01*
X195685842Y-96438425D01*
X195710814Y-96420939D01*
X195871401Y-96308495D01*
X196038495Y-96141401D01*
X196174035Y-95947830D01*
X196273903Y-95733663D01*
X196335063Y-95505408D01*
X196355659Y-95270000D01*
X196335063Y-95034592D01*
X196273903Y-94806337D01*
X196174035Y-94592171D01*
X196174034Y-94592169D01*
X196038494Y-94398597D01*
X195871402Y-94231506D01*
X195871396Y-94231501D01*
X195685842Y-94101575D01*
X195642217Y-94046998D01*
X195635023Y-93977500D01*
X195666546Y-93915145D01*
X195685842Y-93898425D01*
X195844963Y-93787007D01*
X195871401Y-93768495D01*
X196038495Y-93601401D01*
X196174035Y-93407830D01*
X196273903Y-93193663D01*
X196335063Y-92965408D01*
X196355659Y-92730000D01*
X196335063Y-92494592D01*
X196279674Y-92287876D01*
X196273905Y-92266344D01*
X196273904Y-92266343D01*
X196273903Y-92266337D01*
X196174035Y-92052171D01*
X196174034Y-92052169D01*
X196038494Y-91858597D01*
X195871402Y-91691506D01*
X195871396Y-91691501D01*
X195685842Y-91561575D01*
X195642217Y-91506998D01*
X195635023Y-91437500D01*
X195666546Y-91375145D01*
X195685842Y-91358425D01*
X195708026Y-91342891D01*
X195871401Y-91228495D01*
X196038495Y-91061401D01*
X196174035Y-90867830D01*
X196273903Y-90653663D01*
X196335063Y-90425408D01*
X196355659Y-90190000D01*
X196335063Y-89954592D01*
X196273903Y-89726337D01*
X196174035Y-89512171D01*
X196174034Y-89512169D01*
X196038496Y-89318600D01*
X195993635Y-89273739D01*
X195916179Y-89196283D01*
X195882696Y-89134963D01*
X195887680Y-89065271D01*
X195929551Y-89009337D01*
X195960529Y-88992422D01*
X196092086Y-88943354D01*
X196092093Y-88943350D01*
X196207187Y-88857190D01*
X196207190Y-88857187D01*
X196293350Y-88742093D01*
X196293354Y-88742086D01*
X196343596Y-88607379D01*
X196343598Y-88607372D01*
X196349999Y-88547844D01*
X196350000Y-88547827D01*
X196350000Y-87900000D01*
X195433012Y-87900000D01*
X195465925Y-87842993D01*
X195500000Y-87715826D01*
X195500000Y-87584174D01*
X195465925Y-87457007D01*
X195433012Y-87400000D01*
X196350000Y-87400000D01*
X196350000Y-86752172D01*
X196349999Y-86752155D01*
X196343598Y-86692627D01*
X196343596Y-86692620D01*
X196293354Y-86557913D01*
X196293350Y-86557906D01*
X196207190Y-86442812D01*
X196207187Y-86442809D01*
X196092093Y-86356649D01*
X196092086Y-86356645D01*
X195957379Y-86306403D01*
X195957372Y-86306401D01*
X195897844Y-86300000D01*
X195250000Y-86300000D01*
X195250000Y-87216988D01*
X195192993Y-87184075D01*
X195065826Y-87150000D01*
X194934174Y-87150000D01*
X194807007Y-87184075D01*
X194750000Y-87216988D01*
X194750000Y-86300000D01*
X194102155Y-86300000D01*
X194042627Y-86306401D01*
X194042620Y-86306403D01*
X193907913Y-86356645D01*
X193907906Y-86356649D01*
X193792812Y-86442809D01*
X193792809Y-86442812D01*
X193706649Y-86557906D01*
X193706645Y-86557913D01*
X193656403Y-86692620D01*
X193656401Y-86692627D01*
X193650000Y-86752155D01*
X193650000Y-87400000D01*
X194566988Y-87400000D01*
X194534075Y-87457007D01*
X194500000Y-87584174D01*
X194500000Y-87715826D01*
X194534075Y-87842993D01*
X194566988Y-87900000D01*
X193650000Y-87900000D01*
X193650000Y-88547844D01*
X193656401Y-88607372D01*
X193656403Y-88607379D01*
X193706645Y-88742086D01*
X193706649Y-88742093D01*
X193792809Y-88857187D01*
X193792812Y-88857190D01*
X193907906Y-88943350D01*
X193907913Y-88943354D01*
X194039470Y-88992421D01*
X194095403Y-89034292D01*
X194119821Y-89099756D01*
X194104970Y-89168029D01*
X194083819Y-89196284D01*
X193961503Y-89318600D01*
X193825965Y-89512170D01*
X193825962Y-89512175D01*
X193823289Y-89517909D01*
X193777115Y-89570346D01*
X193710909Y-89589500D01*
X192490097Y-89589500D01*
X192423058Y-89569815D01*
X192402416Y-89553181D01*
X191636819Y-88787584D01*
X191603334Y-88726261D01*
X191600500Y-88699903D01*
X191600500Y-88589060D01*
X191600501Y-88589047D01*
X191600501Y-88420944D01*
X191559576Y-88268214D01*
X191559573Y-88268209D01*
X191480524Y-88131290D01*
X191480518Y-88131282D01*
X188487590Y-85138355D01*
X188487588Y-85138352D01*
X188368717Y-85019481D01*
X188368716Y-85019480D01*
X188281904Y-84969360D01*
X188281904Y-84969359D01*
X188281900Y-84969358D01*
X188231785Y-84940423D01*
X188079057Y-84899499D01*
X187920943Y-84899499D01*
X187913347Y-84899499D01*
X187913331Y-84899500D01*
X182586669Y-84899500D01*
X182586653Y-84899499D01*
X182579057Y-84899499D01*
X182420943Y-84899499D01*
X182313587Y-84928265D01*
X182268210Y-84940424D01*
X182268209Y-84940425D01*
X182218096Y-84969359D01*
X182218095Y-84969360D01*
X182174689Y-84994420D01*
X182131285Y-85019479D01*
X182131282Y-85019481D01*
X177519481Y-89631282D01*
X177519479Y-89631285D01*
X177474335Y-89709479D01*
X177474333Y-89709481D01*
X177440425Y-89768209D01*
X177440424Y-89768210D01*
X177440423Y-89768215D01*
X177399499Y-89920943D01*
X177399499Y-89920945D01*
X177399499Y-90089046D01*
X177399500Y-90089059D01*
X177399500Y-100199903D01*
X177379815Y-100266942D01*
X177363181Y-100287584D01*
X176687584Y-100963181D01*
X176626261Y-100996666D01*
X176599903Y-100999500D01*
X171991692Y-100999500D01*
X171924653Y-100979815D01*
X171890119Y-100946625D01*
X171760047Y-100760861D01*
X171760045Y-100760858D01*
X171599141Y-100599954D01*
X171412734Y-100469432D01*
X171412728Y-100469429D01*
X171354725Y-100442382D01*
X171302285Y-100396210D01*
X171283133Y-100329017D01*
X171303348Y-100262135D01*
X171354725Y-100217618D01*
X171412734Y-100190568D01*
X171599139Y-100060047D01*
X171760047Y-99899139D01*
X171890568Y-99712734D01*
X171986739Y-99506496D01*
X172045635Y-99286692D01*
X172065468Y-99060000D01*
X172045635Y-98833308D01*
X171986739Y-98613504D01*
X171890568Y-98407266D01*
X171760047Y-98220861D01*
X171760045Y-98220858D01*
X171599141Y-98059954D01*
X171412734Y-97929432D01*
X171412728Y-97929429D01*
X171354725Y-97902382D01*
X171302285Y-97856210D01*
X171283133Y-97789017D01*
X171303348Y-97722135D01*
X171354725Y-97677618D01*
X171412734Y-97650568D01*
X171599139Y-97520047D01*
X171760047Y-97359139D01*
X171890568Y-97172734D01*
X171986739Y-96966496D01*
X172045635Y-96746692D01*
X172065468Y-96520000D01*
X172045635Y-96293308D01*
X171986739Y-96073504D01*
X171890568Y-95867266D01*
X171760047Y-95680861D01*
X171760045Y-95680858D01*
X171599141Y-95519954D01*
X171412734Y-95389432D01*
X171412728Y-95389429D01*
X171354725Y-95362382D01*
X171302285Y-95316210D01*
X171283133Y-95249017D01*
X171303348Y-95182135D01*
X171354725Y-95137618D01*
X171355319Y-95137341D01*
X171412734Y-95110568D01*
X171599139Y-94980047D01*
X171760047Y-94819139D01*
X171890568Y-94632734D01*
X171986739Y-94426496D01*
X172045635Y-94206692D01*
X172065468Y-93980000D01*
X172045635Y-93753308D01*
X171986739Y-93533504D01*
X171890568Y-93327266D01*
X171760047Y-93140861D01*
X171760045Y-93140858D01*
X171599143Y-92979956D01*
X171578373Y-92965413D01*
X171574535Y-92962725D01*
X171530912Y-92908149D01*
X171523719Y-92838650D01*
X171555241Y-92776296D01*
X171615471Y-92740882D01*
X171632404Y-92737861D01*
X171667483Y-92734091D01*
X171802331Y-92683796D01*
X171917546Y-92597546D01*
X172003796Y-92482331D01*
X172054091Y-92347483D01*
X172060500Y-92287873D01*
X172060499Y-90592128D01*
X172054091Y-90532517D01*
X172019567Y-90439954D01*
X172003797Y-90397671D01*
X172003793Y-90397664D01*
X171917547Y-90282455D01*
X171917544Y-90282452D01*
X171802335Y-90196206D01*
X171802328Y-90196202D01*
X171667482Y-90145908D01*
X171667483Y-90145908D01*
X171607883Y-90139501D01*
X171607881Y-90139500D01*
X171607873Y-90139500D01*
X171607864Y-90139500D01*
X169912129Y-90139500D01*
X169912123Y-90139501D01*
X169852516Y-90145908D01*
X169717671Y-90196202D01*
X169717664Y-90196206D01*
X169602455Y-90282452D01*
X169602452Y-90282455D01*
X169516206Y-90397664D01*
X169516202Y-90397671D01*
X169465908Y-90532517D01*
X169463092Y-90558716D01*
X169459501Y-90592123D01*
X169459500Y-90592135D01*
X169459500Y-92287870D01*
X169459501Y-92287876D01*
X169465908Y-92347483D01*
X169516202Y-92482328D01*
X169516206Y-92482335D01*
X169602452Y-92597544D01*
X169602455Y-92597547D01*
X169717664Y-92683793D01*
X169717671Y-92683797D01*
X169762618Y-92700561D01*
X169852517Y-92734091D01*
X169887596Y-92737862D01*
X169952144Y-92764599D01*
X169991993Y-92821991D01*
X169994488Y-92891816D01*
X169958836Y-92951905D01*
X169945464Y-92962725D01*
X169920858Y-92979954D01*
X169759954Y-93140858D01*
X169629432Y-93327265D01*
X169629431Y-93327267D01*
X169533261Y-93533502D01*
X169533258Y-93533511D01*
X169474366Y-93753302D01*
X169474364Y-93753313D01*
X169454532Y-93979998D01*
X169454532Y-93980001D01*
X169474364Y-94206686D01*
X169474366Y-94206697D01*
X169533258Y-94426488D01*
X169533261Y-94426497D01*
X169629431Y-94632732D01*
X169629432Y-94632734D01*
X169759954Y-94819141D01*
X169920858Y-94980045D01*
X169920861Y-94980047D01*
X170107266Y-95110568D01*
X170164681Y-95137341D01*
X170165275Y-95137618D01*
X170217714Y-95183791D01*
X170236866Y-95250984D01*
X170216650Y-95317865D01*
X170165275Y-95362382D01*
X170107267Y-95389431D01*
X170107265Y-95389432D01*
X169920858Y-95519954D01*
X169759954Y-95680858D01*
X169629432Y-95867265D01*
X169629431Y-95867267D01*
X169533261Y-96073502D01*
X169533258Y-96073511D01*
X169474366Y-96293302D01*
X169474364Y-96293313D01*
X169454532Y-96519998D01*
X169454532Y-96520001D01*
X169474364Y-96746686D01*
X169474366Y-96746695D01*
X169533258Y-96966488D01*
X169533261Y-96966497D01*
X169629431Y-97172732D01*
X169629432Y-97172734D01*
X169759954Y-97359141D01*
X169920858Y-97520045D01*
X169920861Y-97520047D01*
X170107266Y-97650568D01*
X170165275Y-97677618D01*
X170217714Y-97723791D01*
X170236866Y-97790984D01*
X170216650Y-97857865D01*
X170165275Y-97902382D01*
X170107267Y-97929431D01*
X170107265Y-97929432D01*
X169920858Y-98059954D01*
X169759954Y-98220858D01*
X169629432Y-98407265D01*
X169629431Y-98407267D01*
X169533261Y-98613502D01*
X169533258Y-98613511D01*
X169474366Y-98833302D01*
X169474364Y-98833313D01*
X169454532Y-99059998D01*
X169454532Y-99060001D01*
X169474364Y-99286686D01*
X169474366Y-99286697D01*
X169533258Y-99506488D01*
X169533261Y-99506497D01*
X169629431Y-99712732D01*
X169629432Y-99712734D01*
X169759954Y-99899141D01*
X169920858Y-100060045D01*
X169920861Y-100060047D01*
X170107266Y-100190568D01*
X170165275Y-100217618D01*
X170217714Y-100263791D01*
X170236866Y-100330984D01*
X170216650Y-100397865D01*
X170165275Y-100442382D01*
X170107267Y-100469431D01*
X170107265Y-100469432D01*
X169920858Y-100599954D01*
X169759954Y-100760858D01*
X169629432Y-100947265D01*
X169629431Y-100947267D01*
X169533261Y-101153502D01*
X169533258Y-101153511D01*
X169474366Y-101373302D01*
X169474364Y-101373313D01*
X169454532Y-101599998D01*
X169454532Y-101600001D01*
X169474364Y-101826686D01*
X169474366Y-101826697D01*
X169533258Y-102046488D01*
X169533261Y-102046497D01*
X169629431Y-102252732D01*
X169629432Y-102252734D01*
X169759954Y-102439141D01*
X169920858Y-102600045D01*
X169920861Y-102600047D01*
X170107266Y-102730568D01*
X170151651Y-102751265D01*
X170165275Y-102757618D01*
X170217714Y-102803791D01*
X170236866Y-102870984D01*
X170216650Y-102937865D01*
X170165275Y-102982382D01*
X170107267Y-103009431D01*
X170107265Y-103009432D01*
X169920858Y-103139954D01*
X169759954Y-103300858D01*
X169629432Y-103487265D01*
X169629431Y-103487267D01*
X169533261Y-103693502D01*
X169533258Y-103693511D01*
X169474366Y-103913302D01*
X169474364Y-103913313D01*
X169454532Y-104139998D01*
X169454532Y-104140001D01*
X169474364Y-104366686D01*
X169474366Y-104366697D01*
X169533258Y-104586488D01*
X169533261Y-104586497D01*
X169629431Y-104792732D01*
X169629432Y-104792734D01*
X169759954Y-104979141D01*
X169920858Y-105140045D01*
X169920861Y-105140047D01*
X170107266Y-105270568D01*
X170165275Y-105297618D01*
X170217714Y-105343791D01*
X170236866Y-105410984D01*
X170216650Y-105477865D01*
X170165275Y-105522382D01*
X170107267Y-105549431D01*
X170107265Y-105549432D01*
X169920858Y-105679954D01*
X169759954Y-105840858D01*
X169629432Y-106027265D01*
X169629431Y-106027267D01*
X169533261Y-106233502D01*
X169533258Y-106233511D01*
X169474366Y-106453302D01*
X169474364Y-106453313D01*
X169454532Y-106679998D01*
X169454532Y-106680001D01*
X169474364Y-106906686D01*
X169474366Y-106906697D01*
X169533258Y-107126488D01*
X169533261Y-107126497D01*
X169629431Y-107332732D01*
X169629432Y-107332734D01*
X169759954Y-107519141D01*
X169920858Y-107680045D01*
X169920861Y-107680047D01*
X170107266Y-107810568D01*
X170165275Y-107837618D01*
X170217714Y-107883791D01*
X170236866Y-107950984D01*
X170216650Y-108017865D01*
X170165275Y-108062382D01*
X170107267Y-108089431D01*
X170107265Y-108089432D01*
X169920858Y-108219954D01*
X169759954Y-108380858D01*
X169629432Y-108567265D01*
X169629431Y-108567267D01*
X169533261Y-108773502D01*
X169533258Y-108773511D01*
X169474366Y-108993302D01*
X169474364Y-108993313D01*
X169454532Y-109219998D01*
X169454532Y-109220001D01*
X169474364Y-109446686D01*
X169474366Y-109446697D01*
X169533258Y-109666488D01*
X169533261Y-109666497D01*
X169629431Y-109872732D01*
X169629432Y-109872734D01*
X169759954Y-110059141D01*
X169920858Y-110220045D01*
X169920861Y-110220047D01*
X170107266Y-110350568D01*
X170165275Y-110377618D01*
X170217714Y-110423791D01*
X170236866Y-110490984D01*
X170216650Y-110557865D01*
X170165275Y-110602382D01*
X170107267Y-110629431D01*
X170107265Y-110629432D01*
X169920858Y-110759954D01*
X169759954Y-110920858D01*
X169629432Y-111107265D01*
X169629431Y-111107267D01*
X169533261Y-111313502D01*
X169533258Y-111313511D01*
X169474366Y-111533302D01*
X169474364Y-111533313D01*
X169454532Y-111759998D01*
X169454532Y-111760001D01*
X169474364Y-111986686D01*
X169474366Y-111986697D01*
X169533258Y-112206488D01*
X169533261Y-112206497D01*
X169629431Y-112412732D01*
X169629432Y-112412734D01*
X169759954Y-112599141D01*
X169920858Y-112760045D01*
X169945444Y-112777260D01*
X170107266Y-112890568D01*
X170165275Y-112917618D01*
X170217714Y-112963791D01*
X170236866Y-113030984D01*
X170216650Y-113097865D01*
X170165275Y-113142382D01*
X170107267Y-113169431D01*
X170107265Y-113169432D01*
X169920858Y-113299954D01*
X169759954Y-113460858D01*
X169629432Y-113647265D01*
X169629431Y-113647267D01*
X169533261Y-113853502D01*
X169533258Y-113853511D01*
X169474366Y-114073302D01*
X169474364Y-114073313D01*
X169454532Y-114299998D01*
X169454532Y-114300001D01*
X169474364Y-114526686D01*
X169474366Y-114526697D01*
X169533258Y-114746488D01*
X169533261Y-114746497D01*
X169629431Y-114952732D01*
X169629432Y-114952734D01*
X169759954Y-115139141D01*
X169920858Y-115300045D01*
X169920861Y-115300047D01*
X170107266Y-115430568D01*
X170165275Y-115457618D01*
X170217714Y-115503791D01*
X170236866Y-115570984D01*
X170216650Y-115637865D01*
X170165275Y-115682382D01*
X170107267Y-115709431D01*
X170107265Y-115709432D01*
X169920858Y-115839954D01*
X169759954Y-116000858D01*
X169629432Y-116187265D01*
X169629431Y-116187267D01*
X169533261Y-116393502D01*
X169533258Y-116393511D01*
X169474366Y-116613302D01*
X169474364Y-116613313D01*
X169454532Y-116839998D01*
X169454532Y-116840001D01*
X169474364Y-117066686D01*
X169474366Y-117066697D01*
X169533258Y-117286488D01*
X169533261Y-117286497D01*
X169629431Y-117492732D01*
X169629432Y-117492734D01*
X169759954Y-117679141D01*
X169920858Y-117840045D01*
X169920861Y-117840047D01*
X170107266Y-117970568D01*
X170150508Y-117990732D01*
X170165275Y-117997618D01*
X170217714Y-118043791D01*
X170236866Y-118110984D01*
X170216650Y-118177865D01*
X170165275Y-118222382D01*
X170107267Y-118249431D01*
X170107265Y-118249432D01*
X169920858Y-118379954D01*
X169759954Y-118540858D01*
X169629432Y-118727265D01*
X169629431Y-118727267D01*
X169533261Y-118933502D01*
X169533258Y-118933511D01*
X169474366Y-119153302D01*
X169474364Y-119153313D01*
X169454532Y-119379998D01*
X169454532Y-119380001D01*
X169474364Y-119606686D01*
X169474366Y-119606697D01*
X169533258Y-119826488D01*
X169533261Y-119826497D01*
X169629431Y-120032732D01*
X169629432Y-120032734D01*
X169759954Y-120219141D01*
X169920858Y-120380045D01*
X169920861Y-120380047D01*
X170107266Y-120510568D01*
X170165275Y-120537618D01*
X170217714Y-120583791D01*
X170236866Y-120650984D01*
X170216650Y-120717865D01*
X170165275Y-120762382D01*
X170107267Y-120789431D01*
X170107265Y-120789432D01*
X169920858Y-120919954D01*
X169759954Y-121080858D01*
X169629432Y-121267265D01*
X169629431Y-121267267D01*
X169533261Y-121473502D01*
X169533258Y-121473511D01*
X169474366Y-121693302D01*
X169474364Y-121693313D01*
X169454532Y-121919998D01*
X169454532Y-121920001D01*
X169474364Y-122146686D01*
X169474366Y-122146697D01*
X169533258Y-122366488D01*
X169533261Y-122366497D01*
X169629431Y-122572732D01*
X169629432Y-122572734D01*
X169759954Y-122759141D01*
X169920858Y-122920045D01*
X169920861Y-122920047D01*
X170107266Y-123050568D01*
X170165275Y-123077618D01*
X170217714Y-123123791D01*
X170236866Y-123190984D01*
X170216650Y-123257865D01*
X170165275Y-123302382D01*
X170107267Y-123329431D01*
X170107265Y-123329432D01*
X169920858Y-123459954D01*
X169759954Y-123620858D01*
X169629432Y-123807265D01*
X169629431Y-123807267D01*
X169533261Y-124013502D01*
X169533258Y-124013511D01*
X169474366Y-124233302D01*
X169474364Y-124233313D01*
X169454532Y-124459998D01*
X169454532Y-124460001D01*
X169474364Y-124686686D01*
X169474366Y-124686697D01*
X169533258Y-124906488D01*
X169533261Y-124906497D01*
X169629431Y-125112732D01*
X169629432Y-125112734D01*
X169759954Y-125299141D01*
X169920858Y-125460045D01*
X169920861Y-125460047D01*
X170107266Y-125590568D01*
X170165275Y-125617618D01*
X170217714Y-125663791D01*
X170236866Y-125730984D01*
X170216650Y-125797865D01*
X170165275Y-125842382D01*
X170107267Y-125869431D01*
X170107265Y-125869432D01*
X169920858Y-125999954D01*
X169759954Y-126160858D01*
X169629432Y-126347265D01*
X169629431Y-126347267D01*
X169533261Y-126553502D01*
X169533258Y-126553511D01*
X169474366Y-126773302D01*
X169474364Y-126773313D01*
X169454532Y-126999998D01*
X169454532Y-127000001D01*
X118381678Y-127000001D01*
X118381676Y-126999998D01*
X117803788Y-126209493D01*
X117801683Y-126206522D01*
X117178383Y-125299139D01*
X117030767Y-125084244D01*
X117028758Y-125081226D01*
X116774465Y-124686697D01*
X116291076Y-123936732D01*
X116289193Y-123933713D01*
X115585441Y-122768079D01*
X115583613Y-122764949D01*
X115377938Y-122400519D01*
X114914394Y-121579175D01*
X114912652Y-121575979D01*
X114747993Y-121263108D01*
X114278522Y-120371056D01*
X114276904Y-120367868D01*
X113678427Y-119144860D01*
X113676877Y-119141571D01*
X113114555Y-117901509D01*
X113113137Y-117898257D01*
X112587430Y-116642146D01*
X112586110Y-116638858D01*
X112097539Y-115367947D01*
X112096282Y-115364530D01*
X111802125Y-114526697D01*
X111645220Y-114079791D01*
X111644072Y-114076359D01*
X111643102Y-114073313D01*
X111230935Y-112778981D01*
X111229888Y-112775519D01*
X111225457Y-112760047D01*
X110854993Y-111466492D01*
X110854069Y-111463074D01*
X110517772Y-110143639D01*
X110516946Y-110140190D01*
X110219513Y-108811387D01*
X110218791Y-108807922D01*
X109960506Y-107471009D01*
X109959871Y-107467441D01*
X109950922Y-107412509D01*
X109747897Y-106166204D01*
X109740952Y-106123572D01*
X109740420Y-106119971D01*
X109664597Y-105549431D01*
X109561048Y-104770266D01*
X109560625Y-104766683D01*
X109553705Y-104699577D01*
X109420944Y-103412217D01*
X109420635Y-103408718D01*
X109320779Y-102050752D01*
X109320567Y-102047136D01*
X109320539Y-102046496D01*
X109260620Y-100686862D01*
X109260514Y-100683244D01*
X109240526Y-99321770D01*
X109240526Y-99318229D01*
X109260514Y-97956732D01*
X109260621Y-97953116D01*
X109267810Y-97790000D01*
X109320568Y-96592841D01*
X109320781Y-96589228D01*
X109320945Y-96586998D01*
X109420636Y-95231275D01*
X109420943Y-95227788D01*
X109560629Y-93873277D01*
X109561047Y-93869740D01*
X109740421Y-92520019D01*
X109740952Y-92516427D01*
X109751816Y-92449735D01*
X109959876Y-91172529D01*
X109960509Y-91168974D01*
X110218794Y-89832063D01*
X110219510Y-89828625D01*
X110516949Y-88499794D01*
X110517768Y-88496376D01*
X110854073Y-87176908D01*
X110854988Y-87173523D01*
X111229900Y-85864437D01*
X111230929Y-85861037D01*
X111644085Y-84563600D01*
X111645213Y-84560228D01*
X112096286Y-83275457D01*
X112097539Y-83272052D01*
X112119384Y-83215227D01*
X112586119Y-82001117D01*
X112587420Y-81997876D01*
X112684883Y-81765000D01*
X183644341Y-81765000D01*
X183664936Y-82000403D01*
X183664938Y-82000413D01*
X183726094Y-82228655D01*
X183726096Y-82228659D01*
X183726097Y-82228663D01*
X183813479Y-82416053D01*
X183825965Y-82442830D01*
X183825967Y-82442834D01*
X183892677Y-82538105D01*
X183961505Y-82636401D01*
X184128599Y-82803495D01*
X184186576Y-82844091D01*
X184322165Y-82939032D01*
X184322167Y-82939033D01*
X184322170Y-82939035D01*
X184536337Y-83038903D01*
X184764592Y-83100063D01*
X184952918Y-83116539D01*
X184999999Y-83120659D01*
X185000000Y-83120659D01*
X185000001Y-83120659D01*
X185039234Y-83117226D01*
X185235408Y-83100063D01*
X185463663Y-83038903D01*
X185677830Y-82939035D01*
X185871401Y-82803495D01*
X186038495Y-82636401D01*
X186174035Y-82442830D01*
X186195000Y-82397870D01*
X189374500Y-82397870D01*
X189374501Y-82397876D01*
X189380908Y-82457483D01*
X189431202Y-82592328D01*
X189431206Y-82592335D01*
X189517452Y-82707544D01*
X189517455Y-82707547D01*
X189632664Y-82793793D01*
X189632671Y-82793797D01*
X189767517Y-82844091D01*
X189767516Y-82844091D01*
X189774444Y-82844835D01*
X189827127Y-82850500D01*
X191622872Y-82850499D01*
X191682483Y-82844091D01*
X191817331Y-82793796D01*
X191932546Y-82707546D01*
X192018796Y-82592331D01*
X192068002Y-82460401D01*
X192109872Y-82404468D01*
X192175337Y-82380050D01*
X192243610Y-82394901D01*
X192271865Y-82416053D01*
X192393917Y-82538105D01*
X192587421Y-82673600D01*
X192801507Y-82773429D01*
X192801516Y-82773433D01*
X193015000Y-82830634D01*
X193015000Y-81933012D01*
X193072007Y-81965925D01*
X193199174Y-82000000D01*
X193330826Y-82000000D01*
X193457993Y-81965925D01*
X193515000Y-81933012D01*
X193515000Y-82830633D01*
X193728483Y-82773433D01*
X193728492Y-82773429D01*
X193942578Y-82673600D01*
X194136082Y-82538105D01*
X194303105Y-82371082D01*
X194438600Y-82177578D01*
X194538429Y-81963492D01*
X194538432Y-81963486D01*
X194595636Y-81750000D01*
X193698012Y-81750000D01*
X193730925Y-81692993D01*
X193765000Y-81565826D01*
X193765000Y-81434174D01*
X193730925Y-81307007D01*
X193698012Y-81250000D01*
X194595636Y-81250000D01*
X194595635Y-81249999D01*
X194538432Y-81036513D01*
X194538429Y-81036507D01*
X194438600Y-80822422D01*
X194438599Y-80822420D01*
X194303113Y-80628926D01*
X194303108Y-80628920D01*
X194136082Y-80461894D01*
X193942578Y-80326399D01*
X193728492Y-80226570D01*
X193728486Y-80226567D01*
X193515000Y-80169364D01*
X193515000Y-81066988D01*
X193457993Y-81034075D01*
X193330826Y-81000000D01*
X193199174Y-81000000D01*
X193072007Y-81034075D01*
X193015000Y-81066988D01*
X193015000Y-80169364D01*
X193014999Y-80169364D01*
X192801513Y-80226567D01*
X192801507Y-80226570D01*
X192587422Y-80326399D01*
X192587420Y-80326400D01*
X192393926Y-80461886D01*
X192271865Y-80583947D01*
X192210542Y-80617431D01*
X192140850Y-80612447D01*
X192084917Y-80570575D01*
X192068002Y-80539598D01*
X192060243Y-80518796D01*
X192018796Y-80407669D01*
X192018795Y-80407668D01*
X192018793Y-80407664D01*
X191932547Y-80292455D01*
X191932544Y-80292452D01*
X191817335Y-80206206D01*
X191817328Y-80206202D01*
X191682482Y-80155908D01*
X191682483Y-80155908D01*
X191622883Y-80149501D01*
X191622881Y-80149500D01*
X191622873Y-80149500D01*
X191622864Y-80149500D01*
X189827129Y-80149500D01*
X189827123Y-80149501D01*
X189767516Y-80155908D01*
X189632671Y-80206202D01*
X189632664Y-80206206D01*
X189517455Y-80292452D01*
X189517452Y-80292455D01*
X189431206Y-80407664D01*
X189431202Y-80407671D01*
X189380908Y-80542517D01*
X189374501Y-80602116D01*
X189374500Y-80602135D01*
X189374500Y-82397870D01*
X186195000Y-82397870D01*
X186273903Y-82228663D01*
X186335063Y-82000408D01*
X186355659Y-81765000D01*
X186335063Y-81529592D01*
X186273903Y-81301337D01*
X186174035Y-81087171D01*
X186112997Y-81000000D01*
X186038496Y-80893600D01*
X186038495Y-80893599D01*
X185916567Y-80771671D01*
X185883084Y-80710351D01*
X185888068Y-80640659D01*
X185929939Y-80584725D01*
X185960915Y-80567810D01*
X186092331Y-80518796D01*
X186207546Y-80432546D01*
X186293796Y-80317331D01*
X186344091Y-80182483D01*
X186350500Y-80122873D01*
X186350499Y-78327128D01*
X186344091Y-78267517D01*
X186293796Y-78132669D01*
X186293795Y-78132668D01*
X186293793Y-78132664D01*
X186207547Y-78017455D01*
X186207544Y-78017452D01*
X186092335Y-77931206D01*
X186092328Y-77931202D01*
X185957482Y-77880908D01*
X185957483Y-77880908D01*
X185897883Y-77874501D01*
X185897881Y-77874500D01*
X185897873Y-77874500D01*
X185897864Y-77874500D01*
X184102129Y-77874500D01*
X184102123Y-77874501D01*
X184042516Y-77880908D01*
X183907671Y-77931202D01*
X183907664Y-77931206D01*
X183792455Y-78017452D01*
X183792452Y-78017455D01*
X183706206Y-78132664D01*
X183706202Y-78132671D01*
X183655908Y-78267517D01*
X183649501Y-78327116D01*
X183649501Y-78327123D01*
X183649500Y-78327135D01*
X183649500Y-80122870D01*
X183649501Y-80122876D01*
X183655908Y-80182483D01*
X183706202Y-80317328D01*
X183706206Y-80317335D01*
X183792452Y-80432544D01*
X183792455Y-80432547D01*
X183907664Y-80518793D01*
X183907671Y-80518797D01*
X184039081Y-80567810D01*
X184095015Y-80609681D01*
X184119432Y-80675145D01*
X184104580Y-80743418D01*
X184083430Y-80771673D01*
X183961503Y-80893600D01*
X183825965Y-81087169D01*
X183825964Y-81087171D01*
X183726098Y-81301335D01*
X183726094Y-81301344D01*
X183664938Y-81529586D01*
X183664936Y-81529596D01*
X183644341Y-81764999D01*
X183644341Y-81765000D01*
X112684883Y-81765000D01*
X113113148Y-80741717D01*
X113114544Y-80738515D01*
X113676890Y-79498398D01*
X113678414Y-79495165D01*
X114121355Y-78590000D01*
X169000000Y-78590000D01*
X169000000Y-78788495D01*
X169038427Y-78981681D01*
X169038430Y-78981693D01*
X169113807Y-79163671D01*
X169113814Y-79163684D01*
X169223248Y-79327462D01*
X169223251Y-79327466D01*
X169362533Y-79466748D01*
X169362537Y-79466751D01*
X169526315Y-79576185D01*
X169526328Y-79576192D01*
X169708308Y-79651569D01*
X169750000Y-79659862D01*
X169750000Y-78590000D01*
X169000000Y-78590000D01*
X114121355Y-78590000D01*
X114276918Y-78272103D01*
X114278508Y-78268970D01*
X114912664Y-77063997D01*
X114914394Y-77060824D01*
X114920241Y-77050464D01*
X115372824Y-76248543D01*
X168999499Y-76248543D01*
X169037947Y-76441829D01*
X169037950Y-76441839D01*
X169113364Y-76623907D01*
X169113371Y-76623920D01*
X169222860Y-76787781D01*
X169222863Y-76787785D01*
X169362214Y-76927136D01*
X169362218Y-76927139D01*
X169422170Y-76967198D01*
X169466975Y-77020810D01*
X169475682Y-77090135D01*
X169445528Y-77153163D01*
X169422171Y-77173401D01*
X169362539Y-77213246D01*
X169362533Y-77213251D01*
X169223251Y-77352533D01*
X169223248Y-77352537D01*
X169113814Y-77516315D01*
X169113807Y-77516328D01*
X169038430Y-77698306D01*
X169038427Y-77698318D01*
X169000000Y-77891504D01*
X169000000Y-78090000D01*
X169850000Y-78090000D01*
X169850000Y-78619837D01*
X169872836Y-78674968D01*
X169915032Y-78717164D01*
X169970163Y-78740000D01*
X170029837Y-78740000D01*
X170084968Y-78717164D01*
X170127164Y-78674968D01*
X170150000Y-78619837D01*
X170150000Y-78590000D01*
X170250000Y-78590000D01*
X170250000Y-79659862D01*
X170291690Y-79651569D01*
X170291692Y-79651569D01*
X170473671Y-79576192D01*
X170473684Y-79576185D01*
X170637462Y-79466751D01*
X170637466Y-79466748D01*
X170776748Y-79327466D01*
X170776751Y-79327462D01*
X170886185Y-79163684D01*
X170886192Y-79163671D01*
X170961569Y-78981693D01*
X170961572Y-78981681D01*
X170999989Y-78788543D01*
X176999499Y-78788543D01*
X177037947Y-78981829D01*
X177037950Y-78981839D01*
X177113364Y-79163907D01*
X177113371Y-79163920D01*
X177222860Y-79327781D01*
X177222863Y-79327785D01*
X177362214Y-79467136D01*
X177362218Y-79467139D01*
X177526079Y-79576628D01*
X177526092Y-79576635D01*
X177707001Y-79651569D01*
X177708165Y-79652051D01*
X177708169Y-79652051D01*
X177708170Y-79652052D01*
X177901456Y-79690500D01*
X177901459Y-79690500D01*
X178098543Y-79690500D01*
X178252567Y-79659862D01*
X178291835Y-79652051D01*
X178473914Y-79576632D01*
X178637782Y-79467139D01*
X178777139Y-79327782D01*
X178886632Y-79163914D01*
X178962051Y-78981835D01*
X179000500Y-78788541D01*
X179000500Y-77891459D01*
X179000500Y-77891456D01*
X178962052Y-77698170D01*
X178962051Y-77698169D01*
X178962051Y-77698165D01*
X178962049Y-77698160D01*
X178886635Y-77516092D01*
X178886628Y-77516079D01*
X178777139Y-77352218D01*
X178777136Y-77352214D01*
X178637784Y-77212862D01*
X178616368Y-77198553D01*
X178578277Y-77173101D01*
X178533474Y-77119491D01*
X178524766Y-77050166D01*
X178554920Y-76987138D01*
X178578278Y-76966898D01*
X178637782Y-76927139D01*
X178777139Y-76787782D01*
X178886632Y-76623914D01*
X178962051Y-76441835D01*
X179000500Y-76248541D01*
X179000500Y-75351459D01*
X179000500Y-75351456D01*
X178962052Y-75158170D01*
X178962051Y-75158169D01*
X178962051Y-75158165D01*
X178962049Y-75158160D01*
X178886635Y-74976092D01*
X178886628Y-74976079D01*
X178777139Y-74812218D01*
X178777136Y-74812214D01*
X178637785Y-74672863D01*
X178637781Y-74672860D01*
X178473920Y-74563371D01*
X178473907Y-74563364D01*
X178291839Y-74487950D01*
X178291829Y-74487947D01*
X178098543Y-74449500D01*
X178098541Y-74449500D01*
X177901459Y-74449500D01*
X177901457Y-74449500D01*
X177708170Y-74487947D01*
X177708160Y-74487950D01*
X177526092Y-74563364D01*
X177526079Y-74563371D01*
X177362218Y-74672860D01*
X177362214Y-74672863D01*
X177222863Y-74812214D01*
X177222860Y-74812218D01*
X177113371Y-74976079D01*
X177113364Y-74976092D01*
X177037950Y-75158160D01*
X177037947Y-75158170D01*
X176999500Y-75351456D01*
X176999500Y-75351459D01*
X176999500Y-76248541D01*
X176999500Y-76248543D01*
X176999499Y-76248543D01*
X177037947Y-76441829D01*
X177037950Y-76441839D01*
X177113364Y-76623907D01*
X177113371Y-76623920D01*
X177222860Y-76787781D01*
X177222863Y-76787785D01*
X177362214Y-76927136D01*
X177362218Y-76927139D01*
X177421720Y-76966898D01*
X177466525Y-77020511D01*
X177475232Y-77089836D01*
X177445077Y-77152863D01*
X177421720Y-77173102D01*
X177362218Y-77212860D01*
X177362214Y-77212863D01*
X177222863Y-77352214D01*
X177222860Y-77352218D01*
X177113371Y-77516079D01*
X177113364Y-77516092D01*
X177037950Y-77698160D01*
X177037947Y-77698170D01*
X176999500Y-77891456D01*
X176999500Y-77891459D01*
X176999500Y-78788541D01*
X176999500Y-78788543D01*
X176999499Y-78788543D01*
X170999989Y-78788543D01*
X170999999Y-78788495D01*
X171000000Y-78788492D01*
X171000000Y-78590000D01*
X170250000Y-78590000D01*
X170150000Y-78590000D01*
X170150000Y-78090000D01*
X171000000Y-78090000D01*
X171000000Y-77891508D01*
X170999999Y-77891504D01*
X170961572Y-77698318D01*
X170961569Y-77698306D01*
X170886192Y-77516328D01*
X170886185Y-77516315D01*
X170776751Y-77352537D01*
X170776748Y-77352533D01*
X170637466Y-77213251D01*
X170637462Y-77213248D01*
X170577829Y-77173402D01*
X170533024Y-77119789D01*
X170524317Y-77050464D01*
X170554472Y-76987437D01*
X170577829Y-76967198D01*
X170637782Y-76927139D01*
X170777139Y-76787782D01*
X170886632Y-76623914D01*
X170962051Y-76441835D01*
X171000500Y-76248541D01*
X171000500Y-75351459D01*
X171000500Y-75351456D01*
X170962052Y-75158170D01*
X170962051Y-75158169D01*
X170962051Y-75158165D01*
X170962049Y-75158160D01*
X170886635Y-74976092D01*
X170886628Y-74976079D01*
X170777139Y-74812218D01*
X170777136Y-74812214D01*
X170637785Y-74672863D01*
X170637781Y-74672860D01*
X170473920Y-74563371D01*
X170473907Y-74563364D01*
X170291839Y-74487950D01*
X170291829Y-74487947D01*
X170098543Y-74449500D01*
X170098541Y-74449500D01*
X169901459Y-74449500D01*
X169901457Y-74449500D01*
X169708170Y-74487947D01*
X169708160Y-74487950D01*
X169526092Y-74563364D01*
X169526079Y-74563371D01*
X169362218Y-74672860D01*
X169362214Y-74672863D01*
X169222863Y-74812214D01*
X169222860Y-74812218D01*
X169113371Y-74976079D01*
X169113364Y-74976092D01*
X169037950Y-75158160D01*
X169037947Y-75158170D01*
X168999500Y-75351456D01*
X168999500Y-75351459D01*
X168999500Y-76248541D01*
X168999500Y-76248543D01*
X168999499Y-76248543D01*
X115372824Y-76248543D01*
X115583638Y-75875006D01*
X115585423Y-75871949D01*
X116289211Y-74706255D01*
X116291057Y-74703297D01*
X117028787Y-73558728D01*
X117030745Y-73555787D01*
X117801703Y-72433447D01*
X117803767Y-72430535D01*
X118607384Y-71331252D01*
X118609504Y-71328440D01*
X118914427Y-70936051D01*
X118971105Y-70895195D01*
X119040875Y-70891467D01*
X119101585Y-70926052D01*
X119133959Y-70987968D01*
X119132113Y-71044233D01*
X119071294Y-71271209D01*
X119071294Y-71271211D01*
X119013898Y-71633594D01*
X118994696Y-71999999D01*
X118994696Y-72000000D01*
X119013898Y-72366405D01*
X119071294Y-72728788D01*
X119071294Y-72728790D01*
X119166260Y-73083206D01*
X119297746Y-73425739D01*
X119464320Y-73752656D01*
X119664147Y-74060364D01*
X119664149Y-74060366D01*
X119895051Y-74345506D01*
X120154494Y-74604949D01*
X120154498Y-74604952D01*
X120439635Y-74835852D01*
X120655587Y-74976092D01*
X120747348Y-75035682D01*
X121074264Y-75202255D01*
X121416801Y-75333742D01*
X121771206Y-75428705D01*
X122133596Y-75486102D01*
X122479734Y-75504241D01*
X122499999Y-75505304D01*
X122500000Y-75505304D01*
X122500001Y-75505304D01*
X122519203Y-75504297D01*
X122866404Y-75486102D01*
X123228794Y-75428705D01*
X123583199Y-75333742D01*
X123925736Y-75202255D01*
X124252652Y-75035682D01*
X124560366Y-74835851D01*
X124845506Y-74604949D01*
X125104949Y-74345506D01*
X125335851Y-74060366D01*
X125535682Y-73752652D01*
X125702255Y-73425736D01*
X125833742Y-73083199D01*
X125928705Y-72728794D01*
X125986102Y-72366404D01*
X126005304Y-72000000D01*
X125986102Y-71633596D01*
X125928705Y-71271206D01*
X125833742Y-70916801D01*
X125702255Y-70574264D01*
X125535682Y-70247348D01*
X125335851Y-69939634D01*
X125104949Y-69654494D01*
X124845506Y-69395051D01*
X124560366Y-69164149D01*
X124560364Y-69164147D01*
X124252656Y-68964320D01*
X123925739Y-68797746D01*
X123583206Y-68666260D01*
X123583199Y-68666258D01*
X123228794Y-68571295D01*
X123228790Y-68571294D01*
X123228789Y-68571294D01*
X122866405Y-68513898D01*
X122500001Y-68494696D01*
X122499999Y-68494696D01*
X122133594Y-68513898D01*
X121771211Y-68571294D01*
X121771209Y-68571294D01*
X121416793Y-68666260D01*
X121074260Y-68797746D01*
X120911949Y-68880449D01*
X120843280Y-68893345D01*
X120778539Y-68867069D01*
X120738282Y-68809962D01*
X120735290Y-68740157D01*
X120762376Y-68688262D01*
X120778497Y-68669857D01*
X121213442Y-68173283D01*
X121215819Y-68170650D01*
X122142681Y-67173129D01*
X122145129Y-67170570D01*
X123100863Y-66200703D01*
X123103380Y-66198221D01*
X124087186Y-65256817D01*
X124089840Y-65254352D01*
X125100834Y-64342255D01*
X125103485Y-64339933D01*
X126140824Y-63457904D01*
X126143589Y-63455622D01*
X127206420Y-62604391D01*
X127209170Y-62602254D01*
X128296535Y-61782587D01*
X128299409Y-61780486D01*
X129410336Y-60993117D01*
X129413208Y-60991143D01*
X130546810Y-60236701D01*
X130549811Y-60234767D01*
X131705017Y-59513961D01*
X131708069Y-59512118D01*
X132883928Y-58825543D01*
X132887024Y-58823794D01*
X134082582Y-58172005D01*
X134085695Y-58170367D01*
X135299837Y-57553975D01*
X135303023Y-57552415D01*
X136534837Y-56971884D01*
X136537974Y-56970462D01*
X137786197Y-56426387D01*
X137789518Y-56424997D01*
X139053198Y-55917791D01*
X139056516Y-55916516D01*
X140334485Y-55446645D01*
X140337879Y-55445454D01*
X141629082Y-55013307D01*
X141632509Y-55012215D01*
X142935910Y-54618138D01*
X142939292Y-54617170D01*
X144253686Y-54261530D01*
X144257132Y-54260652D01*
X145581404Y-53943750D01*
X145584874Y-53942974D01*
X146917804Y-53665100D01*
X146921376Y-53664410D01*
X148261934Y-53425777D01*
X148265464Y-53425203D01*
X149612404Y-53226034D01*
X149615983Y-53225558D01*
X150968257Y-53066010D01*
X150971789Y-53065646D01*
X152328121Y-52945868D01*
X152331726Y-52945602D01*
X153690954Y-52865695D01*
X153694552Y-52865535D01*
X155055591Y-52825563D01*
X155059231Y-52825511D01*
X156420769Y-52825511D01*
X156424408Y-52825563D01*
G37*
%TD.AperFunction*%
%TD*%
M02*
