M48
; DRILL file {KiCad 8.0.1} date 2024-06-11T18:43:06+0200
; FORMAT={-:-/ absolute / inch / decimal}
; #@! TF.CreationDate,2024-06-11T18:43:06+02:00
; #@! TF.GenerationSoftware,Kicad,Pcbnew,8.0.1
; #@! TF.FileFunction,Plated,1,2,PTH
FMAT,2
INCH
; #@! TA.AperFunction,Plated,PTH,ComponentDrill
T1C0.0118
; #@! TA.AperFunction,Plated,PTH,ComponentDrill
T2C0.0394
%
G90
G05
T2
X6.7228Y-3.6
X6.7228Y-3.7
X6.7228Y-3.8
X6.7228Y-3.9
X6.7228Y-4.0
X6.7228Y-4.1
X6.7228Y-4.2
X6.7228Y-4.3
X6.7228Y-4.4
X6.7228Y-4.5
X6.7228Y-4.6
X6.7228Y-4.7
X6.7228Y-4.8
X6.7228Y-4.9
X6.7228Y-5.0
X7.2835Y-3.1191
X7.2835Y-3.2191
X7.3228Y-3.6
X7.3228Y-3.7
X7.3228Y-3.8
X7.3228Y-3.9
X7.3228Y-4.0
X7.3228Y-4.1
X7.3228Y-4.2
X7.3228Y-4.3
X7.3228Y-4.4
X7.3228Y-4.5
X7.3228Y-4.6
X7.3228Y-4.7
X7.3228Y-4.8
X7.3228Y-4.9
X7.3228Y-5.0
X7.5089Y-3.2087
X7.5394Y-4.2307
X7.5394Y-4.3307
X7.5394Y-4.4307
X7.6089Y-3.2087
X7.6772Y-3.4508
X7.6772Y-3.5508
X7.6772Y-3.6508
X7.6772Y-3.7508
X7.6772Y-3.8508
X7.6772Y-3.9508
X7.7756Y-4.2307
X7.7756Y-4.3307
X7.7756Y-4.4307
T1
G00X6.6929Y-2.8823
M15
G01X6.6929Y-2.8626
M16
G05
G00X6.6929Y-2.9823
M15
G01X6.6929Y-2.9626
M16
G05
G00X6.6929Y-3.0823
M15
G01X6.6929Y-3.0626
M16
G05
G00X7.0079Y-2.8823
M15
G01X7.0079Y-2.8626
M16
G05
G00X7.0079Y-2.9823
M15
G01X7.0079Y-2.9626
M16
G05
G00X7.0079Y-3.0823
M15
G01X7.0079Y-3.0626
M16
G05
M30
