%TF.GenerationSoftware,KiCad,Pcbnew,8.0.1*%
%TF.CreationDate,2024-06-07T18:57:59+02:00*%
%TF.ProjectId,PCB_Plaque_Haute,5043425f-506c-4617-9175-655f48617574,C.Roche*%
%TF.SameCoordinates,Original*%
%TF.FileFunction,Copper,L1,Top*%
%TF.FilePolarity,Positive*%
%FSLAX46Y46*%
G04 Gerber Fmt 4.6, Leading zero omitted, Abs format (unit mm)*
G04 Created by KiCad (PCBNEW 8.0.1) date 2024-06-07 18:57:59*
%MOMM*%
%LPD*%
G01*
G04 APERTURE LIST*
%TA.AperFunction,ComponentPad*%
%ADD10R,0.850000X0.850000*%
%TD*%
%TA.AperFunction,ComponentPad*%
%ADD11O,0.850000X0.850000*%
%TD*%
%TA.AperFunction,WasherPad*%
%ADD12C,2.500000*%
%TD*%
%TA.AperFunction,ComponentPad*%
%ADD13C,1.600000*%
%TD*%
%TA.AperFunction,ComponentPad*%
%ADD14C,1.524000*%
%TD*%
%TA.AperFunction,ComponentPad*%
%ADD15R,1.600000X1.600000*%
%TD*%
%TA.AperFunction,ComponentPad*%
%ADD16O,1.600000X1.600000*%
%TD*%
%TA.AperFunction,Conductor*%
%ADD17C,0.200000*%
%TD*%
G04 APERTURE END LIST*
D10*
%TO.P,Inter_plaques1,1,5V*%
%TO.N,Net-(BMP1-VCC)*%
X116000000Y-86330000D03*
D11*
%TO.P,Inter_plaques1,2,GND*%
%TO.N,Net-(BMP1-GND)*%
X116000000Y-87330000D03*
%TO.P,Inter_plaques1,3,Vin*%
%TO.N,Net-(Arduino_Nano1-Vin)*%
X116000000Y-88330000D03*
%TO.P,Inter_plaques1,4,A5*%
%TO.N,Net-(BMP1-SCL)*%
X116000000Y-89330000D03*
%TO.P,Inter_plaques1,5,A4*%
%TO.N,Net-(BMP1-SDA)*%
X116000000Y-90330000D03*
%TD*%
D12*
%TO.P,MPU1,*%
%TO.N,*%
X131390000Y-110330000D03*
X113660000Y-110330000D03*
D13*
%TO.P,MPU1,1,VCC*%
%TO.N,Net-(BMP1-VCC)*%
X131390000Y-96990000D03*
%TO.P,MPU1,2,GND*%
%TO.N,Net-(BMP1-GND)*%
X128850000Y-96990000D03*
%TO.P,MPU1,3,SCL*%
%TO.N,Net-(BMP1-SCL)*%
X126310000Y-96990000D03*
%TO.P,MPU1,4,SDA*%
%TO.N,Net-(BMP1-SDA)*%
X123770000Y-96990000D03*
D14*
%TO.P,MPU1,5,XDA*%
%TO.N,unconnected-(MPU1-XDA-Pad5)*%
X121230000Y-96990000D03*
%TO.P,MPU1,6,XCL*%
%TO.N,unconnected-(MPU1-XCL-Pad6)*%
X118690000Y-96990000D03*
%TO.P,MPU1,7,AD0*%
%TO.N,unconnected-(MPU1-AD0-Pad7)*%
X116150000Y-96990000D03*
%TO.P,MPU1,8,INT*%
%TO.N,unconnected-(MPU1-INT-Pad8)*%
X113610000Y-96990000D03*
%TD*%
D10*
%TO.P,Inter_in_c1,1,Jack*%
%TO.N,Net-(Arduino_Nano1-D4)*%
X182500000Y-80000000D03*
D11*
%TO.P,Inter_in_c1,2,SW_1*%
%TO.N,Net-(Arduino_Nano1-D3)*%
X181500000Y-80000000D03*
%TO.P,Inter_in_c1,3,SW_2*%
%TO.N,Net-(Arduino_Nano1-D2)*%
X180500000Y-80000000D03*
%TD*%
D10*
%TO.P,Inter_Input1,1,GND*%
%TO.N,Net-(BMP1-GND)*%
X179500000Y-84000000D03*
D11*
%TO.P,Inter_Input1,2,SW_2*%
%TO.N,Net-(Arduino_Nano1-D2)*%
X180500000Y-84000000D03*
%TO.P,Inter_Input1,3,SW_1*%
%TO.N,Net-(Arduino_Nano1-D3)*%
X181500000Y-84000000D03*
%TO.P,Inter_Input1,4,Jack*%
%TO.N,Net-(Arduino_Nano1-D4)*%
X182500000Y-84000000D03*
%TO.P,Inter_Input1,5,Led_2*%
%TO.N,Net-(Arduino_Nano1-D6)*%
X183500000Y-84000000D03*
%TO.P,Inter_Input1,6,Led_1*%
%TO.N,Net-(Arduino_Nano1-D7)*%
X184500000Y-84000000D03*
%TD*%
D10*
%TO.P,Servomoteur2,1,Vin*%
%TO.N,Net-(Arduino_Nano1-5V)*%
X196500000Y-100000000D03*
D11*
%TO.P,Servomoteur2,2,AN*%
%TO.N,Net-(Arduino_Nano1-D9)*%
X196500000Y-101000000D03*
%TO.P,Servomoteur2,3,GND*%
%TO.N,Net-(BMP1-GND)*%
X196500000Y-102000000D03*
%TD*%
D12*
%TO.P,BMP1,*%
%TO.N,*%
X123690000Y-127500000D03*
D13*
%TO.P,BMP1,1,VCC*%
%TO.N,Net-(BMP1-VCC)*%
X131310000Y-114160000D03*
%TO.P,BMP1,2,GND*%
%TO.N,Net-(BMP1-GND)*%
X128770000Y-114160000D03*
%TO.P,BMP1,3,SCL*%
%TO.N,Net-(BMP1-SCL)*%
X126230000Y-114160000D03*
%TO.P,BMP1,4,SDA*%
%TO.N,Net-(BMP1-SDA)*%
X123690000Y-114160000D03*
%TD*%
D10*
%TO.P,Servomoteur1,1,Vin*%
%TO.N,Net-(Arduino_Nano1-5V)*%
X192500000Y-100000000D03*
D11*
%TO.P,Servomoteur1,2,AN*%
%TO.N,Net-(Arduino_Nano1-D10)*%
X192500000Y-101000000D03*
%TO.P,Servomoteur1,3,GND*%
%TO.N,Net-(BMP1-GND)*%
X192500000Y-102000000D03*
%TD*%
D10*
%TO.P,Bloc_pile1,1,VDD*%
%TO.N,Net-(Arduino_Nano1-Vin)*%
X180500000Y-73500000D03*
D11*
%TO.P,Bloc_pile1,2,GND*%
%TO.N,Net-(BMP1-GND)*%
X180500000Y-72500000D03*
%TD*%
D15*
%TO.P,Arduino_Nano1,1,TxD*%
%TO.N,unconnected-(Arduino_Nano1-TxD-Pad1)*%
X170760000Y-91440000D03*
D16*
%TO.P,Arduino_Nano1,2,RxD*%
%TO.N,unconnected-(Arduino_Nano1-RxD-Pad2)*%
X170760000Y-93980000D03*
%TO.P,Arduino_Nano1,3,Reset*%
%TO.N,unconnected-(Arduino_Nano1-Reset-Pad3)*%
X170760000Y-96520000D03*
%TO.P,Arduino_Nano1,4,GND*%
%TO.N,unconnected-(Arduino_Nano1-GND-Pad4)*%
X170760000Y-99060000D03*
%TO.P,Arduino_Nano1,5,D2*%
%TO.N,Net-(Arduino_Nano1-D2)*%
X170760000Y-101600000D03*
%TO.P,Arduino_Nano1,6,D3*%
%TO.N,Net-(Arduino_Nano1-D3)*%
X170760000Y-104140000D03*
%TO.P,Arduino_Nano1,7,D4*%
%TO.N,Net-(Arduino_Nano1-D4)*%
X170760000Y-106680000D03*
%TO.P,Arduino_Nano1,8,D5*%
%TO.N,unconnected-(Arduino_Nano1-D5-Pad8)*%
X170760000Y-109220000D03*
%TO.P,Arduino_Nano1,9,D6*%
%TO.N,Net-(Arduino_Nano1-D6)*%
X170760000Y-111760000D03*
%TO.P,Arduino_Nano1,10,D7*%
%TO.N,Net-(Arduino_Nano1-D7)*%
X170760000Y-114300000D03*
%TO.P,Arduino_Nano1,11,D8*%
%TO.N,unconnected-(Arduino_Nano1-D8-Pad11)*%
X170760000Y-116840000D03*
%TO.P,Arduino_Nano1,12,D9*%
%TO.N,Net-(Arduino_Nano1-D9)*%
X170760000Y-119380000D03*
%TO.P,Arduino_Nano1,13,D10*%
%TO.N,Net-(Arduino_Nano1-D10)*%
X170760000Y-121920000D03*
%TO.P,Arduino_Nano1,14,D11*%
%TO.N,unconnected-(Arduino_Nano1-D11-Pad14)*%
X170760000Y-124460000D03*
%TO.P,Arduino_Nano1,15,D12*%
%TO.N,unconnected-(Arduino_Nano1-D12-Pad15)*%
X170760000Y-127000000D03*
%TO.P,Arduino_Nano1,16,D13*%
%TO.N,unconnected-(Arduino_Nano1-D13-Pad16)*%
X186000000Y-127000000D03*
%TO.P,Arduino_Nano1,17,3V3*%
%TO.N,unconnected-(Arduino_Nano1-3V3-Pad17)*%
X186000000Y-124460000D03*
%TO.P,Arduino_Nano1,18,Aref*%
%TO.N,unconnected-(Arduino_Nano1-Aref-Pad18)*%
X186000000Y-121920000D03*
%TO.P,Arduino_Nano1,19,A0*%
%TO.N,unconnected-(Arduino_Nano1-A0-Pad19)*%
X186000000Y-119380000D03*
%TO.P,Arduino_Nano1,20,A1*%
%TO.N,unconnected-(Arduino_Nano1-A1-Pad20)*%
X186000000Y-116840000D03*
%TO.P,Arduino_Nano1,21,A2*%
%TO.N,unconnected-(Arduino_Nano1-A2-Pad21)*%
X186000000Y-114300000D03*
%TO.P,Arduino_Nano1,22,A3*%
%TO.N,unconnected-(Arduino_Nano1-A3-Pad22)*%
X186000000Y-111760000D03*
%TO.P,Arduino_Nano1,23,A4*%
%TO.N,unconnected-(Arduino_Nano1-A4-Pad23)*%
X186000000Y-109220000D03*
%TO.P,Arduino_Nano1,24,A5*%
%TO.N,unconnected-(Arduino_Nano1-A5-Pad24)*%
X186000000Y-106680000D03*
%TO.P,Arduino_Nano1,25,A6*%
%TO.N,unconnected-(Arduino_Nano1-A6-Pad25)*%
X186000000Y-104140000D03*
%TO.P,Arduino_Nano1,26,A7*%
%TO.N,unconnected-(Arduino_Nano1-A7-Pad26)*%
X186000000Y-101600000D03*
%TO.P,Arduino_Nano1,27,5V*%
%TO.N,Net-(Arduino_Nano1-5V)*%
X186000000Y-99060000D03*
%TO.P,Arduino_Nano1,28,Reset*%
%TO.N,unconnected-(Arduino_Nano1-Reset-Pad28)*%
X186000000Y-96520000D03*
%TO.P,Arduino_Nano1,29,GND*%
%TO.N,Net-(BMP1-GND)*%
X186000000Y-93980000D03*
%TO.P,Arduino_Nano1,30,Vin*%
%TO.N,Net-(Arduino_Nano1-Vin)*%
X186000000Y-91440000D03*
%TD*%
D17*
%TO.N,Net-(Arduino_Nano1-D3)*%
X181500000Y-87500000D02*
X181500000Y-84000000D01*
X179000000Y-103000000D02*
X179000000Y-90000000D01*
X181500000Y-80000000D02*
X181500000Y-84000000D01*
X177860000Y-104140000D02*
X179000000Y-103000000D01*
X170760000Y-104140000D02*
X177860000Y-104140000D01*
X179000000Y-90000000D02*
X181500000Y-87500000D01*
%TO.N,Net-(Arduino_Nano1-Vin)*%
X111690000Y-104020000D02*
X116500000Y-108830000D01*
X169000000Y-116500000D02*
X169000000Y-128000000D01*
X116000000Y-88330000D02*
X114000000Y-88330000D01*
X138500000Y-138000000D02*
X167000000Y-138000000D01*
X186000000Y-91440000D02*
X185060000Y-91440000D01*
X183000000Y-107500000D02*
X174910000Y-115590000D01*
X125000000Y-124500000D02*
X138500000Y-138000000D01*
X188500000Y-81500000D02*
X188500000Y-88940000D01*
X116500000Y-119000000D02*
X122000000Y-124500000D01*
X180500000Y-73500000D02*
X181500000Y-73500000D01*
X185060000Y-91440000D02*
X183000000Y-93500000D01*
X122000000Y-124500000D02*
X125000000Y-124500000D01*
X183000000Y-93500000D02*
X183000000Y-107500000D01*
X169000000Y-136000000D02*
X167000000Y-138000000D01*
X111690000Y-90640000D02*
X111690000Y-104020000D01*
X116500000Y-108830000D02*
X116500000Y-119000000D01*
X174910000Y-115590000D02*
X169910000Y-115590000D01*
X184500000Y-77500000D02*
X188500000Y-81500000D01*
X169910000Y-115590000D02*
X169000000Y-116500000D01*
X184500000Y-76500000D02*
X184500000Y-77500000D01*
X169000000Y-128000000D02*
X169000000Y-136000000D01*
X114000000Y-88330000D02*
X111690000Y-90640000D01*
X181500000Y-73500000D02*
X184500000Y-76500000D01*
X188500000Y-88940000D02*
X186000000Y-91440000D01*
%TO.N,Net-(Arduino_Nano1-D6)*%
X183500000Y-84000000D02*
X183500000Y-87500000D01*
X181000000Y-90000000D02*
X181000000Y-107000000D01*
X181000000Y-107000000D02*
X176240000Y-111760000D01*
X183500000Y-87500000D02*
X181000000Y-90000000D01*
X176240000Y-111760000D02*
X170760000Y-111760000D01*
%TO.N,Net-(Arduino_Nano1-D4)*%
X182500000Y-84000000D02*
X182500000Y-87500000D01*
X180000000Y-106000000D02*
X179320000Y-106680000D01*
X182500000Y-87500000D02*
X180000000Y-90000000D01*
X182500000Y-80000000D02*
X182500000Y-84000000D01*
X179320000Y-106680000D02*
X170760000Y-106680000D01*
X180000000Y-90000000D02*
X180000000Y-106000000D01*
%TO.N,Net-(BMP1-GND)*%
X128770000Y-114160000D02*
X128770000Y-97070000D01*
X189000000Y-130080000D02*
X189000000Y-104500000D01*
X198000000Y-102000000D02*
X196500000Y-102000000D01*
X138000000Y-138500000D02*
X179000000Y-138500000D01*
X115500000Y-108830000D02*
X115500000Y-118830000D01*
X181065685Y-72500000D02*
X184900000Y-76334315D01*
X199000000Y-101000000D02*
X198000000Y-102000000D01*
X199000000Y-98000000D02*
X199000000Y-101000000D01*
X192980000Y-93980000D02*
X194980000Y-93980000D01*
X180500000Y-72500000D02*
X179500000Y-72500000D01*
X184900000Y-77334314D02*
X189490000Y-81924314D01*
X189490000Y-90490000D02*
X188990000Y-90990000D01*
X111190000Y-104520000D02*
X115500000Y-108830000D01*
X180500000Y-72500000D02*
X181065685Y-72500000D01*
X128770000Y-97070000D02*
X128850000Y-96990000D01*
X111190000Y-90140000D02*
X111190000Y-104520000D01*
X114000000Y-87330000D02*
X111190000Y-90140000D01*
X124500000Y-125000000D02*
X138000000Y-138500000D01*
X123500000Y-87330000D02*
X128850000Y-92680000D01*
X115500000Y-118830000D02*
X121670000Y-125000000D01*
X185500000Y-132000000D02*
X187080000Y-132000000D01*
X128850000Y-92680000D02*
X128850000Y-96990000D01*
X192500000Y-102000000D02*
X196500000Y-102000000D01*
X189000000Y-104500000D02*
X191500000Y-102000000D01*
X184900000Y-76334315D02*
X184900000Y-77334314D01*
X189490000Y-90490000D02*
X192980000Y-93980000D01*
X179000000Y-138500000D02*
X185500000Y-132000000D01*
X194980000Y-93980000D02*
X199000000Y-98000000D01*
X116000000Y-87330000D02*
X123500000Y-87330000D01*
X178500000Y-81000000D02*
X179500000Y-82000000D01*
X121670000Y-125000000D02*
X124500000Y-125000000D01*
X178500000Y-73500000D02*
X178500000Y-81000000D01*
X189490000Y-81924314D02*
X189490000Y-90490000D01*
X179500000Y-82000000D02*
X179500000Y-84000000D01*
X187080000Y-132000000D02*
X189000000Y-130080000D01*
X116000000Y-87330000D02*
X114000000Y-87330000D01*
X179500000Y-72500000D02*
X178500000Y-73500000D01*
X191500000Y-102000000D02*
X192500000Y-102000000D01*
X188990000Y-90990000D02*
X186000000Y-93980000D01*
%TO.N,Net-(Arduino_Nano1-D10)*%
X172080000Y-121920000D02*
X170760000Y-121920000D01*
X191000000Y-101000000D02*
X192500000Y-101000000D01*
X173350000Y-120650000D02*
X172080000Y-121920000D01*
X188000000Y-104000000D02*
X188000000Y-119500000D01*
X188000000Y-119500000D02*
X186850000Y-120650000D01*
X186850000Y-120650000D02*
X173350000Y-120650000D01*
X191000000Y-101000000D02*
X188000000Y-104000000D01*
%TO.N,Net-(Arduino_Nano1-D2)*%
X180500000Y-87500000D02*
X178000000Y-90000000D01*
X180500000Y-80000000D02*
X180500000Y-84000000D01*
X178000000Y-90000000D02*
X178000000Y-100500000D01*
X180500000Y-84000000D02*
X180500000Y-87500000D01*
X176900000Y-101600000D02*
X170760000Y-101600000D01*
X178000000Y-100500000D02*
X176900000Y-101600000D01*
%TO.N,Net-(Arduino_Nano1-D7)*%
X184500000Y-84000000D02*
X184500000Y-87500000D01*
X174700000Y-114300000D02*
X182000000Y-107000000D01*
X170760000Y-114300000D02*
X174700000Y-114300000D01*
X182000000Y-90000000D02*
X184500000Y-87500000D01*
X182000000Y-107000000D02*
X182000000Y-90000000D01*
%TO.N,Net-(Arduino_Nano1-D9)*%
X185200000Y-97800000D02*
X198000000Y-97800000D01*
X182620000Y-119380000D02*
X184500000Y-117500000D01*
X184500000Y-117500000D02*
X184500000Y-98500000D01*
X198500000Y-100500000D02*
X198000000Y-101000000D01*
X170760000Y-119380000D02*
X182620000Y-119380000D01*
X198000000Y-101000000D02*
X196500000Y-101000000D01*
X198000000Y-97800000D02*
X198500000Y-98300000D01*
X184500000Y-98500000D02*
X185200000Y-97800000D01*
X198500000Y-98300000D02*
X198500000Y-100500000D01*
%TO.N,Net-(Arduino_Nano1-5V)*%
X192500000Y-100000000D02*
X196500000Y-100000000D01*
X186000000Y-99060000D02*
X190060000Y-99060000D01*
X190060000Y-99060000D02*
X191000000Y-100000000D01*
X191000000Y-100000000D02*
X192500000Y-100000000D01*
%TO.N,Net-(BMP1-VCC)*%
X131390000Y-106940000D02*
X129500000Y-108830000D01*
X131390000Y-93720000D02*
X124000000Y-86330000D01*
X131310000Y-113640000D02*
X131310000Y-114160000D01*
X129500000Y-108830000D02*
X129500000Y-111830000D01*
X129500000Y-111830000D02*
X131310000Y-113640000D01*
X131390000Y-96990000D02*
X131390000Y-93720000D01*
X124000000Y-86330000D02*
X116000000Y-86330000D01*
X131390000Y-96990000D02*
X131390000Y-106940000D01*
%TO.N,Net-(BMP1-SCL)*%
X126310000Y-91640000D02*
X124000000Y-89330000D01*
X126230000Y-114160000D02*
X126230000Y-97070000D01*
X124000000Y-89330000D02*
X116000000Y-89330000D01*
X126310000Y-96990000D02*
X126310000Y-91640000D01*
X126230000Y-97070000D02*
X126310000Y-96990000D01*
%TO.N,Net-(BMP1-SDA)*%
X123770000Y-97100000D02*
X123690000Y-97180000D01*
X120500000Y-90330000D02*
X123770000Y-93600000D01*
X116000000Y-90330000D02*
X120500000Y-90330000D01*
X123690000Y-97180000D02*
X123690000Y-114160000D01*
X123770000Y-96990000D02*
X123770000Y-97100000D01*
X123770000Y-93600000D02*
X123770000Y-96990000D01*
%TD*%
%TA.AperFunction,Conductor*%
%TO.N,Net-(BMP1-GND)*%
G36*
X156424408Y-52825563D02*
G01*
X157785444Y-52865535D01*
X157789048Y-52865695D01*
X159148268Y-52945602D01*
X159151883Y-52945868D01*
X160508203Y-53065645D01*
X160511749Y-53066011D01*
X161864007Y-53225557D01*
X161867604Y-53226036D01*
X163214524Y-53425201D01*
X163218075Y-53425779D01*
X164108238Y-53584237D01*
X164558623Y-53664410D01*
X164562197Y-53665101D01*
X164949347Y-53745809D01*
X165895110Y-53942971D01*
X165898609Y-53943754D01*
X167222851Y-54260648D01*
X167226330Y-54261535D01*
X168540689Y-54617165D01*
X168544107Y-54618144D01*
X169847469Y-55012209D01*
X169850938Y-55013314D01*
X171142099Y-55445447D01*
X171145535Y-55446653D01*
X172423460Y-55916507D01*
X172426823Y-55917800D01*
X173381896Y-56301139D01*
X173690463Y-56424990D01*
X173693821Y-56426396D01*
X174941999Y-56970451D01*
X174945187Y-56971896D01*
X176176949Y-57552402D01*
X176180189Y-57553988D01*
X177394275Y-58170353D01*
X177397445Y-58172021D01*
X177832465Y-58409183D01*
X178592937Y-58823774D01*
X178596108Y-58825564D01*
X179771898Y-59512100D01*
X179775014Y-59513981D01*
X180930158Y-60234748D01*
X180933218Y-60236720D01*
X182066760Y-60991122D01*
X182069695Y-60993139D01*
X183180557Y-61780463D01*
X183183496Y-61782611D01*
X184270796Y-62602229D01*
X184273612Y-62604417D01*
X184985236Y-63174364D01*
X185336388Y-63455605D01*
X185339196Y-63457923D01*
X186376470Y-64339895D01*
X186379208Y-64342293D01*
X187390159Y-65254352D01*
X187392826Y-65256830D01*
X188376581Y-66198185D01*
X188379174Y-66200741D01*
X189334835Y-67170535D01*
X189337352Y-67173165D01*
X190264148Y-68170615D01*
X190266587Y-68173318D01*
X190701503Y-68669857D01*
X190730867Y-68733257D01*
X190721293Y-68802468D01*
X190675820Y-68855515D01*
X190608887Y-68875557D01*
X190551930Y-68862044D01*
X190425739Y-68797746D01*
X190083206Y-68666260D01*
X190083199Y-68666258D01*
X189728794Y-68571295D01*
X189728790Y-68571294D01*
X189728789Y-68571294D01*
X189366405Y-68513898D01*
X189000001Y-68494696D01*
X188999999Y-68494696D01*
X188633594Y-68513898D01*
X188271211Y-68571294D01*
X188271209Y-68571294D01*
X187916793Y-68666260D01*
X187574260Y-68797746D01*
X187247343Y-68964320D01*
X186939635Y-69164147D01*
X186654498Y-69395047D01*
X186654490Y-69395054D01*
X186395054Y-69654490D01*
X186395047Y-69654498D01*
X186164147Y-69939635D01*
X185964320Y-70247343D01*
X185797746Y-70574260D01*
X185666260Y-70916793D01*
X185571294Y-71271209D01*
X185571294Y-71271211D01*
X185513898Y-71633594D01*
X185494696Y-71999999D01*
X185494696Y-72000000D01*
X185513898Y-72366405D01*
X185557487Y-72641614D01*
X185571295Y-72728794D01*
X185651233Y-73027127D01*
X185666260Y-73083206D01*
X185797746Y-73425739D01*
X185964320Y-73752656D01*
X186164147Y-74060364D01*
X186324170Y-74257975D01*
X186395051Y-74345506D01*
X186654494Y-74604949D01*
X186654498Y-74604952D01*
X186939635Y-74835852D01*
X187247343Y-75035679D01*
X187247348Y-75035682D01*
X187574264Y-75202255D01*
X187916801Y-75333742D01*
X188271206Y-75428705D01*
X188633596Y-75486102D01*
X188979734Y-75504241D01*
X188999999Y-75505304D01*
X189000000Y-75505304D01*
X189000001Y-75505304D01*
X189019203Y-75504297D01*
X189366404Y-75486102D01*
X189728794Y-75428705D01*
X190083199Y-75333742D01*
X190425736Y-75202255D01*
X190752652Y-75035682D01*
X191060366Y-74835851D01*
X191345506Y-74604949D01*
X191604949Y-74345506D01*
X191835851Y-74060366D01*
X192035682Y-73752652D01*
X192202255Y-73425736D01*
X192333742Y-73083199D01*
X192428705Y-72728794D01*
X192486102Y-72366404D01*
X192505304Y-72000000D01*
X192486102Y-71633596D01*
X192428705Y-71271206D01*
X192378412Y-71083511D01*
X192380075Y-71013665D01*
X192419237Y-70955802D01*
X192483465Y-70928298D01*
X192552368Y-70939884D01*
X192596099Y-70975334D01*
X192870458Y-71328392D01*
X192872650Y-71331299D01*
X193676211Y-72430506D01*
X193678316Y-72433477D01*
X194449224Y-73555743D01*
X194451241Y-73558773D01*
X195125554Y-74604952D01*
X195188901Y-74703232D01*
X195190818Y-74706305D01*
X195269032Y-74835852D01*
X195894550Y-75871906D01*
X195896386Y-75875050D01*
X196565605Y-77060824D01*
X196567347Y-77064020D01*
X197201462Y-78268914D01*
X197203110Y-78272161D01*
X197801570Y-79495135D01*
X197803122Y-79498428D01*
X198118304Y-80193483D01*
X198344167Y-80691569D01*
X198365425Y-80738447D01*
X198366875Y-80741774D01*
X198798773Y-81773739D01*
X198892551Y-81997808D01*
X198893907Y-82001187D01*
X199382460Y-83272052D01*
X199383717Y-83275469D01*
X199834772Y-84560188D01*
X199835927Y-84563640D01*
X200249057Y-85860995D01*
X200250111Y-85864480D01*
X200624993Y-87173460D01*
X200625943Y-87176974D01*
X200962216Y-88496314D01*
X200963064Y-88499855D01*
X201260475Y-89828562D01*
X201261218Y-89832126D01*
X201519490Y-91168974D01*
X201520128Y-91172558D01*
X201739047Y-92516427D01*
X201739579Y-92520028D01*
X201918947Y-93869700D01*
X201919374Y-93873316D01*
X202059049Y-95227719D01*
X202059369Y-95231345D01*
X202159218Y-96589228D01*
X202159432Y-96592863D01*
X202219378Y-97953116D01*
X202219485Y-97956755D01*
X202239473Y-99318180D01*
X202239473Y-99321820D01*
X202219485Y-100683244D01*
X202219378Y-100686883D01*
X202159432Y-102047136D01*
X202159218Y-102050771D01*
X202059369Y-103408654D01*
X202059049Y-103412280D01*
X201919374Y-104766683D01*
X201918947Y-104770299D01*
X201739579Y-106119971D01*
X201739047Y-106123572D01*
X201520128Y-107467441D01*
X201519490Y-107471025D01*
X201261218Y-108807873D01*
X201260475Y-108811437D01*
X200963064Y-110140144D01*
X200962216Y-110143685D01*
X200625943Y-111463025D01*
X200624993Y-111466539D01*
X200250111Y-112775519D01*
X200249057Y-112779004D01*
X199835927Y-114076359D01*
X199834772Y-114079811D01*
X199383717Y-115364530D01*
X199382460Y-115367947D01*
X198893907Y-116638812D01*
X198892551Y-116642191D01*
X198366880Y-117898215D01*
X198365425Y-117901552D01*
X197803122Y-119141571D01*
X197801570Y-119144864D01*
X197203110Y-120367838D01*
X197201462Y-120371085D01*
X196567347Y-121575979D01*
X196565605Y-121579175D01*
X195896386Y-122764949D01*
X195894550Y-122768093D01*
X195190828Y-123933678D01*
X195188901Y-123936767D01*
X194451241Y-125081226D01*
X194449224Y-125084256D01*
X193678316Y-126206522D01*
X193676211Y-126209493D01*
X192872650Y-127308700D01*
X192870458Y-127311607D01*
X192034997Y-128386718D01*
X192032721Y-128389559D01*
X191166080Y-129439657D01*
X191163722Y-129442431D01*
X190266587Y-130466681D01*
X190264148Y-130469384D01*
X189337352Y-131466834D01*
X189334835Y-131469464D01*
X188379174Y-132439258D01*
X188376581Y-132441814D01*
X187392826Y-133383169D01*
X187390159Y-133385647D01*
X186379208Y-134297706D01*
X186376470Y-134300104D01*
X185339196Y-135182076D01*
X185336388Y-135184394D01*
X184273641Y-136035559D01*
X184270766Y-136037793D01*
X183183496Y-136857388D01*
X183180557Y-136859536D01*
X182069728Y-137646837D01*
X182066727Y-137648899D01*
X180933218Y-138403279D01*
X180930158Y-138405251D01*
X179775014Y-139126018D01*
X179771898Y-139127899D01*
X178596108Y-139814435D01*
X178592937Y-139816225D01*
X177397470Y-140467965D01*
X177394249Y-140469660D01*
X176180192Y-141086009D01*
X176176922Y-141087610D01*
X175860375Y-141236793D01*
X174945243Y-141668077D01*
X174941948Y-141669571D01*
X173693821Y-142213603D01*
X173690463Y-142215009D01*
X172426841Y-142722192D01*
X172423442Y-142723498D01*
X171145534Y-143193346D01*
X171142099Y-143194552D01*
X169850938Y-143626685D01*
X169847469Y-143627790D01*
X168544156Y-144021841D01*
X168540656Y-144022843D01*
X167226345Y-144378460D01*
X167222818Y-144379359D01*
X165898636Y-144696239D01*
X165895083Y-144697034D01*
X164562197Y-144974898D01*
X164558623Y-144975589D01*
X163218097Y-145214216D01*
X163214503Y-145214801D01*
X161867610Y-145413962D01*
X161864001Y-145414442D01*
X160511786Y-145573984D01*
X160508165Y-145574357D01*
X159151891Y-145694130D01*
X159148260Y-145694397D01*
X157789064Y-145774303D01*
X157785427Y-145774464D01*
X157131198Y-145793678D01*
X157063610Y-145775970D01*
X157016324Y-145724531D01*
X157004355Y-145655695D01*
X157031502Y-145591314D01*
X157083118Y-145553968D01*
X157165736Y-145522255D01*
X157492652Y-145355682D01*
X157800366Y-145155851D01*
X158085506Y-144924949D01*
X158344949Y-144665506D01*
X158575851Y-144380366D01*
X158775682Y-144072652D01*
X158942255Y-143745736D01*
X159073742Y-143403199D01*
X159168705Y-143048794D01*
X159226102Y-142686404D01*
X159245304Y-142320000D01*
X159226102Y-141953596D01*
X159168705Y-141591206D01*
X159073742Y-141236801D01*
X158942255Y-140894264D01*
X158775682Y-140567348D01*
X158575851Y-140259634D01*
X158552515Y-140230817D01*
X158344952Y-139974498D01*
X158344949Y-139974494D01*
X158085506Y-139715051D01*
X157800366Y-139484149D01*
X157800364Y-139484147D01*
X157492656Y-139284320D01*
X157165739Y-139117746D01*
X156823206Y-138986260D01*
X156823199Y-138986258D01*
X156468794Y-138891295D01*
X156468790Y-138891294D01*
X156468789Y-138891294D01*
X156188956Y-138846973D01*
X156125821Y-138817044D01*
X156088890Y-138757732D01*
X156089888Y-138687870D01*
X156128498Y-138629637D01*
X156192461Y-138601523D01*
X156208354Y-138600500D01*
X166913331Y-138600500D01*
X166913347Y-138600501D01*
X166920943Y-138600501D01*
X167079054Y-138600501D01*
X167079057Y-138600501D01*
X167231785Y-138559577D01*
X167281904Y-138530639D01*
X167368716Y-138480520D01*
X167480520Y-138368716D01*
X167480520Y-138368714D01*
X167490728Y-138358507D01*
X167490730Y-138358504D01*
X169368713Y-136480521D01*
X169368716Y-136480520D01*
X169480520Y-136368716D01*
X169530639Y-136281904D01*
X169559577Y-136231785D01*
X169600500Y-136079057D01*
X169600500Y-135920943D01*
X169600500Y-127979049D01*
X169620185Y-127912010D01*
X169672989Y-127866255D01*
X169742147Y-127856311D01*
X169805703Y-127885336D01*
X169812181Y-127891368D01*
X169920858Y-128000045D01*
X169920861Y-128000047D01*
X170107266Y-128130568D01*
X170313504Y-128226739D01*
X170533308Y-128285635D01*
X170695230Y-128299801D01*
X170759998Y-128305468D01*
X170760000Y-128305468D01*
X170760002Y-128305468D01*
X170816673Y-128300509D01*
X170986692Y-128285635D01*
X171206496Y-128226739D01*
X171412734Y-128130568D01*
X171599139Y-128000047D01*
X171760047Y-127839139D01*
X171890568Y-127652734D01*
X171986739Y-127446496D01*
X172045635Y-127226692D01*
X172065468Y-127000000D01*
X172063945Y-126982597D01*
X172045635Y-126773313D01*
X172045635Y-126773308D01*
X171986739Y-126553504D01*
X171890568Y-126347266D01*
X171760047Y-126160861D01*
X171760045Y-126160858D01*
X171599141Y-125999954D01*
X171412734Y-125869432D01*
X171412728Y-125869429D01*
X171354725Y-125842382D01*
X171302285Y-125796210D01*
X171283133Y-125729017D01*
X171303348Y-125662135D01*
X171354725Y-125617618D01*
X171412734Y-125590568D01*
X171599139Y-125460047D01*
X171760047Y-125299139D01*
X171890568Y-125112734D01*
X171986739Y-124906496D01*
X172045635Y-124686692D01*
X172065468Y-124460000D01*
X172045635Y-124233308D01*
X171986739Y-124013504D01*
X171890568Y-123807266D01*
X171760047Y-123620861D01*
X171760045Y-123620858D01*
X171599141Y-123459954D01*
X171412734Y-123329432D01*
X171412728Y-123329429D01*
X171354725Y-123302382D01*
X171302285Y-123256210D01*
X171283133Y-123189017D01*
X171303348Y-123122135D01*
X171354725Y-123077618D01*
X171412734Y-123050568D01*
X171599139Y-122920047D01*
X171760047Y-122759139D01*
X171890118Y-122573375D01*
X171944693Y-122529752D01*
X171991692Y-122520500D01*
X171993331Y-122520500D01*
X171993347Y-122520501D01*
X172000943Y-122520501D01*
X172159054Y-122520501D01*
X172159057Y-122520501D01*
X172311785Y-122479577D01*
X172361904Y-122450639D01*
X172448716Y-122400520D01*
X172560520Y-122288716D01*
X172560520Y-122288714D01*
X172570728Y-122278507D01*
X172570729Y-122278504D01*
X173562416Y-121286819D01*
X173623739Y-121253334D01*
X173650097Y-121250500D01*
X184682609Y-121250500D01*
X184749648Y-121270185D01*
X184795403Y-121322989D01*
X184805347Y-121392147D01*
X184794991Y-121426905D01*
X184773261Y-121473502D01*
X184773258Y-121473511D01*
X184714366Y-121693302D01*
X184714364Y-121693313D01*
X184694532Y-121919998D01*
X184694532Y-121920001D01*
X184714364Y-122146686D01*
X184714366Y-122146697D01*
X184773258Y-122366488D01*
X184773261Y-122366497D01*
X184869431Y-122572732D01*
X184869432Y-122572734D01*
X184999954Y-122759141D01*
X185160858Y-122920045D01*
X185160861Y-122920047D01*
X185347266Y-123050568D01*
X185405275Y-123077618D01*
X185457714Y-123123791D01*
X185476866Y-123190984D01*
X185456650Y-123257865D01*
X185405275Y-123302382D01*
X185347267Y-123329431D01*
X185347265Y-123329432D01*
X185160858Y-123459954D01*
X184999954Y-123620858D01*
X184869432Y-123807265D01*
X184869431Y-123807267D01*
X184773261Y-124013502D01*
X184773258Y-124013511D01*
X184714366Y-124233302D01*
X184714364Y-124233313D01*
X184694532Y-124459998D01*
X184694532Y-124460001D01*
X184714364Y-124686686D01*
X184714366Y-124686697D01*
X184773258Y-124906488D01*
X184773261Y-124906497D01*
X184869431Y-125112732D01*
X184869432Y-125112734D01*
X184999954Y-125299141D01*
X185160858Y-125460045D01*
X185160861Y-125460047D01*
X185347266Y-125590568D01*
X185405275Y-125617618D01*
X185457714Y-125663791D01*
X185476866Y-125730984D01*
X185456650Y-125797865D01*
X185405275Y-125842382D01*
X185347267Y-125869431D01*
X185347265Y-125869432D01*
X185160858Y-125999954D01*
X184999954Y-126160858D01*
X184869432Y-126347265D01*
X184869431Y-126347267D01*
X184773261Y-126553502D01*
X184773258Y-126553511D01*
X184714366Y-126773302D01*
X184714364Y-126773313D01*
X184694532Y-126999998D01*
X184694532Y-127000001D01*
X184714364Y-127226686D01*
X184714366Y-127226697D01*
X184773258Y-127446488D01*
X184773261Y-127446497D01*
X184869431Y-127652732D01*
X184869432Y-127652734D01*
X184999954Y-127839141D01*
X185160858Y-128000045D01*
X185160861Y-128000047D01*
X185347266Y-128130568D01*
X185553504Y-128226739D01*
X185773308Y-128285635D01*
X185935230Y-128299801D01*
X185999998Y-128305468D01*
X186000000Y-128305468D01*
X186000002Y-128305468D01*
X186056673Y-128300509D01*
X186226692Y-128285635D01*
X186446496Y-128226739D01*
X186652734Y-128130568D01*
X186839139Y-128000047D01*
X187000047Y-127839139D01*
X187130568Y-127652734D01*
X187226739Y-127446496D01*
X187285635Y-127226692D01*
X187305468Y-127000000D01*
X187303945Y-126982597D01*
X187285635Y-126773313D01*
X187285635Y-126773308D01*
X187226739Y-126553504D01*
X187130568Y-126347266D01*
X187000047Y-126160861D01*
X187000045Y-126160858D01*
X186839141Y-125999954D01*
X186652734Y-125869432D01*
X186652728Y-125869429D01*
X186594725Y-125842382D01*
X186542285Y-125796210D01*
X186523133Y-125729017D01*
X186543348Y-125662135D01*
X186594725Y-125617618D01*
X186652734Y-125590568D01*
X186839139Y-125460047D01*
X187000047Y-125299139D01*
X187130568Y-125112734D01*
X187226739Y-124906496D01*
X187285635Y-124686692D01*
X187305468Y-124460000D01*
X187285635Y-124233308D01*
X187226739Y-124013504D01*
X187130568Y-123807266D01*
X187000047Y-123620861D01*
X187000045Y-123620858D01*
X186839141Y-123459954D01*
X186652734Y-123329432D01*
X186652728Y-123329429D01*
X186594725Y-123302382D01*
X186542285Y-123256210D01*
X186523133Y-123189017D01*
X186543348Y-123122135D01*
X186594725Y-123077618D01*
X186652734Y-123050568D01*
X186839139Y-122920047D01*
X187000047Y-122759139D01*
X187130568Y-122572734D01*
X187226739Y-122366496D01*
X187285635Y-122146692D01*
X187305468Y-121920000D01*
X187285635Y-121693308D01*
X187226739Y-121473504D01*
X187147044Y-121302600D01*
X187136553Y-121233525D01*
X187165072Y-121169741D01*
X187197426Y-121142811D01*
X187218716Y-121130520D01*
X187330520Y-121018716D01*
X187330520Y-121018714D01*
X187340728Y-121008507D01*
X187340729Y-121008504D01*
X188480520Y-119868716D01*
X188559577Y-119731784D01*
X188600501Y-119579057D01*
X188600501Y-119420942D01*
X188600501Y-119413347D01*
X188600500Y-119413329D01*
X188600500Y-104300097D01*
X188620185Y-104233058D01*
X188636819Y-104212416D01*
X190599236Y-102250000D01*
X191608628Y-102250000D01*
X191650316Y-102378306D01*
X191650317Y-102378307D01*
X191747536Y-102546694D01*
X191747535Y-102546694D01*
X191877639Y-102691190D01*
X191877642Y-102691192D01*
X192034950Y-102805484D01*
X192212587Y-102884573D01*
X192249999Y-102892524D01*
X192250000Y-102892524D01*
X192250000Y-102250000D01*
X191608628Y-102250000D01*
X190599236Y-102250000D01*
X191212417Y-101636819D01*
X191273740Y-101603334D01*
X191300098Y-101600500D01*
X191486532Y-101600500D01*
X191553571Y-101620185D01*
X191599326Y-101672989D01*
X191609270Y-101742147D01*
X191607730Y-101748764D01*
X191608628Y-101750000D01*
X191917441Y-101750000D01*
X191984480Y-101769685D01*
X191990327Y-101773682D01*
X192034702Y-101805923D01*
X192102926Y-101836297D01*
X192212429Y-101885051D01*
X192271788Y-101897668D01*
X192250000Y-101950272D01*
X192250000Y-102049728D01*
X192288060Y-102141614D01*
X192358386Y-102211940D01*
X192450272Y-102250000D01*
X192549728Y-102250000D01*
X192750000Y-102250000D01*
X192750000Y-102892524D01*
X192787412Y-102884573D01*
X192965049Y-102805484D01*
X193122357Y-102691192D01*
X193122360Y-102691190D01*
X193252463Y-102546694D01*
X193349682Y-102378307D01*
X193349683Y-102378306D01*
X193391372Y-102250000D01*
X195608628Y-102250000D01*
X195650316Y-102378306D01*
X195650317Y-102378307D01*
X195747536Y-102546694D01*
X195747535Y-102546694D01*
X195877639Y-102691190D01*
X195877642Y-102691192D01*
X196034950Y-102805484D01*
X196212587Y-102884573D01*
X196249999Y-102892524D01*
X196250000Y-102892524D01*
X196250000Y-102250000D01*
X195608628Y-102250000D01*
X193391372Y-102250000D01*
X192750000Y-102250000D01*
X192549728Y-102250000D01*
X192641614Y-102211940D01*
X192711940Y-102141614D01*
X192750000Y-102049728D01*
X192750000Y-101950272D01*
X192728211Y-101897668D01*
X192787571Y-101885051D01*
X192965299Y-101805922D01*
X193009673Y-101773681D01*
X193075480Y-101750202D01*
X193082559Y-101750000D01*
X193391372Y-101750000D01*
X193391371Y-101749999D01*
X193349684Y-101621697D01*
X193315507Y-101562500D01*
X193299034Y-101494600D01*
X193315506Y-101438502D01*
X193350144Y-101378508D01*
X193410262Y-101193482D01*
X193430598Y-101000000D01*
X193410262Y-100806518D01*
X193396063Y-100762817D01*
X193394068Y-100692976D01*
X193430149Y-100633144D01*
X193492850Y-100602316D01*
X193513994Y-100600500D01*
X195486006Y-100600500D01*
X195553045Y-100620185D01*
X195598800Y-100672989D01*
X195608744Y-100742147D01*
X195603937Y-100762817D01*
X195589740Y-100806511D01*
X195589738Y-100806516D01*
X195569402Y-101000000D01*
X195589738Y-101193483D01*
X195649856Y-101378510D01*
X195649857Y-101378511D01*
X195684492Y-101438500D01*
X195700965Y-101506400D01*
X195684492Y-101562500D01*
X195650317Y-101621692D01*
X195650316Y-101621693D01*
X195608628Y-101749999D01*
X195608628Y-101750000D01*
X195917441Y-101750000D01*
X195984480Y-101769685D01*
X195990327Y-101773682D01*
X196034702Y-101805923D01*
X196102926Y-101836297D01*
X196212429Y-101885051D01*
X196271788Y-101897668D01*
X196250000Y-101950272D01*
X196250000Y-102049728D01*
X196288060Y-102141614D01*
X196358386Y-102211940D01*
X196450272Y-102250000D01*
X196549728Y-102250000D01*
X196750000Y-102250000D01*
X196750000Y-102892524D01*
X196787412Y-102884573D01*
X196965049Y-102805484D01*
X197122357Y-102691192D01*
X197122360Y-102691190D01*
X197252463Y-102546694D01*
X197349682Y-102378307D01*
X197349683Y-102378306D01*
X197391372Y-102250000D01*
X196750000Y-102250000D01*
X196549728Y-102250000D01*
X196641614Y-102211940D01*
X196711940Y-102141614D01*
X196750000Y-102049728D01*
X196750000Y-101950272D01*
X196728211Y-101897668D01*
X196787571Y-101885051D01*
X196965299Y-101805922D01*
X197009673Y-101773681D01*
X197075480Y-101750202D01*
X197082559Y-101750000D01*
X197391372Y-101750000D01*
X197395027Y-101744968D01*
X197393542Y-101692976D01*
X197429623Y-101633144D01*
X197492324Y-101602316D01*
X197513468Y-101600500D01*
X197913331Y-101600500D01*
X197913347Y-101600501D01*
X197920943Y-101600501D01*
X198079054Y-101600501D01*
X198079057Y-101600501D01*
X198231785Y-101559577D01*
X198281904Y-101530639D01*
X198368716Y-101480520D01*
X198480520Y-101368716D01*
X198480521Y-101368714D01*
X198980520Y-100868716D01*
X199059577Y-100731784D01*
X199100501Y-100579057D01*
X199100501Y-100420942D01*
X199100501Y-100413347D01*
X199100500Y-100413329D01*
X199100500Y-98389060D01*
X199100501Y-98389047D01*
X199100501Y-98220944D01*
X199100478Y-98220858D01*
X199059577Y-98068216D01*
X199031440Y-98019480D01*
X198980524Y-97931290D01*
X198980518Y-97931282D01*
X198368717Y-97319481D01*
X198368716Y-97319480D01*
X198281904Y-97269360D01*
X198281904Y-97269359D01*
X198281900Y-97269358D01*
X198231785Y-97240423D01*
X198079057Y-97199499D01*
X197920943Y-97199499D01*
X197913347Y-97199499D01*
X197913331Y-97199500D01*
X187312728Y-97199500D01*
X187245689Y-97179815D01*
X187199934Y-97127011D01*
X187189990Y-97057853D01*
X187200346Y-97023095D01*
X187215778Y-96990001D01*
X187226739Y-96966496D01*
X187285635Y-96746692D01*
X187304019Y-96536564D01*
X187305468Y-96520001D01*
X187305468Y-96519998D01*
X187294608Y-96395866D01*
X187285635Y-96293308D01*
X187226739Y-96073504D01*
X187130568Y-95867266D01*
X187000047Y-95680861D01*
X187000045Y-95680858D01*
X186839141Y-95519954D01*
X186652734Y-95389432D01*
X186652732Y-95389431D01*
X186594725Y-95362382D01*
X186594132Y-95362105D01*
X186541694Y-95315934D01*
X186522542Y-95248740D01*
X186542758Y-95181859D01*
X186594134Y-95137341D01*
X186652484Y-95110132D01*
X186838820Y-94979657D01*
X186999657Y-94818820D01*
X187130134Y-94632482D01*
X187226265Y-94426326D01*
X187226269Y-94426317D01*
X187278872Y-94230000D01*
X186433012Y-94230000D01*
X186465925Y-94172993D01*
X186500000Y-94045826D01*
X186500000Y-93914174D01*
X186465925Y-93787007D01*
X186433012Y-93730000D01*
X187278872Y-93730000D01*
X187278872Y-93729999D01*
X187226269Y-93533682D01*
X187226265Y-93533673D01*
X187130134Y-93327517D01*
X186999657Y-93141179D01*
X186838820Y-92980342D01*
X186652482Y-92849865D01*
X186594133Y-92822657D01*
X186541694Y-92776484D01*
X186522542Y-92709291D01*
X186542758Y-92642410D01*
X186594129Y-92597895D01*
X186652734Y-92570568D01*
X186839139Y-92440047D01*
X187000047Y-92279139D01*
X187130568Y-92092734D01*
X187226739Y-91886496D01*
X187285635Y-91666692D01*
X187305468Y-91440000D01*
X187302687Y-91408216D01*
X187285635Y-91213313D01*
X187285635Y-91213308D01*
X187259847Y-91117066D01*
X187261510Y-91047217D01*
X187291939Y-90997294D01*
X188858506Y-89430728D01*
X188858511Y-89430724D01*
X188868714Y-89420520D01*
X188868716Y-89420520D01*
X188980520Y-89308716D01*
X189034597Y-89215051D01*
X189059577Y-89171785D01*
X189100501Y-89019057D01*
X189100501Y-88860943D01*
X189100501Y-88853348D01*
X189100500Y-88853330D01*
X189100500Y-81420945D01*
X189100500Y-81420943D01*
X189059577Y-81268216D01*
X189059577Y-81268215D01*
X189059577Y-81268214D01*
X189030639Y-81218095D01*
X189030637Y-81218092D01*
X188980520Y-81131284D01*
X188868716Y-81019480D01*
X188868715Y-81019479D01*
X188864385Y-81015149D01*
X188864374Y-81015139D01*
X185136819Y-77287584D01*
X185103334Y-77226261D01*
X185100500Y-77199903D01*
X185100500Y-76589060D01*
X185100501Y-76589047D01*
X185100501Y-76420944D01*
X185059576Y-76268214D01*
X185059573Y-76268209D01*
X184980524Y-76131290D01*
X184980518Y-76131282D01*
X181987590Y-73138355D01*
X181987588Y-73138352D01*
X181868717Y-73019481D01*
X181868709Y-73019475D01*
X181778714Y-72967517D01*
X181778713Y-72967517D01*
X181731785Y-72940423D01*
X181579057Y-72899499D01*
X181513468Y-72899499D01*
X181446429Y-72879814D01*
X181400674Y-72827010D01*
X181390730Y-72757852D01*
X181392268Y-72751234D01*
X181391372Y-72750000D01*
X181366454Y-72750000D01*
X181299415Y-72730315D01*
X181289797Y-72722564D01*
X181289645Y-72722768D01*
X181167335Y-72631206D01*
X181167328Y-72631202D01*
X181032482Y-72580908D01*
X181032483Y-72580908D01*
X180972883Y-72574501D01*
X180972881Y-72574500D01*
X180972873Y-72574500D01*
X180972864Y-72574500D01*
X180739739Y-72574500D01*
X180750000Y-72549728D01*
X180750000Y-72450272D01*
X180711940Y-72358386D01*
X180641614Y-72288060D01*
X180549728Y-72250000D01*
X180450272Y-72250000D01*
X180358386Y-72288060D01*
X180288060Y-72358386D01*
X180250000Y-72450272D01*
X180250000Y-72549728D01*
X180260261Y-72574500D01*
X180027129Y-72574500D01*
X180027123Y-72574501D01*
X179967516Y-72580908D01*
X179832671Y-72631202D01*
X179832664Y-72631206D01*
X179710355Y-72722768D01*
X179708680Y-72720531D01*
X179659904Y-72747166D01*
X179633546Y-72750000D01*
X179608628Y-72750000D01*
X179620129Y-72785399D01*
X179622124Y-72855240D01*
X179618380Y-72867048D01*
X179580909Y-72967514D01*
X179580908Y-72967516D01*
X179574501Y-73027116D01*
X179574500Y-73027135D01*
X179574500Y-73972870D01*
X179574501Y-73972876D01*
X179580908Y-74032483D01*
X179631202Y-74167328D01*
X179631206Y-74167335D01*
X179717452Y-74282544D01*
X179717455Y-74282547D01*
X179832664Y-74368793D01*
X179832671Y-74368797D01*
X179967517Y-74419091D01*
X179967516Y-74419091D01*
X179974444Y-74419835D01*
X180027127Y-74425500D01*
X180972872Y-74425499D01*
X181032483Y-74419091D01*
X181167331Y-74368796D01*
X181168713Y-74367761D01*
X181282751Y-74282393D01*
X181348215Y-74257975D01*
X181416488Y-74272826D01*
X181444743Y-74293978D01*
X183863181Y-76712416D01*
X183896666Y-76773739D01*
X183899500Y-76800097D01*
X183899500Y-77413330D01*
X183899499Y-77413348D01*
X183899499Y-77579054D01*
X183899498Y-77579054D01*
X183940423Y-77731785D01*
X183969358Y-77781900D01*
X183969359Y-77781904D01*
X183969360Y-77781904D01*
X184019479Y-77868714D01*
X184019481Y-77868717D01*
X184138349Y-77987585D01*
X184138355Y-77987590D01*
X187863181Y-81712416D01*
X187896666Y-81773739D01*
X187899500Y-81800097D01*
X187899500Y-88639902D01*
X187879815Y-88706941D01*
X187863181Y-88727583D01*
X186442705Y-90148058D01*
X186381382Y-90181543D01*
X186322931Y-90180152D01*
X186226697Y-90154366D01*
X186226693Y-90154365D01*
X186226692Y-90154365D01*
X186226691Y-90154364D01*
X186226686Y-90154364D01*
X186000002Y-90134532D01*
X185999998Y-90134532D01*
X185773313Y-90154364D01*
X185773302Y-90154366D01*
X185553511Y-90213258D01*
X185553502Y-90213261D01*
X185347267Y-90309431D01*
X185347265Y-90309432D01*
X185160858Y-90439954D01*
X184999954Y-90600858D01*
X184869432Y-90787264D01*
X184869430Y-90787268D01*
X184841693Y-90846748D01*
X184795519Y-90899187D01*
X184791319Y-90901724D01*
X184778743Y-90908985D01*
X184778095Y-90909360D01*
X184741479Y-90930500D01*
X184691285Y-90959479D01*
X184691282Y-90959481D01*
X182812181Y-92838583D01*
X182750858Y-92872068D01*
X182681166Y-92867084D01*
X182625233Y-92825212D01*
X182600816Y-92759748D01*
X182600500Y-92750902D01*
X182600500Y-90300096D01*
X182620185Y-90233057D01*
X182636814Y-90212420D01*
X184868713Y-87980521D01*
X184868716Y-87980520D01*
X184980520Y-87868716D01*
X185030639Y-87781904D01*
X185059577Y-87731785D01*
X185100501Y-87579057D01*
X185100501Y-87420943D01*
X185100501Y-87413348D01*
X185100500Y-87413330D01*
X185100500Y-84763814D01*
X185120185Y-84696775D01*
X185132341Y-84680852D01*
X185252870Y-84546992D01*
X185350144Y-84378508D01*
X185410262Y-84193482D01*
X185430598Y-84000000D01*
X185410262Y-83806518D01*
X185350144Y-83621492D01*
X185350143Y-83621491D01*
X185350143Y-83621489D01*
X185350142Y-83621488D01*
X185316202Y-83562703D01*
X185252870Y-83453008D01*
X185201882Y-83396381D01*
X185122697Y-83308435D01*
X185122694Y-83308433D01*
X185122693Y-83308432D01*
X185122692Y-83308431D01*
X184997962Y-83217809D01*
X184965297Y-83194076D01*
X184825071Y-83131645D01*
X184787571Y-83114949D01*
X184787569Y-83114948D01*
X184597274Y-83074500D01*
X184402726Y-83074500D01*
X184212430Y-83114948D01*
X184212427Y-83114949D01*
X184050434Y-83187072D01*
X183981184Y-83196356D01*
X183949566Y-83187072D01*
X183787572Y-83114949D01*
X183787569Y-83114948D01*
X183597274Y-83074500D01*
X183402726Y-83074500D01*
X183250281Y-83106903D01*
X183180614Y-83101587D01*
X183124880Y-83059450D01*
X183100775Y-82993870D01*
X183100500Y-82985613D01*
X183100500Y-80978861D01*
X183120185Y-80911822D01*
X183160418Y-80874362D01*
X183160231Y-80874112D01*
X183162565Y-80872364D01*
X183165076Y-80870027D01*
X183167323Y-80868798D01*
X183167331Y-80868796D01*
X183282546Y-80782546D01*
X183368796Y-80667331D01*
X183419091Y-80532483D01*
X183425500Y-80472873D01*
X183425499Y-79527128D01*
X183419091Y-79467517D01*
X183413679Y-79453008D01*
X183368797Y-79332671D01*
X183368793Y-79332664D01*
X183282547Y-79217455D01*
X183282544Y-79217452D01*
X183167335Y-79131206D01*
X183167328Y-79131202D01*
X183032482Y-79080908D01*
X183032483Y-79080908D01*
X182972883Y-79074501D01*
X182972881Y-79074500D01*
X182972873Y-79074500D01*
X182972864Y-79074500D01*
X182027129Y-79074500D01*
X182027123Y-79074501D01*
X181967516Y-79080908D01*
X181875472Y-79115239D01*
X181805780Y-79120223D01*
X181793934Y-79116390D01*
X181793750Y-79116957D01*
X181787573Y-79114950D01*
X181787571Y-79114949D01*
X181787568Y-79114948D01*
X181787567Y-79114948D01*
X181597274Y-79074500D01*
X181402726Y-79074500D01*
X181212430Y-79114948D01*
X181212427Y-79114949D01*
X181050434Y-79187072D01*
X180981184Y-79196356D01*
X180949566Y-79187072D01*
X180787572Y-79114949D01*
X180787569Y-79114948D01*
X180597274Y-79074500D01*
X180402726Y-79074500D01*
X180212431Y-79114948D01*
X180034702Y-79194076D01*
X179877305Y-79308433D01*
X179877302Y-79308435D01*
X179747129Y-79453009D01*
X179649857Y-79621488D01*
X179649856Y-79621489D01*
X179589738Y-79806516D01*
X179569402Y-80000000D01*
X179589738Y-80193483D01*
X179649856Y-80378510D01*
X179649857Y-80378511D01*
X179704332Y-80472864D01*
X179747130Y-80546992D01*
X179867651Y-80680844D01*
X179897880Y-80743833D01*
X179899500Y-80763814D01*
X179899500Y-82951000D01*
X179879815Y-83018039D01*
X179827011Y-83063794D01*
X179775500Y-83075000D01*
X179750000Y-83075000D01*
X179750000Y-83414811D01*
X179733387Y-83476811D01*
X179649857Y-83621488D01*
X179649856Y-83621489D01*
X179601176Y-83771310D01*
X179549728Y-83750000D01*
X179450272Y-83750000D01*
X179358386Y-83788060D01*
X179288060Y-83858386D01*
X179250000Y-83950272D01*
X179250000Y-84049728D01*
X179288060Y-84141614D01*
X179358386Y-84211940D01*
X179450272Y-84250000D01*
X179549728Y-84250000D01*
X179601177Y-84228689D01*
X179649856Y-84378510D01*
X179649857Y-84378511D01*
X179733387Y-84523189D01*
X179750000Y-84585189D01*
X179750000Y-84925000D01*
X179775500Y-84925000D01*
X179842539Y-84944685D01*
X179888294Y-84997489D01*
X179899500Y-85049000D01*
X179899500Y-87199902D01*
X179879815Y-87266941D01*
X179863181Y-87287583D01*
X177519481Y-89631282D01*
X177519480Y-89631284D01*
X177474895Y-89708508D01*
X177440423Y-89768215D01*
X177399499Y-89920943D01*
X177399499Y-89920945D01*
X177399499Y-90089046D01*
X177399500Y-90089059D01*
X177399500Y-100199903D01*
X177379815Y-100266942D01*
X177363181Y-100287584D01*
X176687584Y-100963181D01*
X176626261Y-100996666D01*
X176599903Y-100999500D01*
X171991692Y-100999500D01*
X171924653Y-100979815D01*
X171890119Y-100946625D01*
X171760047Y-100760861D01*
X171760045Y-100760858D01*
X171599141Y-100599954D01*
X171412734Y-100469432D01*
X171412728Y-100469429D01*
X171354725Y-100442382D01*
X171302285Y-100396210D01*
X171283133Y-100329017D01*
X171303348Y-100262135D01*
X171354725Y-100217618D01*
X171412734Y-100190568D01*
X171599139Y-100060047D01*
X171760047Y-99899139D01*
X171890568Y-99712734D01*
X171986739Y-99506496D01*
X172045635Y-99286692D01*
X172065468Y-99060000D01*
X172045635Y-98833308D01*
X171986739Y-98613504D01*
X171890568Y-98407266D01*
X171760105Y-98220944D01*
X171760045Y-98220858D01*
X171599141Y-98059954D01*
X171412734Y-97929432D01*
X171412728Y-97929429D01*
X171354725Y-97902382D01*
X171302285Y-97856210D01*
X171283133Y-97789017D01*
X171303348Y-97722135D01*
X171354725Y-97677618D01*
X171412734Y-97650568D01*
X171599139Y-97520047D01*
X171760047Y-97359139D01*
X171890568Y-97172734D01*
X171986739Y-96966496D01*
X172045635Y-96746692D01*
X172064019Y-96536564D01*
X172065468Y-96520001D01*
X172065468Y-96519998D01*
X172054608Y-96395866D01*
X172045635Y-96293308D01*
X171986739Y-96073504D01*
X171890568Y-95867266D01*
X171760047Y-95680861D01*
X171760045Y-95680858D01*
X171599141Y-95519954D01*
X171412734Y-95389432D01*
X171412728Y-95389429D01*
X171354725Y-95362382D01*
X171302285Y-95316210D01*
X171283133Y-95249017D01*
X171303348Y-95182135D01*
X171354725Y-95137618D01*
X171355319Y-95137341D01*
X171412734Y-95110568D01*
X171599139Y-94980047D01*
X171760047Y-94819139D01*
X171890568Y-94632734D01*
X171986739Y-94426496D01*
X172045635Y-94206692D01*
X172065468Y-93980000D01*
X172064482Y-93968735D01*
X172055818Y-93869700D01*
X172045635Y-93753308D01*
X171986739Y-93533504D01*
X171890568Y-93327266D01*
X171760047Y-93140861D01*
X171760045Y-93140858D01*
X171599143Y-92979956D01*
X171574536Y-92962726D01*
X171530912Y-92908149D01*
X171523719Y-92838650D01*
X171555241Y-92776296D01*
X171615471Y-92740882D01*
X171632404Y-92737861D01*
X171667483Y-92734091D01*
X171802331Y-92683796D01*
X171917546Y-92597546D01*
X172003796Y-92482331D01*
X172054091Y-92347483D01*
X172060500Y-92287873D01*
X172060499Y-90592128D01*
X172054091Y-90532517D01*
X172050721Y-90523482D01*
X172003797Y-90397671D01*
X172003793Y-90397664D01*
X171917547Y-90282455D01*
X171917544Y-90282452D01*
X171802335Y-90196206D01*
X171802328Y-90196202D01*
X171667482Y-90145908D01*
X171667483Y-90145908D01*
X171607883Y-90139501D01*
X171607881Y-90139500D01*
X171607873Y-90139500D01*
X171607864Y-90139500D01*
X169912129Y-90139500D01*
X169912123Y-90139501D01*
X169852516Y-90145908D01*
X169717671Y-90196202D01*
X169717664Y-90196206D01*
X169602455Y-90282452D01*
X169602452Y-90282455D01*
X169516206Y-90397664D01*
X169516202Y-90397671D01*
X169465908Y-90532517D01*
X169459501Y-90592116D01*
X169459501Y-90592123D01*
X169459500Y-90592135D01*
X169459500Y-92287870D01*
X169459501Y-92287876D01*
X169465908Y-92347483D01*
X169516202Y-92482328D01*
X169516206Y-92482335D01*
X169602452Y-92597544D01*
X169602455Y-92597547D01*
X169717664Y-92683793D01*
X169717671Y-92683797D01*
X169762618Y-92700561D01*
X169852517Y-92734091D01*
X169887596Y-92737862D01*
X169952144Y-92764599D01*
X169991993Y-92821991D01*
X169994488Y-92891816D01*
X169958836Y-92951905D01*
X169945464Y-92962725D01*
X169920858Y-92979954D01*
X169759954Y-93140858D01*
X169629432Y-93327265D01*
X169629431Y-93327267D01*
X169533261Y-93533502D01*
X169533258Y-93533511D01*
X169474366Y-93753302D01*
X169474364Y-93753313D01*
X169454532Y-93979998D01*
X169454532Y-93980001D01*
X169474364Y-94206686D01*
X169474366Y-94206697D01*
X169533258Y-94426488D01*
X169533261Y-94426497D01*
X169629431Y-94632732D01*
X169629432Y-94632734D01*
X169759954Y-94819141D01*
X169920858Y-94980045D01*
X169920861Y-94980047D01*
X170107266Y-95110568D01*
X170164681Y-95137341D01*
X170165275Y-95137618D01*
X170217714Y-95183791D01*
X170236866Y-95250984D01*
X170216650Y-95317865D01*
X170165275Y-95362382D01*
X170107267Y-95389431D01*
X170107265Y-95389432D01*
X169920858Y-95519954D01*
X169759954Y-95680858D01*
X169629432Y-95867265D01*
X169629431Y-95867267D01*
X169533261Y-96073502D01*
X169533258Y-96073511D01*
X169474366Y-96293302D01*
X169474364Y-96293313D01*
X169454532Y-96519998D01*
X169454532Y-96520001D01*
X169474364Y-96746686D01*
X169474366Y-96746697D01*
X169533258Y-96966488D01*
X169533261Y-96966497D01*
X169629431Y-97172732D01*
X169629432Y-97172734D01*
X169759954Y-97359141D01*
X169920858Y-97520045D01*
X169920861Y-97520047D01*
X170107266Y-97650568D01*
X170165275Y-97677618D01*
X170217714Y-97723791D01*
X170236866Y-97790984D01*
X170216650Y-97857865D01*
X170165275Y-97902382D01*
X170107267Y-97929431D01*
X170107265Y-97929432D01*
X169920858Y-98059954D01*
X169759954Y-98220858D01*
X169629432Y-98407265D01*
X169629431Y-98407267D01*
X169533261Y-98613502D01*
X169533258Y-98613511D01*
X169474366Y-98833302D01*
X169474364Y-98833313D01*
X169454532Y-99059998D01*
X169454532Y-99060001D01*
X169474364Y-99286686D01*
X169474366Y-99286697D01*
X169533258Y-99506488D01*
X169533261Y-99506497D01*
X169629431Y-99712732D01*
X169629432Y-99712734D01*
X169759954Y-99899141D01*
X169920858Y-100060045D01*
X169920861Y-100060047D01*
X170107266Y-100190568D01*
X170165275Y-100217618D01*
X170217714Y-100263791D01*
X170236866Y-100330984D01*
X170216650Y-100397865D01*
X170165275Y-100442382D01*
X170107267Y-100469431D01*
X170107265Y-100469432D01*
X169920858Y-100599954D01*
X169759954Y-100760858D01*
X169629432Y-100947265D01*
X169629431Y-100947267D01*
X169533261Y-101153502D01*
X169533258Y-101153511D01*
X169474366Y-101373302D01*
X169474364Y-101373313D01*
X169454532Y-101599998D01*
X169454532Y-101600001D01*
X169474364Y-101826686D01*
X169474366Y-101826697D01*
X169533258Y-102046488D01*
X169533261Y-102046497D01*
X169629431Y-102252732D01*
X169629432Y-102252734D01*
X169759954Y-102439141D01*
X169920858Y-102600045D01*
X169920861Y-102600047D01*
X170107266Y-102730568D01*
X170151651Y-102751265D01*
X170165275Y-102757618D01*
X170217714Y-102803791D01*
X170236866Y-102870984D01*
X170216650Y-102937865D01*
X170165275Y-102982382D01*
X170107267Y-103009431D01*
X170107265Y-103009432D01*
X169920858Y-103139954D01*
X169759954Y-103300858D01*
X169629432Y-103487265D01*
X169629431Y-103487267D01*
X169533261Y-103693502D01*
X169533258Y-103693511D01*
X169474366Y-103913302D01*
X169474364Y-103913313D01*
X169454532Y-104139998D01*
X169454532Y-104140001D01*
X169474364Y-104366686D01*
X169474366Y-104366697D01*
X169533258Y-104586488D01*
X169533261Y-104586497D01*
X169629431Y-104792732D01*
X169629432Y-104792734D01*
X169759954Y-104979141D01*
X169920858Y-105140045D01*
X169920861Y-105140047D01*
X170107266Y-105270568D01*
X170165275Y-105297618D01*
X170217714Y-105343791D01*
X170236866Y-105410984D01*
X170216650Y-105477865D01*
X170165275Y-105522382D01*
X170107267Y-105549431D01*
X170107265Y-105549432D01*
X169920858Y-105679954D01*
X169759954Y-105840858D01*
X169629432Y-106027265D01*
X169629431Y-106027267D01*
X169533261Y-106233502D01*
X169533258Y-106233511D01*
X169474366Y-106453302D01*
X169474364Y-106453313D01*
X169454532Y-106679998D01*
X169454532Y-106680001D01*
X169474364Y-106906686D01*
X169474366Y-106906697D01*
X169533258Y-107126488D01*
X169533261Y-107126497D01*
X169629431Y-107332732D01*
X169629432Y-107332734D01*
X169759954Y-107519141D01*
X169920858Y-107680045D01*
X169920861Y-107680047D01*
X170107266Y-107810568D01*
X170165275Y-107837618D01*
X170217714Y-107883791D01*
X170236866Y-107950984D01*
X170216650Y-108017865D01*
X170165275Y-108062382D01*
X170107267Y-108089431D01*
X170107265Y-108089432D01*
X169920858Y-108219954D01*
X169759954Y-108380858D01*
X169629432Y-108567265D01*
X169629431Y-108567267D01*
X169533261Y-108773502D01*
X169533258Y-108773511D01*
X169474366Y-108993302D01*
X169474364Y-108993313D01*
X169454532Y-109219998D01*
X169454532Y-109220001D01*
X169474364Y-109446686D01*
X169474366Y-109446697D01*
X169533258Y-109666488D01*
X169533261Y-109666497D01*
X169629431Y-109872732D01*
X169629432Y-109872734D01*
X169759954Y-110059141D01*
X169920858Y-110220045D01*
X169920861Y-110220047D01*
X170107266Y-110350568D01*
X170165275Y-110377618D01*
X170217714Y-110423791D01*
X170236866Y-110490984D01*
X170216650Y-110557865D01*
X170165275Y-110602382D01*
X170107267Y-110629431D01*
X170107265Y-110629432D01*
X169920858Y-110759954D01*
X169759954Y-110920858D01*
X169629432Y-111107265D01*
X169629431Y-111107267D01*
X169533261Y-111313502D01*
X169533258Y-111313511D01*
X169474366Y-111533302D01*
X169474364Y-111533313D01*
X169454532Y-111759998D01*
X169454532Y-111760001D01*
X169474364Y-111986686D01*
X169474366Y-111986697D01*
X169533258Y-112206488D01*
X169533261Y-112206497D01*
X169629431Y-112412732D01*
X169629432Y-112412734D01*
X169759954Y-112599141D01*
X169920858Y-112760045D01*
X169945444Y-112777260D01*
X170107266Y-112890568D01*
X170165275Y-112917618D01*
X170217714Y-112963791D01*
X170236866Y-113030984D01*
X170216650Y-113097865D01*
X170165275Y-113142382D01*
X170107267Y-113169431D01*
X170107265Y-113169432D01*
X169920858Y-113299954D01*
X169759954Y-113460858D01*
X169629432Y-113647265D01*
X169629431Y-113647267D01*
X169533261Y-113853502D01*
X169533258Y-113853511D01*
X169474366Y-114073302D01*
X169474364Y-114073313D01*
X169454532Y-114299998D01*
X169454532Y-114300001D01*
X169474364Y-114526686D01*
X169474366Y-114526697D01*
X169533258Y-114746488D01*
X169533260Y-114746492D01*
X169533261Y-114746496D01*
X169564149Y-114812735D01*
X169620301Y-114933154D01*
X169630793Y-115002232D01*
X169602273Y-115066016D01*
X169569922Y-115092945D01*
X169541285Y-115109479D01*
X169541282Y-115109481D01*
X168519481Y-116131282D01*
X168519475Y-116131290D01*
X168478527Y-116202216D01*
X168478527Y-116202218D01*
X168440423Y-116268214D01*
X168440423Y-116268215D01*
X168399499Y-116420943D01*
X168399499Y-116420945D01*
X168399499Y-116589046D01*
X168399500Y-116589059D01*
X168399500Y-135699903D01*
X168379815Y-135766942D01*
X168363181Y-135787584D01*
X166787584Y-137363181D01*
X166726261Y-137396666D01*
X166699903Y-137399500D01*
X138800097Y-137399500D01*
X138733058Y-137379815D01*
X138712416Y-137363181D01*
X125487590Y-124138355D01*
X125487588Y-124138352D01*
X125368717Y-124019481D01*
X125368716Y-124019480D01*
X125281904Y-123969360D01*
X125281904Y-123969359D01*
X125281900Y-123969358D01*
X125231785Y-123940423D01*
X125079057Y-123899499D01*
X124920943Y-123899499D01*
X124913347Y-123899499D01*
X124913331Y-123899500D01*
X122300098Y-123899500D01*
X122233059Y-123879815D01*
X122212417Y-123863181D01*
X117136819Y-118787583D01*
X117103334Y-118726260D01*
X117100500Y-118699902D01*
X117100500Y-108750945D01*
X117100500Y-108750943D01*
X117065041Y-108618607D01*
X117059577Y-108598215D01*
X117059577Y-108598214D01*
X117030639Y-108548095D01*
X117030637Y-108548092D01*
X117001988Y-108498469D01*
X116980520Y-108461284D01*
X116868716Y-108349480D01*
X116868715Y-108349479D01*
X116864385Y-108345149D01*
X116864374Y-108345139D01*
X112326819Y-103807584D01*
X112293334Y-103746261D01*
X112290500Y-103719903D01*
X112290500Y-97699939D01*
X112310185Y-97632900D01*
X112362989Y-97587145D01*
X112432147Y-97577201D01*
X112495703Y-97606226D01*
X112516074Y-97628815D01*
X112525644Y-97642482D01*
X112639170Y-97804615D01*
X112639175Y-97804621D01*
X112795378Y-97960824D01*
X112795384Y-97960829D01*
X112976333Y-98087531D01*
X112976335Y-98087532D01*
X112976338Y-98087534D01*
X113176550Y-98180894D01*
X113389932Y-98238070D01*
X113547123Y-98251822D01*
X113609998Y-98257323D01*
X113610000Y-98257323D01*
X113610002Y-98257323D01*
X113665017Y-98252509D01*
X113830068Y-98238070D01*
X114043450Y-98180894D01*
X114243662Y-98087534D01*
X114424620Y-97960826D01*
X114580826Y-97804620D01*
X114707534Y-97623662D01*
X114767618Y-97494811D01*
X114813790Y-97442371D01*
X114880983Y-97423219D01*
X114947865Y-97443435D01*
X114992382Y-97494811D01*
X115052464Y-97623658D01*
X115052468Y-97623666D01*
X115179170Y-97804615D01*
X115179175Y-97804621D01*
X115335378Y-97960824D01*
X115335384Y-97960829D01*
X115516333Y-98087531D01*
X115516335Y-98087532D01*
X115516338Y-98087534D01*
X115716550Y-98180894D01*
X115929932Y-98238070D01*
X116087123Y-98251822D01*
X116149998Y-98257323D01*
X116150000Y-98257323D01*
X116150002Y-98257323D01*
X116205017Y-98252509D01*
X116370068Y-98238070D01*
X116583450Y-98180894D01*
X116783662Y-98087534D01*
X116964620Y-97960826D01*
X117120826Y-97804620D01*
X117247534Y-97623662D01*
X117307618Y-97494811D01*
X117353790Y-97442371D01*
X117420983Y-97423219D01*
X117487865Y-97443435D01*
X117532382Y-97494811D01*
X117592464Y-97623658D01*
X117592468Y-97623666D01*
X117719170Y-97804615D01*
X117719175Y-97804621D01*
X117875378Y-97960824D01*
X117875384Y-97960829D01*
X118056333Y-98087531D01*
X118056335Y-98087532D01*
X118056338Y-98087534D01*
X118256550Y-98180894D01*
X118469932Y-98238070D01*
X118627123Y-98251822D01*
X118689998Y-98257323D01*
X118690000Y-98257323D01*
X118690002Y-98257323D01*
X118745017Y-98252509D01*
X118910068Y-98238070D01*
X119123450Y-98180894D01*
X119323662Y-98087534D01*
X119504620Y-97960826D01*
X119660826Y-97804620D01*
X119787534Y-97623662D01*
X119847618Y-97494811D01*
X119893790Y-97442371D01*
X119960983Y-97423219D01*
X120027865Y-97443435D01*
X120072382Y-97494811D01*
X120132464Y-97623658D01*
X120132468Y-97623666D01*
X120259170Y-97804615D01*
X120259175Y-97804621D01*
X120415378Y-97960824D01*
X120415384Y-97960829D01*
X120596333Y-98087531D01*
X120596335Y-98087532D01*
X120596338Y-98087534D01*
X120796550Y-98180894D01*
X121009932Y-98238070D01*
X121167123Y-98251822D01*
X121229998Y-98257323D01*
X121230000Y-98257323D01*
X121230002Y-98257323D01*
X121285017Y-98252509D01*
X121450068Y-98238070D01*
X121663450Y-98180894D01*
X121863662Y-98087534D01*
X122044620Y-97960826D01*
X122200826Y-97804620D01*
X122327534Y-97623662D01*
X122366654Y-97539767D01*
X122412826Y-97487328D01*
X122480019Y-97468176D01*
X122546900Y-97488391D01*
X122591416Y-97539765D01*
X122622408Y-97606226D01*
X122639431Y-97642732D01*
X122639432Y-97642734D01*
X122769954Y-97829141D01*
X122930857Y-97990044D01*
X122930860Y-97990046D01*
X122930861Y-97990047D01*
X123036623Y-98064101D01*
X123080248Y-98118677D01*
X123089500Y-98165676D01*
X123089500Y-112928306D01*
X123069815Y-112995345D01*
X123036623Y-113029881D01*
X122850859Y-113159953D01*
X122689954Y-113320858D01*
X122559432Y-113507265D01*
X122559431Y-113507267D01*
X122463261Y-113713502D01*
X122463258Y-113713511D01*
X122404366Y-113933302D01*
X122404364Y-113933313D01*
X122384532Y-114159998D01*
X122384532Y-114160001D01*
X122404364Y-114386686D01*
X122404366Y-114386697D01*
X122463258Y-114606488D01*
X122463261Y-114606497D01*
X122559431Y-114812732D01*
X122559432Y-114812734D01*
X122689954Y-114999141D01*
X122850858Y-115160045D01*
X122850861Y-115160047D01*
X123037266Y-115290568D01*
X123243504Y-115386739D01*
X123463308Y-115445635D01*
X123625230Y-115459801D01*
X123689998Y-115465468D01*
X123690000Y-115465468D01*
X123690002Y-115465468D01*
X123746673Y-115460509D01*
X123916692Y-115445635D01*
X124136496Y-115386739D01*
X124342734Y-115290568D01*
X124529139Y-115160047D01*
X124690047Y-114999139D01*
X124820568Y-114812734D01*
X124847618Y-114754724D01*
X124893790Y-114702285D01*
X124960983Y-114683133D01*
X125027865Y-114703348D01*
X125072382Y-114754725D01*
X125099429Y-114812728D01*
X125099432Y-114812734D01*
X125229954Y-114999141D01*
X125390858Y-115160045D01*
X125390861Y-115160047D01*
X125577266Y-115290568D01*
X125783504Y-115386739D01*
X126003308Y-115445635D01*
X126165230Y-115459801D01*
X126229998Y-115465468D01*
X126230000Y-115465468D01*
X126230002Y-115465468D01*
X126286673Y-115460509D01*
X126456692Y-115445635D01*
X126676496Y-115386739D01*
X126882734Y-115290568D01*
X127069139Y-115160047D01*
X127230047Y-114999139D01*
X127360568Y-114812734D01*
X127387893Y-114754134D01*
X127434065Y-114701695D01*
X127501258Y-114682543D01*
X127568139Y-114702758D01*
X127612657Y-114754134D01*
X127639864Y-114812480D01*
X127690974Y-114885472D01*
X128287037Y-114289409D01*
X128304075Y-114352993D01*
X128369901Y-114467007D01*
X128462993Y-114560099D01*
X128577007Y-114625925D01*
X128640590Y-114642962D01*
X128044526Y-115239025D01*
X128117513Y-115290132D01*
X128117521Y-115290136D01*
X128323668Y-115386264D01*
X128323682Y-115386269D01*
X128543389Y-115445139D01*
X128543400Y-115445141D01*
X128769998Y-115464966D01*
X128770002Y-115464966D01*
X128996599Y-115445141D01*
X128996610Y-115445139D01*
X129216317Y-115386269D01*
X129216331Y-115386264D01*
X129422478Y-115290136D01*
X129495471Y-115239024D01*
X128899409Y-114642962D01*
X128962993Y-114625925D01*
X129077007Y-114560099D01*
X129170099Y-114467007D01*
X129235925Y-114352993D01*
X129252962Y-114289409D01*
X129849024Y-114885471D01*
X129900133Y-114812482D01*
X129927341Y-114754135D01*
X129973513Y-114701696D01*
X130040707Y-114682543D01*
X130107588Y-114702758D01*
X130152105Y-114754132D01*
X130179432Y-114812734D01*
X130228583Y-114882930D01*
X130309954Y-114999141D01*
X130470858Y-115160045D01*
X130470861Y-115160047D01*
X130657266Y-115290568D01*
X130863504Y-115386739D01*
X131083308Y-115445635D01*
X131245230Y-115459801D01*
X131309998Y-115465468D01*
X131310000Y-115465468D01*
X131310002Y-115465468D01*
X131366673Y-115460509D01*
X131536692Y-115445635D01*
X131756496Y-115386739D01*
X131962734Y-115290568D01*
X132149139Y-115160047D01*
X132310047Y-114999139D01*
X132440568Y-114812734D01*
X132536739Y-114606496D01*
X132595635Y-114386692D01*
X132615468Y-114160000D01*
X132595635Y-113933308D01*
X132536739Y-113713504D01*
X132440568Y-113507266D01*
X132310047Y-113320861D01*
X132310045Y-113320858D01*
X132149141Y-113159954D01*
X131962734Y-113029432D01*
X131962732Y-113029431D01*
X131756497Y-112933261D01*
X131756488Y-112933258D01*
X131536697Y-112874366D01*
X131536687Y-112874364D01*
X131424839Y-112864578D01*
X131359771Y-112839125D01*
X131347967Y-112828731D01*
X130718474Y-112199238D01*
X130684989Y-112137915D01*
X130689973Y-112068223D01*
X130731845Y-112012290D01*
X130797309Y-111987873D01*
X130842701Y-111993065D01*
X130999385Y-112041396D01*
X131258818Y-112080500D01*
X131521182Y-112080500D01*
X131780615Y-112041396D01*
X132031323Y-111964063D01*
X132267704Y-111850228D01*
X132484479Y-111702433D01*
X132633733Y-111563945D01*
X132676801Y-111523985D01*
X132676801Y-111523983D01*
X132676805Y-111523981D01*
X132840386Y-111318857D01*
X132971568Y-111091643D01*
X133067420Y-110847416D01*
X133125802Y-110591630D01*
X133125803Y-110591620D01*
X133145408Y-110330004D01*
X133145408Y-110329995D01*
X133125803Y-110068379D01*
X133125802Y-110068374D01*
X133125802Y-110068370D01*
X133067420Y-109812584D01*
X132971568Y-109568357D01*
X132840386Y-109341143D01*
X132676805Y-109136019D01*
X132676804Y-109136018D01*
X132676801Y-109136014D01*
X132484479Y-108957567D01*
X132413328Y-108909057D01*
X132267704Y-108809772D01*
X132267700Y-108809770D01*
X132267697Y-108809768D01*
X132267696Y-108809767D01*
X132031325Y-108695938D01*
X132031327Y-108695938D01*
X131780623Y-108618606D01*
X131780619Y-108618605D01*
X131780615Y-108618604D01*
X131655823Y-108599794D01*
X131521187Y-108579500D01*
X131521182Y-108579500D01*
X131258818Y-108579500D01*
X131258812Y-108579500D01*
X131097247Y-108603853D01*
X130999385Y-108618604D01*
X130999382Y-108618605D01*
X130999372Y-108618607D01*
X130842703Y-108666933D01*
X130772840Y-108667883D01*
X130713554Y-108630911D01*
X130683667Y-108567756D01*
X130692670Y-108498469D01*
X130718470Y-108460765D01*
X131870520Y-107308716D01*
X131949577Y-107171784D01*
X131990501Y-107019057D01*
X131990501Y-106860942D01*
X131990501Y-106853347D01*
X131990500Y-106853329D01*
X131990500Y-98221692D01*
X132010185Y-98154653D01*
X132043374Y-98120119D01*
X132229139Y-97990047D01*
X132390047Y-97829139D01*
X132520568Y-97642734D01*
X132616739Y-97436496D01*
X132675635Y-97216692D01*
X132695468Y-96990000D01*
X132675635Y-96763308D01*
X132628991Y-96589228D01*
X132616741Y-96543511D01*
X132616738Y-96543502D01*
X132592539Y-96491607D01*
X132520568Y-96337266D01*
X132390047Y-96150861D01*
X132390045Y-96150858D01*
X132229140Y-95989953D01*
X132043377Y-95859881D01*
X131999752Y-95805304D01*
X131990500Y-95758306D01*
X131990500Y-93640945D01*
X131990500Y-93640943D01*
X131954366Y-93506086D01*
X131949577Y-93488215D01*
X131943207Y-93477182D01*
X131910737Y-93420942D01*
X131870522Y-93351287D01*
X131870521Y-93351286D01*
X131870520Y-93351284D01*
X131758716Y-93239480D01*
X131758715Y-93239479D01*
X131754385Y-93235149D01*
X131754374Y-93235139D01*
X124487590Y-85968355D01*
X124487588Y-85968352D01*
X124368717Y-85849481D01*
X124368709Y-85849475D01*
X124278714Y-85797517D01*
X124278713Y-85797517D01*
X124231785Y-85770423D01*
X124079057Y-85729499D01*
X123920943Y-85729499D01*
X123913347Y-85729499D01*
X123913331Y-85729500D01*
X116978861Y-85729500D01*
X116911822Y-85709815D01*
X116874362Y-85669581D01*
X116874112Y-85669769D01*
X116872364Y-85667434D01*
X116870027Y-85664924D01*
X116868797Y-85662673D01*
X116868796Y-85662669D01*
X116868793Y-85662665D01*
X116868792Y-85662663D01*
X116782547Y-85547455D01*
X116782544Y-85547452D01*
X116667335Y-85461206D01*
X116667328Y-85461202D01*
X116532482Y-85410908D01*
X116532483Y-85410908D01*
X116472883Y-85404501D01*
X116472881Y-85404500D01*
X116472873Y-85404500D01*
X116472864Y-85404500D01*
X115527129Y-85404500D01*
X115527123Y-85404501D01*
X115467516Y-85410908D01*
X115332671Y-85461202D01*
X115332664Y-85461206D01*
X115217455Y-85547452D01*
X115217452Y-85547455D01*
X115131206Y-85662664D01*
X115131202Y-85662671D01*
X115080908Y-85797517D01*
X115074501Y-85857116D01*
X115074500Y-85857135D01*
X115074500Y-86802870D01*
X115074501Y-86802876D01*
X115080908Y-86862483D01*
X115118380Y-86962948D01*
X115123364Y-87032639D01*
X115120130Y-87044597D01*
X115108627Y-87079999D01*
X115108628Y-87080000D01*
X115133546Y-87080000D01*
X115200585Y-87099685D01*
X115210202Y-87107435D01*
X115210355Y-87107232D01*
X115332664Y-87198793D01*
X115332671Y-87198797D01*
X115467517Y-87249091D01*
X115467516Y-87249091D01*
X115474444Y-87249835D01*
X115527127Y-87255500D01*
X115554561Y-87255499D01*
X115621598Y-87275181D01*
X115667355Y-87327984D01*
X115677300Y-87397142D01*
X115648278Y-87460699D01*
X115604998Y-87492778D01*
X115534705Y-87524075D01*
X115534704Y-87524075D01*
X115490327Y-87556318D01*
X115424520Y-87579798D01*
X115417441Y-87580000D01*
X115108628Y-87580000D01*
X115104972Y-87585031D01*
X115106458Y-87637024D01*
X115070377Y-87696856D01*
X115007676Y-87727684D01*
X114986532Y-87729500D01*
X113920940Y-87729500D01*
X113880019Y-87740464D01*
X113880019Y-87740465D01*
X113842751Y-87750451D01*
X113768214Y-87770423D01*
X113768209Y-87770426D01*
X113631290Y-87849475D01*
X113631282Y-87849481D01*
X111209481Y-90271282D01*
X111209479Y-90271285D01*
X111175582Y-90329998D01*
X111175581Y-90330000D01*
X111130423Y-90408214D01*
X111130423Y-90408215D01*
X111089499Y-90560943D01*
X111089499Y-90560945D01*
X111089499Y-90729046D01*
X111089500Y-90729059D01*
X111089500Y-103933330D01*
X111089499Y-103933348D01*
X111089499Y-104099054D01*
X111089498Y-104099054D01*
X111130423Y-104251785D01*
X111159358Y-104301900D01*
X111159359Y-104301904D01*
X111159360Y-104301904D01*
X111209479Y-104388714D01*
X111209481Y-104388717D01*
X111328349Y-104507585D01*
X111328355Y-104507590D01*
X115863181Y-109042416D01*
X115896666Y-109103739D01*
X115899500Y-109130097D01*
X115899500Y-118913330D01*
X115899499Y-118913348D01*
X115899499Y-119079054D01*
X115899498Y-119079054D01*
X115940424Y-119231789D01*
X115940425Y-119231790D01*
X115961455Y-119268214D01*
X115961456Y-119268216D01*
X116019475Y-119368709D01*
X116019481Y-119368717D01*
X116138349Y-119487585D01*
X116138354Y-119487589D01*
X121631284Y-124980520D01*
X121631286Y-124980521D01*
X121631290Y-124980524D01*
X121752821Y-125050689D01*
X121768216Y-125059577D01*
X121920943Y-125100501D01*
X121920945Y-125100501D01*
X122086654Y-125100501D01*
X122086670Y-125100500D01*
X124699903Y-125100500D01*
X124766942Y-125120185D01*
X124787584Y-125136819D01*
X138015139Y-138364374D01*
X138015149Y-138364385D01*
X138019479Y-138368715D01*
X138019480Y-138368716D01*
X138131284Y-138480520D01*
X138218095Y-138530639D01*
X138218097Y-138530641D01*
X138256151Y-138552611D01*
X138268215Y-138559577D01*
X138420943Y-138600500D01*
X138579057Y-138600500D01*
X155271646Y-138600500D01*
X155338685Y-138620185D01*
X155384440Y-138672989D01*
X155394384Y-138742147D01*
X155365359Y-138805703D01*
X155306581Y-138843477D01*
X155291044Y-138846973D01*
X155011211Y-138891294D01*
X155011209Y-138891294D01*
X154656793Y-138986260D01*
X154314260Y-139117746D01*
X153987343Y-139284320D01*
X153679635Y-139484147D01*
X153394498Y-139715047D01*
X153394490Y-139715054D01*
X153135054Y-139974490D01*
X153135047Y-139974498D01*
X152904147Y-140259635D01*
X152704320Y-140567343D01*
X152537746Y-140894260D01*
X152406260Y-141236793D01*
X152311294Y-141591209D01*
X152311294Y-141591211D01*
X152253898Y-141953594D01*
X152234696Y-142319999D01*
X152234696Y-142320000D01*
X152253898Y-142686405D01*
X152311294Y-143048788D01*
X152311294Y-143048790D01*
X152406260Y-143403206D01*
X152537746Y-143745739D01*
X152704320Y-144072656D01*
X152904147Y-144380364D01*
X152904149Y-144380366D01*
X153135051Y-144665506D01*
X153394494Y-144924949D01*
X153394498Y-144924952D01*
X153679635Y-145155852D01*
X153770409Y-145214801D01*
X153987348Y-145355682D01*
X154314264Y-145522255D01*
X154396879Y-145553967D01*
X154452411Y-145596369D01*
X154476204Y-145662062D01*
X154460703Y-145730191D01*
X154410830Y-145779124D01*
X154348801Y-145793678D01*
X153694572Y-145774464D01*
X153690935Y-145774303D01*
X152331739Y-145694397D01*
X152328108Y-145694130D01*
X150971834Y-145574357D01*
X150968213Y-145573984D01*
X149615998Y-145414442D01*
X149612389Y-145413962D01*
X148265496Y-145214801D01*
X148261902Y-145214216D01*
X146921376Y-144975589D01*
X146917802Y-144974898D01*
X145584916Y-144697034D01*
X145581363Y-144696239D01*
X144257181Y-144379359D01*
X144253654Y-144378460D01*
X142939343Y-144022843D01*
X142935843Y-144021841D01*
X141632530Y-143627790D01*
X141629061Y-143626685D01*
X140337900Y-143194552D01*
X140334465Y-143193346D01*
X139056557Y-142723498D01*
X139053158Y-142722192D01*
X137789536Y-142215009D01*
X137786178Y-142213603D01*
X136955785Y-141851652D01*
X136538031Y-141669562D01*
X136534781Y-141668089D01*
X135303077Y-141087610D01*
X135299807Y-141086009D01*
X134085750Y-140469660D01*
X134082529Y-140467965D01*
X132887062Y-139816225D01*
X132883891Y-139814435D01*
X131708101Y-139127899D01*
X131704985Y-139126018D01*
X130549841Y-138405251D01*
X130546781Y-138403279D01*
X129929859Y-137992701D01*
X129413254Y-137648886D01*
X129410290Y-137646850D01*
X128299442Y-136859536D01*
X128296503Y-136857388D01*
X127810091Y-136490726D01*
X127209213Y-136037777D01*
X127206378Y-136035574D01*
X126494764Y-135465636D01*
X126143611Y-135184394D01*
X126140803Y-135182076D01*
X125103529Y-134300104D01*
X125100791Y-134297706D01*
X124089840Y-133385647D01*
X124087173Y-133383169D01*
X123103418Y-132441814D01*
X123100825Y-132439258D01*
X122145164Y-131469464D01*
X122142647Y-131466834D01*
X121215851Y-130469384D01*
X121213412Y-130466681D01*
X120316277Y-129442431D01*
X120313919Y-129439657D01*
X119447278Y-128389559D01*
X119445002Y-128386718D01*
X118755943Y-127500004D01*
X121934592Y-127500004D01*
X121954196Y-127761620D01*
X121954197Y-127761625D01*
X122012576Y-128017402D01*
X122012578Y-128017411D01*
X122012580Y-128017416D01*
X122108432Y-128261643D01*
X122239614Y-128488857D01*
X122292581Y-128555275D01*
X122403198Y-128693985D01*
X122584753Y-128862441D01*
X122595521Y-128872433D01*
X122812296Y-129020228D01*
X122812301Y-129020230D01*
X122812302Y-129020231D01*
X122812303Y-129020232D01*
X122937843Y-129080688D01*
X123048673Y-129134061D01*
X123048674Y-129134061D01*
X123048677Y-129134063D01*
X123299385Y-129211396D01*
X123558818Y-129250500D01*
X123821182Y-129250500D01*
X124080615Y-129211396D01*
X124331323Y-129134063D01*
X124567704Y-129020228D01*
X124784479Y-128872433D01*
X124976805Y-128693981D01*
X125140386Y-128488857D01*
X125271568Y-128261643D01*
X125367420Y-128017416D01*
X125425802Y-127761630D01*
X125425803Y-127761620D01*
X125445408Y-127500004D01*
X125445408Y-127499995D01*
X125425803Y-127238379D01*
X125425802Y-127238374D01*
X125425802Y-127238370D01*
X125367420Y-126982584D01*
X125271568Y-126738357D01*
X125140386Y-126511143D01*
X124976805Y-126306019D01*
X124976804Y-126306018D01*
X124976801Y-126306014D01*
X124784479Y-126127567D01*
X124567704Y-125979772D01*
X124567700Y-125979770D01*
X124567697Y-125979768D01*
X124567696Y-125979767D01*
X124331325Y-125865938D01*
X124331327Y-125865938D01*
X124080623Y-125788606D01*
X124080619Y-125788605D01*
X124080615Y-125788604D01*
X123955823Y-125769794D01*
X123821187Y-125749500D01*
X123821182Y-125749500D01*
X123558818Y-125749500D01*
X123558812Y-125749500D01*
X123401177Y-125773261D01*
X123299385Y-125788604D01*
X123299382Y-125788605D01*
X123299376Y-125788606D01*
X123048673Y-125865938D01*
X122812303Y-125979767D01*
X122812302Y-125979768D01*
X122595520Y-126127567D01*
X122403198Y-126306014D01*
X122239614Y-126511143D01*
X122108432Y-126738356D01*
X122012582Y-126982578D01*
X122012576Y-126982597D01*
X121954197Y-127238374D01*
X121954196Y-127238379D01*
X121934592Y-127499995D01*
X121934592Y-127500004D01*
X118755943Y-127500004D01*
X118714363Y-127446497D01*
X118609529Y-127311592D01*
X118607349Y-127308700D01*
X118381676Y-126999998D01*
X117803788Y-126209493D01*
X117801683Y-126206522D01*
X117197009Y-125326255D01*
X117030767Y-125084244D01*
X117028758Y-125081226D01*
X117014802Y-125059573D01*
X116291076Y-123936732D01*
X116289193Y-123933713D01*
X115585441Y-122768079D01*
X115583613Y-122764949D01*
X115440115Y-122510689D01*
X114914394Y-121579175D01*
X114912652Y-121575979D01*
X114747993Y-121263108D01*
X114278522Y-120371056D01*
X114276904Y-120367868D01*
X113678427Y-119144860D01*
X113676877Y-119141571D01*
X113648528Y-119079054D01*
X113114555Y-117901509D01*
X113113137Y-117898257D01*
X112587430Y-116642146D01*
X112586110Y-116638858D01*
X112149124Y-115502135D01*
X112097539Y-115367947D01*
X112096282Y-115364530D01*
X111902462Y-114812482D01*
X111645220Y-114079791D01*
X111644072Y-114076359D01*
X111643102Y-114073313D01*
X111230935Y-112778981D01*
X111229888Y-112775519D01*
X111225457Y-112760047D01*
X110854993Y-111466492D01*
X110854069Y-111463074D01*
X110565273Y-110330004D01*
X111904592Y-110330004D01*
X111924196Y-110591620D01*
X111924197Y-110591625D01*
X111982576Y-110847402D01*
X111982578Y-110847411D01*
X111982580Y-110847416D01*
X112078432Y-111091643D01*
X112209614Y-111318857D01*
X112324584Y-111463025D01*
X112373198Y-111523985D01*
X112554753Y-111692441D01*
X112565521Y-111702433D01*
X112782296Y-111850228D01*
X112782301Y-111850230D01*
X112782302Y-111850231D01*
X112782303Y-111850232D01*
X112904450Y-111909054D01*
X113018673Y-111964061D01*
X113018674Y-111964061D01*
X113018677Y-111964063D01*
X113269385Y-112041396D01*
X113528818Y-112080500D01*
X113791182Y-112080500D01*
X114050615Y-112041396D01*
X114301323Y-111964063D01*
X114537704Y-111850228D01*
X114754479Y-111702433D01*
X114903733Y-111563945D01*
X114946801Y-111523985D01*
X114946801Y-111523983D01*
X114946805Y-111523981D01*
X115110386Y-111318857D01*
X115241568Y-111091643D01*
X115337420Y-110847416D01*
X115395802Y-110591630D01*
X115395803Y-110591620D01*
X115415408Y-110330004D01*
X115415408Y-110329995D01*
X115395803Y-110068379D01*
X115395802Y-110068374D01*
X115395802Y-110068370D01*
X115337420Y-109812584D01*
X115241568Y-109568357D01*
X115110386Y-109341143D01*
X114946805Y-109136019D01*
X114946804Y-109136018D01*
X114946801Y-109136014D01*
X114754479Y-108957567D01*
X114683328Y-108909057D01*
X114537704Y-108809772D01*
X114537700Y-108809770D01*
X114537697Y-108809768D01*
X114537696Y-108809767D01*
X114301325Y-108695938D01*
X114301327Y-108695938D01*
X114050623Y-108618606D01*
X114050619Y-108618605D01*
X114050615Y-108618604D01*
X113925823Y-108599794D01*
X113791187Y-108579500D01*
X113791182Y-108579500D01*
X113528818Y-108579500D01*
X113528812Y-108579500D01*
X113367247Y-108603853D01*
X113269385Y-108618604D01*
X113269382Y-108618605D01*
X113269376Y-108618606D01*
X113018673Y-108695938D01*
X112782303Y-108809767D01*
X112782302Y-108809768D01*
X112565520Y-108957567D01*
X112373198Y-109136014D01*
X112209614Y-109341143D01*
X112078432Y-109568356D01*
X111982582Y-109812578D01*
X111982576Y-109812597D01*
X111924197Y-110068374D01*
X111924196Y-110068379D01*
X111904592Y-110329995D01*
X111904592Y-110330004D01*
X110565273Y-110330004D01*
X110517772Y-110143639D01*
X110516946Y-110140190D01*
X110219513Y-108811387D01*
X110218791Y-108807922D01*
X109960506Y-107471009D01*
X109959871Y-107467441D01*
X109950922Y-107412509D01*
X109740952Y-106123572D01*
X109740420Y-106119971D01*
X109664597Y-105549431D01*
X109561048Y-104770266D01*
X109560625Y-104766683D01*
X109557925Y-104740500D01*
X109420944Y-103412217D01*
X109420635Y-103408718D01*
X109320779Y-102050752D01*
X109320567Y-102047136D01*
X109320539Y-102046496D01*
X109260620Y-100686862D01*
X109260514Y-100683244D01*
X109240526Y-99321770D01*
X109240526Y-99318229D01*
X109260514Y-97956732D01*
X109260621Y-97953116D01*
X109261584Y-97931282D01*
X109320568Y-96592841D01*
X109320781Y-96589228D01*
X109420636Y-95231275D01*
X109420943Y-95227788D01*
X109560629Y-93873277D01*
X109561047Y-93869740D01*
X109740421Y-92520019D01*
X109740952Y-92516427D01*
X109746507Y-92482328D01*
X109959876Y-91172529D01*
X109960509Y-91168974D01*
X110218794Y-89832063D01*
X110219510Y-89828625D01*
X110516949Y-88499794D01*
X110517768Y-88496376D01*
X110854073Y-87176908D01*
X110854988Y-87173523D01*
X111229900Y-85864437D01*
X111230929Y-85861037D01*
X111644085Y-84563600D01*
X111645213Y-84560228D01*
X111754132Y-84250000D01*
X178575000Y-84250000D01*
X178575000Y-84472844D01*
X178581401Y-84532372D01*
X178581403Y-84532379D01*
X178631645Y-84667086D01*
X178631649Y-84667093D01*
X178717809Y-84782187D01*
X178717812Y-84782190D01*
X178832906Y-84868350D01*
X178832913Y-84868354D01*
X178967620Y-84918596D01*
X178967627Y-84918598D01*
X179027155Y-84924999D01*
X179027172Y-84925000D01*
X179250000Y-84925000D01*
X179250000Y-84250000D01*
X178575000Y-84250000D01*
X111754132Y-84250000D01*
X111929678Y-83750000D01*
X178575000Y-83750000D01*
X179250000Y-83750000D01*
X179250000Y-83075000D01*
X179027155Y-83075000D01*
X178967627Y-83081401D01*
X178967620Y-83081403D01*
X178832913Y-83131645D01*
X178832906Y-83131649D01*
X178717812Y-83217809D01*
X178717809Y-83217812D01*
X178631649Y-83332906D01*
X178631645Y-83332913D01*
X178581403Y-83467620D01*
X178581401Y-83467627D01*
X178575000Y-83527155D01*
X178575000Y-83750000D01*
X111929678Y-83750000D01*
X112096286Y-83275457D01*
X112097539Y-83272052D01*
X112586119Y-82001117D01*
X112587420Y-81997876D01*
X113113148Y-80741717D01*
X113114544Y-80738515D01*
X113676890Y-79498398D01*
X113678414Y-79495165D01*
X114276918Y-78272103D01*
X114278508Y-78268970D01*
X114912664Y-77063997D01*
X114914394Y-77060824D01*
X115583638Y-75875006D01*
X115585423Y-75871949D01*
X116289211Y-74706255D01*
X116291057Y-74703297D01*
X117028787Y-73558728D01*
X117030745Y-73555787D01*
X117801703Y-72433447D01*
X117803767Y-72430535D01*
X118607384Y-71331252D01*
X118609504Y-71328440D01*
X118914427Y-70936051D01*
X118971105Y-70895195D01*
X119040875Y-70891467D01*
X119101585Y-70926052D01*
X119133959Y-70987968D01*
X119132113Y-71044233D01*
X119071294Y-71271209D01*
X119071294Y-71271211D01*
X119013898Y-71633594D01*
X118994696Y-71999999D01*
X118994696Y-72000000D01*
X119013898Y-72366405D01*
X119057487Y-72641614D01*
X119071295Y-72728794D01*
X119151233Y-73027127D01*
X119166260Y-73083206D01*
X119297746Y-73425739D01*
X119464320Y-73752656D01*
X119664147Y-74060364D01*
X119824170Y-74257975D01*
X119895051Y-74345506D01*
X120154494Y-74604949D01*
X120154498Y-74604952D01*
X120439635Y-74835852D01*
X120747343Y-75035679D01*
X120747348Y-75035682D01*
X121074264Y-75202255D01*
X121416801Y-75333742D01*
X121771206Y-75428705D01*
X122133596Y-75486102D01*
X122479734Y-75504241D01*
X122499999Y-75505304D01*
X122500000Y-75505304D01*
X122500001Y-75505304D01*
X122519203Y-75504297D01*
X122866404Y-75486102D01*
X123228794Y-75428705D01*
X123583199Y-75333742D01*
X123925736Y-75202255D01*
X124252652Y-75035682D01*
X124560366Y-74835851D01*
X124845506Y-74604949D01*
X125104949Y-74345506D01*
X125335851Y-74060366D01*
X125535682Y-73752652D01*
X125702255Y-73425736D01*
X125833742Y-73083199D01*
X125928705Y-72728794D01*
X125986102Y-72366404D01*
X125992202Y-72250000D01*
X179608628Y-72250000D01*
X180250000Y-72250000D01*
X180250000Y-71607473D01*
X180750000Y-71607473D01*
X180750000Y-72250000D01*
X181391372Y-72250000D01*
X181391371Y-72249999D01*
X181349683Y-72121693D01*
X181349682Y-72121692D01*
X181252463Y-71953305D01*
X181252464Y-71953305D01*
X181122360Y-71808809D01*
X181122357Y-71808807D01*
X180965051Y-71694516D01*
X180787412Y-71615426D01*
X180750000Y-71607473D01*
X180250000Y-71607473D01*
X180212585Y-71615426D01*
X180212580Y-71615428D01*
X180034953Y-71694513D01*
X179877643Y-71808806D01*
X179747535Y-71953305D01*
X179650317Y-72121692D01*
X179650316Y-72121693D01*
X179608628Y-72249999D01*
X179608628Y-72250000D01*
X125992202Y-72250000D01*
X126005304Y-72000000D01*
X125986102Y-71633596D01*
X125928705Y-71271206D01*
X125833742Y-70916801D01*
X125702255Y-70574264D01*
X125535682Y-70247348D01*
X125335851Y-69939634D01*
X125104949Y-69654494D01*
X124845506Y-69395051D01*
X124560366Y-69164149D01*
X124560364Y-69164147D01*
X124252656Y-68964320D01*
X123925739Y-68797746D01*
X123583206Y-68666260D01*
X123583199Y-68666258D01*
X123228794Y-68571295D01*
X123228790Y-68571294D01*
X123228789Y-68571294D01*
X122866405Y-68513898D01*
X122500001Y-68494696D01*
X122499999Y-68494696D01*
X122133594Y-68513898D01*
X121771211Y-68571294D01*
X121771209Y-68571294D01*
X121416793Y-68666260D01*
X121074260Y-68797746D01*
X120911949Y-68880449D01*
X120843280Y-68893345D01*
X120778539Y-68867069D01*
X120738282Y-68809962D01*
X120735290Y-68740157D01*
X120762376Y-68688262D01*
X120778497Y-68669857D01*
X121213442Y-68173283D01*
X121215819Y-68170650D01*
X122142681Y-67173129D01*
X122145129Y-67170570D01*
X123100863Y-66200703D01*
X123103380Y-66198221D01*
X124087186Y-65256817D01*
X124089840Y-65254352D01*
X125100834Y-64342255D01*
X125103485Y-64339933D01*
X126140824Y-63457904D01*
X126143589Y-63455622D01*
X127206420Y-62604391D01*
X127209170Y-62602254D01*
X128296535Y-61782587D01*
X128299409Y-61780486D01*
X129410336Y-60993117D01*
X129413208Y-60991143D01*
X130546810Y-60236701D01*
X130549811Y-60234767D01*
X131705017Y-59513961D01*
X131708069Y-59512118D01*
X132883928Y-58825543D01*
X132887024Y-58823794D01*
X134082582Y-58172005D01*
X134085695Y-58170367D01*
X135299837Y-57553975D01*
X135303023Y-57552415D01*
X136534837Y-56971884D01*
X136537974Y-56970462D01*
X137786197Y-56426387D01*
X137789518Y-56424997D01*
X139053198Y-55917791D01*
X139056516Y-55916516D01*
X140334485Y-55446645D01*
X140337879Y-55445454D01*
X141629082Y-55013307D01*
X141632509Y-55012215D01*
X142935910Y-54618138D01*
X142939292Y-54617170D01*
X144253686Y-54261530D01*
X144257132Y-54260652D01*
X145581404Y-53943750D01*
X145584874Y-53942974D01*
X146917804Y-53665100D01*
X146921376Y-53664410D01*
X148261934Y-53425777D01*
X148265464Y-53425203D01*
X149612404Y-53226034D01*
X149615983Y-53225558D01*
X150968257Y-53066010D01*
X150971789Y-53065646D01*
X152328121Y-52945868D01*
X152331726Y-52945602D01*
X153690954Y-52865695D01*
X153694552Y-52865535D01*
X155055591Y-52825563D01*
X155059231Y-52825511D01*
X156420769Y-52825511D01*
X156424408Y-52825563D01*
G37*
%TD.AperFunction*%
%TA.AperFunction,Conductor*%
G36*
X185078357Y-92373390D02*
G01*
X185122704Y-92401891D01*
X185160858Y-92440045D01*
X185160861Y-92440047D01*
X185347266Y-92570568D01*
X185405865Y-92597893D01*
X185458305Y-92644065D01*
X185477457Y-92711258D01*
X185457242Y-92778139D01*
X185405867Y-92822657D01*
X185347515Y-92849867D01*
X185161179Y-92980342D01*
X185000342Y-93141179D01*
X184869865Y-93327517D01*
X184773734Y-93533673D01*
X184773730Y-93533682D01*
X184721127Y-93729999D01*
X184721128Y-93730000D01*
X185566988Y-93730000D01*
X185534075Y-93787007D01*
X185500000Y-93914174D01*
X185500000Y-94045826D01*
X185534075Y-94172993D01*
X185566988Y-94230000D01*
X184721128Y-94230000D01*
X184773730Y-94426317D01*
X184773734Y-94426326D01*
X184869865Y-94632482D01*
X185000342Y-94818820D01*
X185161179Y-94979657D01*
X185347518Y-95110134D01*
X185347520Y-95110135D01*
X185405865Y-95137342D01*
X185458305Y-95183514D01*
X185477457Y-95250707D01*
X185457242Y-95317589D01*
X185405867Y-95362105D01*
X185347268Y-95389431D01*
X185347264Y-95389433D01*
X185160858Y-95519954D01*
X184999954Y-95680858D01*
X184869432Y-95867265D01*
X184869431Y-95867267D01*
X184773261Y-96073502D01*
X184773258Y-96073511D01*
X184714366Y-96293302D01*
X184714364Y-96293313D01*
X184694532Y-96519998D01*
X184694532Y-96520001D01*
X184714364Y-96746686D01*
X184714366Y-96746697D01*
X184773258Y-96966488D01*
X184773260Y-96966492D01*
X184773261Y-96966496D01*
X184784222Y-96990001D01*
X184867716Y-97169054D01*
X184878208Y-97238132D01*
X184849688Y-97301916D01*
X184832946Y-97317817D01*
X184019479Y-98131284D01*
X184005988Y-98154653D01*
X183990838Y-98180894D01*
X183970417Y-98216264D01*
X183946712Y-98257323D01*
X183940423Y-98268215D01*
X183899499Y-98420943D01*
X183899499Y-98420945D01*
X183899499Y-98589046D01*
X183899500Y-98589059D01*
X183899500Y-117199903D01*
X183879815Y-117266942D01*
X183863181Y-117287584D01*
X182407584Y-118743181D01*
X182346261Y-118776666D01*
X182319903Y-118779500D01*
X171991692Y-118779500D01*
X171924653Y-118759815D01*
X171890119Y-118726625D01*
X171760047Y-118540861D01*
X171760045Y-118540858D01*
X171599141Y-118379954D01*
X171412734Y-118249432D01*
X171412728Y-118249429D01*
X171354725Y-118222382D01*
X171302285Y-118176210D01*
X171283133Y-118109017D01*
X171303348Y-118042135D01*
X171354725Y-117997618D01*
X171369492Y-117990732D01*
X171412734Y-117970568D01*
X171599139Y-117840047D01*
X171760047Y-117679139D01*
X171890568Y-117492734D01*
X171986739Y-117286496D01*
X172045635Y-117066692D01*
X172065468Y-116840000D01*
X172045635Y-116613308D01*
X171986739Y-116393504D01*
X171974335Y-116366905D01*
X171963843Y-116297829D01*
X171992362Y-116234045D01*
X172050838Y-116195804D01*
X172086717Y-116190500D01*
X174823331Y-116190500D01*
X174823347Y-116190501D01*
X174830943Y-116190501D01*
X174989054Y-116190501D01*
X174989057Y-116190501D01*
X175141785Y-116149577D01*
X175191904Y-116120639D01*
X175278716Y-116070520D01*
X175390520Y-115958716D01*
X175390520Y-115958714D01*
X175400728Y-115948507D01*
X175400729Y-115948504D01*
X183480520Y-107868716D01*
X183559577Y-107731784D01*
X183600501Y-107579057D01*
X183600501Y-107420942D01*
X183600501Y-107413347D01*
X183600500Y-107413329D01*
X183600500Y-93800096D01*
X183620185Y-93733057D01*
X183636814Y-93712420D01*
X184947344Y-92401889D01*
X185008665Y-92368406D01*
X185078357Y-92373390D01*
G37*
%TD.AperFunction*%
%TA.AperFunction,Conductor*%
G36*
X129929024Y-97715471D02*
G01*
X129980133Y-97642482D01*
X130007341Y-97584135D01*
X130053513Y-97531696D01*
X130120707Y-97512543D01*
X130187588Y-97532758D01*
X130232105Y-97584132D01*
X130259432Y-97642734D01*
X130264919Y-97650570D01*
X130389954Y-97829141D01*
X130550858Y-97990045D01*
X130550861Y-97990047D01*
X130736624Y-98120118D01*
X130780248Y-98174693D01*
X130789500Y-98221692D01*
X130789500Y-106639902D01*
X130769815Y-106706941D01*
X130753181Y-106727583D01*
X129019481Y-108461282D01*
X129019479Y-108461285D01*
X128969361Y-108548094D01*
X128969359Y-108548096D01*
X128940425Y-108598209D01*
X128940424Y-108598210D01*
X128934959Y-108618605D01*
X128899499Y-108750943D01*
X128899499Y-108750945D01*
X128899499Y-108919046D01*
X128899500Y-108919059D01*
X128899500Y-111743330D01*
X128899499Y-111743348D01*
X128899499Y-111909054D01*
X128899498Y-111909054D01*
X128927161Y-112012290D01*
X128940423Y-112061785D01*
X128951228Y-112080500D01*
X128969358Y-112111900D01*
X128969359Y-112111904D01*
X128969360Y-112111904D01*
X129019479Y-112198714D01*
X129019481Y-112198717D01*
X129138349Y-112317585D01*
X129138355Y-112317590D01*
X130167056Y-113346292D01*
X130200541Y-113407615D01*
X130195557Y-113477307D01*
X130180956Y-113505087D01*
X130179437Y-113507256D01*
X130179431Y-113507266D01*
X130152105Y-113565866D01*
X130105932Y-113618305D01*
X130038738Y-113637456D01*
X129971858Y-113617239D01*
X129927342Y-113565864D01*
X129900136Y-113507521D01*
X129900132Y-113507513D01*
X129849025Y-113434526D01*
X129252962Y-114030589D01*
X129235925Y-113967007D01*
X129170099Y-113852993D01*
X129077007Y-113759901D01*
X128962993Y-113694075D01*
X128899410Y-113677037D01*
X129495472Y-113080974D01*
X129422478Y-113029863D01*
X129216331Y-112933735D01*
X129216317Y-112933730D01*
X128996610Y-112874860D01*
X128996599Y-112874858D01*
X128770002Y-112855034D01*
X128769998Y-112855034D01*
X128543400Y-112874858D01*
X128543389Y-112874860D01*
X128323682Y-112933730D01*
X128323673Y-112933734D01*
X128117516Y-113029866D01*
X128117512Y-113029868D01*
X128044526Y-113080973D01*
X128044526Y-113080974D01*
X128640590Y-113677037D01*
X128577007Y-113694075D01*
X128462993Y-113759901D01*
X128369901Y-113852993D01*
X128304075Y-113967007D01*
X128287037Y-114030589D01*
X127690974Y-113434526D01*
X127690973Y-113434526D01*
X127639868Y-113507512D01*
X127639868Y-113507513D01*
X127612657Y-113565867D01*
X127566484Y-113618306D01*
X127499290Y-113637457D01*
X127432409Y-113617241D01*
X127387893Y-113565865D01*
X127360682Y-113507512D01*
X127360568Y-113507266D01*
X127230047Y-113320861D01*
X127230045Y-113320858D01*
X127069140Y-113159953D01*
X126883377Y-113029881D01*
X126839752Y-112975304D01*
X126830500Y-112928306D01*
X126830500Y-98261226D01*
X126850185Y-98194187D01*
X126902096Y-98148844D01*
X126910500Y-98144925D01*
X126962734Y-98120568D01*
X127149139Y-97990047D01*
X127310047Y-97829139D01*
X127440568Y-97642734D01*
X127467893Y-97584134D01*
X127514065Y-97531695D01*
X127581258Y-97512543D01*
X127648139Y-97532758D01*
X127692657Y-97584134D01*
X127719864Y-97642480D01*
X127770974Y-97715472D01*
X128367037Y-97119409D01*
X128384075Y-97182993D01*
X128449901Y-97297007D01*
X128542993Y-97390099D01*
X128657007Y-97455925D01*
X128720590Y-97472962D01*
X128124526Y-98069025D01*
X128197513Y-98120132D01*
X128197521Y-98120136D01*
X128403668Y-98216264D01*
X128403682Y-98216269D01*
X128623389Y-98275139D01*
X128623400Y-98275141D01*
X128849998Y-98294966D01*
X128850002Y-98294966D01*
X129076599Y-98275141D01*
X129076610Y-98275139D01*
X129296317Y-98216269D01*
X129296331Y-98216264D01*
X129502478Y-98120136D01*
X129575471Y-98069024D01*
X128979409Y-97472962D01*
X129042993Y-97455925D01*
X129157007Y-97390099D01*
X129250099Y-97297007D01*
X129315925Y-97182993D01*
X129332962Y-97119409D01*
X129929024Y-97715471D01*
G37*
%TD.AperFunction*%
%TA.AperFunction,Conductor*%
G36*
X123766942Y-86950185D02*
G01*
X123787584Y-86966819D01*
X130753181Y-93932416D01*
X130786666Y-93993739D01*
X130789500Y-94020097D01*
X130789500Y-95758306D01*
X130769815Y-95825345D01*
X130736623Y-95859881D01*
X130550859Y-95989953D01*
X130389954Y-96150858D01*
X130259432Y-96337265D01*
X130259428Y-96337272D01*
X130232105Y-96395866D01*
X130185932Y-96448305D01*
X130118738Y-96467456D01*
X130051858Y-96447239D01*
X130007342Y-96395864D01*
X129980136Y-96337521D01*
X129980132Y-96337513D01*
X129929025Y-96264526D01*
X129332962Y-96860589D01*
X129315925Y-96797007D01*
X129250099Y-96682993D01*
X129157007Y-96589901D01*
X129042993Y-96524075D01*
X128979410Y-96507037D01*
X129575472Y-95910974D01*
X129502478Y-95859863D01*
X129296331Y-95763735D01*
X129296317Y-95763730D01*
X129076610Y-95704860D01*
X129076599Y-95704858D01*
X128850002Y-95685034D01*
X128849998Y-95685034D01*
X128623400Y-95704858D01*
X128623389Y-95704860D01*
X128403682Y-95763730D01*
X128403673Y-95763734D01*
X128197516Y-95859866D01*
X128197512Y-95859868D01*
X128124526Y-95910973D01*
X128124526Y-95910974D01*
X128720590Y-96507037D01*
X128657007Y-96524075D01*
X128542993Y-96589901D01*
X128449901Y-96682993D01*
X128384075Y-96797007D01*
X128367037Y-96860589D01*
X127770974Y-96264526D01*
X127770973Y-96264526D01*
X127719868Y-96337512D01*
X127719868Y-96337513D01*
X127692657Y-96395867D01*
X127646484Y-96448306D01*
X127579290Y-96467457D01*
X127512409Y-96447241D01*
X127467893Y-96395865D01*
X127456056Y-96370481D01*
X127440568Y-96337266D01*
X127310047Y-96150861D01*
X127310045Y-96150858D01*
X127149140Y-95989953D01*
X126963377Y-95859881D01*
X126919752Y-95805304D01*
X126910500Y-95758306D01*
X126910500Y-91560942D01*
X126904497Y-91538541D01*
X126904496Y-91538538D01*
X126878094Y-91440005D01*
X126878093Y-91440000D01*
X126869577Y-91408216D01*
X126869576Y-91408214D01*
X126869576Y-91408213D01*
X126790524Y-91271290D01*
X126790521Y-91271286D01*
X126790520Y-91271284D01*
X126678716Y-91159480D01*
X126678715Y-91159479D01*
X126674385Y-91155149D01*
X126674374Y-91155139D01*
X124487590Y-88968355D01*
X124487588Y-88968352D01*
X124368717Y-88849481D01*
X124368716Y-88849480D01*
X124281904Y-88799360D01*
X124281904Y-88799359D01*
X124281900Y-88799358D01*
X124231785Y-88770423D01*
X124079057Y-88729499D01*
X123920943Y-88729499D01*
X123913347Y-88729499D01*
X123913331Y-88729500D01*
X117013994Y-88729500D01*
X116946955Y-88709815D01*
X116901200Y-88657011D01*
X116891256Y-88587853D01*
X116896063Y-88567183D01*
X116898141Y-88560784D01*
X116910262Y-88523482D01*
X116930598Y-88330000D01*
X116910262Y-88136518D01*
X116850144Y-87951492D01*
X116815506Y-87891498D01*
X116799034Y-87823598D01*
X116815508Y-87767498D01*
X116849680Y-87708310D01*
X116849684Y-87708301D01*
X116891372Y-87580000D01*
X116582559Y-87580000D01*
X116515520Y-87560315D01*
X116509673Y-87556318D01*
X116465295Y-87524075D01*
X116395000Y-87492779D01*
X116341762Y-87447530D01*
X116321440Y-87380681D01*
X116340484Y-87313457D01*
X116392850Y-87267201D01*
X116445433Y-87255499D01*
X116472872Y-87255499D01*
X116532483Y-87249091D01*
X116667331Y-87198796D01*
X116698871Y-87175185D01*
X116789645Y-87107232D01*
X116791319Y-87109468D01*
X116840096Y-87082834D01*
X116866454Y-87080000D01*
X116891372Y-87080000D01*
X116895027Y-87074968D01*
X116893542Y-87022976D01*
X116929623Y-86963144D01*
X116992324Y-86932316D01*
X117013468Y-86930500D01*
X123699903Y-86930500D01*
X123766942Y-86950185D01*
G37*
%TD.AperFunction*%
%TD*%
M02*
