%TF.GenerationSoftware,KiCad,Pcbnew,8.0.1*%
%TF.CreationDate,2024-06-10T20:52:02+02:00*%
%TF.ProjectId,PCB_Plaque_Haute,5043425f-506c-4617-9175-655f48617574,C.Roche*%
%TF.SameCoordinates,Original*%
%TF.FileFunction,Drillmap*%
%TF.FilePolarity,Positive*%
%FSLAX45Y45*%
G04 Gerber Fmt 4.5, Leading zero omitted, Abs format (unit mm)*
G04 Created by KiCad (PCBNEW 8.0.1) date 2024-06-10 20:52:02*
%MOMM*%
%LPD*%
G01*
G04 APERTURE LIST*
%ADD10C,0.050000*%
%ADD11C,0.100000*%
%ADD12C,0.200000*%
G04 APERTURE END LIST*
D10*
X20274000Y-9932000D02*
G75*
G02*
X10874000Y-9932000I-4700000J0D01*
G01*
X10874000Y-9932000D02*
G75*
G02*
X20274000Y-9932000I4700000J0D01*
G01*
D11*
X12550000Y-7200000D02*
G75*
G02*
X11950000Y-7200000I-300000J0D01*
G01*
X11950000Y-7200000D02*
G75*
G02*
X12550000Y-7200000I300000J0D01*
G01*
X15874000Y-14232000D02*
G75*
G02*
X15274000Y-14232000I-300000J0D01*
G01*
X15274000Y-14232000D02*
G75*
G02*
X15874000Y-14232000I300000J0D01*
G01*
X19200000Y-7200000D02*
G75*
G02*
X18600000Y-7200000I-300000J0D01*
G01*
X18600000Y-7200000D02*
G75*
G02*
X19200000Y-7200000I300000J0D01*
G01*
D12*
D11*
X16985000Y-7565000D02*
X17015000Y-7595000D01*
X17015000Y-7565000D02*
X16985000Y-7595000D01*
X17015000Y-7605000D02*
X17015000Y-7555000D01*
X16985000Y-7555000D02*
G75*
G02*
X17015000Y-7555000I15000J0D01*
G01*
X16985000Y-7555000D02*
X16985000Y-7605000D01*
X16985000Y-7605000D02*
G75*
G03*
X17015000Y-7605000I15000J0D01*
G01*
X16985000Y-7819000D02*
X17015000Y-7849000D01*
X17015000Y-7819000D02*
X16985000Y-7849000D01*
X17015000Y-7859000D02*
X17015000Y-7809000D01*
X16985000Y-7809000D02*
G75*
G02*
X17015000Y-7809000I15000J0D01*
G01*
X16985000Y-7809000D02*
X16985000Y-7859000D01*
X16985000Y-7859000D02*
G75*
G03*
X17015000Y-7859000I15000J0D01*
G01*
X17785000Y-7565000D02*
X17815000Y-7595000D01*
X17815000Y-7565000D02*
X17785000Y-7595000D01*
X17815000Y-7605000D02*
X17815000Y-7555000D01*
X17785000Y-7555000D02*
G75*
G02*
X17815000Y-7555000I15000J0D01*
G01*
X17785000Y-7555000D02*
X17785000Y-7605000D01*
X17785000Y-7605000D02*
G75*
G03*
X17815000Y-7605000I15000J0D01*
G01*
X17785000Y-7819000D02*
X17815000Y-7849000D01*
X17815000Y-7819000D02*
X17785000Y-7849000D01*
X17815000Y-7859000D02*
X17815000Y-7809000D01*
X17785000Y-7809000D02*
G75*
G02*
X17815000Y-7809000I15000J0D01*
G01*
X17785000Y-7809000D02*
X17785000Y-7859000D01*
X17785000Y-7859000D02*
G75*
G03*
X17815000Y-7859000I15000J0D01*
G01*
X17126000Y-9144000D02*
G75*
G02*
X17026000Y-9144000I-50000J0D01*
G01*
X17026000Y-9144000D02*
G75*
G02*
X17126000Y-9144000I50000J0D01*
G01*
X17126000Y-9398000D02*
G75*
G02*
X17026000Y-9398000I-50000J0D01*
G01*
X17026000Y-9398000D02*
G75*
G02*
X17126000Y-9398000I50000J0D01*
G01*
X17126000Y-9652000D02*
G75*
G02*
X17026000Y-9652000I-50000J0D01*
G01*
X17026000Y-9652000D02*
G75*
G02*
X17126000Y-9652000I50000J0D01*
G01*
X17126000Y-9906000D02*
G75*
G02*
X17026000Y-9906000I-50000J0D01*
G01*
X17026000Y-9906000D02*
G75*
G02*
X17126000Y-9906000I50000J0D01*
G01*
X17126000Y-10160000D02*
G75*
G02*
X17026000Y-10160000I-50000J0D01*
G01*
X17026000Y-10160000D02*
G75*
G02*
X17126000Y-10160000I50000J0D01*
G01*
X17126000Y-10414000D02*
G75*
G02*
X17026000Y-10414000I-50000J0D01*
G01*
X17026000Y-10414000D02*
G75*
G02*
X17126000Y-10414000I50000J0D01*
G01*
X17126000Y-10668000D02*
G75*
G02*
X17026000Y-10668000I-50000J0D01*
G01*
X17026000Y-10668000D02*
G75*
G02*
X17126000Y-10668000I50000J0D01*
G01*
X17126000Y-10922000D02*
G75*
G02*
X17026000Y-10922000I-50000J0D01*
G01*
X17026000Y-10922000D02*
G75*
G02*
X17126000Y-10922000I50000J0D01*
G01*
X17126000Y-11176000D02*
G75*
G02*
X17026000Y-11176000I-50000J0D01*
G01*
X17026000Y-11176000D02*
G75*
G02*
X17126000Y-11176000I50000J0D01*
G01*
X17126000Y-11430000D02*
G75*
G02*
X17026000Y-11430000I-50000J0D01*
G01*
X17026000Y-11430000D02*
G75*
G02*
X17126000Y-11430000I50000J0D01*
G01*
X17126000Y-11684000D02*
G75*
G02*
X17026000Y-11684000I-50000J0D01*
G01*
X17026000Y-11684000D02*
G75*
G02*
X17126000Y-11684000I50000J0D01*
G01*
X17126000Y-11938000D02*
G75*
G02*
X17026000Y-11938000I-50000J0D01*
G01*
X17026000Y-11938000D02*
G75*
G02*
X17126000Y-11938000I50000J0D01*
G01*
X17126000Y-12192000D02*
G75*
G02*
X17026000Y-12192000I-50000J0D01*
G01*
X17026000Y-12192000D02*
G75*
G02*
X17126000Y-12192000I50000J0D01*
G01*
X17126000Y-12446000D02*
G75*
G02*
X17026000Y-12446000I-50000J0D01*
G01*
X17026000Y-12446000D02*
G75*
G02*
X17126000Y-12446000I50000J0D01*
G01*
X17126000Y-12700000D02*
G75*
G02*
X17026000Y-12700000I-50000J0D01*
G01*
X17026000Y-12700000D02*
G75*
G02*
X17126000Y-12700000I50000J0D01*
G01*
X18550000Y-7922500D02*
G75*
G02*
X18450000Y-7922500I-50000J0D01*
G01*
X18450000Y-7922500D02*
G75*
G02*
X18550000Y-7922500I50000J0D01*
G01*
X18550000Y-8176500D02*
G75*
G02*
X18450000Y-8176500I-50000J0D01*
G01*
X18450000Y-8176500D02*
G75*
G02*
X18550000Y-8176500I50000J0D01*
G01*
X18650000Y-9144000D02*
G75*
G02*
X18550000Y-9144000I-50000J0D01*
G01*
X18550000Y-9144000D02*
G75*
G02*
X18650000Y-9144000I50000J0D01*
G01*
X18650000Y-9398000D02*
G75*
G02*
X18550000Y-9398000I-50000J0D01*
G01*
X18550000Y-9398000D02*
G75*
G02*
X18650000Y-9398000I50000J0D01*
G01*
X18650000Y-9652000D02*
G75*
G02*
X18550000Y-9652000I-50000J0D01*
G01*
X18550000Y-9652000D02*
G75*
G02*
X18650000Y-9652000I50000J0D01*
G01*
X18650000Y-9906000D02*
G75*
G02*
X18550000Y-9906000I-50000J0D01*
G01*
X18550000Y-9906000D02*
G75*
G02*
X18650000Y-9906000I50000J0D01*
G01*
X18650000Y-10160000D02*
G75*
G02*
X18550000Y-10160000I-50000J0D01*
G01*
X18550000Y-10160000D02*
G75*
G02*
X18650000Y-10160000I50000J0D01*
G01*
X18650000Y-10414000D02*
G75*
G02*
X18550000Y-10414000I-50000J0D01*
G01*
X18550000Y-10414000D02*
G75*
G02*
X18650000Y-10414000I50000J0D01*
G01*
X18650000Y-10668000D02*
G75*
G02*
X18550000Y-10668000I-50000J0D01*
G01*
X18550000Y-10668000D02*
G75*
G02*
X18650000Y-10668000I50000J0D01*
G01*
X18650000Y-10922000D02*
G75*
G02*
X18550000Y-10922000I-50000J0D01*
G01*
X18550000Y-10922000D02*
G75*
G02*
X18650000Y-10922000I50000J0D01*
G01*
X18650000Y-11176000D02*
G75*
G02*
X18550000Y-11176000I-50000J0D01*
G01*
X18550000Y-11176000D02*
G75*
G02*
X18650000Y-11176000I50000J0D01*
G01*
X18650000Y-11430000D02*
G75*
G02*
X18550000Y-11430000I-50000J0D01*
G01*
X18550000Y-11430000D02*
G75*
G02*
X18650000Y-11430000I50000J0D01*
G01*
X18650000Y-11684000D02*
G75*
G02*
X18550000Y-11684000I-50000J0D01*
G01*
X18550000Y-11684000D02*
G75*
G02*
X18650000Y-11684000I50000J0D01*
G01*
X18650000Y-11938000D02*
G75*
G02*
X18550000Y-11938000I-50000J0D01*
G01*
X18550000Y-11938000D02*
G75*
G02*
X18650000Y-11938000I50000J0D01*
G01*
X18650000Y-12192000D02*
G75*
G02*
X18550000Y-12192000I-50000J0D01*
G01*
X18550000Y-12192000D02*
G75*
G02*
X18650000Y-12192000I50000J0D01*
G01*
X18650000Y-12446000D02*
G75*
G02*
X18550000Y-12446000I-50000J0D01*
G01*
X18550000Y-12446000D02*
G75*
G02*
X18650000Y-12446000I50000J0D01*
G01*
X18650000Y-12700000D02*
G75*
G02*
X18550000Y-12700000I-50000J0D01*
G01*
X18550000Y-12700000D02*
G75*
G02*
X18650000Y-12700000I50000J0D01*
G01*
X19122500Y-8150000D02*
G75*
G02*
X19022500Y-8150000I-50000J0D01*
G01*
X19022500Y-8150000D02*
G75*
G02*
X19122500Y-8150000I50000J0D01*
G01*
X19200000Y-10746000D02*
G75*
G02*
X19100000Y-10746000I-50000J0D01*
G01*
X19100000Y-10746000D02*
G75*
G02*
X19200000Y-10746000I50000J0D01*
G01*
X19200000Y-11000000D02*
G75*
G02*
X19100000Y-11000000I-50000J0D01*
G01*
X19100000Y-11000000D02*
G75*
G02*
X19200000Y-11000000I50000J0D01*
G01*
X19200000Y-11254000D02*
G75*
G02*
X19100000Y-11254000I-50000J0D01*
G01*
X19100000Y-11254000D02*
G75*
G02*
X19200000Y-11254000I50000J0D01*
G01*
X19376500Y-8150000D02*
G75*
G02*
X19276500Y-8150000I-50000J0D01*
G01*
X19276500Y-8150000D02*
G75*
G02*
X19376500Y-8150000I50000J0D01*
G01*
X19550000Y-8765000D02*
G75*
G02*
X19450000Y-8765000I-50000J0D01*
G01*
X19450000Y-8765000D02*
G75*
G02*
X19550000Y-8765000I50000J0D01*
G01*
X19550000Y-9019000D02*
G75*
G02*
X19450000Y-9019000I-50000J0D01*
G01*
X19450000Y-9019000D02*
G75*
G02*
X19550000Y-9019000I50000J0D01*
G01*
X19550000Y-9273000D02*
G75*
G02*
X19450000Y-9273000I-50000J0D01*
G01*
X19450000Y-9273000D02*
G75*
G02*
X19550000Y-9273000I50000J0D01*
G01*
X19550000Y-9527000D02*
G75*
G02*
X19450000Y-9527000I-50000J0D01*
G01*
X19450000Y-9527000D02*
G75*
G02*
X19550000Y-9527000I50000J0D01*
G01*
X19550000Y-9781000D02*
G75*
G02*
X19450000Y-9781000I-50000J0D01*
G01*
X19450000Y-9781000D02*
G75*
G02*
X19550000Y-9781000I50000J0D01*
G01*
X19550000Y-10035000D02*
G75*
G02*
X19450000Y-10035000I-50000J0D01*
G01*
X19450000Y-10035000D02*
G75*
G02*
X19550000Y-10035000I50000J0D01*
G01*
X19800000Y-10746000D02*
G75*
G02*
X19700000Y-10746000I-50000J0D01*
G01*
X19700000Y-10746000D02*
G75*
G02*
X19800000Y-10746000I50000J0D01*
G01*
X19800000Y-11000000D02*
G75*
G02*
X19700000Y-11000000I-50000J0D01*
G01*
X19700000Y-11000000D02*
G75*
G02*
X19800000Y-11000000I50000J0D01*
G01*
X19800000Y-11254000D02*
G75*
G02*
X19700000Y-11254000I-50000J0D01*
G01*
X19700000Y-11254000D02*
G75*
G02*
X19800000Y-11254000I50000J0D01*
G01*
D12*
X11132277Y-14945984D02*
X11132277Y-14745984D01*
X11132277Y-14745984D02*
X11179896Y-14745984D01*
X11179896Y-14745984D02*
X11208467Y-14755508D01*
X11208467Y-14755508D02*
X11227515Y-14774555D01*
X11227515Y-14774555D02*
X11237039Y-14793603D01*
X11237039Y-14793603D02*
X11246562Y-14831698D01*
X11246562Y-14831698D02*
X11246562Y-14860269D01*
X11246562Y-14860269D02*
X11237039Y-14898365D01*
X11237039Y-14898365D02*
X11227515Y-14917412D01*
X11227515Y-14917412D02*
X11208467Y-14936460D01*
X11208467Y-14936460D02*
X11179896Y-14945984D01*
X11179896Y-14945984D02*
X11132277Y-14945984D01*
X11332277Y-14945984D02*
X11332277Y-14812650D01*
X11332277Y-14850746D02*
X11341801Y-14831698D01*
X11341801Y-14831698D02*
X11351324Y-14822174D01*
X11351324Y-14822174D02*
X11370372Y-14812650D01*
X11370372Y-14812650D02*
X11389420Y-14812650D01*
X11456086Y-14945984D02*
X11456086Y-14812650D01*
X11456086Y-14745984D02*
X11446562Y-14755508D01*
X11446562Y-14755508D02*
X11456086Y-14765031D01*
X11456086Y-14765031D02*
X11465610Y-14755508D01*
X11465610Y-14755508D02*
X11456086Y-14745984D01*
X11456086Y-14745984D02*
X11456086Y-14765031D01*
X11579896Y-14945984D02*
X11560848Y-14936460D01*
X11560848Y-14936460D02*
X11551324Y-14917412D01*
X11551324Y-14917412D02*
X11551324Y-14745984D01*
X11684658Y-14945984D02*
X11665610Y-14936460D01*
X11665610Y-14936460D02*
X11656086Y-14917412D01*
X11656086Y-14917412D02*
X11656086Y-14745984D01*
X11913229Y-14945984D02*
X11913229Y-14745984D01*
X11913229Y-14745984D02*
X11979896Y-14888841D01*
X11979896Y-14888841D02*
X12046562Y-14745984D01*
X12046562Y-14745984D02*
X12046562Y-14945984D01*
X12227515Y-14945984D02*
X12227515Y-14841222D01*
X12227515Y-14841222D02*
X12217991Y-14822174D01*
X12217991Y-14822174D02*
X12198943Y-14812650D01*
X12198943Y-14812650D02*
X12160848Y-14812650D01*
X12160848Y-14812650D02*
X12141801Y-14822174D01*
X12227515Y-14936460D02*
X12208467Y-14945984D01*
X12208467Y-14945984D02*
X12160848Y-14945984D01*
X12160848Y-14945984D02*
X12141801Y-14936460D01*
X12141801Y-14936460D02*
X12132277Y-14917412D01*
X12132277Y-14917412D02*
X12132277Y-14898365D01*
X12132277Y-14898365D02*
X12141801Y-14879317D01*
X12141801Y-14879317D02*
X12160848Y-14869793D01*
X12160848Y-14869793D02*
X12208467Y-14869793D01*
X12208467Y-14869793D02*
X12227515Y-14860269D01*
X12322753Y-14812650D02*
X12322753Y-15012650D01*
X12322753Y-14822174D02*
X12341801Y-14812650D01*
X12341801Y-14812650D02*
X12379896Y-14812650D01*
X12379896Y-14812650D02*
X12398943Y-14822174D01*
X12398943Y-14822174D02*
X12408467Y-14831698D01*
X12408467Y-14831698D02*
X12417991Y-14850746D01*
X12417991Y-14850746D02*
X12417991Y-14907888D01*
X12417991Y-14907888D02*
X12408467Y-14926936D01*
X12408467Y-14926936D02*
X12398943Y-14936460D01*
X12398943Y-14936460D02*
X12379896Y-14945984D01*
X12379896Y-14945984D02*
X12341801Y-14945984D01*
X12341801Y-14945984D02*
X12322753Y-14936460D01*
X12503705Y-14926936D02*
X12513229Y-14936460D01*
X12513229Y-14936460D02*
X12503705Y-14945984D01*
X12503705Y-14945984D02*
X12494182Y-14936460D01*
X12494182Y-14936460D02*
X12503705Y-14926936D01*
X12503705Y-14926936D02*
X12503705Y-14945984D01*
X12503705Y-14822174D02*
X12513229Y-14831698D01*
X12513229Y-14831698D02*
X12503705Y-14841222D01*
X12503705Y-14841222D02*
X12494182Y-14831698D01*
X12494182Y-14831698D02*
X12503705Y-14822174D01*
X12503705Y-14822174D02*
X12503705Y-14841222D01*
D11*
X10841500Y-15259500D02*
X10871500Y-15289500D01*
X10871500Y-15259500D02*
X10841500Y-15289500D01*
D12*
X11170372Y-15165984D02*
X11189420Y-15165984D01*
X11189420Y-15165984D02*
X11208467Y-15175508D01*
X11208467Y-15175508D02*
X11217991Y-15185031D01*
X11217991Y-15185031D02*
X11227515Y-15204079D01*
X11227515Y-15204079D02*
X11237039Y-15242174D01*
X11237039Y-15242174D02*
X11237039Y-15289793D01*
X11237039Y-15289793D02*
X11227515Y-15327888D01*
X11227515Y-15327888D02*
X11217991Y-15346936D01*
X11217991Y-15346936D02*
X11208467Y-15356460D01*
X11208467Y-15356460D02*
X11189420Y-15365984D01*
X11189420Y-15365984D02*
X11170372Y-15365984D01*
X11170372Y-15365984D02*
X11151324Y-15356460D01*
X11151324Y-15356460D02*
X11141801Y-15346936D01*
X11141801Y-15346936D02*
X11132277Y-15327888D01*
X11132277Y-15327888D02*
X11122753Y-15289793D01*
X11122753Y-15289793D02*
X11122753Y-15242174D01*
X11122753Y-15242174D02*
X11132277Y-15204079D01*
X11132277Y-15204079D02*
X11141801Y-15185031D01*
X11141801Y-15185031D02*
X11151324Y-15175508D01*
X11151324Y-15175508D02*
X11170372Y-15165984D01*
X11322753Y-15346936D02*
X11332277Y-15356460D01*
X11332277Y-15356460D02*
X11322753Y-15365984D01*
X11322753Y-15365984D02*
X11313229Y-15356460D01*
X11313229Y-15356460D02*
X11322753Y-15346936D01*
X11322753Y-15346936D02*
X11322753Y-15365984D01*
X11398943Y-15165984D02*
X11522753Y-15165984D01*
X11522753Y-15165984D02*
X11456086Y-15242174D01*
X11456086Y-15242174D02*
X11484658Y-15242174D01*
X11484658Y-15242174D02*
X11503705Y-15251698D01*
X11503705Y-15251698D02*
X11513229Y-15261222D01*
X11513229Y-15261222D02*
X11522753Y-15280269D01*
X11522753Y-15280269D02*
X11522753Y-15327888D01*
X11522753Y-15327888D02*
X11513229Y-15346936D01*
X11513229Y-15346936D02*
X11503705Y-15356460D01*
X11503705Y-15356460D02*
X11484658Y-15365984D01*
X11484658Y-15365984D02*
X11427515Y-15365984D01*
X11427515Y-15365984D02*
X11408467Y-15356460D01*
X11408467Y-15356460D02*
X11398943Y-15346936D01*
X11646562Y-15165984D02*
X11665610Y-15165984D01*
X11665610Y-15165984D02*
X11684658Y-15175508D01*
X11684658Y-15175508D02*
X11694182Y-15185031D01*
X11694182Y-15185031D02*
X11703705Y-15204079D01*
X11703705Y-15204079D02*
X11713229Y-15242174D01*
X11713229Y-15242174D02*
X11713229Y-15289793D01*
X11713229Y-15289793D02*
X11703705Y-15327888D01*
X11703705Y-15327888D02*
X11694182Y-15346936D01*
X11694182Y-15346936D02*
X11684658Y-15356460D01*
X11684658Y-15356460D02*
X11665610Y-15365984D01*
X11665610Y-15365984D02*
X11646562Y-15365984D01*
X11646562Y-15365984D02*
X11627515Y-15356460D01*
X11627515Y-15356460D02*
X11617991Y-15346936D01*
X11617991Y-15346936D02*
X11608467Y-15327888D01*
X11608467Y-15327888D02*
X11598943Y-15289793D01*
X11598943Y-15289793D02*
X11598943Y-15242174D01*
X11598943Y-15242174D02*
X11608467Y-15204079D01*
X11608467Y-15204079D02*
X11617991Y-15185031D01*
X11617991Y-15185031D02*
X11627515Y-15175508D01*
X11627515Y-15175508D02*
X11646562Y-15165984D01*
X11837039Y-15165984D02*
X11856086Y-15165984D01*
X11856086Y-15165984D02*
X11875134Y-15175508D01*
X11875134Y-15175508D02*
X11884658Y-15185031D01*
X11884658Y-15185031D02*
X11894182Y-15204079D01*
X11894182Y-15204079D02*
X11903705Y-15242174D01*
X11903705Y-15242174D02*
X11903705Y-15289793D01*
X11903705Y-15289793D02*
X11894182Y-15327888D01*
X11894182Y-15327888D02*
X11884658Y-15346936D01*
X11884658Y-15346936D02*
X11875134Y-15356460D01*
X11875134Y-15356460D02*
X11856086Y-15365984D01*
X11856086Y-15365984D02*
X11837039Y-15365984D01*
X11837039Y-15365984D02*
X11817991Y-15356460D01*
X11817991Y-15356460D02*
X11808467Y-15346936D01*
X11808467Y-15346936D02*
X11798943Y-15327888D01*
X11798943Y-15327888D02*
X11789420Y-15289793D01*
X11789420Y-15289793D02*
X11789420Y-15242174D01*
X11789420Y-15242174D02*
X11798943Y-15204079D01*
X11798943Y-15204079D02*
X11808467Y-15185031D01*
X11808467Y-15185031D02*
X11817991Y-15175508D01*
X11817991Y-15175508D02*
X11837039Y-15165984D01*
X11989420Y-15365984D02*
X11989420Y-15232650D01*
X11989420Y-15251698D02*
X11998943Y-15242174D01*
X11998943Y-15242174D02*
X12017991Y-15232650D01*
X12017991Y-15232650D02*
X12046563Y-15232650D01*
X12046563Y-15232650D02*
X12065610Y-15242174D01*
X12065610Y-15242174D02*
X12075134Y-15261222D01*
X12075134Y-15261222D02*
X12075134Y-15365984D01*
X12075134Y-15261222D02*
X12084658Y-15242174D01*
X12084658Y-15242174D02*
X12103705Y-15232650D01*
X12103705Y-15232650D02*
X12132277Y-15232650D01*
X12132277Y-15232650D02*
X12151324Y-15242174D01*
X12151324Y-15242174D02*
X12160848Y-15261222D01*
X12160848Y-15261222D02*
X12160848Y-15365984D01*
X12256086Y-15365984D02*
X12256086Y-15232650D01*
X12256086Y-15251698D02*
X12265610Y-15242174D01*
X12265610Y-15242174D02*
X12284658Y-15232650D01*
X12284658Y-15232650D02*
X12313229Y-15232650D01*
X12313229Y-15232650D02*
X12332277Y-15242174D01*
X12332277Y-15242174D02*
X12341801Y-15261222D01*
X12341801Y-15261222D02*
X12341801Y-15365984D01*
X12341801Y-15261222D02*
X12351324Y-15242174D01*
X12351324Y-15242174D02*
X12370372Y-15232650D01*
X12370372Y-15232650D02*
X12398943Y-15232650D01*
X12398943Y-15232650D02*
X12417991Y-15242174D01*
X12417991Y-15242174D02*
X12427515Y-15261222D01*
X12427515Y-15261222D02*
X12427515Y-15365984D01*
X12817991Y-15156460D02*
X12646563Y-15413603D01*
X13075134Y-15165984D02*
X13094182Y-15165984D01*
X13094182Y-15165984D02*
X13113229Y-15175508D01*
X13113229Y-15175508D02*
X13122753Y-15185031D01*
X13122753Y-15185031D02*
X13132277Y-15204079D01*
X13132277Y-15204079D02*
X13141801Y-15242174D01*
X13141801Y-15242174D02*
X13141801Y-15289793D01*
X13141801Y-15289793D02*
X13132277Y-15327888D01*
X13132277Y-15327888D02*
X13122753Y-15346936D01*
X13122753Y-15346936D02*
X13113229Y-15356460D01*
X13113229Y-15356460D02*
X13094182Y-15365984D01*
X13094182Y-15365984D02*
X13075134Y-15365984D01*
X13075134Y-15365984D02*
X13056086Y-15356460D01*
X13056086Y-15356460D02*
X13046563Y-15346936D01*
X13046563Y-15346936D02*
X13037039Y-15327888D01*
X13037039Y-15327888D02*
X13027515Y-15289793D01*
X13027515Y-15289793D02*
X13027515Y-15242174D01*
X13027515Y-15242174D02*
X13037039Y-15204079D01*
X13037039Y-15204079D02*
X13046563Y-15185031D01*
X13046563Y-15185031D02*
X13056086Y-15175508D01*
X13056086Y-15175508D02*
X13075134Y-15165984D01*
X13227515Y-15346936D02*
X13237039Y-15356460D01*
X13237039Y-15356460D02*
X13227515Y-15365984D01*
X13227515Y-15365984D02*
X13217991Y-15356460D01*
X13217991Y-15356460D02*
X13227515Y-15346936D01*
X13227515Y-15346936D02*
X13227515Y-15365984D01*
X13360848Y-15165984D02*
X13379896Y-15165984D01*
X13379896Y-15165984D02*
X13398944Y-15175508D01*
X13398944Y-15175508D02*
X13408467Y-15185031D01*
X13408467Y-15185031D02*
X13417991Y-15204079D01*
X13417991Y-15204079D02*
X13427515Y-15242174D01*
X13427515Y-15242174D02*
X13427515Y-15289793D01*
X13427515Y-15289793D02*
X13417991Y-15327888D01*
X13417991Y-15327888D02*
X13408467Y-15346936D01*
X13408467Y-15346936D02*
X13398944Y-15356460D01*
X13398944Y-15356460D02*
X13379896Y-15365984D01*
X13379896Y-15365984D02*
X13360848Y-15365984D01*
X13360848Y-15365984D02*
X13341801Y-15356460D01*
X13341801Y-15356460D02*
X13332277Y-15346936D01*
X13332277Y-15346936D02*
X13322753Y-15327888D01*
X13322753Y-15327888D02*
X13313229Y-15289793D01*
X13313229Y-15289793D02*
X13313229Y-15242174D01*
X13313229Y-15242174D02*
X13322753Y-15204079D01*
X13322753Y-15204079D02*
X13332277Y-15185031D01*
X13332277Y-15185031D02*
X13341801Y-15175508D01*
X13341801Y-15175508D02*
X13360848Y-15165984D01*
X13617991Y-15365984D02*
X13503706Y-15365984D01*
X13560848Y-15365984D02*
X13560848Y-15165984D01*
X13560848Y-15165984D02*
X13541801Y-15194555D01*
X13541801Y-15194555D02*
X13522753Y-15213603D01*
X13522753Y-15213603D02*
X13503706Y-15223127D01*
X13808467Y-15365984D02*
X13694182Y-15365984D01*
X13751325Y-15365984D02*
X13751325Y-15165984D01*
X13751325Y-15165984D02*
X13732277Y-15194555D01*
X13732277Y-15194555D02*
X13713229Y-15213603D01*
X13713229Y-15213603D02*
X13694182Y-15223127D01*
X13922753Y-15251698D02*
X13903706Y-15242174D01*
X13903706Y-15242174D02*
X13894182Y-15232650D01*
X13894182Y-15232650D02*
X13884658Y-15213603D01*
X13884658Y-15213603D02*
X13884658Y-15204079D01*
X13884658Y-15204079D02*
X13894182Y-15185031D01*
X13894182Y-15185031D02*
X13903706Y-15175508D01*
X13903706Y-15175508D02*
X13922753Y-15165984D01*
X13922753Y-15165984D02*
X13960848Y-15165984D01*
X13960848Y-15165984D02*
X13979896Y-15175508D01*
X13979896Y-15175508D02*
X13989420Y-15185031D01*
X13989420Y-15185031D02*
X13998944Y-15204079D01*
X13998944Y-15204079D02*
X13998944Y-15213603D01*
X13998944Y-15213603D02*
X13989420Y-15232650D01*
X13989420Y-15232650D02*
X13979896Y-15242174D01*
X13979896Y-15242174D02*
X13960848Y-15251698D01*
X13960848Y-15251698D02*
X13922753Y-15251698D01*
X13922753Y-15251698D02*
X13903706Y-15261222D01*
X13903706Y-15261222D02*
X13894182Y-15270746D01*
X13894182Y-15270746D02*
X13884658Y-15289793D01*
X13884658Y-15289793D02*
X13884658Y-15327888D01*
X13884658Y-15327888D02*
X13894182Y-15346936D01*
X13894182Y-15346936D02*
X13903706Y-15356460D01*
X13903706Y-15356460D02*
X13922753Y-15365984D01*
X13922753Y-15365984D02*
X13960848Y-15365984D01*
X13960848Y-15365984D02*
X13979896Y-15356460D01*
X13979896Y-15356460D02*
X13989420Y-15346936D01*
X13989420Y-15346936D02*
X13998944Y-15327888D01*
X13998944Y-15327888D02*
X13998944Y-15289793D01*
X13998944Y-15289793D02*
X13989420Y-15270746D01*
X13989420Y-15270746D02*
X13979896Y-15261222D01*
X13979896Y-15261222D02*
X13960848Y-15251698D01*
X14075134Y-15165984D02*
X14075134Y-15204079D01*
X14151325Y-15165984D02*
X14151325Y-15204079D01*
X14446563Y-15442174D02*
X14437039Y-15432650D01*
X14437039Y-15432650D02*
X14417991Y-15404079D01*
X14417991Y-15404079D02*
X14408468Y-15385031D01*
X14408468Y-15385031D02*
X14398944Y-15356460D01*
X14398944Y-15356460D02*
X14389420Y-15308841D01*
X14389420Y-15308841D02*
X14389420Y-15270746D01*
X14389420Y-15270746D02*
X14398944Y-15223127D01*
X14398944Y-15223127D02*
X14408468Y-15194555D01*
X14408468Y-15194555D02*
X14417991Y-15175508D01*
X14417991Y-15175508D02*
X14437039Y-15146936D01*
X14437039Y-15146936D02*
X14446563Y-15137412D01*
X14560848Y-15165984D02*
X14579896Y-15165984D01*
X14579896Y-15165984D02*
X14598944Y-15175508D01*
X14598944Y-15175508D02*
X14608468Y-15185031D01*
X14608468Y-15185031D02*
X14617991Y-15204079D01*
X14617991Y-15204079D02*
X14627515Y-15242174D01*
X14627515Y-15242174D02*
X14627515Y-15289793D01*
X14627515Y-15289793D02*
X14617991Y-15327888D01*
X14617991Y-15327888D02*
X14608468Y-15346936D01*
X14608468Y-15346936D02*
X14598944Y-15356460D01*
X14598944Y-15356460D02*
X14579896Y-15365984D01*
X14579896Y-15365984D02*
X14560848Y-15365984D01*
X14560848Y-15365984D02*
X14541801Y-15356460D01*
X14541801Y-15356460D02*
X14532277Y-15346936D01*
X14532277Y-15346936D02*
X14522753Y-15327888D01*
X14522753Y-15327888D02*
X14513229Y-15289793D01*
X14513229Y-15289793D02*
X14513229Y-15242174D01*
X14513229Y-15242174D02*
X14522753Y-15204079D01*
X14522753Y-15204079D02*
X14532277Y-15185031D01*
X14532277Y-15185031D02*
X14541801Y-15175508D01*
X14541801Y-15175508D02*
X14560848Y-15165984D01*
X14865610Y-15365984D02*
X14865610Y-15165984D01*
X14951325Y-15365984D02*
X14951325Y-15261222D01*
X14951325Y-15261222D02*
X14941801Y-15242174D01*
X14941801Y-15242174D02*
X14922753Y-15232650D01*
X14922753Y-15232650D02*
X14894182Y-15232650D01*
X14894182Y-15232650D02*
X14875134Y-15242174D01*
X14875134Y-15242174D02*
X14865610Y-15251698D01*
X15075134Y-15365984D02*
X15056087Y-15356460D01*
X15056087Y-15356460D02*
X15046563Y-15346936D01*
X15046563Y-15346936D02*
X15037039Y-15327888D01*
X15037039Y-15327888D02*
X15037039Y-15270746D01*
X15037039Y-15270746D02*
X15046563Y-15251698D01*
X15046563Y-15251698D02*
X15056087Y-15242174D01*
X15056087Y-15242174D02*
X15075134Y-15232650D01*
X15075134Y-15232650D02*
X15103706Y-15232650D01*
X15103706Y-15232650D02*
X15122753Y-15242174D01*
X15122753Y-15242174D02*
X15132277Y-15251698D01*
X15132277Y-15251698D02*
X15141801Y-15270746D01*
X15141801Y-15270746D02*
X15141801Y-15327888D01*
X15141801Y-15327888D02*
X15132277Y-15346936D01*
X15132277Y-15346936D02*
X15122753Y-15356460D01*
X15122753Y-15356460D02*
X15103706Y-15365984D01*
X15103706Y-15365984D02*
X15075134Y-15365984D01*
X15256087Y-15365984D02*
X15237039Y-15356460D01*
X15237039Y-15356460D02*
X15227515Y-15337412D01*
X15227515Y-15337412D02*
X15227515Y-15165984D01*
X15408468Y-15356460D02*
X15389420Y-15365984D01*
X15389420Y-15365984D02*
X15351325Y-15365984D01*
X15351325Y-15365984D02*
X15332277Y-15356460D01*
X15332277Y-15356460D02*
X15322753Y-15337412D01*
X15322753Y-15337412D02*
X15322753Y-15261222D01*
X15322753Y-15261222D02*
X15332277Y-15242174D01*
X15332277Y-15242174D02*
X15351325Y-15232650D01*
X15351325Y-15232650D02*
X15389420Y-15232650D01*
X15389420Y-15232650D02*
X15408468Y-15242174D01*
X15408468Y-15242174D02*
X15417991Y-15261222D01*
X15417991Y-15261222D02*
X15417991Y-15280269D01*
X15417991Y-15280269D02*
X15322753Y-15299317D01*
X15494182Y-15356460D02*
X15513230Y-15365984D01*
X15513230Y-15365984D02*
X15551325Y-15365984D01*
X15551325Y-15365984D02*
X15570372Y-15356460D01*
X15570372Y-15356460D02*
X15579896Y-15337412D01*
X15579896Y-15337412D02*
X15579896Y-15327888D01*
X15579896Y-15327888D02*
X15570372Y-15308841D01*
X15570372Y-15308841D02*
X15551325Y-15299317D01*
X15551325Y-15299317D02*
X15522753Y-15299317D01*
X15522753Y-15299317D02*
X15503706Y-15289793D01*
X15503706Y-15289793D02*
X15494182Y-15270746D01*
X15494182Y-15270746D02*
X15494182Y-15261222D01*
X15494182Y-15261222D02*
X15503706Y-15242174D01*
X15503706Y-15242174D02*
X15522753Y-15232650D01*
X15522753Y-15232650D02*
X15551325Y-15232650D01*
X15551325Y-15232650D02*
X15570372Y-15242174D01*
X15817992Y-15289793D02*
X15970373Y-15289793D01*
X15894182Y-15365984D02*
X15894182Y-15213603D01*
X16303706Y-15232650D02*
X16303706Y-15365984D01*
X16256087Y-15156460D02*
X16208468Y-15299317D01*
X16208468Y-15299317D02*
X16332277Y-15299317D01*
X16551325Y-15356460D02*
X16570373Y-15365984D01*
X16570373Y-15365984D02*
X16608468Y-15365984D01*
X16608468Y-15365984D02*
X16627515Y-15356460D01*
X16627515Y-15356460D02*
X16637039Y-15337412D01*
X16637039Y-15337412D02*
X16637039Y-15327888D01*
X16637039Y-15327888D02*
X16627515Y-15308841D01*
X16627515Y-15308841D02*
X16608468Y-15299317D01*
X16608468Y-15299317D02*
X16579896Y-15299317D01*
X16579896Y-15299317D02*
X16560849Y-15289793D01*
X16560849Y-15289793D02*
X16551325Y-15270746D01*
X16551325Y-15270746D02*
X16551325Y-15261222D01*
X16551325Y-15261222D02*
X16560849Y-15242174D01*
X16560849Y-15242174D02*
X16579896Y-15232650D01*
X16579896Y-15232650D02*
X16608468Y-15232650D01*
X16608468Y-15232650D02*
X16627515Y-15242174D01*
X16751325Y-15365984D02*
X16732277Y-15356460D01*
X16732277Y-15356460D02*
X16722754Y-15337412D01*
X16722754Y-15337412D02*
X16722754Y-15165984D01*
X16856087Y-15365984D02*
X16837039Y-15356460D01*
X16837039Y-15356460D02*
X16827516Y-15346936D01*
X16827516Y-15346936D02*
X16817992Y-15327888D01*
X16817992Y-15327888D02*
X16817992Y-15270746D01*
X16817992Y-15270746D02*
X16827516Y-15251698D01*
X16827516Y-15251698D02*
X16837039Y-15242174D01*
X16837039Y-15242174D02*
X16856087Y-15232650D01*
X16856087Y-15232650D02*
X16884658Y-15232650D01*
X16884658Y-15232650D02*
X16903706Y-15242174D01*
X16903706Y-15242174D02*
X16913230Y-15251698D01*
X16913230Y-15251698D02*
X16922754Y-15270746D01*
X16922754Y-15270746D02*
X16922754Y-15327888D01*
X16922754Y-15327888D02*
X16913230Y-15346936D01*
X16913230Y-15346936D02*
X16903706Y-15356460D01*
X16903706Y-15356460D02*
X16884658Y-15365984D01*
X16884658Y-15365984D02*
X16856087Y-15365984D01*
X16979897Y-15232650D02*
X17056087Y-15232650D01*
X17008468Y-15165984D02*
X17008468Y-15337412D01*
X17008468Y-15337412D02*
X17017992Y-15356460D01*
X17017992Y-15356460D02*
X17037039Y-15365984D01*
X17037039Y-15365984D02*
X17056087Y-15365984D01*
X17113230Y-15356460D02*
X17132277Y-15365984D01*
X17132277Y-15365984D02*
X17170373Y-15365984D01*
X17170373Y-15365984D02*
X17189420Y-15356460D01*
X17189420Y-15356460D02*
X17198944Y-15337412D01*
X17198944Y-15337412D02*
X17198944Y-15327888D01*
X17198944Y-15327888D02*
X17189420Y-15308841D01*
X17189420Y-15308841D02*
X17170373Y-15299317D01*
X17170373Y-15299317D02*
X17141801Y-15299317D01*
X17141801Y-15299317D02*
X17122754Y-15289793D01*
X17122754Y-15289793D02*
X17113230Y-15270746D01*
X17113230Y-15270746D02*
X17113230Y-15261222D01*
X17113230Y-15261222D02*
X17122754Y-15242174D01*
X17122754Y-15242174D02*
X17141801Y-15232650D01*
X17141801Y-15232650D02*
X17170373Y-15232650D01*
X17170373Y-15232650D02*
X17189420Y-15242174D01*
X17265611Y-15442174D02*
X17275135Y-15432650D01*
X17275135Y-15432650D02*
X17294182Y-15404079D01*
X17294182Y-15404079D02*
X17303706Y-15385031D01*
X17303706Y-15385031D02*
X17313230Y-15356460D01*
X17313230Y-15356460D02*
X17322754Y-15308841D01*
X17322754Y-15308841D02*
X17322754Y-15270746D01*
X17322754Y-15270746D02*
X17313230Y-15223127D01*
X17313230Y-15223127D02*
X17303706Y-15194555D01*
X17303706Y-15194555D02*
X17294182Y-15175508D01*
X17294182Y-15175508D02*
X17275135Y-15146936D01*
X17275135Y-15146936D02*
X17265611Y-15137412D01*
D11*
X10871500Y-15538500D02*
G75*
G02*
X10771500Y-15538500I-50000J0D01*
G01*
X10771500Y-15538500D02*
G75*
G02*
X10871500Y-15538500I50000J0D01*
G01*
D12*
X11237039Y-15629984D02*
X11122753Y-15629984D01*
X11179896Y-15629984D02*
X11179896Y-15429984D01*
X11179896Y-15429984D02*
X11160848Y-15458555D01*
X11160848Y-15458555D02*
X11141801Y-15477603D01*
X11141801Y-15477603D02*
X11122753Y-15487127D01*
X11322753Y-15610936D02*
X11332277Y-15620460D01*
X11332277Y-15620460D02*
X11322753Y-15629984D01*
X11322753Y-15629984D02*
X11313229Y-15620460D01*
X11313229Y-15620460D02*
X11322753Y-15610936D01*
X11322753Y-15610936D02*
X11322753Y-15629984D01*
X11456086Y-15429984D02*
X11475134Y-15429984D01*
X11475134Y-15429984D02*
X11494182Y-15439508D01*
X11494182Y-15439508D02*
X11503705Y-15449031D01*
X11503705Y-15449031D02*
X11513229Y-15468079D01*
X11513229Y-15468079D02*
X11522753Y-15506174D01*
X11522753Y-15506174D02*
X11522753Y-15553793D01*
X11522753Y-15553793D02*
X11513229Y-15591888D01*
X11513229Y-15591888D02*
X11503705Y-15610936D01*
X11503705Y-15610936D02*
X11494182Y-15620460D01*
X11494182Y-15620460D02*
X11475134Y-15629984D01*
X11475134Y-15629984D02*
X11456086Y-15629984D01*
X11456086Y-15629984D02*
X11437039Y-15620460D01*
X11437039Y-15620460D02*
X11427515Y-15610936D01*
X11427515Y-15610936D02*
X11417991Y-15591888D01*
X11417991Y-15591888D02*
X11408467Y-15553793D01*
X11408467Y-15553793D02*
X11408467Y-15506174D01*
X11408467Y-15506174D02*
X11417991Y-15468079D01*
X11417991Y-15468079D02*
X11427515Y-15449031D01*
X11427515Y-15449031D02*
X11437039Y-15439508D01*
X11437039Y-15439508D02*
X11456086Y-15429984D01*
X11646562Y-15429984D02*
X11665610Y-15429984D01*
X11665610Y-15429984D02*
X11684658Y-15439508D01*
X11684658Y-15439508D02*
X11694182Y-15449031D01*
X11694182Y-15449031D02*
X11703705Y-15468079D01*
X11703705Y-15468079D02*
X11713229Y-15506174D01*
X11713229Y-15506174D02*
X11713229Y-15553793D01*
X11713229Y-15553793D02*
X11703705Y-15591888D01*
X11703705Y-15591888D02*
X11694182Y-15610936D01*
X11694182Y-15610936D02*
X11684658Y-15620460D01*
X11684658Y-15620460D02*
X11665610Y-15629984D01*
X11665610Y-15629984D02*
X11646562Y-15629984D01*
X11646562Y-15629984D02*
X11627515Y-15620460D01*
X11627515Y-15620460D02*
X11617991Y-15610936D01*
X11617991Y-15610936D02*
X11608467Y-15591888D01*
X11608467Y-15591888D02*
X11598943Y-15553793D01*
X11598943Y-15553793D02*
X11598943Y-15506174D01*
X11598943Y-15506174D02*
X11608467Y-15468079D01*
X11608467Y-15468079D02*
X11617991Y-15449031D01*
X11617991Y-15449031D02*
X11627515Y-15439508D01*
X11627515Y-15439508D02*
X11646562Y-15429984D01*
X11837039Y-15429984D02*
X11856086Y-15429984D01*
X11856086Y-15429984D02*
X11875134Y-15439508D01*
X11875134Y-15439508D02*
X11884658Y-15449031D01*
X11884658Y-15449031D02*
X11894182Y-15468079D01*
X11894182Y-15468079D02*
X11903705Y-15506174D01*
X11903705Y-15506174D02*
X11903705Y-15553793D01*
X11903705Y-15553793D02*
X11894182Y-15591888D01*
X11894182Y-15591888D02*
X11884658Y-15610936D01*
X11884658Y-15610936D02*
X11875134Y-15620460D01*
X11875134Y-15620460D02*
X11856086Y-15629984D01*
X11856086Y-15629984D02*
X11837039Y-15629984D01*
X11837039Y-15629984D02*
X11817991Y-15620460D01*
X11817991Y-15620460D02*
X11808467Y-15610936D01*
X11808467Y-15610936D02*
X11798943Y-15591888D01*
X11798943Y-15591888D02*
X11789420Y-15553793D01*
X11789420Y-15553793D02*
X11789420Y-15506174D01*
X11789420Y-15506174D02*
X11798943Y-15468079D01*
X11798943Y-15468079D02*
X11808467Y-15449031D01*
X11808467Y-15449031D02*
X11817991Y-15439508D01*
X11817991Y-15439508D02*
X11837039Y-15429984D01*
X11989420Y-15629984D02*
X11989420Y-15496650D01*
X11989420Y-15515698D02*
X11998943Y-15506174D01*
X11998943Y-15506174D02*
X12017991Y-15496650D01*
X12017991Y-15496650D02*
X12046563Y-15496650D01*
X12046563Y-15496650D02*
X12065610Y-15506174D01*
X12065610Y-15506174D02*
X12075134Y-15525222D01*
X12075134Y-15525222D02*
X12075134Y-15629984D01*
X12075134Y-15525222D02*
X12084658Y-15506174D01*
X12084658Y-15506174D02*
X12103705Y-15496650D01*
X12103705Y-15496650D02*
X12132277Y-15496650D01*
X12132277Y-15496650D02*
X12151324Y-15506174D01*
X12151324Y-15506174D02*
X12160848Y-15525222D01*
X12160848Y-15525222D02*
X12160848Y-15629984D01*
X12256086Y-15629984D02*
X12256086Y-15496650D01*
X12256086Y-15515698D02*
X12265610Y-15506174D01*
X12265610Y-15506174D02*
X12284658Y-15496650D01*
X12284658Y-15496650D02*
X12313229Y-15496650D01*
X12313229Y-15496650D02*
X12332277Y-15506174D01*
X12332277Y-15506174D02*
X12341801Y-15525222D01*
X12341801Y-15525222D02*
X12341801Y-15629984D01*
X12341801Y-15525222D02*
X12351324Y-15506174D01*
X12351324Y-15506174D02*
X12370372Y-15496650D01*
X12370372Y-15496650D02*
X12398943Y-15496650D01*
X12398943Y-15496650D02*
X12417991Y-15506174D01*
X12417991Y-15506174D02*
X12427515Y-15525222D01*
X12427515Y-15525222D02*
X12427515Y-15629984D01*
X12817991Y-15420460D02*
X12646563Y-15677603D01*
X13075134Y-15429984D02*
X13094182Y-15429984D01*
X13094182Y-15429984D02*
X13113229Y-15439508D01*
X13113229Y-15439508D02*
X13122753Y-15449031D01*
X13122753Y-15449031D02*
X13132277Y-15468079D01*
X13132277Y-15468079D02*
X13141801Y-15506174D01*
X13141801Y-15506174D02*
X13141801Y-15553793D01*
X13141801Y-15553793D02*
X13132277Y-15591888D01*
X13132277Y-15591888D02*
X13122753Y-15610936D01*
X13122753Y-15610936D02*
X13113229Y-15620460D01*
X13113229Y-15620460D02*
X13094182Y-15629984D01*
X13094182Y-15629984D02*
X13075134Y-15629984D01*
X13075134Y-15629984D02*
X13056086Y-15620460D01*
X13056086Y-15620460D02*
X13046563Y-15610936D01*
X13046563Y-15610936D02*
X13037039Y-15591888D01*
X13037039Y-15591888D02*
X13027515Y-15553793D01*
X13027515Y-15553793D02*
X13027515Y-15506174D01*
X13027515Y-15506174D02*
X13037039Y-15468079D01*
X13037039Y-15468079D02*
X13046563Y-15449031D01*
X13046563Y-15449031D02*
X13056086Y-15439508D01*
X13056086Y-15439508D02*
X13075134Y-15429984D01*
X13227515Y-15610936D02*
X13237039Y-15620460D01*
X13237039Y-15620460D02*
X13227515Y-15629984D01*
X13227515Y-15629984D02*
X13217991Y-15620460D01*
X13217991Y-15620460D02*
X13227515Y-15610936D01*
X13227515Y-15610936D02*
X13227515Y-15629984D01*
X13360848Y-15429984D02*
X13379896Y-15429984D01*
X13379896Y-15429984D02*
X13398944Y-15439508D01*
X13398944Y-15439508D02*
X13408467Y-15449031D01*
X13408467Y-15449031D02*
X13417991Y-15468079D01*
X13417991Y-15468079D02*
X13427515Y-15506174D01*
X13427515Y-15506174D02*
X13427515Y-15553793D01*
X13427515Y-15553793D02*
X13417991Y-15591888D01*
X13417991Y-15591888D02*
X13408467Y-15610936D01*
X13408467Y-15610936D02*
X13398944Y-15620460D01*
X13398944Y-15620460D02*
X13379896Y-15629984D01*
X13379896Y-15629984D02*
X13360848Y-15629984D01*
X13360848Y-15629984D02*
X13341801Y-15620460D01*
X13341801Y-15620460D02*
X13332277Y-15610936D01*
X13332277Y-15610936D02*
X13322753Y-15591888D01*
X13322753Y-15591888D02*
X13313229Y-15553793D01*
X13313229Y-15553793D02*
X13313229Y-15506174D01*
X13313229Y-15506174D02*
X13322753Y-15468079D01*
X13322753Y-15468079D02*
X13332277Y-15449031D01*
X13332277Y-15449031D02*
X13341801Y-15439508D01*
X13341801Y-15439508D02*
X13360848Y-15429984D01*
X13494182Y-15429984D02*
X13617991Y-15429984D01*
X13617991Y-15429984D02*
X13551325Y-15506174D01*
X13551325Y-15506174D02*
X13579896Y-15506174D01*
X13579896Y-15506174D02*
X13598944Y-15515698D01*
X13598944Y-15515698D02*
X13608467Y-15525222D01*
X13608467Y-15525222D02*
X13617991Y-15544269D01*
X13617991Y-15544269D02*
X13617991Y-15591888D01*
X13617991Y-15591888D02*
X13608467Y-15610936D01*
X13608467Y-15610936D02*
X13598944Y-15620460D01*
X13598944Y-15620460D02*
X13579896Y-15629984D01*
X13579896Y-15629984D02*
X13522753Y-15629984D01*
X13522753Y-15629984D02*
X13503706Y-15620460D01*
X13503706Y-15620460D02*
X13494182Y-15610936D01*
X13713229Y-15629984D02*
X13751325Y-15629984D01*
X13751325Y-15629984D02*
X13770372Y-15620460D01*
X13770372Y-15620460D02*
X13779896Y-15610936D01*
X13779896Y-15610936D02*
X13798944Y-15582365D01*
X13798944Y-15582365D02*
X13808467Y-15544269D01*
X13808467Y-15544269D02*
X13808467Y-15468079D01*
X13808467Y-15468079D02*
X13798944Y-15449031D01*
X13798944Y-15449031D02*
X13789420Y-15439508D01*
X13789420Y-15439508D02*
X13770372Y-15429984D01*
X13770372Y-15429984D02*
X13732277Y-15429984D01*
X13732277Y-15429984D02*
X13713229Y-15439508D01*
X13713229Y-15439508D02*
X13703706Y-15449031D01*
X13703706Y-15449031D02*
X13694182Y-15468079D01*
X13694182Y-15468079D02*
X13694182Y-15515698D01*
X13694182Y-15515698D02*
X13703706Y-15534746D01*
X13703706Y-15534746D02*
X13713229Y-15544269D01*
X13713229Y-15544269D02*
X13732277Y-15553793D01*
X13732277Y-15553793D02*
X13770372Y-15553793D01*
X13770372Y-15553793D02*
X13789420Y-15544269D01*
X13789420Y-15544269D02*
X13798944Y-15534746D01*
X13798944Y-15534746D02*
X13808467Y-15515698D01*
X13979896Y-15496650D02*
X13979896Y-15629984D01*
X13932277Y-15420460D02*
X13884658Y-15563317D01*
X13884658Y-15563317D02*
X14008467Y-15563317D01*
X14075134Y-15429984D02*
X14075134Y-15468079D01*
X14151325Y-15429984D02*
X14151325Y-15468079D01*
X14446563Y-15706174D02*
X14437039Y-15696650D01*
X14437039Y-15696650D02*
X14417991Y-15668079D01*
X14417991Y-15668079D02*
X14408468Y-15649031D01*
X14408468Y-15649031D02*
X14398944Y-15620460D01*
X14398944Y-15620460D02*
X14389420Y-15572841D01*
X14389420Y-15572841D02*
X14389420Y-15534746D01*
X14389420Y-15534746D02*
X14398944Y-15487127D01*
X14398944Y-15487127D02*
X14408468Y-15458555D01*
X14408468Y-15458555D02*
X14417991Y-15439508D01*
X14417991Y-15439508D02*
X14437039Y-15410936D01*
X14437039Y-15410936D02*
X14446563Y-15401412D01*
X14608468Y-15496650D02*
X14608468Y-15629984D01*
X14560848Y-15420460D02*
X14513229Y-15563317D01*
X14513229Y-15563317D02*
X14637039Y-15563317D01*
X14798944Y-15429984D02*
X14760848Y-15429984D01*
X14760848Y-15429984D02*
X14741801Y-15439508D01*
X14741801Y-15439508D02*
X14732277Y-15449031D01*
X14732277Y-15449031D02*
X14713229Y-15477603D01*
X14713229Y-15477603D02*
X14703706Y-15515698D01*
X14703706Y-15515698D02*
X14703706Y-15591888D01*
X14703706Y-15591888D02*
X14713229Y-15610936D01*
X14713229Y-15610936D02*
X14722753Y-15620460D01*
X14722753Y-15620460D02*
X14741801Y-15629984D01*
X14741801Y-15629984D02*
X14779896Y-15629984D01*
X14779896Y-15629984D02*
X14798944Y-15620460D01*
X14798944Y-15620460D02*
X14808468Y-15610936D01*
X14808468Y-15610936D02*
X14817991Y-15591888D01*
X14817991Y-15591888D02*
X14817991Y-15544269D01*
X14817991Y-15544269D02*
X14808468Y-15525222D01*
X14808468Y-15525222D02*
X14798944Y-15515698D01*
X14798944Y-15515698D02*
X14779896Y-15506174D01*
X14779896Y-15506174D02*
X14741801Y-15506174D01*
X14741801Y-15506174D02*
X14722753Y-15515698D01*
X14722753Y-15515698D02*
X14713229Y-15525222D01*
X14713229Y-15525222D02*
X14703706Y-15544269D01*
X15056087Y-15629984D02*
X15056087Y-15429984D01*
X15141801Y-15629984D02*
X15141801Y-15525222D01*
X15141801Y-15525222D02*
X15132277Y-15506174D01*
X15132277Y-15506174D02*
X15113230Y-15496650D01*
X15113230Y-15496650D02*
X15084658Y-15496650D01*
X15084658Y-15496650D02*
X15065610Y-15506174D01*
X15065610Y-15506174D02*
X15056087Y-15515698D01*
X15265610Y-15629984D02*
X15246563Y-15620460D01*
X15246563Y-15620460D02*
X15237039Y-15610936D01*
X15237039Y-15610936D02*
X15227515Y-15591888D01*
X15227515Y-15591888D02*
X15227515Y-15534746D01*
X15227515Y-15534746D02*
X15237039Y-15515698D01*
X15237039Y-15515698D02*
X15246563Y-15506174D01*
X15246563Y-15506174D02*
X15265610Y-15496650D01*
X15265610Y-15496650D02*
X15294182Y-15496650D01*
X15294182Y-15496650D02*
X15313230Y-15506174D01*
X15313230Y-15506174D02*
X15322753Y-15515698D01*
X15322753Y-15515698D02*
X15332277Y-15534746D01*
X15332277Y-15534746D02*
X15332277Y-15591888D01*
X15332277Y-15591888D02*
X15322753Y-15610936D01*
X15322753Y-15610936D02*
X15313230Y-15620460D01*
X15313230Y-15620460D02*
X15294182Y-15629984D01*
X15294182Y-15629984D02*
X15265610Y-15629984D01*
X15446563Y-15629984D02*
X15427515Y-15620460D01*
X15427515Y-15620460D02*
X15417991Y-15601412D01*
X15417991Y-15601412D02*
X15417991Y-15429984D01*
X15598944Y-15620460D02*
X15579896Y-15629984D01*
X15579896Y-15629984D02*
X15541801Y-15629984D01*
X15541801Y-15629984D02*
X15522753Y-15620460D01*
X15522753Y-15620460D02*
X15513230Y-15601412D01*
X15513230Y-15601412D02*
X15513230Y-15525222D01*
X15513230Y-15525222D02*
X15522753Y-15506174D01*
X15522753Y-15506174D02*
X15541801Y-15496650D01*
X15541801Y-15496650D02*
X15579896Y-15496650D01*
X15579896Y-15496650D02*
X15598944Y-15506174D01*
X15598944Y-15506174D02*
X15608468Y-15525222D01*
X15608468Y-15525222D02*
X15608468Y-15544269D01*
X15608468Y-15544269D02*
X15513230Y-15563317D01*
X15684658Y-15620460D02*
X15703706Y-15629984D01*
X15703706Y-15629984D02*
X15741801Y-15629984D01*
X15741801Y-15629984D02*
X15760849Y-15620460D01*
X15760849Y-15620460D02*
X15770372Y-15601412D01*
X15770372Y-15601412D02*
X15770372Y-15591888D01*
X15770372Y-15591888D02*
X15760849Y-15572841D01*
X15760849Y-15572841D02*
X15741801Y-15563317D01*
X15741801Y-15563317D02*
X15713230Y-15563317D01*
X15713230Y-15563317D02*
X15694182Y-15553793D01*
X15694182Y-15553793D02*
X15684658Y-15534746D01*
X15684658Y-15534746D02*
X15684658Y-15525222D01*
X15684658Y-15525222D02*
X15694182Y-15506174D01*
X15694182Y-15506174D02*
X15713230Y-15496650D01*
X15713230Y-15496650D02*
X15741801Y-15496650D01*
X15741801Y-15496650D02*
X15760849Y-15506174D01*
X15837039Y-15706174D02*
X15846563Y-15696650D01*
X15846563Y-15696650D02*
X15865611Y-15668079D01*
X15865611Y-15668079D02*
X15875134Y-15649031D01*
X15875134Y-15649031D02*
X15884658Y-15620460D01*
X15884658Y-15620460D02*
X15894182Y-15572841D01*
X15894182Y-15572841D02*
X15894182Y-15534746D01*
X15894182Y-15534746D02*
X15884658Y-15487127D01*
X15884658Y-15487127D02*
X15875134Y-15458555D01*
X15875134Y-15458555D02*
X15865611Y-15439508D01*
X15865611Y-15439508D02*
X15846563Y-15410936D01*
X15846563Y-15410936D02*
X15837039Y-15401412D01*
M02*
