M48
; DRILL file {KiCad 8.0.1} date 2024-06-07T18:58:05+0200
; FORMAT={-:-/ absolute / inch / decimal}
; #@! TF.CreationDate,2024-06-07T18:58:05+02:00
; #@! TF.GenerationSoftware,Kicad,Pcbnew,8.0.1
; #@! TF.FileFunction,Plated,1,2,PTH
FMAT,2
INCH
; #@! TA.AperFunction,Plated,PTH,ComponentDrill
T1C0.0197
; #@! TA.AperFunction,Plated,PTH,ComponentDrill
T2C0.0394
%
G90
G05
T1
X4.5669Y-3.3988
X4.5669Y-3.4382
X4.5669Y-3.4776
X4.5669Y-3.5169
X4.5669Y-3.5563
X7.0669Y-3.3071
X7.1063Y-2.8543
X7.1063Y-2.8937
X7.1063Y-3.1496
X7.1063Y-3.3071
X7.1457Y-3.1496
X7.1457Y-3.3071
X7.185Y-3.1496
X7.185Y-3.3071
X7.2244Y-3.3071
X7.2638Y-3.3071
X7.5787Y-3.937
X7.5787Y-3.9764
X7.5787Y-4.0157
X7.7362Y-3.937
X7.7362Y-3.9764
X7.7362Y-4.0157
T2
X4.4728Y-3.8185
X4.5728Y-3.8185
X4.6728Y-3.8185
X4.7728Y-3.8185
X4.8697Y-4.4945
X4.8728Y-3.8185
X4.9697Y-4.4945
X4.9728Y-3.8185
X5.0697Y-4.4945
X5.0728Y-3.8185
X5.1697Y-4.4945
X5.1728Y-3.8185
X6.7228Y-3.6
X6.7228Y-3.7
X6.7228Y-3.8
X6.7228Y-3.9
X6.7228Y-4.0
X6.7228Y-4.1
X6.7228Y-4.2
X6.7228Y-4.3
X6.7228Y-4.4
X6.7228Y-4.5
X6.7228Y-4.6
X6.7228Y-4.7
X6.7228Y-4.8
X6.7228Y-4.9
X6.7228Y-5.0
X7.3228Y-3.6
X7.3228Y-3.7
X7.3228Y-3.8
X7.3228Y-3.9
X7.3228Y-4.0
X7.3228Y-4.1
X7.3228Y-4.2
X7.3228Y-4.3
X7.3228Y-4.4
X7.3228Y-4.5
X7.3228Y-4.6
X7.3228Y-4.7
X7.3228Y-4.8
X7.3228Y-4.9
X7.3228Y-5.0
M30
