%TF.GenerationSoftware,KiCad,Pcbnew,8.0.1*%
%TF.CreationDate,2024-06-11T18:43:04+02:00*%
%TF.ProjectId,PCB_Plaque_Haute,5043425f-506c-4617-9175-655f48617574,C.Roche*%
%TF.SameCoordinates,Original*%
%TF.FileFunction,Soldermask,Top*%
%TF.FilePolarity,Negative*%
%FSLAX46Y46*%
G04 Gerber Fmt 4.6, Leading zero omitted, Abs format (unit mm)*
G04 Created by KiCad (PCBNEW 8.0.1) date 2024-06-11 18:43:04*
%MOMM*%
%LPD*%
G01*
G04 APERTURE LIST*
%ADD10R,1.700000X1.700000*%
%ADD11O,1.700000X1.700000*%
%ADD12O,1.000000X1.700000*%
%ADD13R,1.600000X1.600000*%
%ADD14O,1.600000X1.600000*%
G04 APERTURE END LIST*
D10*
%TO.C,Inter_Input1*%
X195000000Y-87650000D03*
D11*
X195000000Y-90190000D03*
X195000000Y-92730000D03*
X195000000Y-95270000D03*
X195000000Y-97810000D03*
X195000000Y-100350000D03*
%TD*%
D12*
%TO.C,Octocoupleur1*%
X170000000Y-72960000D03*
X170000000Y-75500000D03*
X170000000Y-78040000D03*
X178000000Y-72960000D03*
X178000000Y-75500000D03*
X178000000Y-78040000D03*
%TD*%
D10*
%TO.C,Inter_Cap_Vol1*%
X185000000Y-79225000D03*
D11*
X185000000Y-81765000D03*
%TD*%
D10*
%TO.C,Servomoteur2*%
X197500000Y-107460000D03*
D11*
X197500000Y-110000000D03*
X197500000Y-112540000D03*
%TD*%
D10*
%TO.C,Servomoteur1*%
X191500000Y-107460000D03*
D11*
X191500000Y-110000000D03*
X191500000Y-112540000D03*
%TD*%
D10*
%TO.C,Bloc_pile1*%
X190725000Y-81500000D03*
D11*
X193265000Y-81500000D03*
%TD*%
D13*
%TO.C,Arduino_Nano1*%
X170760000Y-91440000D03*
D14*
X170760000Y-93980000D03*
X170760000Y-96520000D03*
X170760000Y-99060000D03*
X170760000Y-101600000D03*
X170760000Y-104140000D03*
X170760000Y-106680000D03*
X170760000Y-109220000D03*
X170760000Y-111760000D03*
X170760000Y-114300000D03*
X170760000Y-116840000D03*
X170760000Y-119380000D03*
X170760000Y-121920000D03*
X170760000Y-124460000D03*
X170760000Y-127000000D03*
X186000000Y-127000000D03*
X186000000Y-124460000D03*
X186000000Y-121920000D03*
X186000000Y-119380000D03*
X186000000Y-116840000D03*
X186000000Y-114300000D03*
X186000000Y-111760000D03*
X186000000Y-109220000D03*
X186000000Y-106680000D03*
X186000000Y-104140000D03*
X186000000Y-101600000D03*
X186000000Y-99060000D03*
X186000000Y-96520000D03*
X186000000Y-93980000D03*
X186000000Y-91440000D03*
%TD*%
M02*
