M48
; DRILL file {KiCad 8.0.1} date 2024-06-10T20:51:34+0200
; FORMAT={-:-/ absolute / inch / decimal}
; #@! TF.CreationDate,2024-06-10T20:51:34+02:00
; #@! TF.GenerationSoftware,Kicad,Pcbnew,8.0.1
; #@! TF.FileFunction,Plated,1,2,PTH
FMAT,2
INCH
; #@! TA.AperFunction,Plated,PTH,ComponentDrill
T1C0.0276
; #@! TA.AperFunction,Plated,PTH,ComponentDrill
T2C0.0394
%
G90
G05
T1
X6.2598Y-3.7795
X6.2598Y-3.8583
X6.2598Y-3.937
X6.2598Y-4.0157
X6.2598Y-4.0945
X6.2598Y-4.1732
X6.2598Y-4.252
X6.2598Y-4.3307
X6.811Y-3.7795
X6.811Y-3.8583
X6.811Y-3.937
X6.811Y-4.0157
X6.811Y-4.0945
X6.811Y-4.1732
X6.811Y-4.252
X6.811Y-4.3307
T2
X3.8792Y-3.556
X3.9792Y-3.556
X4.0792Y-3.556
X4.1792Y-3.556
X4.2792Y-3.556
X4.3792Y-3.556
X4.4169Y-4.304
X4.4614Y-2.5449
X4.4614Y-3.1449
X4.4792Y-3.556
X4.5169Y-4.304
X4.5614Y-2.5449
X4.5614Y-3.1449
X4.5792Y-3.556
X4.6169Y-4.304
X4.6614Y-2.5449
X4.6614Y-3.1449
X4.7169Y-4.304
X4.7614Y-2.5449
X4.7614Y-3.1449
X4.8614Y-2.5449
X4.8614Y-3.1449
X4.9614Y-2.5449
X4.9614Y-3.1449
X5.0614Y-2.5449
X5.0614Y-3.1449
X5.0961Y-3.5531
X5.0961Y-3.6531
X5.1614Y-2.5449
X5.1614Y-3.1449
X5.1961Y-3.5531
X5.1961Y-3.6531
X5.2614Y-2.5449
X5.2614Y-3.1449
X5.2961Y-3.5531
X5.2961Y-3.6531
X5.3614Y-2.5449
X5.3614Y-3.1449
X5.3961Y-3.5531
X5.3961Y-3.6531
X5.4614Y-2.5449
X5.4614Y-3.1449
X5.4961Y-3.5531
X5.4961Y-3.6531
X5.5614Y-2.5449
X5.5614Y-3.1449
X5.5961Y-3.5531
X5.5961Y-3.6531
X5.6614Y-2.5449
X5.6614Y-3.1449
X5.6961Y-3.5531
X5.6961Y-3.6531
X5.7614Y-2.5449
X5.7614Y-3.1449
X5.7961Y-3.5531
X5.7961Y-3.6531
X5.8614Y-2.5449
X5.8614Y-3.1449
X6.3189Y-2.588
X6.3189Y-2.688
X6.3189Y-2.9813
X6.3189Y-3.0813
M30
