%TF.GenerationSoftware,KiCad,Pcbnew,8.0.1*%
%TF.CreationDate,2024-06-11T18:45:44+02:00*%
%TF.ProjectId,PCB_Plaque_Basse,5043425f-506c-4617-9175-655f42617373,rev?*%
%TF.SameCoordinates,Original*%
%TF.FileFunction,Copper,L1,Top*%
%TF.FilePolarity,Positive*%
%FSLAX46Y46*%
G04 Gerber Fmt 4.6, Leading zero omitted, Abs format (unit mm)*
G04 Created by KiCad (PCBNEW 8.0.1) date 2024-06-11 18:45:44*
%MOMM*%
%LPD*%
G01*
G04 APERTURE LIST*
G04 Aperture macros list*
%AMRoundRect*
0 Rectangle with rounded corners*
0 $1 Rounding radius*
0 $2 $3 $4 $5 $6 $7 $8 $9 X,Y pos of 4 corners*
0 Add a 4 corners polygon primitive as box body*
4,1,4,$2,$3,$4,$5,$6,$7,$8,$9,$2,$3,0*
0 Add four circle primitives for the rounded corners*
1,1,$1+$1,$2,$3*
1,1,$1+$1,$4,$5*
1,1,$1+$1,$6,$7*
1,1,$1+$1,$8,$9*
0 Add four rect primitives between the rounded corners*
20,1,$1+$1,$2,$3,$4,$5,0*
20,1,$1+$1,$4,$5,$6,$7,0*
20,1,$1+$1,$6,$7,$8,$9,0*
20,1,$1+$1,$8,$9,$2,$3,0*%
G04 Aperture macros list end*
%TA.AperFunction,ComponentPad*%
%ADD10R,1.700000X1.700000*%
%TD*%
%TA.AperFunction,ComponentPad*%
%ADD11O,1.700000X1.700000*%
%TD*%
%TA.AperFunction,ComponentPad*%
%ADD12R,1.600000X1.600000*%
%TD*%
%TA.AperFunction,ComponentPad*%
%ADD13O,1.600000X1.600000*%
%TD*%
%TA.AperFunction,WasherPad*%
%ADD14C,2.500000*%
%TD*%
%TA.AperFunction,ComponentPad*%
%ADD15C,1.600000*%
%TD*%
%TA.AperFunction,WasherPad*%
%ADD16C,3.500000*%
%TD*%
%TA.AperFunction,ComponentPad*%
%ADD17C,1.524000*%
%TD*%
%TA.AperFunction,ComponentPad*%
%ADD18RoundRect,0.325000X0.675000X0.325000X-0.675000X0.325000X-0.675000X-0.325000X0.675000X-0.325000X0*%
%TD*%
%TA.AperFunction,Conductor*%
%ADD19C,0.200000*%
%TD*%
G04 APERTURE END LIST*
D10*
%TO.P,Inter_Pile1,1,GND*%
%TO.N,Net-(BMP1-GND)*%
X160500000Y-75725000D03*
D11*
%TO.P,Inter_Pile1,2,Vin*%
%TO.N,Net-(Arduino_Nano1-Vin)*%
X160500000Y-78265000D03*
%TD*%
D12*
%TO.P,Arduino_Nano1,1,TxD*%
%TO.N,unconnected-(Arduino_Nano1-TxD-Pad1)*%
X148880000Y-64640000D03*
D13*
%TO.P,Arduino_Nano1,2,RxD*%
%TO.N,unconnected-(Arduino_Nano1-RxD-Pad2)*%
X146340000Y-64640000D03*
%TO.P,Arduino_Nano1,3,Reset*%
%TO.N,unconnected-(Arduino_Nano1-Reset-Pad3)*%
X143800000Y-64640000D03*
%TO.P,Arduino_Nano1,4,GND*%
%TO.N,Net-(Inter_Cap_Vol1-GND)*%
X141260000Y-64640000D03*
%TO.P,Arduino_Nano1,5,D2*%
%TO.N,unconnected-(Arduino_Nano1-D2-Pad5)*%
X138720000Y-64640000D03*
%TO.P,Arduino_Nano1,6,D3*%
%TO.N,unconnected-(Arduino_Nano1-D3-Pad6)*%
X136180000Y-64640000D03*
%TO.P,Arduino_Nano1,7,D4*%
%TO.N,Net-(Arduino_Nano1-D4)*%
X133640000Y-64640000D03*
%TO.P,Arduino_Nano1,8,D5*%
%TO.N,Net-(Arduino_Nano1-D5)*%
X131100000Y-64640000D03*
%TO.P,Arduino_Nano1,9,D6*%
%TO.N,Net-(Arduino_Nano1-D6)*%
X128560000Y-64640000D03*
%TO.P,Arduino_Nano1,10,D7*%
%TO.N,unconnected-(Arduino_Nano1-D7-Pad10)*%
X126020000Y-64640000D03*
%TO.P,Arduino_Nano1,11,D8*%
%TO.N,unconnected-(Arduino_Nano1-D8-Pad11)*%
X123480000Y-64640000D03*
%TO.P,Arduino_Nano1,12,D9*%
%TO.N,unconnected-(Arduino_Nano1-D9-Pad12)*%
X120940000Y-64640000D03*
%TO.P,Arduino_Nano1,13,D10*%
%TO.N,unconnected-(Arduino_Nano1-D10-Pad13)*%
X118400000Y-64640000D03*
%TO.P,Arduino_Nano1,14,D11*%
%TO.N,Net-(Arduino_Nano1-D11)*%
X115860000Y-64640000D03*
%TO.P,Arduino_Nano1,15,D12*%
%TO.N,Net-(Arduino_Nano1-D12)*%
X113320000Y-64640000D03*
%TO.P,Arduino_Nano1,16,D13*%
%TO.N,Net-(Arduino_Nano1-D13)*%
X113320000Y-79880000D03*
%TO.P,Arduino_Nano1,17,3V3*%
%TO.N,unconnected-(Arduino_Nano1-3V3-Pad17)*%
X115860000Y-79880000D03*
%TO.P,Arduino_Nano1,18,Aref*%
%TO.N,unconnected-(Arduino_Nano1-Aref-Pad18)*%
X118400000Y-79880000D03*
%TO.P,Arduino_Nano1,19,A0*%
%TO.N,unconnected-(Arduino_Nano1-A0-Pad19)*%
X120940000Y-79880000D03*
%TO.P,Arduino_Nano1,20,A1*%
%TO.N,unconnected-(Arduino_Nano1-A1-Pad20)*%
X123480000Y-79880000D03*
%TO.P,Arduino_Nano1,21,A2*%
%TO.N,unconnected-(Arduino_Nano1-A2-Pad21)*%
X126020000Y-79880000D03*
%TO.P,Arduino_Nano1,22,A3*%
%TO.N,unconnected-(Arduino_Nano1-A3-Pad22)*%
X128560000Y-79880000D03*
%TO.P,Arduino_Nano1,23,A4*%
%TO.N,Net-(Arduino_Nano1-A4)*%
X131100000Y-79880000D03*
%TO.P,Arduino_Nano1,24,A5*%
%TO.N,Net-(Arduino_Nano1-A5)*%
X133640000Y-79880000D03*
%TO.P,Arduino_Nano1,25,A6*%
%TO.N,unconnected-(Arduino_Nano1-A6-Pad25)*%
X136180000Y-79880000D03*
%TO.P,Arduino_Nano1,26,A7*%
%TO.N,unconnected-(Arduino_Nano1-A7-Pad26)*%
X138720000Y-79880000D03*
%TO.P,Arduino_Nano1,27,5V*%
%TO.N,Net-(Arduino_Nano1-5V)*%
X141260000Y-79880000D03*
%TO.P,Arduino_Nano1,28,Reset*%
%TO.N,unconnected-(Arduino_Nano1-Reset-Pad28)*%
X143800000Y-79880000D03*
%TO.P,Arduino_Nano1,29,GND*%
%TO.N,Net-(BMP1-GND)*%
X146340000Y-79880000D03*
%TO.P,Arduino_Nano1,30,Vin*%
%TO.N,Net-(Arduino_Nano1-Vin)*%
X148880000Y-79880000D03*
%TD*%
D10*
%TO.P,Inter_Cap_Vol1,1,GND*%
%TO.N,Net-(Inter_Cap_Vol1-GND)*%
X160500000Y-68275000D03*
D11*
%TO.P,Inter_Cap_Vol1,2,Cap*%
%TO.N,Net-(Arduino_Nano1-D4)*%
X160500000Y-65735000D03*
%TD*%
D14*
%TO.P,BMP1,*%
%TO.N,*%
X112190000Y-122662500D03*
D15*
%TO.P,BMP1,1,VCC*%
%TO.N,Net-(Arduino_Nano1-5V)*%
X119810000Y-109322500D03*
%TO.P,BMP1,2,GND*%
%TO.N,Net-(BMP1-GND)*%
X117270000Y-109322500D03*
%TO.P,BMP1,3,SCL*%
%TO.N,Net-(Arduino_Nano1-A5)*%
X114730000Y-109322500D03*
%TO.P,BMP1,4,SDA*%
%TO.N,Net-(Arduino_Nano1-A4)*%
X112190000Y-109322500D03*
%TD*%
D16*
%TO.P,Module_SD1,*%
%TO.N,*%
X125830000Y-89250000D03*
X150830000Y-89250000D03*
D15*
%TO.P,Module_SD1,1,GND*%
%TO.N,Net-(BMP1-GND)*%
X147220000Y-92790000D03*
X147220000Y-90250000D03*
%TO.P,Module_SD1,2,3V3*%
%TO.N,unconnected-(Module_SD1-3V3-Pad2)*%
X144680000Y-92790000D03*
%TO.N,unconnected-(Module_SD1-3V3-Pad2)_0*%
X144680000Y-90250000D03*
%TO.P,Module_SD1,3,5V*%
%TO.N,Net-(Arduino_Nano1-5V)*%
X142140000Y-92790000D03*
X142140000Y-90250000D03*
%TO.P,Module_SD1,4,CS*%
%TO.N,Net-(Arduino_Nano1-D6)*%
X139600000Y-92790000D03*
X139600000Y-90250000D03*
D17*
%TO.P,Module_SD1,5,MOSI*%
%TO.N,Net-(Arduino_Nano1-D11)*%
X137060000Y-92790000D03*
X137060000Y-90250000D03*
%TO.P,Module_SD1,6,SCK*%
%TO.N,Net-(Arduino_Nano1-D13)*%
X134520000Y-92790000D03*
X134520000Y-90250000D03*
%TO.P,Module_SD1,7,MISO*%
%TO.N,Net-(Arduino_Nano1-D12)*%
X131980000Y-92790000D03*
X131980000Y-90250000D03*
%TO.P,Module_SD1,8,GND*%
%TO.N,unconnected-(Module_SD1-GND-Pad8)*%
X129440000Y-92790000D03*
%TO.N,unconnected-(Module_SD1-GND-Pad8)_0*%
X129440000Y-90250000D03*
%TD*%
D18*
%TO.P,Module_LORA1,1,DI02*%
%TO.N,unconnected-(Module_LORA1-DI02-Pad1)*%
X159000000Y-110000000D03*
%TO.P,Module_LORA1,2,DI01*%
%TO.N,unconnected-(Module_LORA1-DI01-Pad2)*%
X159000000Y-108000000D03*
%TO.P,Module_LORA1,3,DI00*%
%TO.N,unconnected-(Module_LORA1-DI00-Pad3)*%
X159000000Y-106000000D03*
%TO.P,Module_LORA1,4,VDD*%
%TO.N,Net-(Arduino_Nano1-5V)*%
X159000000Y-104000000D03*
%TO.P,Module_LORA1,5,DI04*%
%TO.N,unconnected-(Module_LORA1-DI04-Pad5)*%
X159000000Y-102000000D03*
%TO.P,Module_LORA1,6,DI03*%
%TO.N,unconnected-(Module_LORA1-DI03-Pad6)*%
X159000000Y-100000000D03*
%TO.P,Module_LORA1,7,GND*%
%TO.N,Net-(BMP1-GND)*%
X159000000Y-98000000D03*
%TO.P,Module_LORA1,8,ANT*%
%TO.N,unconnected-(Module_LORA1-ANT-Pad8)*%
X159000000Y-96000000D03*
%TO.P,Module_LORA1,9,GND*%
%TO.N,unconnected-(Module_LORA1-GND-Pad9)*%
X173000000Y-110000000D03*
%TO.P,Module_LORA1,10,MISO*%
%TO.N,Net-(Arduino_Nano1-D12)*%
X173000000Y-108000000D03*
%TO.P,Module_LORA1,11,MOSI*%
%TO.N,Net-(Arduino_Nano1-D11)*%
X173000000Y-106000000D03*
%TO.P,Module_LORA1,12,SCK*%
%TO.N,Net-(Arduino_Nano1-D13)*%
X173000000Y-104000000D03*
%TO.P,Module_LORA1,13,NSS*%
%TO.N,Net-(Arduino_Nano1-D5)*%
X173000000Y-102000000D03*
%TO.P,Module_LORA1,14,RST*%
%TO.N,unconnected-(Module_LORA1-RST-Pad14)*%
X173000000Y-100000000D03*
%TO.P,Module_LORA1,15,DI05*%
%TO.N,unconnected-(Module_LORA1-DI05-Pad15)*%
X173000000Y-98000000D03*
%TO.P,Module_LORA1,16,GND*%
%TO.N,unconnected-(Module_LORA1-GND-Pad16)*%
X173000000Y-96000000D03*
%TD*%
D14*
%TO.P,MPU1,*%
%TO.N,*%
X116312500Y-103662500D03*
X98582500Y-103662500D03*
D15*
%TO.P,MPU1,1,VCC*%
%TO.N,Net-(Arduino_Nano1-5V)*%
X116312500Y-90322500D03*
%TO.P,MPU1,2,GND*%
%TO.N,Net-(BMP1-GND)*%
X113772500Y-90322500D03*
%TO.P,MPU1,3,SCL*%
%TO.N,Net-(Arduino_Nano1-A5)*%
X111232500Y-90322500D03*
%TO.P,MPU1,4,SDA*%
%TO.N,Net-(Arduino_Nano1-A4)*%
X108692500Y-90322500D03*
D17*
%TO.P,MPU1,5,XDA*%
%TO.N,unconnected-(MPU1-XDA-Pad5)*%
X106152500Y-90322500D03*
%TO.P,MPU1,6,XCL*%
%TO.N,unconnected-(MPU1-XCL-Pad6)*%
X103612500Y-90322500D03*
%TO.P,MPU1,7,AD0*%
%TO.N,unconnected-(MPU1-AD0-Pad7)*%
X101072500Y-90322500D03*
%TO.P,MPU1,8,INT*%
%TO.N,unconnected-(MPU1-INT-Pad8)*%
X98532500Y-90322500D03*
%TD*%
D19*
%TO.N,Net-(Arduino_Nano1-Vin)*%
X148880000Y-79880000D02*
X150495000Y-78265000D01*
X150495000Y-78265000D02*
X160500000Y-78265000D01*
%TO.N,Net-(Arduino_Nano1-D4)*%
X134500000Y-62000000D02*
X153500000Y-62000000D01*
X157235000Y-65735000D02*
X160500000Y-65735000D01*
X133640000Y-64640000D02*
X133640000Y-62860000D01*
X153500000Y-62000000D02*
X157235000Y-65735000D01*
X133640000Y-62860000D02*
X134500000Y-62000000D01*
%TO.N,Net-(Arduino_Nano1-5V)*%
X142140000Y-90250000D02*
X142140000Y-84060000D01*
X142140000Y-97640000D02*
X142140000Y-92790000D01*
X142140000Y-90250000D02*
X142140000Y-92790000D01*
X141260000Y-83180000D02*
X141260000Y-79880000D01*
X142140000Y-84060000D02*
X141260000Y-83180000D01*
X148500000Y-104000000D02*
X142140000Y-97640000D01*
X159000000Y-104000000D02*
X148500000Y-104000000D01*
%TO.N,Net-(Arduino_Nano1-D12)*%
X111830000Y-81250000D02*
X111830000Y-66130000D01*
X131980000Y-90250000D02*
X131980000Y-92790000D01*
X131980000Y-108980000D02*
X131980000Y-92790000D01*
X111830000Y-66130000D02*
X113320000Y-64640000D01*
X135500000Y-112500000D02*
X131980000Y-108980000D01*
X173000000Y-108000000D02*
X174500000Y-108000000D01*
X116830000Y-86250000D02*
X111830000Y-81250000D01*
X174500000Y-108000000D02*
X175000000Y-108500000D01*
X131980000Y-90250000D02*
X127980000Y-86250000D01*
X127980000Y-86250000D02*
X116830000Y-86250000D01*
X175000000Y-108500000D02*
X175000000Y-111000000D01*
X175000000Y-111000000D02*
X173500000Y-112500000D01*
X173500000Y-112500000D02*
X135500000Y-112500000D01*
%TO.N,Net-(Arduino_Nano1-D5)*%
X131100000Y-64640000D02*
X131100000Y-62900000D01*
X176000000Y-100500000D02*
X174500000Y-102000000D01*
X176000000Y-78500000D02*
X176000000Y-100500000D01*
X131100000Y-62900000D02*
X132500000Y-61500000D01*
X174500000Y-102000000D02*
X173000000Y-102000000D01*
X160500000Y-61500000D02*
X169000000Y-70000000D01*
X169000000Y-70000000D02*
X169000000Y-71500000D01*
X169000000Y-71500000D02*
X176000000Y-78500000D01*
X132500000Y-61500000D02*
X160500000Y-61500000D01*
%TO.N,Net-(Arduino_Nano1-D13)*%
X171500000Y-104000000D02*
X170000000Y-105500000D01*
X173000000Y-104000000D02*
X171500000Y-104000000D01*
X138500000Y-112000000D02*
X134520000Y-108020000D01*
X134520000Y-108020000D02*
X134520000Y-92790000D01*
X117330000Y-85250000D02*
X113320000Y-81240000D01*
X134520000Y-90250000D02*
X129520000Y-85250000D01*
X113320000Y-81240000D02*
X113320000Y-79880000D01*
X134520000Y-92790000D02*
X134520000Y-90250000D01*
X129520000Y-85250000D02*
X117330000Y-85250000D01*
X170000000Y-105500000D02*
X170000000Y-111000000D01*
X170000000Y-111000000D02*
X169000000Y-112000000D01*
X169000000Y-112000000D02*
X138500000Y-112000000D01*
%TO.N,Net-(Arduino_Nano1-D11)*%
X131060000Y-84250000D02*
X137060000Y-90250000D01*
X120830000Y-84250000D02*
X131060000Y-84250000D01*
X176500000Y-104000000D02*
X176500000Y-76934314D01*
X173000000Y-106000000D02*
X174500000Y-106000000D01*
X115860000Y-63140000D02*
X115860000Y-64640000D01*
X118000000Y-61000000D02*
X115860000Y-63140000D01*
X115860000Y-76780000D02*
X116960000Y-77880000D01*
X176500000Y-76934314D02*
X160565685Y-61000000D01*
X116960000Y-77880000D02*
X116960000Y-80380000D01*
X115860000Y-64640000D02*
X115860000Y-76780000D01*
X137060000Y-90250000D02*
X137060000Y-92790000D01*
X174500000Y-106000000D02*
X176500000Y-104000000D01*
X116960000Y-80380000D02*
X120830000Y-84250000D01*
X160565685Y-61000000D02*
X118000000Y-61000000D01*
%TO.N,Net-(Arduino_Nano1-D6)*%
X139600000Y-92790000D02*
X139600000Y-90250000D01*
X139600000Y-88020000D02*
X139600000Y-90250000D01*
X130000000Y-81920000D02*
X135330000Y-87250000D01*
X128560000Y-64640000D02*
X130000000Y-66080000D01*
X130000000Y-66080000D02*
X130000000Y-81920000D01*
X135330000Y-87250000D02*
X138830000Y-87250000D01*
X138830000Y-87250000D02*
X139600000Y-88020000D01*
%TO.N,Net-(BMP1-GND)*%
X147220000Y-94640000D02*
X147220000Y-92790000D01*
X160500000Y-75725000D02*
X150495000Y-75725000D01*
X147000000Y-89904315D02*
X146937157Y-89967158D01*
X146340000Y-79880000D02*
X150495000Y-75725000D01*
X146340000Y-81340000D02*
X147000000Y-82000000D01*
X159000000Y-98000000D02*
X150580000Y-98000000D01*
X147000000Y-82000000D02*
X147000000Y-89904315D01*
X150580000Y-98000000D02*
X147220000Y-94640000D01*
X147220000Y-92790000D02*
X147220000Y-90250000D01*
X146340000Y-79880000D02*
X146340000Y-81340000D01*
%TO.N,Net-(Inter_Cap_Vol1-GND)*%
X143275000Y-68275000D02*
X141260000Y-66260000D01*
X141260000Y-66260000D02*
X141260000Y-64640000D01*
X160500000Y-68275000D02*
X143275000Y-68275000D01*
%TD*%
%TA.AperFunction,Conductor*%
%TO.N,Net-(BMP1-GND)*%
G36*
X160266942Y-62120185D02*
G01*
X160287584Y-62136819D01*
X168363181Y-70212416D01*
X168396666Y-70273739D01*
X168399500Y-70300097D01*
X168399500Y-71413330D01*
X168399499Y-71413348D01*
X168399499Y-71579054D01*
X168399498Y-71579054D01*
X168440423Y-71731785D01*
X168469358Y-71781900D01*
X168469359Y-71781904D01*
X168469360Y-71781904D01*
X168519479Y-71868714D01*
X168519481Y-71868717D01*
X168638349Y-71987585D01*
X168638355Y-71987590D01*
X175363181Y-78712416D01*
X175396666Y-78773739D01*
X175399500Y-78800097D01*
X175399500Y-100199902D01*
X175379815Y-100266941D01*
X175363181Y-100287583D01*
X174493919Y-101156844D01*
X174432596Y-101190329D01*
X174362904Y-101185345D01*
X174309594Y-101146852D01*
X174262159Y-101087841D01*
X174262155Y-101087838D01*
X174262153Y-101087835D01*
X174261999Y-101087681D01*
X174261934Y-101087563D01*
X174257946Y-101082601D01*
X174258834Y-101081886D01*
X174228514Y-101026358D01*
X174233498Y-100956666D01*
X174258466Y-100917816D01*
X174257947Y-100917399D01*
X174261873Y-100912513D01*
X174261999Y-100912319D01*
X174262154Y-100912162D01*
X174262159Y-100912159D01*
X174374653Y-100772210D01*
X174454433Y-100611349D01*
X174497766Y-100437100D01*
X174500500Y-100396784D01*
X174500500Y-99603216D01*
X174497766Y-99562900D01*
X174454433Y-99388651D01*
X174374653Y-99227790D01*
X174262159Y-99087841D01*
X174261999Y-99087681D01*
X174261932Y-99087559D01*
X174257947Y-99082601D01*
X174258835Y-99081887D01*
X174228514Y-99026358D01*
X174233498Y-98956666D01*
X174258466Y-98917816D01*
X174257947Y-98917399D01*
X174261873Y-98912513D01*
X174261999Y-98912319D01*
X174262154Y-98912162D01*
X174262159Y-98912159D01*
X174374653Y-98772210D01*
X174454433Y-98611349D01*
X174497766Y-98437100D01*
X174500500Y-98396784D01*
X174500500Y-97603216D01*
X174497766Y-97562900D01*
X174454433Y-97388651D01*
X174374653Y-97227790D01*
X174262159Y-97087841D01*
X174261999Y-97087681D01*
X174261932Y-97087559D01*
X174257947Y-97082601D01*
X174258835Y-97081887D01*
X174228514Y-97026358D01*
X174233498Y-96956666D01*
X174258466Y-96917816D01*
X174257947Y-96917399D01*
X174261873Y-96912513D01*
X174261999Y-96912319D01*
X174262154Y-96912162D01*
X174262159Y-96912159D01*
X174374653Y-96772210D01*
X174454433Y-96611349D01*
X174497766Y-96437100D01*
X174500500Y-96396784D01*
X174500500Y-95603216D01*
X174497766Y-95562900D01*
X174454433Y-95388651D01*
X174374653Y-95227790D01*
X174262159Y-95087841D01*
X174122210Y-94975347D01*
X174122209Y-94975346D01*
X173961350Y-94895567D01*
X173787102Y-94852234D01*
X173787103Y-94852234D01*
X173762910Y-94850593D01*
X173746784Y-94849500D01*
X172253216Y-94849500D01*
X172237089Y-94850593D01*
X172212897Y-94852234D01*
X172038649Y-94895567D01*
X171877790Y-94975346D01*
X171737841Y-95087840D01*
X171737840Y-95087841D01*
X171625346Y-95227790D01*
X171545567Y-95388649D01*
X171502234Y-95562897D01*
X171499500Y-95603218D01*
X171499500Y-96396781D01*
X171502234Y-96437102D01*
X171545567Y-96611350D01*
X171625346Y-96772209D01*
X171737840Y-96912158D01*
X171738001Y-96912319D01*
X171738067Y-96912440D01*
X171742053Y-96917399D01*
X171741164Y-96918112D01*
X171771486Y-96973642D01*
X171766502Y-97043334D01*
X171741533Y-97082183D01*
X171742053Y-97082601D01*
X171738126Y-97087486D01*
X171738001Y-97087681D01*
X171737840Y-97087841D01*
X171625346Y-97227790D01*
X171545567Y-97388649D01*
X171502234Y-97562897D01*
X171499500Y-97603218D01*
X171499500Y-98396781D01*
X171502234Y-98437102D01*
X171545567Y-98611350D01*
X171625346Y-98772209D01*
X171737840Y-98912158D01*
X171738001Y-98912319D01*
X171738067Y-98912440D01*
X171742053Y-98917399D01*
X171741164Y-98918112D01*
X171771486Y-98973642D01*
X171766502Y-99043334D01*
X171741533Y-99082183D01*
X171742053Y-99082601D01*
X171738126Y-99087486D01*
X171738001Y-99087681D01*
X171737840Y-99087841D01*
X171625346Y-99227790D01*
X171545567Y-99388649D01*
X171502234Y-99562897D01*
X171499500Y-99603218D01*
X171499500Y-100396781D01*
X171502234Y-100437102D01*
X171545567Y-100611350D01*
X171625346Y-100772209D01*
X171737840Y-100912158D01*
X171738001Y-100912319D01*
X171738067Y-100912440D01*
X171742053Y-100917399D01*
X171741164Y-100918112D01*
X171771486Y-100973642D01*
X171766502Y-101043334D01*
X171741533Y-101082183D01*
X171742053Y-101082601D01*
X171738126Y-101087486D01*
X171738001Y-101087681D01*
X171737840Y-101087841D01*
X171625346Y-101227790D01*
X171545567Y-101388649D01*
X171502234Y-101562897D01*
X171499500Y-101603218D01*
X171499500Y-102396781D01*
X171502234Y-102437102D01*
X171545567Y-102611350D01*
X171625346Y-102772209D01*
X171737840Y-102912158D01*
X171738001Y-102912319D01*
X171738067Y-102912440D01*
X171742053Y-102917399D01*
X171741164Y-102918112D01*
X171771486Y-102973642D01*
X171766502Y-103043334D01*
X171741533Y-103082183D01*
X171742053Y-103082601D01*
X171738126Y-103087486D01*
X171738001Y-103087681D01*
X171737840Y-103087841D01*
X171625346Y-103227790D01*
X171574360Y-103330595D01*
X171526939Y-103381907D01*
X171463272Y-103399500D01*
X171420940Y-103399500D01*
X171380019Y-103410464D01*
X171380019Y-103410465D01*
X171342751Y-103420451D01*
X171268214Y-103440423D01*
X171268209Y-103440426D01*
X171131290Y-103519475D01*
X171131282Y-103519481D01*
X169519481Y-105131282D01*
X169519480Y-105131284D01*
X169489779Y-105182728D01*
X169440423Y-105268215D01*
X169399499Y-105420943D01*
X169399499Y-105420945D01*
X169399499Y-105589046D01*
X169399500Y-105589059D01*
X169399500Y-110699902D01*
X169379815Y-110766941D01*
X169363181Y-110787583D01*
X168787584Y-111363181D01*
X168726261Y-111396666D01*
X168699903Y-111399500D01*
X138800097Y-111399500D01*
X138733058Y-111379815D01*
X138712416Y-111363181D01*
X135156819Y-107807584D01*
X135123334Y-107746261D01*
X135120500Y-107719903D01*
X135120500Y-93975304D01*
X135140185Y-93908265D01*
X135173375Y-93873730D01*
X135334620Y-93760826D01*
X135490826Y-93604620D01*
X135617534Y-93423662D01*
X135677618Y-93294811D01*
X135723790Y-93242371D01*
X135790983Y-93223219D01*
X135857865Y-93243435D01*
X135902382Y-93294811D01*
X135962464Y-93423658D01*
X135962468Y-93423666D01*
X136089170Y-93604615D01*
X136089175Y-93604621D01*
X136245378Y-93760824D01*
X136245384Y-93760829D01*
X136426333Y-93887531D01*
X136426335Y-93887532D01*
X136426338Y-93887534D01*
X136626550Y-93980894D01*
X136839932Y-94038070D01*
X136997123Y-94051822D01*
X137059998Y-94057323D01*
X137060000Y-94057323D01*
X137060002Y-94057323D01*
X137115017Y-94052509D01*
X137280068Y-94038070D01*
X137493450Y-93980894D01*
X137693662Y-93887534D01*
X137874620Y-93760826D01*
X138030826Y-93604620D01*
X138157534Y-93423662D01*
X138196654Y-93339767D01*
X138242826Y-93287328D01*
X138310019Y-93268176D01*
X138376900Y-93288391D01*
X138421416Y-93339765D01*
X138442107Y-93384135D01*
X138469431Y-93442732D01*
X138469432Y-93442734D01*
X138599954Y-93629141D01*
X138760858Y-93790045D01*
X138760861Y-93790047D01*
X138947266Y-93920568D01*
X139153504Y-94016739D01*
X139373308Y-94075635D01*
X139535230Y-94089801D01*
X139599998Y-94095468D01*
X139600000Y-94095468D01*
X139600002Y-94095468D01*
X139656673Y-94090509D01*
X139826692Y-94075635D01*
X140046496Y-94016739D01*
X140252734Y-93920568D01*
X140439139Y-93790047D01*
X140600047Y-93629139D01*
X140730568Y-93442734D01*
X140757618Y-93384724D01*
X140803790Y-93332285D01*
X140870983Y-93313133D01*
X140937865Y-93333348D01*
X140982382Y-93384725D01*
X141009429Y-93442728D01*
X141009432Y-93442734D01*
X141139954Y-93629141D01*
X141300858Y-93790045D01*
X141300861Y-93790047D01*
X141486624Y-93920118D01*
X141530248Y-93974693D01*
X141539500Y-94021692D01*
X141539500Y-97553330D01*
X141539499Y-97553348D01*
X141539499Y-97719054D01*
X141539498Y-97719054D01*
X141580423Y-97871786D01*
X141580424Y-97871787D01*
X141606085Y-97916233D01*
X141659481Y-98008717D01*
X141778349Y-98127585D01*
X141778355Y-98127590D01*
X148015139Y-104364374D01*
X148015149Y-104364385D01*
X148019479Y-104368715D01*
X148019480Y-104368716D01*
X148131284Y-104480520D01*
X148218095Y-104530639D01*
X148218097Y-104530641D01*
X148268213Y-104559576D01*
X148268215Y-104559577D01*
X148420942Y-104600500D01*
X148420943Y-104600500D01*
X157463272Y-104600500D01*
X157530311Y-104620185D01*
X157574360Y-104669405D01*
X157625346Y-104772209D01*
X157737840Y-104912158D01*
X157738001Y-104912319D01*
X157738067Y-104912440D01*
X157742053Y-104917399D01*
X157741164Y-104918112D01*
X157771486Y-104973642D01*
X157766502Y-105043334D01*
X157741533Y-105082183D01*
X157742053Y-105082601D01*
X157738126Y-105087486D01*
X157738001Y-105087681D01*
X157737840Y-105087841D01*
X157625346Y-105227790D01*
X157545567Y-105388649D01*
X157502234Y-105562897D01*
X157499500Y-105603218D01*
X157499500Y-106396781D01*
X157502234Y-106437102D01*
X157545567Y-106611350D01*
X157625346Y-106772209D01*
X157737840Y-106912158D01*
X157738001Y-106912319D01*
X157738067Y-106912440D01*
X157742053Y-106917399D01*
X157741164Y-106918112D01*
X157771486Y-106973642D01*
X157766502Y-107043334D01*
X157741533Y-107082183D01*
X157742053Y-107082601D01*
X157738126Y-107087486D01*
X157738001Y-107087681D01*
X157737840Y-107087841D01*
X157625346Y-107227790D01*
X157545567Y-107388649D01*
X157502234Y-107562897D01*
X157499500Y-107603218D01*
X157499500Y-108396781D01*
X157502234Y-108437102D01*
X157545567Y-108611350D01*
X157625346Y-108772209D01*
X157737840Y-108912158D01*
X157738001Y-108912319D01*
X157738067Y-108912440D01*
X157742053Y-108917399D01*
X157741164Y-108918112D01*
X157771486Y-108973642D01*
X157766502Y-109043334D01*
X157741533Y-109082183D01*
X157742053Y-109082601D01*
X157738126Y-109087486D01*
X157738001Y-109087681D01*
X157737840Y-109087841D01*
X157625346Y-109227790D01*
X157545567Y-109388649D01*
X157502234Y-109562897D01*
X157502234Y-109562900D01*
X157499500Y-109603216D01*
X157499500Y-110396784D01*
X157499822Y-110401525D01*
X157502234Y-110437102D01*
X157545567Y-110611350D01*
X157625346Y-110772209D01*
X157625347Y-110772210D01*
X157737841Y-110912159D01*
X157877790Y-111024653D01*
X158038651Y-111104433D01*
X158212900Y-111147766D01*
X158253216Y-111150500D01*
X158253218Y-111150500D01*
X159746782Y-111150500D01*
X159746784Y-111150500D01*
X159787100Y-111147766D01*
X159961349Y-111104433D01*
X160122210Y-111024653D01*
X160262159Y-110912159D01*
X160374653Y-110772210D01*
X160454433Y-110611349D01*
X160497766Y-110437100D01*
X160500500Y-110396784D01*
X160500500Y-109603216D01*
X160497766Y-109562900D01*
X160454433Y-109388651D01*
X160374653Y-109227790D01*
X160262159Y-109087841D01*
X160261999Y-109087681D01*
X160261932Y-109087559D01*
X160257947Y-109082601D01*
X160258835Y-109081887D01*
X160228514Y-109026358D01*
X160233498Y-108956666D01*
X160258466Y-108917816D01*
X160257947Y-108917399D01*
X160261873Y-108912513D01*
X160261999Y-108912319D01*
X160262154Y-108912162D01*
X160262159Y-108912159D01*
X160374653Y-108772210D01*
X160454433Y-108611349D01*
X160497766Y-108437100D01*
X160500500Y-108396784D01*
X160500500Y-107603216D01*
X160497766Y-107562900D01*
X160454433Y-107388651D01*
X160374653Y-107227790D01*
X160262159Y-107087841D01*
X160261999Y-107087681D01*
X160261932Y-107087559D01*
X160257947Y-107082601D01*
X160258835Y-107081887D01*
X160228514Y-107026358D01*
X160233498Y-106956666D01*
X160258466Y-106917816D01*
X160257947Y-106917399D01*
X160261873Y-106912513D01*
X160261999Y-106912319D01*
X160262154Y-106912162D01*
X160262159Y-106912159D01*
X160374653Y-106772210D01*
X160454433Y-106611349D01*
X160497766Y-106437100D01*
X160500500Y-106396784D01*
X160500500Y-105603216D01*
X160497766Y-105562900D01*
X160454433Y-105388651D01*
X160374653Y-105227790D01*
X160262159Y-105087841D01*
X160261999Y-105087681D01*
X160261932Y-105087559D01*
X160257947Y-105082601D01*
X160258835Y-105081887D01*
X160228514Y-105026358D01*
X160233498Y-104956666D01*
X160258466Y-104917816D01*
X160257947Y-104917399D01*
X160261873Y-104912513D01*
X160261999Y-104912319D01*
X160262154Y-104912162D01*
X160262159Y-104912159D01*
X160374653Y-104772210D01*
X160454433Y-104611349D01*
X160497766Y-104437100D01*
X160500500Y-104396784D01*
X160500500Y-103603216D01*
X160497766Y-103562900D01*
X160454433Y-103388651D01*
X160374653Y-103227790D01*
X160262159Y-103087841D01*
X160261999Y-103087681D01*
X160261932Y-103087559D01*
X160257947Y-103082601D01*
X160258835Y-103081887D01*
X160228514Y-103026358D01*
X160233498Y-102956666D01*
X160258466Y-102917816D01*
X160257947Y-102917399D01*
X160261873Y-102912513D01*
X160261999Y-102912319D01*
X160262154Y-102912162D01*
X160262159Y-102912159D01*
X160374653Y-102772210D01*
X160454433Y-102611349D01*
X160497766Y-102437100D01*
X160500500Y-102396784D01*
X160500500Y-101603216D01*
X160497766Y-101562900D01*
X160454433Y-101388651D01*
X160374653Y-101227790D01*
X160262159Y-101087841D01*
X160261999Y-101087681D01*
X160261932Y-101087559D01*
X160257947Y-101082601D01*
X160258835Y-101081887D01*
X160228514Y-101026358D01*
X160233498Y-100956666D01*
X160258466Y-100917816D01*
X160257947Y-100917399D01*
X160261873Y-100912513D01*
X160261999Y-100912319D01*
X160262154Y-100912162D01*
X160262159Y-100912159D01*
X160374653Y-100772210D01*
X160454433Y-100611349D01*
X160497766Y-100437100D01*
X160500500Y-100396784D01*
X160500500Y-99603216D01*
X160497766Y-99562900D01*
X160454433Y-99388651D01*
X160374653Y-99227790D01*
X160262159Y-99087841D01*
X160261643Y-99087325D01*
X160261428Y-99086932D01*
X160257947Y-99082601D01*
X160258722Y-99081977D01*
X160228158Y-99026002D01*
X160233142Y-98956310D01*
X160258110Y-98917460D01*
X160257591Y-98917043D01*
X160261517Y-98912157D01*
X160261643Y-98911963D01*
X160261803Y-98911802D01*
X160374229Y-98771938D01*
X160374231Y-98771935D01*
X160453958Y-98611180D01*
X160497267Y-98437034D01*
X160500000Y-98396741D01*
X160500000Y-97603258D01*
X160497267Y-97562965D01*
X160453958Y-97388819D01*
X160374231Y-97228064D01*
X160374229Y-97228061D01*
X160261803Y-97088197D01*
X160261643Y-97088037D01*
X160261576Y-97087915D01*
X160257591Y-97082957D01*
X160258479Y-97082243D01*
X160228158Y-97026714D01*
X160233142Y-96957022D01*
X160258382Y-96917748D01*
X160257947Y-96917399D01*
X160261239Y-96913303D01*
X160261643Y-96912675D01*
X160262153Y-96912163D01*
X160262159Y-96912159D01*
X160374653Y-96772210D01*
X160454433Y-96611349D01*
X160497766Y-96437100D01*
X160500500Y-96396784D01*
X160500500Y-95603216D01*
X160497766Y-95562900D01*
X160454433Y-95388651D01*
X160374653Y-95227790D01*
X160262159Y-95087841D01*
X160122210Y-94975347D01*
X160122209Y-94975346D01*
X159961350Y-94895567D01*
X159787102Y-94852234D01*
X159787103Y-94852234D01*
X159762910Y-94850593D01*
X159746784Y-94849500D01*
X158253216Y-94849500D01*
X158237089Y-94850593D01*
X158212897Y-94852234D01*
X158038649Y-94895567D01*
X157877790Y-94975346D01*
X157737841Y-95087840D01*
X157737840Y-95087841D01*
X157625346Y-95227790D01*
X157545567Y-95388649D01*
X157502234Y-95562897D01*
X157499500Y-95603218D01*
X157499500Y-96396781D01*
X157502234Y-96437102D01*
X157545567Y-96611350D01*
X157625346Y-96772209D01*
X157737840Y-96912158D01*
X157738356Y-96912674D01*
X157738570Y-96913066D01*
X157742053Y-96917399D01*
X157741276Y-96918022D01*
X157771841Y-96973997D01*
X157766857Y-97043689D01*
X157741892Y-97082541D01*
X157742409Y-97082957D01*
X157738506Y-97087812D01*
X157738374Y-97088018D01*
X157738204Y-97088187D01*
X157625770Y-97228061D01*
X157625768Y-97228064D01*
X157546041Y-97388819D01*
X157502732Y-97562965D01*
X157500000Y-97603258D01*
X157500000Y-98396741D01*
X157502732Y-98437034D01*
X157546041Y-98611180D01*
X157625768Y-98771935D01*
X157625770Y-98771938D01*
X157738196Y-98911802D01*
X157738357Y-98911963D01*
X157738423Y-98912084D01*
X157742409Y-98917043D01*
X157741520Y-98917756D01*
X157771842Y-98973286D01*
X157766858Y-99042978D01*
X157741617Y-99082251D01*
X157742053Y-99082601D01*
X157738760Y-99086696D01*
X157738357Y-99087325D01*
X157737840Y-99087841D01*
X157625346Y-99227790D01*
X157545567Y-99388649D01*
X157502234Y-99562897D01*
X157499500Y-99603218D01*
X157499500Y-100396781D01*
X157502234Y-100437102D01*
X157545567Y-100611350D01*
X157625346Y-100772209D01*
X157737840Y-100912158D01*
X157738001Y-100912319D01*
X157738067Y-100912440D01*
X157742053Y-100917399D01*
X157741164Y-100918112D01*
X157771486Y-100973642D01*
X157766502Y-101043334D01*
X157741533Y-101082183D01*
X157742053Y-101082601D01*
X157738126Y-101087486D01*
X157738001Y-101087681D01*
X157737840Y-101087841D01*
X157625346Y-101227790D01*
X157545567Y-101388649D01*
X157502234Y-101562897D01*
X157499500Y-101603218D01*
X157499500Y-102396781D01*
X157502234Y-102437102D01*
X157545567Y-102611350D01*
X157625346Y-102772209D01*
X157737840Y-102912158D01*
X157738001Y-102912319D01*
X157738067Y-102912440D01*
X157742053Y-102917399D01*
X157741164Y-102918112D01*
X157771486Y-102973642D01*
X157766502Y-103043334D01*
X157741533Y-103082183D01*
X157742053Y-103082601D01*
X157738126Y-103087486D01*
X157738001Y-103087681D01*
X157737840Y-103087841D01*
X157625346Y-103227790D01*
X157574360Y-103330595D01*
X157526939Y-103381907D01*
X157463272Y-103399500D01*
X148800097Y-103399500D01*
X148733058Y-103379815D01*
X148712416Y-103363181D01*
X142776819Y-97427584D01*
X142743334Y-97366261D01*
X142740500Y-97339903D01*
X142740500Y-94021692D01*
X142760185Y-93954653D01*
X142793374Y-93920119D01*
X142979139Y-93790047D01*
X143140047Y-93629139D01*
X143270568Y-93442734D01*
X143297618Y-93384724D01*
X143343790Y-93332285D01*
X143410983Y-93313133D01*
X143477865Y-93333348D01*
X143522382Y-93384725D01*
X143549429Y-93442728D01*
X143549432Y-93442734D01*
X143679954Y-93629141D01*
X143840858Y-93790045D01*
X143840861Y-93790047D01*
X144027266Y-93920568D01*
X144233504Y-94016739D01*
X144453308Y-94075635D01*
X144615230Y-94089801D01*
X144679998Y-94095468D01*
X144680000Y-94095468D01*
X144680002Y-94095468D01*
X144736673Y-94090509D01*
X144906692Y-94075635D01*
X145126496Y-94016739D01*
X145332734Y-93920568D01*
X145519139Y-93790047D01*
X145680047Y-93629139D01*
X145810568Y-93442734D01*
X145837893Y-93384134D01*
X145884065Y-93331695D01*
X145951258Y-93312543D01*
X146018139Y-93332758D01*
X146062657Y-93384134D01*
X146089864Y-93442480D01*
X146140974Y-93515472D01*
X146737037Y-92919409D01*
X146754075Y-92982993D01*
X146819901Y-93097007D01*
X146912993Y-93190099D01*
X147027007Y-93255925D01*
X147090590Y-93272962D01*
X146494526Y-93869025D01*
X146567513Y-93920132D01*
X146567521Y-93920136D01*
X146773668Y-94016264D01*
X146773682Y-94016269D01*
X146993389Y-94075139D01*
X146993400Y-94075141D01*
X147219998Y-94094966D01*
X147220002Y-94094966D01*
X147446599Y-94075141D01*
X147446610Y-94075139D01*
X147666317Y-94016269D01*
X147666331Y-94016264D01*
X147872478Y-93920136D01*
X147945471Y-93869024D01*
X147349409Y-93272962D01*
X147412993Y-93255925D01*
X147527007Y-93190099D01*
X147620099Y-93097007D01*
X147685925Y-92982993D01*
X147702962Y-92919409D01*
X148299024Y-93515471D01*
X148350136Y-93442478D01*
X148446264Y-93236331D01*
X148446269Y-93236317D01*
X148505139Y-93016610D01*
X148505141Y-93016599D01*
X148524966Y-92790002D01*
X148524966Y-92789997D01*
X148505141Y-92563400D01*
X148505139Y-92563389D01*
X148446269Y-92343682D01*
X148446264Y-92343668D01*
X148350136Y-92137521D01*
X148350132Y-92137513D01*
X148299025Y-92064526D01*
X147702962Y-92660589D01*
X147685925Y-92597007D01*
X147620099Y-92482993D01*
X147527007Y-92389901D01*
X147412993Y-92324075D01*
X147349410Y-92307037D01*
X147945472Y-91710974D01*
X147872478Y-91659863D01*
X147813544Y-91632382D01*
X147761104Y-91586210D01*
X147741952Y-91519017D01*
X147762167Y-91452136D01*
X147813544Y-91407618D01*
X147872478Y-91380136D01*
X147945471Y-91329024D01*
X147349409Y-90732962D01*
X147412993Y-90715925D01*
X147527007Y-90650099D01*
X147620099Y-90557007D01*
X147685925Y-90442993D01*
X147702962Y-90379409D01*
X148299024Y-90975471D01*
X148350136Y-90902478D01*
X148446264Y-90696331D01*
X148446269Y-90696317D01*
X148505139Y-90476610D01*
X148505141Y-90476599D01*
X148524966Y-90250002D01*
X148524966Y-90250000D01*
X148520266Y-90196289D01*
X148534032Y-90127789D01*
X148582646Y-90077605D01*
X148650675Y-90061671D01*
X148716519Y-90085045D01*
X148755006Y-90130636D01*
X148876825Y-90377660D01*
X148876829Y-90377667D01*
X149040725Y-90622955D01*
X149235241Y-90844758D01*
X149457044Y-91039274D01*
X149702332Y-91203170D01*
X149702335Y-91203172D01*
X149966923Y-91333652D01*
X150246278Y-91428481D01*
X150535620Y-91486034D01*
X150563888Y-91487886D01*
X150829993Y-91505329D01*
X150830000Y-91505329D01*
X150830007Y-91505329D01*
X151065675Y-91489881D01*
X151124380Y-91486034D01*
X151413722Y-91428481D01*
X151693077Y-91333652D01*
X151957665Y-91203172D01*
X152202957Y-91039273D01*
X152424758Y-90844758D01*
X152619273Y-90622957D01*
X152783172Y-90377665D01*
X152913652Y-90113077D01*
X153008481Y-89833722D01*
X153066034Y-89544380D01*
X153073179Y-89435377D01*
X153085329Y-89250007D01*
X153085329Y-89249992D01*
X153066640Y-88964860D01*
X153066034Y-88955620D01*
X153008481Y-88666278D01*
X152913652Y-88386923D01*
X152783172Y-88122336D01*
X152619273Y-87877043D01*
X152541372Y-87788214D01*
X152424758Y-87655241D01*
X152202955Y-87460725D01*
X151957667Y-87296829D01*
X151957660Y-87296825D01*
X151693080Y-87166349D01*
X151413730Y-87071521D01*
X151413724Y-87071519D01*
X151413722Y-87071519D01*
X151124380Y-87013966D01*
X151124373Y-87013965D01*
X151124363Y-87013964D01*
X150830007Y-86994671D01*
X150829993Y-86994671D01*
X150535636Y-87013964D01*
X150535624Y-87013965D01*
X150535620Y-87013966D01*
X150535612Y-87013967D01*
X150535609Y-87013968D01*
X150246283Y-87071518D01*
X150246269Y-87071521D01*
X149966919Y-87166349D01*
X149702334Y-87296828D01*
X149457041Y-87460728D01*
X149235241Y-87655241D01*
X149040728Y-87877041D01*
X148876828Y-88122334D01*
X148746349Y-88386919D01*
X148651521Y-88666269D01*
X148651518Y-88666283D01*
X148593968Y-88955609D01*
X148593964Y-88955636D01*
X148574671Y-89249992D01*
X148574671Y-89250007D01*
X148593965Y-89544378D01*
X148594479Y-89548280D01*
X148583713Y-89617315D01*
X148537332Y-89669570D01*
X148470063Y-89688455D01*
X148403263Y-89667974D01*
X148359158Y-89616868D01*
X148350136Y-89597521D01*
X148350132Y-89597513D01*
X148299025Y-89524526D01*
X147702962Y-90120589D01*
X147685925Y-90057007D01*
X147620099Y-89942993D01*
X147527007Y-89849901D01*
X147412993Y-89784075D01*
X147349410Y-89767037D01*
X147945472Y-89170974D01*
X147872478Y-89119863D01*
X147666331Y-89023735D01*
X147666317Y-89023730D01*
X147446610Y-88964860D01*
X147446599Y-88964858D01*
X147220002Y-88945034D01*
X147219998Y-88945034D01*
X146993400Y-88964858D01*
X146993389Y-88964860D01*
X146773682Y-89023730D01*
X146773673Y-89023734D01*
X146567516Y-89119866D01*
X146567512Y-89119868D01*
X146494526Y-89170973D01*
X146494526Y-89170974D01*
X147090590Y-89767037D01*
X147027007Y-89784075D01*
X146912993Y-89849901D01*
X146819901Y-89942993D01*
X146754075Y-90057007D01*
X146737037Y-90120589D01*
X146140974Y-89524526D01*
X146140973Y-89524526D01*
X146089868Y-89597512D01*
X146089868Y-89597513D01*
X146062657Y-89655867D01*
X146016484Y-89708306D01*
X145949290Y-89727457D01*
X145882409Y-89707241D01*
X145837893Y-89655865D01*
X145819708Y-89616868D01*
X145810568Y-89597266D01*
X145680047Y-89410861D01*
X145680045Y-89410858D01*
X145519141Y-89249954D01*
X145332734Y-89119432D01*
X145332732Y-89119431D01*
X145126497Y-89023261D01*
X145126488Y-89023258D01*
X144906697Y-88964366D01*
X144906693Y-88964365D01*
X144906692Y-88964365D01*
X144906691Y-88964364D01*
X144906686Y-88964364D01*
X144680002Y-88944532D01*
X144679998Y-88944532D01*
X144453313Y-88964364D01*
X144453302Y-88964366D01*
X144233511Y-89023258D01*
X144233502Y-89023261D01*
X144027267Y-89119431D01*
X144027265Y-89119432D01*
X143840858Y-89249954D01*
X143679954Y-89410858D01*
X143549432Y-89597265D01*
X143549431Y-89597267D01*
X143522382Y-89655275D01*
X143476209Y-89707714D01*
X143409016Y-89726866D01*
X143342135Y-89706650D01*
X143297618Y-89655275D01*
X143279917Y-89617315D01*
X143270568Y-89597266D01*
X143140047Y-89410861D01*
X143140045Y-89410858D01*
X142979140Y-89249953D01*
X142793377Y-89119881D01*
X142749752Y-89065304D01*
X142740500Y-89018306D01*
X142740500Y-84149059D01*
X142740501Y-84149046D01*
X142740501Y-83980945D01*
X142740501Y-83980943D01*
X142699577Y-83828215D01*
X142652565Y-83746788D01*
X142620520Y-83691284D01*
X142508716Y-83579480D01*
X142508715Y-83579479D01*
X142504385Y-83575149D01*
X142504374Y-83575139D01*
X141896819Y-82967584D01*
X141863334Y-82906261D01*
X141860500Y-82879903D01*
X141860500Y-81111692D01*
X141880185Y-81044653D01*
X141913374Y-81010119D01*
X142099139Y-80880047D01*
X142260047Y-80719139D01*
X142390568Y-80532734D01*
X142417618Y-80474724D01*
X142463790Y-80422285D01*
X142530983Y-80403133D01*
X142597865Y-80423348D01*
X142642382Y-80474725D01*
X142669429Y-80532728D01*
X142669432Y-80532734D01*
X142799954Y-80719141D01*
X142960858Y-80880045D01*
X142960861Y-80880047D01*
X143147266Y-81010568D01*
X143353504Y-81106739D01*
X143353509Y-81106740D01*
X143353511Y-81106741D01*
X143406415Y-81120916D01*
X143573308Y-81165635D01*
X143735230Y-81179801D01*
X143799998Y-81185468D01*
X143800000Y-81185468D01*
X143800002Y-81185468D01*
X143856673Y-81180509D01*
X144026692Y-81165635D01*
X144246496Y-81106739D01*
X144452734Y-81010568D01*
X144639139Y-80880047D01*
X144800047Y-80719139D01*
X144930568Y-80532734D01*
X144957895Y-80474129D01*
X145004064Y-80421695D01*
X145071257Y-80402542D01*
X145138139Y-80422757D01*
X145182657Y-80474133D01*
X145209865Y-80532482D01*
X145340342Y-80718820D01*
X145501179Y-80879657D01*
X145687517Y-81010134D01*
X145893673Y-81106265D01*
X145893682Y-81106269D01*
X146089999Y-81158872D01*
X146090000Y-81158871D01*
X146090000Y-80313012D01*
X146147007Y-80345925D01*
X146274174Y-80380000D01*
X146405826Y-80380000D01*
X146532993Y-80345925D01*
X146590000Y-80313012D01*
X146590000Y-81158872D01*
X146786317Y-81106269D01*
X146786326Y-81106265D01*
X146992482Y-81010134D01*
X147178820Y-80879657D01*
X147339657Y-80718820D01*
X147470132Y-80532484D01*
X147497341Y-80474134D01*
X147543513Y-80421695D01*
X147610707Y-80402542D01*
X147677588Y-80422757D01*
X147722106Y-80474133D01*
X147749431Y-80532732D01*
X147749432Y-80532734D01*
X147879954Y-80719141D01*
X148040858Y-80880045D01*
X148040861Y-80880047D01*
X148227266Y-81010568D01*
X148433504Y-81106739D01*
X148433509Y-81106740D01*
X148433511Y-81106741D01*
X148486415Y-81120916D01*
X148653308Y-81165635D01*
X148815230Y-81179801D01*
X148879998Y-81185468D01*
X148880000Y-81185468D01*
X148880002Y-81185468D01*
X148936673Y-81180509D01*
X149106692Y-81165635D01*
X149326496Y-81106739D01*
X149532734Y-81010568D01*
X149719139Y-80880047D01*
X149880047Y-80719139D01*
X150010568Y-80532734D01*
X150106739Y-80326496D01*
X150165635Y-80106692D01*
X150185468Y-79880000D01*
X150165635Y-79653308D01*
X150145082Y-79576604D01*
X150139847Y-79557066D01*
X150141510Y-79487217D01*
X150171939Y-79437294D01*
X150707416Y-78901819D01*
X150768739Y-78868334D01*
X150795097Y-78865500D01*
X159210909Y-78865500D01*
X159277948Y-78885185D01*
X159323292Y-78937097D01*
X159325965Y-78942830D01*
X159461505Y-79136401D01*
X159628599Y-79303495D01*
X159704821Y-79356866D01*
X159822165Y-79439032D01*
X159822167Y-79439033D01*
X159822170Y-79439035D01*
X160036337Y-79538903D01*
X160264592Y-79600063D01*
X160452918Y-79616539D01*
X160499999Y-79620659D01*
X160500000Y-79620659D01*
X160500001Y-79620659D01*
X160539234Y-79617226D01*
X160735408Y-79600063D01*
X160963663Y-79538903D01*
X161177830Y-79439035D01*
X161371401Y-79303495D01*
X161538495Y-79136401D01*
X161674035Y-78942830D01*
X161773903Y-78728663D01*
X161835063Y-78500408D01*
X161855659Y-78265000D01*
X161835063Y-78029592D01*
X161773903Y-77801337D01*
X161704398Y-77652285D01*
X161674035Y-77587170D01*
X161674034Y-77587169D01*
X161538496Y-77393600D01*
X161483480Y-77338584D01*
X161416179Y-77271283D01*
X161382696Y-77209963D01*
X161387680Y-77140271D01*
X161429551Y-77084337D01*
X161460529Y-77067422D01*
X161592086Y-77018354D01*
X161592093Y-77018350D01*
X161707187Y-76932190D01*
X161707190Y-76932187D01*
X161793350Y-76817093D01*
X161793354Y-76817086D01*
X161843596Y-76682379D01*
X161843598Y-76682372D01*
X161849999Y-76622844D01*
X161850000Y-76622827D01*
X161850000Y-75975000D01*
X160933012Y-75975000D01*
X160965925Y-75917993D01*
X161000000Y-75790826D01*
X161000000Y-75659174D01*
X160965925Y-75532007D01*
X160933012Y-75475000D01*
X161850000Y-75475000D01*
X161850000Y-74827172D01*
X161849999Y-74827155D01*
X161843598Y-74767627D01*
X161843596Y-74767620D01*
X161793354Y-74632913D01*
X161793350Y-74632906D01*
X161707190Y-74517812D01*
X161707187Y-74517809D01*
X161592093Y-74431649D01*
X161592086Y-74431645D01*
X161457379Y-74381403D01*
X161457372Y-74381401D01*
X161397844Y-74375000D01*
X160750000Y-74375000D01*
X160750000Y-75291988D01*
X160692993Y-75259075D01*
X160565826Y-75225000D01*
X160434174Y-75225000D01*
X160307007Y-75259075D01*
X160250000Y-75291988D01*
X160250000Y-74375000D01*
X159602155Y-74375000D01*
X159542627Y-74381401D01*
X159542620Y-74381403D01*
X159407913Y-74431645D01*
X159407906Y-74431649D01*
X159292812Y-74517809D01*
X159292809Y-74517812D01*
X159206649Y-74632906D01*
X159206645Y-74632913D01*
X159156403Y-74767620D01*
X159156401Y-74767627D01*
X159150000Y-74827155D01*
X159150000Y-75475000D01*
X160066988Y-75475000D01*
X160034075Y-75532007D01*
X160000000Y-75659174D01*
X160000000Y-75790826D01*
X160034075Y-75917993D01*
X160066988Y-75975000D01*
X159150000Y-75975000D01*
X159150000Y-76622844D01*
X159156401Y-76682372D01*
X159156403Y-76682379D01*
X159206645Y-76817086D01*
X159206649Y-76817093D01*
X159292809Y-76932187D01*
X159292812Y-76932190D01*
X159407906Y-77018350D01*
X159407913Y-77018354D01*
X159539470Y-77067421D01*
X159595403Y-77109292D01*
X159619821Y-77174756D01*
X159604970Y-77243029D01*
X159583819Y-77271284D01*
X159461503Y-77393600D01*
X159325965Y-77587170D01*
X159325962Y-77587175D01*
X159323289Y-77592909D01*
X159277115Y-77645346D01*
X159210909Y-77664500D01*
X150581669Y-77664500D01*
X150581653Y-77664499D01*
X150574057Y-77664499D01*
X150415943Y-77664499D01*
X150308587Y-77693265D01*
X150263210Y-77705424D01*
X150263209Y-77705425D01*
X150213096Y-77734359D01*
X150213095Y-77734360D01*
X150169689Y-77759420D01*
X150126285Y-77784479D01*
X150126282Y-77784481D01*
X150014478Y-77896286D01*
X149322705Y-78588058D01*
X149261382Y-78621543D01*
X149202931Y-78620152D01*
X149106697Y-78594366D01*
X149106693Y-78594365D01*
X149106692Y-78594365D01*
X149106691Y-78594364D01*
X149106686Y-78594364D01*
X148880002Y-78574532D01*
X148879998Y-78574532D01*
X148653313Y-78594364D01*
X148653302Y-78594366D01*
X148433511Y-78653258D01*
X148433502Y-78653261D01*
X148227267Y-78749431D01*
X148227265Y-78749432D01*
X148040858Y-78879954D01*
X147879954Y-79040858D01*
X147749433Y-79227264D01*
X147749432Y-79227266D01*
X147749315Y-79227518D01*
X147722106Y-79285867D01*
X147675933Y-79338306D01*
X147608739Y-79357457D01*
X147541858Y-79337241D01*
X147497342Y-79285865D01*
X147470135Y-79227520D01*
X147470134Y-79227518D01*
X147339657Y-79041179D01*
X147178820Y-78880342D01*
X146992482Y-78749865D01*
X146786328Y-78653734D01*
X146590000Y-78601127D01*
X146590000Y-79446988D01*
X146532993Y-79414075D01*
X146405826Y-79380000D01*
X146274174Y-79380000D01*
X146147007Y-79414075D01*
X146090000Y-79446988D01*
X146090000Y-78601127D01*
X145893671Y-78653734D01*
X145687517Y-78749865D01*
X145501179Y-78880342D01*
X145340342Y-79041179D01*
X145209867Y-79227515D01*
X145182657Y-79285867D01*
X145136484Y-79338306D01*
X145069290Y-79357457D01*
X145002409Y-79337241D01*
X144957893Y-79285865D01*
X144930685Y-79227518D01*
X144930568Y-79227266D01*
X144800047Y-79040861D01*
X144800045Y-79040858D01*
X144639141Y-78879954D01*
X144452734Y-78749432D01*
X144452732Y-78749431D01*
X144246497Y-78653261D01*
X144246488Y-78653258D01*
X144026697Y-78594366D01*
X144026693Y-78594365D01*
X144026692Y-78594365D01*
X144026691Y-78594364D01*
X144026686Y-78594364D01*
X143800002Y-78574532D01*
X143799998Y-78574532D01*
X143573313Y-78594364D01*
X143573302Y-78594366D01*
X143353511Y-78653258D01*
X143353502Y-78653261D01*
X143147267Y-78749431D01*
X143147265Y-78749432D01*
X142960858Y-78879954D01*
X142799954Y-79040858D01*
X142669432Y-79227265D01*
X142669431Y-79227267D01*
X142642382Y-79285275D01*
X142596209Y-79337714D01*
X142529016Y-79356866D01*
X142462135Y-79336650D01*
X142417618Y-79285275D01*
X142390686Y-79227520D01*
X142390568Y-79227266D01*
X142260047Y-79040861D01*
X142260045Y-79040858D01*
X142099141Y-78879954D01*
X141912734Y-78749432D01*
X141912732Y-78749431D01*
X141706497Y-78653261D01*
X141706488Y-78653258D01*
X141486697Y-78594366D01*
X141486693Y-78594365D01*
X141486692Y-78594365D01*
X141486691Y-78594364D01*
X141486686Y-78594364D01*
X141260002Y-78574532D01*
X141259998Y-78574532D01*
X141033313Y-78594364D01*
X141033302Y-78594366D01*
X140813511Y-78653258D01*
X140813502Y-78653261D01*
X140607267Y-78749431D01*
X140607265Y-78749432D01*
X140420858Y-78879954D01*
X140259954Y-79040858D01*
X140129432Y-79227265D01*
X140129431Y-79227267D01*
X140102382Y-79285275D01*
X140056209Y-79337714D01*
X139989016Y-79356866D01*
X139922135Y-79336650D01*
X139877618Y-79285275D01*
X139850686Y-79227520D01*
X139850568Y-79227266D01*
X139720047Y-79040861D01*
X139720045Y-79040858D01*
X139559141Y-78879954D01*
X139372734Y-78749432D01*
X139372732Y-78749431D01*
X139166497Y-78653261D01*
X139166488Y-78653258D01*
X138946697Y-78594366D01*
X138946693Y-78594365D01*
X138946692Y-78594365D01*
X138946691Y-78594364D01*
X138946686Y-78594364D01*
X138720002Y-78574532D01*
X138719998Y-78574532D01*
X138493313Y-78594364D01*
X138493302Y-78594366D01*
X138273511Y-78653258D01*
X138273502Y-78653261D01*
X138067267Y-78749431D01*
X138067265Y-78749432D01*
X137880858Y-78879954D01*
X137719954Y-79040858D01*
X137589432Y-79227265D01*
X137589431Y-79227267D01*
X137562382Y-79285275D01*
X137516209Y-79337714D01*
X137449016Y-79356866D01*
X137382135Y-79336650D01*
X137337618Y-79285275D01*
X137310686Y-79227520D01*
X137310568Y-79227266D01*
X137180047Y-79040861D01*
X137180045Y-79040858D01*
X137019141Y-78879954D01*
X136832734Y-78749432D01*
X136832732Y-78749431D01*
X136626497Y-78653261D01*
X136626488Y-78653258D01*
X136406697Y-78594366D01*
X136406693Y-78594365D01*
X136406692Y-78594365D01*
X136406691Y-78594364D01*
X136406686Y-78594364D01*
X136180002Y-78574532D01*
X136179998Y-78574532D01*
X135953313Y-78594364D01*
X135953302Y-78594366D01*
X135733511Y-78653258D01*
X135733502Y-78653261D01*
X135527267Y-78749431D01*
X135527265Y-78749432D01*
X135340858Y-78879954D01*
X135179954Y-79040858D01*
X135049432Y-79227265D01*
X135049431Y-79227267D01*
X135022382Y-79285275D01*
X134976209Y-79337714D01*
X134909016Y-79356866D01*
X134842135Y-79336650D01*
X134797618Y-79285275D01*
X134770686Y-79227520D01*
X134770568Y-79227266D01*
X134640047Y-79040861D01*
X134640045Y-79040858D01*
X134479141Y-78879954D01*
X134292734Y-78749432D01*
X134292732Y-78749431D01*
X134086497Y-78653261D01*
X134086488Y-78653258D01*
X133866697Y-78594366D01*
X133866693Y-78594365D01*
X133866692Y-78594365D01*
X133866691Y-78594364D01*
X133866686Y-78594364D01*
X133640002Y-78574532D01*
X133639998Y-78574532D01*
X133413313Y-78594364D01*
X133413302Y-78594366D01*
X133193511Y-78653258D01*
X133193502Y-78653261D01*
X132987267Y-78749431D01*
X132987265Y-78749432D01*
X132800858Y-78879954D01*
X132639954Y-79040858D01*
X132509432Y-79227265D01*
X132509431Y-79227267D01*
X132482382Y-79285275D01*
X132436209Y-79337714D01*
X132369016Y-79356866D01*
X132302135Y-79336650D01*
X132257618Y-79285275D01*
X132230686Y-79227520D01*
X132230568Y-79227266D01*
X132100047Y-79040861D01*
X132100045Y-79040858D01*
X131939141Y-78879954D01*
X131752734Y-78749432D01*
X131752732Y-78749431D01*
X131546497Y-78653261D01*
X131546488Y-78653258D01*
X131326697Y-78594366D01*
X131326693Y-78594365D01*
X131326692Y-78594365D01*
X131326691Y-78594364D01*
X131326686Y-78594364D01*
X131100002Y-78574532D01*
X131099998Y-78574532D01*
X130873313Y-78594364D01*
X130873302Y-78594366D01*
X130756593Y-78625638D01*
X130686743Y-78623975D01*
X130628881Y-78584812D01*
X130601377Y-78520583D01*
X130600500Y-78505863D01*
X130600500Y-66169060D01*
X130600501Y-66169047D01*
X130600501Y-66014136D01*
X130620186Y-65947097D01*
X130672990Y-65901342D01*
X130742148Y-65891398D01*
X130756578Y-65894357D01*
X130873308Y-65925635D01*
X131035230Y-65939801D01*
X131099998Y-65945468D01*
X131100000Y-65945468D01*
X131100002Y-65945468D01*
X131156807Y-65940498D01*
X131326692Y-65925635D01*
X131546496Y-65866739D01*
X131752734Y-65770568D01*
X131939139Y-65640047D01*
X132100047Y-65479139D01*
X132230568Y-65292734D01*
X132257618Y-65234724D01*
X132303790Y-65182285D01*
X132370983Y-65163133D01*
X132437865Y-65183348D01*
X132482382Y-65234725D01*
X132509429Y-65292728D01*
X132509432Y-65292734D01*
X132639954Y-65479141D01*
X132800858Y-65640045D01*
X132800861Y-65640047D01*
X132987266Y-65770568D01*
X133193504Y-65866739D01*
X133413308Y-65925635D01*
X133575230Y-65939801D01*
X133639998Y-65945468D01*
X133640000Y-65945468D01*
X133640002Y-65945468D01*
X133696807Y-65940498D01*
X133866692Y-65925635D01*
X134086496Y-65866739D01*
X134292734Y-65770568D01*
X134479139Y-65640047D01*
X134640047Y-65479139D01*
X134770568Y-65292734D01*
X134797618Y-65234724D01*
X134843790Y-65182285D01*
X134910983Y-65163133D01*
X134977865Y-65183348D01*
X135022382Y-65234725D01*
X135049429Y-65292728D01*
X135049432Y-65292734D01*
X135179954Y-65479141D01*
X135340858Y-65640045D01*
X135340861Y-65640047D01*
X135527266Y-65770568D01*
X135733504Y-65866739D01*
X135953308Y-65925635D01*
X136115230Y-65939801D01*
X136179998Y-65945468D01*
X136180000Y-65945468D01*
X136180002Y-65945468D01*
X136236807Y-65940498D01*
X136406692Y-65925635D01*
X136626496Y-65866739D01*
X136832734Y-65770568D01*
X137019139Y-65640047D01*
X137180047Y-65479139D01*
X137310568Y-65292734D01*
X137337618Y-65234724D01*
X137383790Y-65182285D01*
X137450983Y-65163133D01*
X137517865Y-65183348D01*
X137562382Y-65234725D01*
X137589429Y-65292728D01*
X137589432Y-65292734D01*
X137719954Y-65479141D01*
X137880858Y-65640045D01*
X137880861Y-65640047D01*
X138067266Y-65770568D01*
X138273504Y-65866739D01*
X138493308Y-65925635D01*
X138655230Y-65939801D01*
X138719998Y-65945468D01*
X138720000Y-65945468D01*
X138720002Y-65945468D01*
X138776807Y-65940498D01*
X138946692Y-65925635D01*
X139166496Y-65866739D01*
X139372734Y-65770568D01*
X139559139Y-65640047D01*
X139720047Y-65479139D01*
X139850568Y-65292734D01*
X139877618Y-65234724D01*
X139923790Y-65182285D01*
X139990983Y-65163133D01*
X140057865Y-65183348D01*
X140102382Y-65234725D01*
X140129429Y-65292728D01*
X140129432Y-65292734D01*
X140259954Y-65479141D01*
X140420858Y-65640045D01*
X140420861Y-65640047D01*
X140606624Y-65770118D01*
X140650248Y-65824693D01*
X140659500Y-65871692D01*
X140659500Y-66173330D01*
X140659499Y-66173348D01*
X140659499Y-66339054D01*
X140659498Y-66339054D01*
X140700422Y-66491782D01*
X140700424Y-66491787D01*
X140704426Y-66498718D01*
X140704427Y-66498720D01*
X140779477Y-66628712D01*
X140779481Y-66628717D01*
X140898349Y-66747585D01*
X140898355Y-66747590D01*
X142790139Y-68639374D01*
X142790149Y-68639385D01*
X142794479Y-68643715D01*
X142794480Y-68643716D01*
X142906284Y-68755520D01*
X142906286Y-68755521D01*
X142906290Y-68755524D01*
X143043209Y-68834573D01*
X143043216Y-68834577D01*
X143155019Y-68864534D01*
X143195942Y-68875500D01*
X143195943Y-68875500D01*
X159025501Y-68875500D01*
X159092540Y-68895185D01*
X159138295Y-68947989D01*
X159149501Y-68999500D01*
X159149501Y-69172876D01*
X159155908Y-69232483D01*
X159206202Y-69367328D01*
X159206206Y-69367335D01*
X159292452Y-69482544D01*
X159292455Y-69482547D01*
X159407664Y-69568793D01*
X159407671Y-69568797D01*
X159542517Y-69619091D01*
X159542516Y-69619091D01*
X159549444Y-69619835D01*
X159602127Y-69625500D01*
X161397872Y-69625499D01*
X161457483Y-69619091D01*
X161592331Y-69568796D01*
X161707546Y-69482546D01*
X161793796Y-69367331D01*
X161844091Y-69232483D01*
X161850500Y-69172873D01*
X161850499Y-67377128D01*
X161844091Y-67317517D01*
X161793796Y-67182669D01*
X161793795Y-67182668D01*
X161793793Y-67182664D01*
X161707547Y-67067455D01*
X161707544Y-67067452D01*
X161592335Y-66981206D01*
X161592328Y-66981202D01*
X161460917Y-66932189D01*
X161404983Y-66890318D01*
X161380566Y-66824853D01*
X161395418Y-66756580D01*
X161416563Y-66728332D01*
X161538495Y-66606401D01*
X161674035Y-66412830D01*
X161773903Y-66198663D01*
X161835063Y-65970408D01*
X161855659Y-65735000D01*
X161835063Y-65499592D01*
X161773903Y-65271337D01*
X161674035Y-65057171D01*
X161674034Y-65057169D01*
X161538494Y-64863597D01*
X161371402Y-64696506D01*
X161371395Y-64696501D01*
X161177834Y-64560967D01*
X161177830Y-64560965D01*
X161177828Y-64560964D01*
X160963663Y-64461097D01*
X160963659Y-64461096D01*
X160963655Y-64461094D01*
X160735413Y-64399938D01*
X160735403Y-64399936D01*
X160500001Y-64379341D01*
X160499999Y-64379341D01*
X160264596Y-64399936D01*
X160264586Y-64399938D01*
X160036344Y-64461094D01*
X160036335Y-64461098D01*
X159822171Y-64560964D01*
X159822169Y-64560965D01*
X159628597Y-64696505D01*
X159461506Y-64863596D01*
X159325965Y-65057170D01*
X159325962Y-65057175D01*
X159323289Y-65062909D01*
X159277115Y-65115346D01*
X159210909Y-65134500D01*
X157535098Y-65134500D01*
X157468059Y-65114815D01*
X157447417Y-65098181D01*
X156081752Y-63732516D01*
X154661415Y-62312180D01*
X154627931Y-62250858D01*
X154632915Y-62181166D01*
X154674787Y-62125233D01*
X154740251Y-62100816D01*
X154749097Y-62100500D01*
X160199903Y-62100500D01*
X160266942Y-62120185D01*
G37*
%TD.AperFunction*%
%TA.AperFunction,Conductor*%
G36*
X146754075Y-90442993D02*
G01*
X146819901Y-90557007D01*
X146912993Y-90650099D01*
X147027007Y-90715925D01*
X147090590Y-90732962D01*
X146494526Y-91329025D01*
X146567513Y-91380132D01*
X146567517Y-91380134D01*
X146626456Y-91407618D01*
X146678895Y-91453790D01*
X146698047Y-91520984D01*
X146677831Y-91587865D01*
X146626457Y-91632382D01*
X146567512Y-91659868D01*
X146494526Y-91710973D01*
X146494526Y-91710974D01*
X147090590Y-92307037D01*
X147027007Y-92324075D01*
X146912993Y-92389901D01*
X146819901Y-92482993D01*
X146754075Y-92597007D01*
X146737037Y-92660589D01*
X146140974Y-92064526D01*
X146140973Y-92064526D01*
X146089868Y-92137512D01*
X146089868Y-92137513D01*
X146062657Y-92195867D01*
X146016484Y-92248306D01*
X145949290Y-92267457D01*
X145882409Y-92247241D01*
X145837893Y-92195865D01*
X145810682Y-92137512D01*
X145810568Y-92137266D01*
X145680047Y-91950861D01*
X145680045Y-91950858D01*
X145519141Y-91789954D01*
X145332734Y-91659432D01*
X145332728Y-91659429D01*
X145274725Y-91632382D01*
X145222285Y-91586210D01*
X145203133Y-91519017D01*
X145223348Y-91452135D01*
X145274725Y-91407618D01*
X145332734Y-91380568D01*
X145519139Y-91250047D01*
X145680047Y-91089139D01*
X145810568Y-90902734D01*
X145837893Y-90844134D01*
X145884065Y-90791695D01*
X145951258Y-90772543D01*
X146018139Y-90792758D01*
X146062657Y-90844134D01*
X146089864Y-90902480D01*
X146140974Y-90975472D01*
X146737037Y-90379409D01*
X146754075Y-90442993D01*
G37*
%TD.AperFunction*%
%TA.AperFunction,Conductor*%
G36*
X139875444Y-50795535D02*
G01*
X139879048Y-50795695D01*
X141238268Y-50875602D01*
X141241883Y-50875868D01*
X142598203Y-50995645D01*
X142601749Y-50996011D01*
X143954007Y-51155557D01*
X143957604Y-51156036D01*
X145304524Y-51355201D01*
X145308075Y-51355779D01*
X146198238Y-51514237D01*
X146648623Y-51594410D01*
X146652197Y-51595101D01*
X146891817Y-51645054D01*
X147985110Y-51872971D01*
X147988609Y-51873754D01*
X149312851Y-52190648D01*
X149316330Y-52191535D01*
X150630689Y-52547165D01*
X150634107Y-52548144D01*
X151937469Y-52942209D01*
X151940938Y-52943314D01*
X153232099Y-53375447D01*
X153235535Y-53376653D01*
X154513460Y-53846507D01*
X154516823Y-53847800D01*
X154738388Y-53936730D01*
X155780463Y-54354990D01*
X155783821Y-54356396D01*
X157031999Y-54900451D01*
X157035187Y-54901896D01*
X158266949Y-55482402D01*
X158270189Y-55483988D01*
X159484275Y-56100353D01*
X159487445Y-56102021D01*
X160682937Y-56753774D01*
X160686108Y-56755564D01*
X161861898Y-57442100D01*
X161865014Y-57443981D01*
X163020158Y-58164748D01*
X163023218Y-58166720D01*
X164156760Y-58921122D01*
X164159695Y-58923139D01*
X165270557Y-59710463D01*
X165273496Y-59712611D01*
X166360796Y-60532229D01*
X166363612Y-60534417D01*
X167075236Y-61104364D01*
X167426388Y-61385605D01*
X167429196Y-61387923D01*
X168466470Y-62269895D01*
X168469199Y-62272285D01*
X168513421Y-62312181D01*
X169480159Y-63184352D01*
X169482826Y-63186830D01*
X170115388Y-63792128D01*
X170434737Y-64097714D01*
X170466581Y-64128185D01*
X170469174Y-64130741D01*
X171424835Y-65100535D01*
X171427352Y-65103165D01*
X172354148Y-66100615D01*
X172356587Y-66103318D01*
X173253722Y-67127568D01*
X173256080Y-67130342D01*
X174122721Y-68180440D01*
X174124997Y-68183281D01*
X174719246Y-68947989D01*
X174940323Y-69232482D01*
X174960458Y-69258392D01*
X174962650Y-69261299D01*
X175766211Y-70360506D01*
X175768316Y-70363477D01*
X176539224Y-71485743D01*
X176541241Y-71488773D01*
X176660985Y-71674554D01*
X176786133Y-71868717D01*
X177278901Y-72633232D01*
X177280828Y-72636321D01*
X177984550Y-73801906D01*
X177986386Y-73805050D01*
X178655605Y-74990824D01*
X178657347Y-74994020D01*
X179007406Y-75659174D01*
X179287257Y-76190925D01*
X179291462Y-76198914D01*
X179293110Y-76202161D01*
X179891570Y-77425135D01*
X179893122Y-77428428D01*
X180222024Y-78153739D01*
X180435258Y-78623975D01*
X180455425Y-78668447D01*
X180456875Y-78671774D01*
X180962541Y-79879998D01*
X180982551Y-79927808D01*
X180983902Y-79931177D01*
X181070169Y-80155580D01*
X181472460Y-81202052D01*
X181473717Y-81205469D01*
X181924772Y-82490188D01*
X181925927Y-82493640D01*
X182339057Y-83790995D01*
X182340111Y-83794480D01*
X182714993Y-85103460D01*
X182715943Y-85106974D01*
X183052216Y-86426314D01*
X183053064Y-86429855D01*
X183350475Y-87758562D01*
X183351218Y-87762126D01*
X183609490Y-89098974D01*
X183610128Y-89102558D01*
X183829047Y-90446427D01*
X183829579Y-90450028D01*
X184008947Y-91799700D01*
X184009374Y-91803316D01*
X184149049Y-93157719D01*
X184149369Y-93161345D01*
X184249218Y-94519228D01*
X184249432Y-94522863D01*
X184309378Y-95883116D01*
X184309485Y-95886755D01*
X184329473Y-97248180D01*
X184329473Y-97251820D01*
X184309485Y-98613244D01*
X184309378Y-98616883D01*
X184249432Y-99977136D01*
X184249218Y-99980771D01*
X184149369Y-101338654D01*
X184149049Y-101342280D01*
X184009374Y-102696683D01*
X184008947Y-102700299D01*
X183829579Y-104049971D01*
X183829047Y-104053572D01*
X183610128Y-105397441D01*
X183609490Y-105401025D01*
X183351218Y-106737873D01*
X183350475Y-106741437D01*
X183053064Y-108070144D01*
X183052216Y-108073685D01*
X182715943Y-109393025D01*
X182714993Y-109396539D01*
X182340111Y-110705519D01*
X182339057Y-110709004D01*
X181925927Y-112006359D01*
X181924772Y-112009811D01*
X181473717Y-113294530D01*
X181472460Y-113297947D01*
X180983907Y-114568812D01*
X180982551Y-114572191D01*
X180456880Y-115828215D01*
X180455425Y-115831552D01*
X179893122Y-117071571D01*
X179891570Y-117074864D01*
X179293110Y-118297838D01*
X179291462Y-118301085D01*
X178657347Y-119505979D01*
X178655605Y-119509175D01*
X177986386Y-120694949D01*
X177984550Y-120698093D01*
X177280828Y-121863678D01*
X177278901Y-121866767D01*
X176541241Y-123011226D01*
X176539224Y-123014256D01*
X175768316Y-124136522D01*
X175766211Y-124139493D01*
X174962650Y-125238700D01*
X174960458Y-125241607D01*
X174655573Y-125633947D01*
X174598894Y-125674804D01*
X174529124Y-125678532D01*
X174468414Y-125643947D01*
X174436040Y-125582031D01*
X174437885Y-125525773D01*
X174498705Y-125298794D01*
X174556102Y-124936404D01*
X174575304Y-124570000D01*
X174556102Y-124203596D01*
X174498705Y-123841206D01*
X174403742Y-123486801D01*
X174272255Y-123144264D01*
X174105682Y-122817348D01*
X173905851Y-122509634D01*
X173674949Y-122224494D01*
X173415506Y-121965051D01*
X173336232Y-121900856D01*
X173130364Y-121734147D01*
X172822656Y-121534320D01*
X172495739Y-121367746D01*
X172153206Y-121236260D01*
X172153199Y-121236258D01*
X171798794Y-121141295D01*
X171798790Y-121141294D01*
X171798789Y-121141294D01*
X171436405Y-121083898D01*
X171070001Y-121064696D01*
X171069999Y-121064696D01*
X170703594Y-121083898D01*
X170341211Y-121141294D01*
X170341209Y-121141294D01*
X169986793Y-121236260D01*
X169644260Y-121367746D01*
X169317343Y-121534320D01*
X169009635Y-121734147D01*
X168724498Y-121965047D01*
X168724490Y-121965054D01*
X168465054Y-122224490D01*
X168465047Y-122224498D01*
X168234147Y-122509635D01*
X168034320Y-122817343D01*
X167867746Y-123144260D01*
X167736260Y-123486793D01*
X167641294Y-123841209D01*
X167641294Y-123841211D01*
X167587203Y-124182732D01*
X167583898Y-124203596D01*
X167564696Y-124570000D01*
X167583898Y-124936404D01*
X167641295Y-125298794D01*
X167731099Y-125633947D01*
X167736260Y-125653206D01*
X167867746Y-125995739D01*
X168034320Y-126322656D01*
X168234147Y-126630364D01*
X168234149Y-126630366D01*
X168465051Y-126915506D01*
X168724494Y-127174949D01*
X168724498Y-127174952D01*
X169009635Y-127405852D01*
X169234988Y-127552197D01*
X169317348Y-127605682D01*
X169644264Y-127772255D01*
X169929476Y-127881737D01*
X169977422Y-127900142D01*
X169986801Y-127903742D01*
X170341206Y-127998705D01*
X170703596Y-128056102D01*
X171049734Y-128074241D01*
X171069999Y-128075304D01*
X171070000Y-128075304D01*
X171070001Y-128075304D01*
X171089203Y-128074297D01*
X171436404Y-128056102D01*
X171798794Y-127998705D01*
X172153199Y-127903742D01*
X172495736Y-127772255D01*
X172658051Y-127689550D01*
X172726718Y-127676654D01*
X172791459Y-127702930D01*
X172831716Y-127760036D01*
X172834709Y-127829841D01*
X172807623Y-127881737D01*
X172356587Y-128396681D01*
X172354148Y-128399384D01*
X171427352Y-129396834D01*
X171424835Y-129399464D01*
X170469174Y-130369258D01*
X170466581Y-130371814D01*
X169482826Y-131313169D01*
X169480159Y-131315647D01*
X168469208Y-132227706D01*
X168466470Y-132230104D01*
X167429196Y-133112076D01*
X167426388Y-133114394D01*
X166363641Y-133965559D01*
X166360766Y-133967793D01*
X165273496Y-134787388D01*
X165270557Y-134789536D01*
X164159728Y-135576837D01*
X164156727Y-135578899D01*
X163023218Y-136333279D01*
X163020158Y-136335251D01*
X161865014Y-137056018D01*
X161861898Y-137057899D01*
X160686108Y-137744435D01*
X160682937Y-137746225D01*
X159487470Y-138397965D01*
X159484249Y-138399660D01*
X158270192Y-139016009D01*
X158266922Y-139017610D01*
X157568780Y-139346631D01*
X157035243Y-139598077D01*
X157031948Y-139599571D01*
X155783821Y-140143603D01*
X155780463Y-140145009D01*
X154516841Y-140652192D01*
X154513442Y-140653498D01*
X153235534Y-141123346D01*
X153232099Y-141124552D01*
X151940938Y-141556685D01*
X151937469Y-141557790D01*
X150634156Y-141951841D01*
X150630656Y-141952843D01*
X149316345Y-142308460D01*
X149312818Y-142309359D01*
X147988636Y-142626239D01*
X147985083Y-142627034D01*
X146652197Y-142904898D01*
X146648623Y-142905589D01*
X145308097Y-143144216D01*
X145304503Y-143144801D01*
X143957610Y-143343962D01*
X143954001Y-143344442D01*
X142601786Y-143503984D01*
X142598165Y-143504357D01*
X141241891Y-143624130D01*
X141238260Y-143624397D01*
X139879064Y-143704303D01*
X139875427Y-143704464D01*
X138514409Y-143744436D01*
X138510769Y-143744489D01*
X137149231Y-143744489D01*
X137145591Y-143744436D01*
X135784572Y-143704464D01*
X135780935Y-143704303D01*
X134421739Y-143624397D01*
X134418108Y-143624130D01*
X133061834Y-143504357D01*
X133058213Y-143503984D01*
X131705998Y-143344442D01*
X131702389Y-143343962D01*
X130355496Y-143144801D01*
X130351902Y-143144216D01*
X129011376Y-142905589D01*
X129007802Y-142904898D01*
X127674916Y-142627034D01*
X127671363Y-142626239D01*
X126347181Y-142309359D01*
X126343654Y-142308460D01*
X125029343Y-141952843D01*
X125025843Y-141951841D01*
X123722530Y-141557790D01*
X123719061Y-141556685D01*
X122427900Y-141124552D01*
X122424465Y-141123346D01*
X121146557Y-140653498D01*
X121143158Y-140652192D01*
X119879536Y-140145009D01*
X119876178Y-140143603D01*
X119045785Y-139781652D01*
X118628031Y-139599562D01*
X118624781Y-139598089D01*
X117393077Y-139017610D01*
X117389807Y-139016009D01*
X116175750Y-138399660D01*
X116172529Y-138397965D01*
X114977062Y-137746225D01*
X114973891Y-137744435D01*
X113798101Y-137057899D01*
X113794985Y-137056018D01*
X112639841Y-136335251D01*
X112636781Y-136333279D01*
X112019859Y-135922701D01*
X111503254Y-135578886D01*
X111500290Y-135576850D01*
X110389442Y-134789536D01*
X110386503Y-134787388D01*
X109698778Y-134268974D01*
X109299213Y-133967777D01*
X109296378Y-133965574D01*
X108584764Y-133395636D01*
X108233611Y-133114394D01*
X108230803Y-133112076D01*
X107193529Y-132230104D01*
X107190791Y-132227706D01*
X106179840Y-131315647D01*
X106177173Y-131313169D01*
X105193418Y-130371814D01*
X105190825Y-130369258D01*
X104235164Y-129399464D01*
X104232647Y-129396834D01*
X103305851Y-128399384D01*
X103303412Y-128396681D01*
X102868496Y-127900142D01*
X102839132Y-127836742D01*
X102848706Y-127767531D01*
X102894179Y-127714484D01*
X102961112Y-127694442D01*
X103018068Y-127707954D01*
X103144264Y-127772255D01*
X103429476Y-127881737D01*
X103477422Y-127900142D01*
X103486801Y-127903742D01*
X103841206Y-127998705D01*
X104203596Y-128056102D01*
X104549734Y-128074241D01*
X104569999Y-128075304D01*
X104570000Y-128075304D01*
X104570001Y-128075304D01*
X104589203Y-128074297D01*
X104936404Y-128056102D01*
X105298794Y-127998705D01*
X105653199Y-127903742D01*
X105995736Y-127772255D01*
X106322652Y-127605682D01*
X106630366Y-127405851D01*
X106915506Y-127174949D01*
X107174949Y-126915506D01*
X107405851Y-126630366D01*
X107605682Y-126322652D01*
X107772255Y-125995736D01*
X107903742Y-125653199D01*
X107998705Y-125298794D01*
X108056102Y-124936404D01*
X108075304Y-124570000D01*
X108056102Y-124203596D01*
X107998705Y-123841206D01*
X107903742Y-123486801D01*
X107772255Y-123144264D01*
X107605682Y-122817348D01*
X107505126Y-122662504D01*
X110434592Y-122662504D01*
X110454196Y-122924120D01*
X110454197Y-122924125D01*
X110512576Y-123179902D01*
X110512578Y-123179911D01*
X110512580Y-123179916D01*
X110608432Y-123424143D01*
X110739614Y-123651357D01*
X110871736Y-123817033D01*
X110903198Y-123856485D01*
X111002260Y-123948400D01*
X111095521Y-124034933D01*
X111312296Y-124182728D01*
X111312301Y-124182730D01*
X111312302Y-124182731D01*
X111312303Y-124182732D01*
X111437843Y-124243188D01*
X111548673Y-124296561D01*
X111548674Y-124296561D01*
X111548677Y-124296563D01*
X111799385Y-124373896D01*
X112058818Y-124413000D01*
X112321182Y-124413000D01*
X112580615Y-124373896D01*
X112831323Y-124296563D01*
X113067704Y-124182728D01*
X113284479Y-124034933D01*
X113476805Y-123856481D01*
X113640386Y-123651357D01*
X113771568Y-123424143D01*
X113867420Y-123179916D01*
X113925802Y-122924130D01*
X113933804Y-122817348D01*
X113945408Y-122662504D01*
X113945408Y-122662495D01*
X113925803Y-122400879D01*
X113925802Y-122400874D01*
X113925802Y-122400870D01*
X113867420Y-122145084D01*
X113771568Y-121900857D01*
X113640386Y-121673643D01*
X113476805Y-121468519D01*
X113476804Y-121468518D01*
X113476801Y-121468514D01*
X113284479Y-121290067D01*
X113067704Y-121142272D01*
X113067700Y-121142270D01*
X113067697Y-121142268D01*
X113067696Y-121142267D01*
X112831325Y-121028438D01*
X112831327Y-121028438D01*
X112580623Y-120951106D01*
X112580619Y-120951105D01*
X112580615Y-120951104D01*
X112455823Y-120932294D01*
X112321187Y-120912000D01*
X112321182Y-120912000D01*
X112058818Y-120912000D01*
X112058812Y-120912000D01*
X111897247Y-120936353D01*
X111799385Y-120951104D01*
X111799382Y-120951105D01*
X111799376Y-120951106D01*
X111548673Y-121028438D01*
X111312303Y-121142267D01*
X111312302Y-121142268D01*
X111095520Y-121290067D01*
X110903198Y-121468514D01*
X110739614Y-121673643D01*
X110608432Y-121900856D01*
X110512582Y-122145078D01*
X110512576Y-122145097D01*
X110454197Y-122400874D01*
X110454196Y-122400879D01*
X110434592Y-122662495D01*
X110434592Y-122662504D01*
X107505126Y-122662504D01*
X107405851Y-122509634D01*
X107174949Y-122224494D01*
X106915506Y-121965051D01*
X106836232Y-121900856D01*
X106630364Y-121734147D01*
X106322656Y-121534320D01*
X105995739Y-121367746D01*
X105653206Y-121236260D01*
X105653199Y-121236258D01*
X105298794Y-121141295D01*
X105298790Y-121141294D01*
X105298789Y-121141294D01*
X104936405Y-121083898D01*
X104570001Y-121064696D01*
X104569999Y-121064696D01*
X104203594Y-121083898D01*
X103841211Y-121141294D01*
X103841209Y-121141294D01*
X103486793Y-121236260D01*
X103144260Y-121367746D01*
X102817343Y-121534320D01*
X102509635Y-121734147D01*
X102224498Y-121965047D01*
X102224490Y-121965054D01*
X101965054Y-122224490D01*
X101965047Y-122224498D01*
X101734147Y-122509635D01*
X101534320Y-122817343D01*
X101367746Y-123144260D01*
X101236260Y-123486793D01*
X101141294Y-123841209D01*
X101141294Y-123841211D01*
X101083898Y-124203594D01*
X101064696Y-124569999D01*
X101064696Y-124570000D01*
X101083898Y-124936405D01*
X101141294Y-125298788D01*
X101141294Y-125298790D01*
X101191587Y-125486484D01*
X101189924Y-125556334D01*
X101150762Y-125614197D01*
X101086533Y-125641701D01*
X101017631Y-125630115D01*
X100973900Y-125594665D01*
X100699541Y-125241607D01*
X100697349Y-125238700D01*
X100476359Y-124936404D01*
X99893788Y-124139493D01*
X99891683Y-124136522D01*
X99234574Y-123179921D01*
X99120767Y-123014244D01*
X99118758Y-123011226D01*
X98381076Y-121866732D01*
X98379193Y-121863713D01*
X97675441Y-120698079D01*
X97673613Y-120694949D01*
X97004394Y-119509175D01*
X97002652Y-119505979D01*
X96414772Y-118388937D01*
X96368522Y-118301056D01*
X96366904Y-118297868D01*
X95768427Y-117074860D01*
X95766877Y-117071571D01*
X95204555Y-115831509D01*
X95203137Y-115828257D01*
X94677430Y-114572146D01*
X94676110Y-114568858D01*
X94187539Y-113297947D01*
X94186282Y-113294530D01*
X93735227Y-112009811D01*
X93734072Y-112006359D01*
X93699943Y-111899184D01*
X93320935Y-110708981D01*
X93319888Y-110705519D01*
X92944993Y-109396492D01*
X92944069Y-109393074D01*
X92926081Y-109322501D01*
X110884532Y-109322501D01*
X110904364Y-109549186D01*
X110904366Y-109549197D01*
X110963258Y-109768988D01*
X110963261Y-109768997D01*
X111059431Y-109975232D01*
X111059432Y-109975234D01*
X111189954Y-110161641D01*
X111350858Y-110322545D01*
X111350861Y-110322547D01*
X111537266Y-110453068D01*
X111743504Y-110549239D01*
X111963308Y-110608135D01*
X112125230Y-110622301D01*
X112189998Y-110627968D01*
X112190000Y-110627968D01*
X112190002Y-110627968D01*
X112246673Y-110623009D01*
X112416692Y-110608135D01*
X112636496Y-110549239D01*
X112842734Y-110453068D01*
X113029139Y-110322547D01*
X113190047Y-110161639D01*
X113320568Y-109975234D01*
X113347618Y-109917224D01*
X113393790Y-109864785D01*
X113460983Y-109845633D01*
X113527865Y-109865848D01*
X113572382Y-109917225D01*
X113599429Y-109975228D01*
X113599432Y-109975234D01*
X113729954Y-110161641D01*
X113890858Y-110322545D01*
X113890861Y-110322547D01*
X114077266Y-110453068D01*
X114283504Y-110549239D01*
X114503308Y-110608135D01*
X114665230Y-110622301D01*
X114729998Y-110627968D01*
X114730000Y-110627968D01*
X114730002Y-110627968D01*
X114786673Y-110623009D01*
X114956692Y-110608135D01*
X115176496Y-110549239D01*
X115382734Y-110453068D01*
X115569139Y-110322547D01*
X115730047Y-110161639D01*
X115860568Y-109975234D01*
X115887893Y-109916634D01*
X115934065Y-109864195D01*
X116001258Y-109845043D01*
X116068139Y-109865258D01*
X116112657Y-109916634D01*
X116139864Y-109974980D01*
X116190974Y-110047972D01*
X116787037Y-109451909D01*
X116804075Y-109515493D01*
X116869901Y-109629507D01*
X116962993Y-109722599D01*
X117077007Y-109788425D01*
X117140590Y-109805462D01*
X116544526Y-110401525D01*
X116617513Y-110452632D01*
X116617521Y-110452636D01*
X116823668Y-110548764D01*
X116823682Y-110548769D01*
X117043389Y-110607639D01*
X117043400Y-110607641D01*
X117269998Y-110627466D01*
X117270002Y-110627466D01*
X117496599Y-110607641D01*
X117496610Y-110607639D01*
X117716317Y-110548769D01*
X117716331Y-110548764D01*
X117922478Y-110452636D01*
X117995471Y-110401524D01*
X117399409Y-109805462D01*
X117462993Y-109788425D01*
X117577007Y-109722599D01*
X117670099Y-109629507D01*
X117735925Y-109515493D01*
X117752962Y-109451909D01*
X118349024Y-110047971D01*
X118400133Y-109974982D01*
X118427341Y-109916635D01*
X118473513Y-109864196D01*
X118540707Y-109845043D01*
X118607588Y-109865258D01*
X118652105Y-109916632D01*
X118679432Y-109975234D01*
X118679433Y-109975235D01*
X118809954Y-110161641D01*
X118970858Y-110322545D01*
X118970861Y-110322547D01*
X119157266Y-110453068D01*
X119363504Y-110549239D01*
X119583308Y-110608135D01*
X119745230Y-110622301D01*
X119809998Y-110627968D01*
X119810000Y-110627968D01*
X119810002Y-110627968D01*
X119866673Y-110623009D01*
X120036692Y-110608135D01*
X120256496Y-110549239D01*
X120462734Y-110453068D01*
X120649139Y-110322547D01*
X120810047Y-110161639D01*
X120940568Y-109975234D01*
X121036739Y-109768996D01*
X121095635Y-109549192D01*
X121115468Y-109322500D01*
X121095635Y-109095808D01*
X121041386Y-108893348D01*
X121036741Y-108876011D01*
X121036738Y-108876002D01*
X121027679Y-108856575D01*
X120940568Y-108669766D01*
X120827009Y-108507585D01*
X120810045Y-108483358D01*
X120649141Y-108322454D01*
X120462734Y-108191932D01*
X120462732Y-108191931D01*
X120256497Y-108095761D01*
X120256488Y-108095758D01*
X120036697Y-108036866D01*
X120036693Y-108036865D01*
X120036692Y-108036865D01*
X120036691Y-108036864D01*
X120036686Y-108036864D01*
X119810002Y-108017032D01*
X119809998Y-108017032D01*
X119583313Y-108036864D01*
X119583302Y-108036866D01*
X119363511Y-108095758D01*
X119363502Y-108095761D01*
X119157267Y-108191931D01*
X119157265Y-108191932D01*
X118970858Y-108322454D01*
X118809954Y-108483358D01*
X118679432Y-108669765D01*
X118679428Y-108669772D01*
X118652105Y-108728366D01*
X118605932Y-108780805D01*
X118538738Y-108799956D01*
X118471858Y-108779739D01*
X118427342Y-108728364D01*
X118400136Y-108670021D01*
X118400132Y-108670013D01*
X118349025Y-108597026D01*
X117752962Y-109193089D01*
X117735925Y-109129507D01*
X117670099Y-109015493D01*
X117577007Y-108922401D01*
X117462993Y-108856575D01*
X117399410Y-108839537D01*
X117995472Y-108243474D01*
X117922478Y-108192363D01*
X117716331Y-108096235D01*
X117716317Y-108096230D01*
X117496610Y-108037360D01*
X117496599Y-108037358D01*
X117270002Y-108017534D01*
X117269998Y-108017534D01*
X117043400Y-108037358D01*
X117043389Y-108037360D01*
X116823682Y-108096230D01*
X116823673Y-108096234D01*
X116617516Y-108192366D01*
X116617512Y-108192368D01*
X116544526Y-108243473D01*
X116544526Y-108243474D01*
X117140590Y-108839537D01*
X117077007Y-108856575D01*
X116962993Y-108922401D01*
X116869901Y-109015493D01*
X116804075Y-109129507D01*
X116787037Y-109193089D01*
X116190974Y-108597026D01*
X116190973Y-108597026D01*
X116139868Y-108670012D01*
X116139868Y-108670013D01*
X116112657Y-108728367D01*
X116066484Y-108780806D01*
X115999290Y-108799957D01*
X115932409Y-108779741D01*
X115887893Y-108728365D01*
X115877585Y-108706260D01*
X115860568Y-108669766D01*
X115747009Y-108507585D01*
X115730045Y-108483358D01*
X115569141Y-108322454D01*
X115382734Y-108191932D01*
X115382732Y-108191931D01*
X115176497Y-108095761D01*
X115176488Y-108095758D01*
X114956697Y-108036866D01*
X114956693Y-108036865D01*
X114956692Y-108036865D01*
X114956691Y-108036864D01*
X114956686Y-108036864D01*
X114730002Y-108017032D01*
X114729998Y-108017032D01*
X114503313Y-108036864D01*
X114503302Y-108036866D01*
X114283511Y-108095758D01*
X114283502Y-108095761D01*
X114077267Y-108191931D01*
X114077265Y-108191932D01*
X113890858Y-108322454D01*
X113729954Y-108483358D01*
X113599432Y-108669765D01*
X113599431Y-108669767D01*
X113572382Y-108727775D01*
X113526209Y-108780214D01*
X113459016Y-108799366D01*
X113392135Y-108779150D01*
X113347618Y-108727775D01*
X113320568Y-108669766D01*
X113207009Y-108507585D01*
X113190045Y-108483358D01*
X113029141Y-108322454D01*
X112842734Y-108191932D01*
X112842732Y-108191931D01*
X112636497Y-108095761D01*
X112636488Y-108095758D01*
X112416697Y-108036866D01*
X112416693Y-108036865D01*
X112416692Y-108036865D01*
X112416691Y-108036864D01*
X112416686Y-108036864D01*
X112190002Y-108017032D01*
X112189998Y-108017032D01*
X111963313Y-108036864D01*
X111963302Y-108036866D01*
X111743511Y-108095758D01*
X111743502Y-108095761D01*
X111537267Y-108191931D01*
X111537265Y-108191932D01*
X111350858Y-108322454D01*
X111189954Y-108483358D01*
X111059432Y-108669765D01*
X111059431Y-108669767D01*
X110963261Y-108876002D01*
X110963258Y-108876011D01*
X110904366Y-109095802D01*
X110904364Y-109095813D01*
X110884532Y-109322498D01*
X110884532Y-109322501D01*
X92926081Y-109322501D01*
X92607772Y-108073639D01*
X92606946Y-108070190D01*
X92309513Y-106741387D01*
X92308791Y-106737922D01*
X92050506Y-105401009D01*
X92049871Y-105397441D01*
X92046035Y-105373896D01*
X91830952Y-104053572D01*
X91830420Y-104049971D01*
X91778927Y-103662504D01*
X96827092Y-103662504D01*
X96846696Y-103924120D01*
X96846697Y-103924125D01*
X96905076Y-104179902D01*
X96905078Y-104179911D01*
X96905080Y-104179916D01*
X97000932Y-104424143D01*
X97132114Y-104651357D01*
X97228491Y-104772210D01*
X97295698Y-104856485D01*
X97450372Y-105000000D01*
X97488021Y-105034933D01*
X97704796Y-105182728D01*
X97704801Y-105182730D01*
X97704802Y-105182731D01*
X97704803Y-105182732D01*
X97798368Y-105227790D01*
X97941173Y-105296561D01*
X97941174Y-105296561D01*
X97941177Y-105296563D01*
X98191885Y-105373896D01*
X98451318Y-105413000D01*
X98713682Y-105413000D01*
X98973115Y-105373896D01*
X99223823Y-105296563D01*
X99410611Y-105206610D01*
X99460196Y-105182732D01*
X99460196Y-105182731D01*
X99460204Y-105182728D01*
X99676979Y-105034933D01*
X99869305Y-104856481D01*
X100032886Y-104651357D01*
X100164068Y-104424143D01*
X100259920Y-104179916D01*
X100318302Y-103924130D01*
X100328535Y-103787583D01*
X100337908Y-103662504D01*
X114557092Y-103662504D01*
X114576696Y-103924120D01*
X114576697Y-103924125D01*
X114635076Y-104179902D01*
X114635078Y-104179911D01*
X114635080Y-104179916D01*
X114730932Y-104424143D01*
X114862114Y-104651357D01*
X114958491Y-104772210D01*
X115025698Y-104856485D01*
X115180372Y-105000000D01*
X115218021Y-105034933D01*
X115434796Y-105182728D01*
X115434801Y-105182730D01*
X115434802Y-105182731D01*
X115434803Y-105182732D01*
X115528368Y-105227790D01*
X115671173Y-105296561D01*
X115671174Y-105296561D01*
X115671177Y-105296563D01*
X115921885Y-105373896D01*
X116181318Y-105413000D01*
X116443682Y-105413000D01*
X116703115Y-105373896D01*
X116953823Y-105296563D01*
X117140611Y-105206610D01*
X117190196Y-105182732D01*
X117190196Y-105182731D01*
X117190204Y-105182728D01*
X117406979Y-105034933D01*
X117599305Y-104856481D01*
X117762886Y-104651357D01*
X117894068Y-104424143D01*
X117989920Y-104179916D01*
X118048302Y-103924130D01*
X118058535Y-103787583D01*
X118067908Y-103662504D01*
X118067908Y-103662495D01*
X118048303Y-103400879D01*
X118048302Y-103400874D01*
X118048302Y-103400870D01*
X117989920Y-103145084D01*
X117894068Y-102900857D01*
X117762886Y-102673643D01*
X117599305Y-102468519D01*
X117599304Y-102468518D01*
X117599301Y-102468514D01*
X117406979Y-102290067D01*
X117190204Y-102142272D01*
X117190200Y-102142270D01*
X117190197Y-102142268D01*
X117190196Y-102142267D01*
X116953825Y-102028438D01*
X116953827Y-102028438D01*
X116703123Y-101951106D01*
X116703119Y-101951105D01*
X116703115Y-101951104D01*
X116578323Y-101932294D01*
X116443687Y-101912000D01*
X116443682Y-101912000D01*
X116181318Y-101912000D01*
X116181312Y-101912000D01*
X116019747Y-101936353D01*
X115921885Y-101951104D01*
X115921882Y-101951105D01*
X115921876Y-101951106D01*
X115671173Y-102028438D01*
X115434803Y-102142267D01*
X115434802Y-102142268D01*
X115218020Y-102290067D01*
X115025698Y-102468514D01*
X114862114Y-102673643D01*
X114730932Y-102900856D01*
X114635082Y-103145078D01*
X114635076Y-103145097D01*
X114576697Y-103400874D01*
X114576696Y-103400879D01*
X114557092Y-103662495D01*
X114557092Y-103662504D01*
X100337908Y-103662504D01*
X100337908Y-103662495D01*
X100318303Y-103400879D01*
X100318302Y-103400874D01*
X100318302Y-103400870D01*
X100259920Y-103145084D01*
X100164068Y-102900857D01*
X100032886Y-102673643D01*
X99869305Y-102468519D01*
X99869304Y-102468518D01*
X99869301Y-102468514D01*
X99676979Y-102290067D01*
X99460204Y-102142272D01*
X99460200Y-102142270D01*
X99460197Y-102142268D01*
X99460196Y-102142267D01*
X99223825Y-102028438D01*
X99223827Y-102028438D01*
X98973123Y-101951106D01*
X98973119Y-101951105D01*
X98973115Y-101951104D01*
X98848323Y-101932294D01*
X98713687Y-101912000D01*
X98713682Y-101912000D01*
X98451318Y-101912000D01*
X98451312Y-101912000D01*
X98289747Y-101936353D01*
X98191885Y-101951104D01*
X98191882Y-101951105D01*
X98191876Y-101951106D01*
X97941173Y-102028438D01*
X97704803Y-102142267D01*
X97704802Y-102142268D01*
X97488020Y-102290067D01*
X97295698Y-102468514D01*
X97132114Y-102673643D01*
X97000932Y-102900856D01*
X96905082Y-103145078D01*
X96905076Y-103145097D01*
X96846697Y-103400874D01*
X96846696Y-103400879D01*
X96827092Y-103662495D01*
X96827092Y-103662504D01*
X91778927Y-103662504D01*
X91778926Y-103662500D01*
X91651048Y-102700266D01*
X91650625Y-102696683D01*
X91648249Y-102673643D01*
X91510944Y-101342217D01*
X91510635Y-101338718D01*
X91410779Y-99980752D01*
X91410567Y-99977136D01*
X91394089Y-99603218D01*
X91350620Y-98616862D01*
X91350514Y-98613244D01*
X91330526Y-97251770D01*
X91330526Y-97248229D01*
X91350514Y-95886732D01*
X91350621Y-95883116D01*
X91390627Y-94975346D01*
X91410568Y-94522841D01*
X91410781Y-94519228D01*
X91510636Y-93161275D01*
X91510943Y-93157788D01*
X91650629Y-91803277D01*
X91651047Y-91799740D01*
X91830421Y-90450019D01*
X91830952Y-90446427D01*
X91851140Y-90322502D01*
X97265177Y-90322502D01*
X97284429Y-90542562D01*
X97284430Y-90542570D01*
X97341604Y-90755945D01*
X97341605Y-90755947D01*
X97341606Y-90755950D01*
X97434964Y-90956158D01*
X97434966Y-90956162D01*
X97434968Y-90956166D01*
X97561670Y-91137115D01*
X97561675Y-91137121D01*
X97717878Y-91293324D01*
X97717884Y-91293329D01*
X97898833Y-91420031D01*
X97898835Y-91420032D01*
X97898838Y-91420034D01*
X98099050Y-91513394D01*
X98312432Y-91570570D01*
X98469623Y-91584322D01*
X98532498Y-91589823D01*
X98532500Y-91589823D01*
X98532502Y-91589823D01*
X98587517Y-91585009D01*
X98752568Y-91570570D01*
X98965950Y-91513394D01*
X99166162Y-91420034D01*
X99347120Y-91293326D01*
X99503326Y-91137120D01*
X99630034Y-90956162D01*
X99690118Y-90827311D01*
X99736290Y-90774871D01*
X99803483Y-90755719D01*
X99870365Y-90775935D01*
X99914882Y-90827311D01*
X99974964Y-90956158D01*
X99974968Y-90956166D01*
X100101670Y-91137115D01*
X100101675Y-91137121D01*
X100257878Y-91293324D01*
X100257884Y-91293329D01*
X100438833Y-91420031D01*
X100438835Y-91420032D01*
X100438838Y-91420034D01*
X100639050Y-91513394D01*
X100852432Y-91570570D01*
X101009623Y-91584322D01*
X101072498Y-91589823D01*
X101072500Y-91589823D01*
X101072502Y-91589823D01*
X101127517Y-91585009D01*
X101292568Y-91570570D01*
X101505950Y-91513394D01*
X101706162Y-91420034D01*
X101887120Y-91293326D01*
X102043326Y-91137120D01*
X102170034Y-90956162D01*
X102230118Y-90827311D01*
X102276290Y-90774871D01*
X102343483Y-90755719D01*
X102410365Y-90775935D01*
X102454882Y-90827311D01*
X102514964Y-90956158D01*
X102514968Y-90956166D01*
X102641670Y-91137115D01*
X102641675Y-91137121D01*
X102797878Y-91293324D01*
X102797884Y-91293329D01*
X102978833Y-91420031D01*
X102978835Y-91420032D01*
X102978838Y-91420034D01*
X103179050Y-91513394D01*
X103392432Y-91570570D01*
X103549623Y-91584322D01*
X103612498Y-91589823D01*
X103612500Y-91589823D01*
X103612502Y-91589823D01*
X103667517Y-91585009D01*
X103832568Y-91570570D01*
X104045950Y-91513394D01*
X104246162Y-91420034D01*
X104427120Y-91293326D01*
X104583326Y-91137120D01*
X104710034Y-90956162D01*
X104770118Y-90827311D01*
X104816290Y-90774871D01*
X104883483Y-90755719D01*
X104950365Y-90775935D01*
X104994882Y-90827311D01*
X105054964Y-90956158D01*
X105054968Y-90956166D01*
X105181670Y-91137115D01*
X105181675Y-91137121D01*
X105337878Y-91293324D01*
X105337884Y-91293329D01*
X105518833Y-91420031D01*
X105518835Y-91420032D01*
X105518838Y-91420034D01*
X105719050Y-91513394D01*
X105932432Y-91570570D01*
X106089623Y-91584322D01*
X106152498Y-91589823D01*
X106152500Y-91589823D01*
X106152502Y-91589823D01*
X106207517Y-91585009D01*
X106372568Y-91570570D01*
X106585950Y-91513394D01*
X106786162Y-91420034D01*
X106967120Y-91293326D01*
X107123326Y-91137120D01*
X107250034Y-90956162D01*
X107289154Y-90872267D01*
X107335326Y-90819828D01*
X107402519Y-90800676D01*
X107469400Y-90820891D01*
X107513916Y-90872265D01*
X107534607Y-90916635D01*
X107561931Y-90975232D01*
X107561932Y-90975234D01*
X107692454Y-91161641D01*
X107853358Y-91322545D01*
X107853361Y-91322547D01*
X108039766Y-91453068D01*
X108246004Y-91549239D01*
X108465808Y-91608135D01*
X108627730Y-91622301D01*
X108692498Y-91627968D01*
X108692500Y-91627968D01*
X108692502Y-91627968D01*
X108749173Y-91623009D01*
X108919192Y-91608135D01*
X109138996Y-91549239D01*
X109345234Y-91453068D01*
X109531639Y-91322547D01*
X109692547Y-91161639D01*
X109823068Y-90975234D01*
X109850118Y-90917224D01*
X109896290Y-90864785D01*
X109963483Y-90845633D01*
X110030365Y-90865848D01*
X110074882Y-90917225D01*
X110101929Y-90975228D01*
X110101932Y-90975234D01*
X110232454Y-91161641D01*
X110393358Y-91322545D01*
X110393361Y-91322547D01*
X110579766Y-91453068D01*
X110786004Y-91549239D01*
X111005808Y-91608135D01*
X111167730Y-91622301D01*
X111232498Y-91627968D01*
X111232500Y-91627968D01*
X111232502Y-91627968D01*
X111289173Y-91623009D01*
X111459192Y-91608135D01*
X111678996Y-91549239D01*
X111885234Y-91453068D01*
X112071639Y-91322547D01*
X112232547Y-91161639D01*
X112363068Y-90975234D01*
X112390393Y-90916634D01*
X112436565Y-90864195D01*
X112503758Y-90845043D01*
X112570639Y-90865258D01*
X112615157Y-90916634D01*
X112642364Y-90974980D01*
X112693474Y-91047972D01*
X113289537Y-90451909D01*
X113306575Y-90515493D01*
X113372401Y-90629507D01*
X113465493Y-90722599D01*
X113579507Y-90788425D01*
X113643090Y-90805462D01*
X113047026Y-91401525D01*
X113120013Y-91452632D01*
X113120021Y-91452636D01*
X113326168Y-91548764D01*
X113326182Y-91548769D01*
X113545889Y-91607639D01*
X113545900Y-91607641D01*
X113772498Y-91627466D01*
X113772502Y-91627466D01*
X113999099Y-91607641D01*
X113999110Y-91607639D01*
X114218817Y-91548769D01*
X114218831Y-91548764D01*
X114424978Y-91452636D01*
X114497971Y-91401524D01*
X113901909Y-90805462D01*
X113965493Y-90788425D01*
X114079507Y-90722599D01*
X114172599Y-90629507D01*
X114238425Y-90515493D01*
X114255462Y-90451909D01*
X114851524Y-91047971D01*
X114902633Y-90974982D01*
X114929841Y-90916635D01*
X114976013Y-90864196D01*
X115043207Y-90845043D01*
X115110088Y-90865258D01*
X115154605Y-90916632D01*
X115181932Y-90975234D01*
X115181933Y-90975235D01*
X115312454Y-91161641D01*
X115473358Y-91322545D01*
X115473361Y-91322547D01*
X115659766Y-91453068D01*
X115866004Y-91549239D01*
X116085808Y-91608135D01*
X116247730Y-91622301D01*
X116312498Y-91627968D01*
X116312500Y-91627968D01*
X116312502Y-91627968D01*
X116369173Y-91623009D01*
X116539192Y-91608135D01*
X116758996Y-91549239D01*
X116965234Y-91453068D01*
X117151639Y-91322547D01*
X117312547Y-91161639D01*
X117443068Y-90975234D01*
X117539239Y-90768996D01*
X117598135Y-90549192D01*
X117617968Y-90322500D01*
X117598135Y-90095808D01*
X117539239Y-89876004D01*
X117443068Y-89669766D01*
X117312547Y-89483361D01*
X117312545Y-89483358D01*
X117151641Y-89322454D01*
X116965234Y-89191932D01*
X116965232Y-89191931D01*
X116758997Y-89095761D01*
X116758988Y-89095758D01*
X116539197Y-89036866D01*
X116539193Y-89036865D01*
X116539192Y-89036865D01*
X116539191Y-89036864D01*
X116539186Y-89036864D01*
X116312502Y-89017032D01*
X116312498Y-89017032D01*
X116085813Y-89036864D01*
X116085802Y-89036866D01*
X115866011Y-89095758D01*
X115866002Y-89095761D01*
X115659767Y-89191931D01*
X115659765Y-89191932D01*
X115473358Y-89322454D01*
X115312454Y-89483358D01*
X115181932Y-89669765D01*
X115181928Y-89669772D01*
X115154605Y-89728366D01*
X115108432Y-89780805D01*
X115041238Y-89799956D01*
X114974358Y-89779739D01*
X114929842Y-89728364D01*
X114902636Y-89670021D01*
X114902632Y-89670013D01*
X114851525Y-89597026D01*
X114255462Y-90193089D01*
X114238425Y-90129507D01*
X114172599Y-90015493D01*
X114079507Y-89922401D01*
X113965493Y-89856575D01*
X113901910Y-89839537D01*
X114497972Y-89243474D01*
X114424978Y-89192363D01*
X114218831Y-89096235D01*
X114218817Y-89096230D01*
X113999110Y-89037360D01*
X113999099Y-89037358D01*
X113772502Y-89017534D01*
X113772498Y-89017534D01*
X113545900Y-89037358D01*
X113545889Y-89037360D01*
X113326182Y-89096230D01*
X113326173Y-89096234D01*
X113120016Y-89192366D01*
X113120012Y-89192368D01*
X113047026Y-89243473D01*
X113047026Y-89243474D01*
X113643090Y-89839537D01*
X113579507Y-89856575D01*
X113465493Y-89922401D01*
X113372401Y-90015493D01*
X113306575Y-90129507D01*
X113289537Y-90193089D01*
X112693474Y-89597026D01*
X112693473Y-89597026D01*
X112642368Y-89670012D01*
X112642368Y-89670013D01*
X112615157Y-89728367D01*
X112568984Y-89780806D01*
X112501790Y-89799957D01*
X112434909Y-89779741D01*
X112390393Y-89728365D01*
X112381039Y-89708306D01*
X112363068Y-89669766D01*
X112232547Y-89483361D01*
X112232545Y-89483358D01*
X112071641Y-89322454D01*
X111885234Y-89191932D01*
X111885232Y-89191931D01*
X111678997Y-89095761D01*
X111678988Y-89095758D01*
X111459197Y-89036866D01*
X111459193Y-89036865D01*
X111459192Y-89036865D01*
X111459191Y-89036864D01*
X111459186Y-89036864D01*
X111232502Y-89017032D01*
X111232498Y-89017032D01*
X111005813Y-89036864D01*
X111005802Y-89036866D01*
X110786011Y-89095758D01*
X110786002Y-89095761D01*
X110579767Y-89191931D01*
X110579765Y-89191932D01*
X110393358Y-89322454D01*
X110232454Y-89483358D01*
X110101932Y-89669765D01*
X110101931Y-89669767D01*
X110074882Y-89727775D01*
X110028709Y-89780214D01*
X109961516Y-89799366D01*
X109894635Y-89779150D01*
X109850118Y-89727775D01*
X109849694Y-89726866D01*
X109823068Y-89669766D01*
X109692547Y-89483361D01*
X109692545Y-89483358D01*
X109531641Y-89322454D01*
X109345234Y-89191932D01*
X109345232Y-89191931D01*
X109138997Y-89095761D01*
X109138988Y-89095758D01*
X108919197Y-89036866D01*
X108919193Y-89036865D01*
X108919192Y-89036865D01*
X108919191Y-89036864D01*
X108919186Y-89036864D01*
X108692502Y-89017032D01*
X108692498Y-89017032D01*
X108465813Y-89036864D01*
X108465802Y-89036866D01*
X108246011Y-89095758D01*
X108246002Y-89095761D01*
X108039767Y-89191931D01*
X108039765Y-89191932D01*
X107853358Y-89322454D01*
X107692454Y-89483358D01*
X107561933Y-89669764D01*
X107513917Y-89772733D01*
X107467744Y-89825172D01*
X107400550Y-89844323D01*
X107333669Y-89824107D01*
X107289154Y-89772732D01*
X107250034Y-89688839D01*
X107151614Y-89548280D01*
X107123327Y-89507881D01*
X107050823Y-89435377D01*
X106967120Y-89351674D01*
X106967116Y-89351671D01*
X106967115Y-89351670D01*
X106786166Y-89224968D01*
X106786162Y-89224966D01*
X106716255Y-89192368D01*
X106585950Y-89131606D01*
X106585947Y-89131605D01*
X106585945Y-89131604D01*
X106372570Y-89074430D01*
X106372562Y-89074429D01*
X106152502Y-89055177D01*
X106152498Y-89055177D01*
X105932437Y-89074429D01*
X105932429Y-89074430D01*
X105719054Y-89131604D01*
X105719048Y-89131607D01*
X105518840Y-89224965D01*
X105518838Y-89224966D01*
X105337877Y-89351675D01*
X105181675Y-89507877D01*
X105054966Y-89688838D01*
X105054965Y-89688840D01*
X104994882Y-89817689D01*
X104948709Y-89870128D01*
X104881516Y-89889280D01*
X104814635Y-89869064D01*
X104770118Y-89817689D01*
X104749154Y-89772733D01*
X104710034Y-89688839D01*
X104611614Y-89548280D01*
X104583327Y-89507881D01*
X104510823Y-89435377D01*
X104427120Y-89351674D01*
X104427116Y-89351671D01*
X104427115Y-89351670D01*
X104246166Y-89224968D01*
X104246162Y-89224966D01*
X104176255Y-89192368D01*
X104045950Y-89131606D01*
X104045947Y-89131605D01*
X104045945Y-89131604D01*
X103832570Y-89074430D01*
X103832562Y-89074429D01*
X103612502Y-89055177D01*
X103612498Y-89055177D01*
X103392437Y-89074429D01*
X103392429Y-89074430D01*
X103179054Y-89131604D01*
X103179048Y-89131607D01*
X102978840Y-89224965D01*
X102978838Y-89224966D01*
X102797877Y-89351675D01*
X102641675Y-89507877D01*
X102514966Y-89688838D01*
X102514965Y-89688840D01*
X102454882Y-89817689D01*
X102408709Y-89870128D01*
X102341516Y-89889280D01*
X102274635Y-89869064D01*
X102230118Y-89817689D01*
X102209154Y-89772733D01*
X102170034Y-89688839D01*
X102071614Y-89548280D01*
X102043327Y-89507881D01*
X101970823Y-89435377D01*
X101887120Y-89351674D01*
X101887116Y-89351671D01*
X101887115Y-89351670D01*
X101706166Y-89224968D01*
X101706162Y-89224966D01*
X101636255Y-89192368D01*
X101505950Y-89131606D01*
X101505947Y-89131605D01*
X101505945Y-89131604D01*
X101292570Y-89074430D01*
X101292562Y-89074429D01*
X101072502Y-89055177D01*
X101072498Y-89055177D01*
X100852437Y-89074429D01*
X100852429Y-89074430D01*
X100639054Y-89131604D01*
X100639048Y-89131607D01*
X100438840Y-89224965D01*
X100438838Y-89224966D01*
X100257877Y-89351675D01*
X100101675Y-89507877D01*
X99974966Y-89688838D01*
X99974965Y-89688840D01*
X99914882Y-89817689D01*
X99868709Y-89870128D01*
X99801516Y-89889280D01*
X99734635Y-89869064D01*
X99690118Y-89817689D01*
X99669154Y-89772733D01*
X99630034Y-89688839D01*
X99531614Y-89548280D01*
X99503327Y-89507881D01*
X99430823Y-89435377D01*
X99347120Y-89351674D01*
X99347116Y-89351671D01*
X99347115Y-89351670D01*
X99166166Y-89224968D01*
X99166162Y-89224966D01*
X99096255Y-89192368D01*
X98965950Y-89131606D01*
X98965947Y-89131605D01*
X98965945Y-89131604D01*
X98752570Y-89074430D01*
X98752562Y-89074429D01*
X98532502Y-89055177D01*
X98532498Y-89055177D01*
X98312437Y-89074429D01*
X98312429Y-89074430D01*
X98099054Y-89131604D01*
X98099048Y-89131607D01*
X97898840Y-89224965D01*
X97898838Y-89224966D01*
X97717877Y-89351675D01*
X97561675Y-89507877D01*
X97434966Y-89688838D01*
X97434965Y-89688840D01*
X97341607Y-89889048D01*
X97341604Y-89889054D01*
X97284430Y-90102429D01*
X97284429Y-90102437D01*
X97265177Y-90322497D01*
X97265177Y-90322502D01*
X91851140Y-90322502D01*
X92049876Y-89102529D01*
X92050509Y-89098974D01*
X92308794Y-87762063D01*
X92309510Y-87758625D01*
X92606949Y-86429794D01*
X92607768Y-86426376D01*
X92944073Y-85106908D01*
X92944988Y-85103523D01*
X93319900Y-83794437D01*
X93320929Y-83791037D01*
X93734085Y-82493600D01*
X93735213Y-82490228D01*
X94142892Y-81329054D01*
X111229498Y-81329054D01*
X111270423Y-81481785D01*
X111299358Y-81531900D01*
X111299359Y-81531904D01*
X111299360Y-81531904D01*
X111349479Y-81618714D01*
X111349481Y-81618717D01*
X111468349Y-81737585D01*
X111468355Y-81737590D01*
X116345139Y-86614374D01*
X116345149Y-86614385D01*
X116349479Y-86618715D01*
X116349480Y-86618716D01*
X116461284Y-86730520D01*
X116528767Y-86769481D01*
X116598215Y-86809577D01*
X116750943Y-86850501D01*
X116750946Y-86850501D01*
X116916653Y-86850501D01*
X116916669Y-86850500D01*
X125146323Y-86850500D01*
X125213362Y-86870185D01*
X125259117Y-86922989D01*
X125269061Y-86992147D01*
X125240036Y-87055703D01*
X125186182Y-87091919D01*
X124966919Y-87166349D01*
X124702334Y-87296828D01*
X124457041Y-87460728D01*
X124235241Y-87655241D01*
X124040728Y-87877041D01*
X123876828Y-88122334D01*
X123746349Y-88386919D01*
X123651521Y-88666269D01*
X123651518Y-88666283D01*
X123593968Y-88955609D01*
X123593964Y-88955636D01*
X123574671Y-89249992D01*
X123574671Y-89250007D01*
X123593964Y-89544363D01*
X123593965Y-89544373D01*
X123593966Y-89544380D01*
X123649818Y-89825172D01*
X123651518Y-89833716D01*
X123651521Y-89833730D01*
X123746349Y-90113080D01*
X123876825Y-90377660D01*
X123876829Y-90377667D01*
X124040725Y-90622955D01*
X124235241Y-90844758D01*
X124457044Y-91039274D01*
X124702332Y-91203170D01*
X124702335Y-91203172D01*
X124966923Y-91333652D01*
X125246278Y-91428481D01*
X125535620Y-91486034D01*
X125563888Y-91487886D01*
X125829993Y-91505329D01*
X125830000Y-91505329D01*
X125830007Y-91505329D01*
X126065675Y-91489881D01*
X126124380Y-91486034D01*
X126413722Y-91428481D01*
X126693077Y-91333652D01*
X126957665Y-91203172D01*
X127202957Y-91039273D01*
X127424758Y-90844758D01*
X127619273Y-90622957D01*
X127783172Y-90377665D01*
X127913652Y-90113077D01*
X127948173Y-90011379D01*
X127988361Y-89954226D01*
X128053070Y-89927873D01*
X128121755Y-89940687D01*
X128172608Y-89988601D01*
X128189484Y-90056402D01*
X128189120Y-90062046D01*
X128172677Y-90249997D01*
X128172677Y-90250002D01*
X128191929Y-90470062D01*
X128191930Y-90470070D01*
X128249104Y-90683445D01*
X128249105Y-90683447D01*
X128249106Y-90683450D01*
X128324325Y-90844758D01*
X128342466Y-90883662D01*
X128342468Y-90883666D01*
X128469170Y-91064615D01*
X128469175Y-91064621D01*
X128625378Y-91220824D01*
X128625384Y-91220829D01*
X128806333Y-91347531D01*
X128806335Y-91347532D01*
X128806338Y-91347534D01*
X128922120Y-91401524D01*
X128935189Y-91407618D01*
X128987628Y-91453790D01*
X129006780Y-91520984D01*
X128986564Y-91587865D01*
X128935189Y-91632382D01*
X128806340Y-91692465D01*
X128806338Y-91692466D01*
X128625377Y-91819175D01*
X128469175Y-91975377D01*
X128342466Y-92156338D01*
X128342465Y-92156340D01*
X128249107Y-92356548D01*
X128249104Y-92356554D01*
X128191930Y-92569929D01*
X128191929Y-92569937D01*
X128172677Y-92789997D01*
X128172677Y-92790002D01*
X128191929Y-93010062D01*
X128191930Y-93010070D01*
X128249104Y-93223445D01*
X128249105Y-93223447D01*
X128249106Y-93223450D01*
X128342464Y-93423658D01*
X128342466Y-93423662D01*
X128342468Y-93423666D01*
X128469170Y-93604615D01*
X128469175Y-93604621D01*
X128625378Y-93760824D01*
X128625384Y-93760829D01*
X128806333Y-93887531D01*
X128806335Y-93887532D01*
X128806338Y-93887534D01*
X129006550Y-93980894D01*
X129219932Y-94038070D01*
X129377123Y-94051822D01*
X129439998Y-94057323D01*
X129440000Y-94057323D01*
X129440002Y-94057323D01*
X129495017Y-94052509D01*
X129660068Y-94038070D01*
X129873450Y-93980894D01*
X130073662Y-93887534D01*
X130254620Y-93760826D01*
X130410826Y-93604620D01*
X130537534Y-93423662D01*
X130597618Y-93294811D01*
X130643790Y-93242371D01*
X130710983Y-93223219D01*
X130777865Y-93243435D01*
X130822382Y-93294811D01*
X130882464Y-93423658D01*
X130882468Y-93423666D01*
X131009170Y-93604615D01*
X131009174Y-93604620D01*
X131165380Y-93760826D01*
X131326623Y-93873729D01*
X131370248Y-93928306D01*
X131379500Y-93975304D01*
X131379500Y-108893330D01*
X131379499Y-108893348D01*
X131379499Y-109059054D01*
X131379498Y-109059054D01*
X131420423Y-109211785D01*
X131427452Y-109223959D01*
X131427453Y-109223961D01*
X131499477Y-109348712D01*
X131499481Y-109348717D01*
X131618349Y-109467585D01*
X131618354Y-109467589D01*
X135131284Y-112980520D01*
X135131286Y-112980521D01*
X135131290Y-112980524D01*
X135268209Y-113059573D01*
X135268216Y-113059577D01*
X135420943Y-113100501D01*
X135420945Y-113100501D01*
X135586654Y-113100501D01*
X135586670Y-113100500D01*
X173413331Y-113100500D01*
X173413347Y-113100501D01*
X173420943Y-113100501D01*
X173579054Y-113100501D01*
X173579057Y-113100501D01*
X173731785Y-113059577D01*
X173781904Y-113030639D01*
X173868716Y-112980520D01*
X173980520Y-112868716D01*
X173980520Y-112868714D01*
X173990728Y-112858507D01*
X173990730Y-112858504D01*
X175358506Y-111490728D01*
X175358511Y-111490724D01*
X175368714Y-111480520D01*
X175368716Y-111480520D01*
X175480520Y-111368716D01*
X175559577Y-111231784D01*
X175600500Y-111079057D01*
X175600500Y-108589060D01*
X175600501Y-108589047D01*
X175600501Y-108420944D01*
X175594027Y-108396784D01*
X175559577Y-108268216D01*
X175515787Y-108192368D01*
X175480524Y-108131290D01*
X175480518Y-108131282D01*
X174868717Y-107519481D01*
X174868716Y-107519480D01*
X174781904Y-107469360D01*
X174781904Y-107469359D01*
X174781900Y-107469358D01*
X174731785Y-107440423D01*
X174579057Y-107399499D01*
X174579054Y-107399499D01*
X174536727Y-107399499D01*
X174469688Y-107379814D01*
X174425639Y-107330593D01*
X174374655Y-107227793D01*
X174374653Y-107227790D01*
X174262159Y-107087841D01*
X174261999Y-107087681D01*
X174261932Y-107087559D01*
X174257947Y-107082601D01*
X174258835Y-107081887D01*
X174228514Y-107026358D01*
X174233498Y-106956666D01*
X174258466Y-106917816D01*
X174257947Y-106917399D01*
X174261873Y-106912513D01*
X174261999Y-106912319D01*
X174262154Y-106912162D01*
X174262159Y-106912159D01*
X174374653Y-106772210D01*
X174425639Y-106669407D01*
X174473060Y-106618094D01*
X174536727Y-106600501D01*
X174579054Y-106600501D01*
X174579057Y-106600501D01*
X174731785Y-106559577D01*
X174781904Y-106530639D01*
X174868716Y-106480520D01*
X174980520Y-106368716D01*
X174980520Y-106368714D01*
X174990728Y-106358507D01*
X174990730Y-106358504D01*
X176858506Y-104490728D01*
X176858511Y-104490724D01*
X176868714Y-104480520D01*
X176868716Y-104480520D01*
X176980520Y-104368716D01*
X177038602Y-104268114D01*
X177059577Y-104231785D01*
X177100500Y-104079057D01*
X177100500Y-103920943D01*
X177100500Y-103920942D01*
X177100500Y-77023374D01*
X177100501Y-77023361D01*
X177100501Y-76855258D01*
X177100501Y-76855257D01*
X177059577Y-76702530D01*
X177054276Y-76693348D01*
X176980524Y-76565604D01*
X176980518Y-76565596D01*
X161053275Y-60638355D01*
X161053273Y-60638352D01*
X160934402Y-60519481D01*
X160934401Y-60519480D01*
X160847589Y-60469360D01*
X160847589Y-60469359D01*
X160847585Y-60469358D01*
X160797470Y-60440423D01*
X160644742Y-60399499D01*
X160486628Y-60399499D01*
X160479032Y-60399499D01*
X160479016Y-60399500D01*
X118086669Y-60399500D01*
X118086653Y-60399499D01*
X118079057Y-60399499D01*
X117920943Y-60399499D01*
X117813587Y-60428265D01*
X117768210Y-60440424D01*
X117768209Y-60440425D01*
X117718096Y-60469359D01*
X117718095Y-60469360D01*
X117674689Y-60494420D01*
X117631285Y-60519479D01*
X117631282Y-60519481D01*
X115379479Y-62771284D01*
X115373903Y-62780943D01*
X115350810Y-62820943D01*
X115300423Y-62908215D01*
X115259499Y-63060943D01*
X115259499Y-63060945D01*
X115259499Y-63229046D01*
X115259500Y-63229059D01*
X115259500Y-63408306D01*
X115239815Y-63475345D01*
X115206623Y-63509881D01*
X115020859Y-63639953D01*
X114859954Y-63800858D01*
X114729432Y-63987265D01*
X114729431Y-63987267D01*
X114702382Y-64045275D01*
X114656209Y-64097714D01*
X114589016Y-64116866D01*
X114522135Y-64096650D01*
X114477618Y-64045275D01*
X114450568Y-63987267D01*
X114450567Y-63987265D01*
X114320045Y-63800858D01*
X114159141Y-63639954D01*
X113972734Y-63509432D01*
X113972732Y-63509431D01*
X113766497Y-63413261D01*
X113766488Y-63413258D01*
X113546697Y-63354366D01*
X113546693Y-63354365D01*
X113546692Y-63354365D01*
X113546691Y-63354364D01*
X113546686Y-63354364D01*
X113320002Y-63334532D01*
X113319998Y-63334532D01*
X113093313Y-63354364D01*
X113093302Y-63354366D01*
X112873511Y-63413258D01*
X112873502Y-63413261D01*
X112667267Y-63509431D01*
X112667265Y-63509432D01*
X112480858Y-63639954D01*
X112319954Y-63800858D01*
X112189432Y-63987265D01*
X112189431Y-63987267D01*
X112093261Y-64193502D01*
X112093258Y-64193511D01*
X112034366Y-64413302D01*
X112034364Y-64413313D01*
X112014532Y-64639998D01*
X112014532Y-64640001D01*
X112034364Y-64866686D01*
X112034366Y-64866697D01*
X112060152Y-64962931D01*
X112058489Y-65032781D01*
X112028058Y-65082705D01*
X111461286Y-65649478D01*
X111349481Y-65761282D01*
X111349477Y-65761287D01*
X111307763Y-65833540D01*
X111307763Y-65833541D01*
X111270423Y-65898214D01*
X111269585Y-65901342D01*
X111229499Y-66050943D01*
X111229499Y-66050945D01*
X111229499Y-66219046D01*
X111229500Y-66219059D01*
X111229500Y-81163330D01*
X111229499Y-81163348D01*
X111229499Y-81329054D01*
X111229498Y-81329054D01*
X94142892Y-81329054D01*
X94186286Y-81205457D01*
X94187539Y-81202052D01*
X94193288Y-81187097D01*
X94676119Y-79931117D01*
X94677420Y-79927876D01*
X95203148Y-78671717D01*
X95204544Y-78668515D01*
X95766890Y-77428398D01*
X95768414Y-77425165D01*
X96366918Y-76202103D01*
X96368508Y-76198970D01*
X97002664Y-74993997D01*
X97004394Y-74990824D01*
X97673638Y-73805006D01*
X97675423Y-73801949D01*
X98379211Y-72636255D01*
X98381057Y-72633297D01*
X99118787Y-71488728D01*
X99120745Y-71485787D01*
X99891703Y-70363447D01*
X99893767Y-70360535D01*
X100697384Y-69261252D01*
X100699504Y-69258440D01*
X101535016Y-68183263D01*
X101537278Y-68180440D01*
X101954828Y-67674500D01*
X102403938Y-67130319D01*
X102406257Y-67127590D01*
X103303442Y-66103283D01*
X103305819Y-66100650D01*
X104232681Y-65103129D01*
X104235129Y-65100570D01*
X105190863Y-64130703D01*
X105193380Y-64128221D01*
X106177186Y-63186817D01*
X106179840Y-63184352D01*
X106316630Y-63060943D01*
X107190834Y-62272255D01*
X107193485Y-62269933D01*
X108230824Y-61387904D01*
X108233589Y-61385622D01*
X109296420Y-60534391D01*
X109299170Y-60532254D01*
X110386535Y-59712587D01*
X110389409Y-59710486D01*
X111500336Y-58923117D01*
X111503208Y-58921143D01*
X112636810Y-58166701D01*
X112639811Y-58164767D01*
X113795017Y-57443961D01*
X113798069Y-57442118D01*
X114973928Y-56755543D01*
X114977024Y-56753794D01*
X116172582Y-56102005D01*
X116175695Y-56100367D01*
X117389837Y-55483975D01*
X117393023Y-55482415D01*
X118624837Y-54901884D01*
X118627974Y-54900462D01*
X119876197Y-54356387D01*
X119879518Y-54354997D01*
X121143198Y-53847791D01*
X121146516Y-53846516D01*
X122424485Y-53376645D01*
X122427879Y-53375454D01*
X123719082Y-52943307D01*
X123722509Y-52942215D01*
X125025910Y-52548138D01*
X125029292Y-52547170D01*
X126343686Y-52191530D01*
X126347132Y-52190652D01*
X127671404Y-51873750D01*
X127674874Y-51872974D01*
X129007804Y-51595100D01*
X129011376Y-51594410D01*
X130351934Y-51355777D01*
X130355464Y-51355203D01*
X131702404Y-51156034D01*
X131705983Y-51155558D01*
X133058257Y-50996010D01*
X133061789Y-50995646D01*
X134418121Y-50875868D01*
X134421726Y-50875602D01*
X135780954Y-50795695D01*
X135784552Y-50795535D01*
X136438802Y-50776321D01*
X136506389Y-50794029D01*
X136553675Y-50845468D01*
X136565644Y-50914304D01*
X136538497Y-50978685D01*
X136486879Y-51016032D01*
X136404260Y-51047746D01*
X136077343Y-51214320D01*
X135769635Y-51414147D01*
X135484498Y-51645047D01*
X135484490Y-51645054D01*
X135225054Y-51904490D01*
X135225047Y-51904498D01*
X134994147Y-52189635D01*
X134794320Y-52497343D01*
X134627746Y-52824260D01*
X134496260Y-53166793D01*
X134401294Y-53521209D01*
X134401294Y-53521211D01*
X134343898Y-53883594D01*
X134324696Y-54249999D01*
X134324696Y-54250000D01*
X134343898Y-54616405D01*
X134401294Y-54978788D01*
X134401294Y-54978790D01*
X134496260Y-55333206D01*
X134627746Y-55675739D01*
X134794320Y-56002656D01*
X134994147Y-56310364D01*
X135034664Y-56360398D01*
X135225051Y-56595506D01*
X135484494Y-56854949D01*
X135484498Y-56854952D01*
X135769635Y-57085852D01*
X136077343Y-57285679D01*
X136077348Y-57285682D01*
X136404264Y-57452255D01*
X136746801Y-57583742D01*
X137101206Y-57678705D01*
X137463596Y-57736102D01*
X137809734Y-57754241D01*
X137829999Y-57755304D01*
X137830000Y-57755304D01*
X137830001Y-57755304D01*
X137849203Y-57754297D01*
X138196404Y-57736102D01*
X138558794Y-57678705D01*
X138913199Y-57583742D01*
X139255736Y-57452255D01*
X139582652Y-57285682D01*
X139890366Y-57085851D01*
X140175506Y-56854949D01*
X140434949Y-56595506D01*
X140665851Y-56310366D01*
X140865682Y-56002652D01*
X141032255Y-55675736D01*
X141163742Y-55333199D01*
X141258705Y-54978794D01*
X141316102Y-54616404D01*
X141335304Y-54250000D01*
X141316102Y-53883596D01*
X141258705Y-53521206D01*
X141163742Y-53166801D01*
X141032255Y-52824264D01*
X140865682Y-52497348D01*
X140666781Y-52191066D01*
X140665852Y-52189635D01*
X140434952Y-51904498D01*
X140434949Y-51904494D01*
X140175506Y-51645051D01*
X140112970Y-51594410D01*
X139890364Y-51414147D01*
X139582656Y-51214320D01*
X139255739Y-51047746D01*
X139173120Y-51016032D01*
X139117588Y-50973630D01*
X139093795Y-50907936D01*
X139109297Y-50839808D01*
X139159170Y-50790875D01*
X139221196Y-50776321D01*
X139875444Y-50795535D01*
G37*
%TD.AperFunction*%
%TD*%
M02*
