M48
; DRILL file {KiCad 8.0.1} date 2024-06-07T19:00:39+0200
; FORMAT={-:-/ absolute / inch / decimal}
; #@! TF.CreationDate,2024-06-07T19:00:39+02:00
; #@! TF.GenerationSoftware,Kicad,Pcbnew,8.0.1
; #@! TF.FileFunction,Plated,1,2,PTH
FMAT,2
INCH
; #@! TA.AperFunction,Plated,PTH,ComponentDrill
T1C0.0197
; #@! TA.AperFunction,Plated,PTH,ComponentDrill
T2C0.0394
%
G90
G05
T1
X6.2335Y-2.372
X6.2335Y-2.4114
X6.2335Y-2.4508
X6.2531Y-2.628
X6.2925Y-2.628
X6.3319Y-2.628
X6.3713Y-2.628
X6.4106Y-2.628
T2
X4.4614Y-2.5449
X4.4614Y-3.1449
X4.5614Y-2.5449
X4.5614Y-3.1449
X4.6614Y-2.5449
X4.6614Y-3.1449
X4.7614Y-2.5449
X4.7614Y-3.1449
X4.8614Y-2.5449
X4.8614Y-3.1449
X4.9614Y-2.5449
X4.9614Y-3.1449
X5.0614Y-2.5449
X5.0614Y-3.1449
X5.0961Y-3.5531
X5.0961Y-3.6531
X5.1614Y-2.5449
X5.1614Y-3.1449
X5.1961Y-3.5531
X5.1961Y-3.6531
X5.2614Y-2.5449
X5.2614Y-3.1449
X5.2961Y-3.5531
X5.2961Y-3.6531
X5.3614Y-2.5449
X5.3614Y-3.1449
X5.3961Y-3.5531
X5.3961Y-3.6531
X5.4614Y-2.5449
X5.4614Y-3.1449
X5.4961Y-3.5531
X5.4961Y-3.6531
X5.5614Y-2.5449
X5.5614Y-3.1449
X5.5961Y-3.5531
X5.5961Y-3.6531
X5.6614Y-2.5449
X5.6614Y-3.1449
X5.6961Y-3.5531
X5.6961Y-3.6531
X5.7614Y-2.5449
X5.7614Y-3.1449
X5.7961Y-3.5531
X5.7961Y-3.6531
X5.8614Y-2.5449
X5.8614Y-3.1449
M30
