%TF.GenerationSoftware,KiCad,Pcbnew,8.0.1*%
%TF.CreationDate,2024-06-11T18:45:45+02:00*%
%TF.ProjectId,PCB_Plaque_Basse,5043425f-506c-4617-9175-655f42617373,rev?*%
%TF.SameCoordinates,Original*%
%TF.FileFunction,Soldermask,Bot*%
%TF.FilePolarity,Negative*%
%FSLAX46Y46*%
G04 Gerber Fmt 4.6, Leading zero omitted, Abs format (unit mm)*
G04 Created by KiCad (PCBNEW 8.0.1) date 2024-06-11 18:45:45*
%MOMM*%
%LPD*%
G01*
G04 APERTURE LIST*
G04 Aperture macros list*
%AMRoundRect*
0 Rectangle with rounded corners*
0 $1 Rounding radius*
0 $2 $3 $4 $5 $6 $7 $8 $9 X,Y pos of 4 corners*
0 Add a 4 corners polygon primitive as box body*
4,1,4,$2,$3,$4,$5,$6,$7,$8,$9,$2,$3,0*
0 Add four circle primitives for the rounded corners*
1,1,$1+$1,$2,$3*
1,1,$1+$1,$4,$5*
1,1,$1+$1,$6,$7*
1,1,$1+$1,$8,$9*
0 Add four rect primitives between the rounded corners*
20,1,$1+$1,$2,$3,$4,$5,0*
20,1,$1+$1,$4,$5,$6,$7,0*
20,1,$1+$1,$6,$7,$8,$9,0*
20,1,$1+$1,$8,$9,$2,$3,0*%
G04 Aperture macros list end*
%ADD10R,1.700000X1.700000*%
%ADD11O,1.700000X1.700000*%
%ADD12R,1.600000X1.600000*%
%ADD13O,1.600000X1.600000*%
%ADD14C,2.500000*%
%ADD15C,1.600000*%
%ADD16C,3.500000*%
%ADD17C,1.524000*%
%ADD18RoundRect,0.325000X0.675000X0.325000X-0.675000X0.325000X-0.675000X-0.325000X0.675000X-0.325000X0*%
G04 APERTURE END LIST*
D10*
%TO.C,Inter_Pile1*%
X160500000Y-75725000D03*
D11*
X160500000Y-78265000D03*
%TD*%
D12*
%TO.C,Arduino_Nano1*%
X148880000Y-64640000D03*
D13*
X146340000Y-64640000D03*
X143800000Y-64640000D03*
X141260000Y-64640000D03*
X138720000Y-64640000D03*
X136180000Y-64640000D03*
X133640000Y-64640000D03*
X131100000Y-64640000D03*
X128560000Y-64640000D03*
X126020000Y-64640000D03*
X123480000Y-64640000D03*
X120940000Y-64640000D03*
X118400000Y-64640000D03*
X115860000Y-64640000D03*
X113320000Y-64640000D03*
X113320000Y-79880000D03*
X115860000Y-79880000D03*
X118400000Y-79880000D03*
X120940000Y-79880000D03*
X123480000Y-79880000D03*
X126020000Y-79880000D03*
X128560000Y-79880000D03*
X131100000Y-79880000D03*
X133640000Y-79880000D03*
X136180000Y-79880000D03*
X138720000Y-79880000D03*
X141260000Y-79880000D03*
X143800000Y-79880000D03*
X146340000Y-79880000D03*
X148880000Y-79880000D03*
%TD*%
D10*
%TO.C,Inter_Cap_Vol1*%
X160500000Y-68275000D03*
D11*
X160500000Y-65735000D03*
%TD*%
D14*
%TO.C,BMP1*%
X112190000Y-122662500D03*
D15*
X119810000Y-109322500D03*
X117270000Y-109322500D03*
X114730000Y-109322500D03*
X112190000Y-109322500D03*
%TD*%
D16*
%TO.C,Module_SD1*%
X125830000Y-89250000D03*
X150830000Y-89250000D03*
D15*
X147220000Y-92790000D03*
X147220000Y-90250000D03*
X144680000Y-92790000D03*
X144680000Y-90250000D03*
X142140000Y-92790000D03*
X142140000Y-90250000D03*
X139600000Y-92790000D03*
X139600000Y-90250000D03*
D17*
X137060000Y-92790000D03*
X137060000Y-90250000D03*
X134520000Y-92790000D03*
X134520000Y-90250000D03*
X131980000Y-92790000D03*
X131980000Y-90250000D03*
X129440000Y-92790000D03*
X129440000Y-90250000D03*
%TD*%
D18*
%TO.C,Module_LORA1*%
X159000000Y-110000000D03*
X159000000Y-108000000D03*
X159000000Y-106000000D03*
X159000000Y-104000000D03*
X159000000Y-102000000D03*
X159000000Y-100000000D03*
X159000000Y-98000000D03*
X159000000Y-96000000D03*
X173000000Y-110000000D03*
X173000000Y-108000000D03*
X173000000Y-106000000D03*
X173000000Y-104000000D03*
X173000000Y-102000000D03*
X173000000Y-100000000D03*
X173000000Y-98000000D03*
X173000000Y-96000000D03*
%TD*%
D14*
%TO.C,MPU1*%
X116312500Y-103662500D03*
X98582500Y-103662500D03*
D15*
X116312500Y-90322500D03*
X113772500Y-90322500D03*
X111232500Y-90322500D03*
X108692500Y-90322500D03*
D17*
X106152500Y-90322500D03*
X103612500Y-90322500D03*
X101072500Y-90322500D03*
X98532500Y-90322500D03*
%TD*%
M02*
