%TF.GenerationSoftware,KiCad,Pcbnew,8.0.1*%
%TF.CreationDate,2024-06-11T18:45:46+02:00*%
%TF.ProjectId,PCB_Plaque_Basse,5043425f-506c-4617-9175-655f42617373,rev?*%
%TF.SameCoordinates,Original*%
%TF.FileFunction,Drillmap*%
%TF.FilePolarity,Positive*%
%FSLAX45Y45*%
G04 Gerber Fmt 4.5, Leading zero omitted, Abs format (unit mm)*
G04 Created by KiCad (PCBNEW 8.0.1) date 2024-06-11 18:45:46*
%MOMM*%
%LPD*%
G01*
G04 APERTURE LIST*
%ADD10C,0.100000*%
%ADD11C,0.200000*%
%ADD12C,0.181000*%
%ADD13C,0.300000*%
G04 APERTURE END LIST*
D10*
X10757000Y-12457000D02*
G75*
G02*
X10157000Y-12457000I-300000J0D01*
G01*
X10157000Y-12457000D02*
G75*
G02*
X10757000Y-12457000I300000J0D01*
G01*
X18483000Y-9725000D02*
G75*
G02*
X9083000Y-9725000I-4700000J0D01*
G01*
X9083000Y-9725000D02*
G75*
G02*
X18483000Y-9725000I4700000J0D01*
G01*
X14083000Y-5425000D02*
G75*
G02*
X13483000Y-5425000I-300000J0D01*
G01*
X13483000Y-5425000D02*
G75*
G02*
X14083000Y-5425000I300000J0D01*
G01*
X17407000Y-12457000D02*
G75*
G02*
X16807000Y-12457000I-300000J0D01*
G01*
X16807000Y-12457000D02*
G75*
G02*
X17407000Y-12457000I300000J0D01*
G01*
D11*
D12*
X9767750Y-10275750D02*
X9948750Y-10456750D01*
X9948750Y-10275750D02*
X9767750Y-10456750D01*
X11128500Y-12175750D02*
X11309500Y-12356750D01*
X11309500Y-12175750D02*
X11128500Y-12356750D01*
X11540750Y-10275750D02*
X11721750Y-10456750D01*
X11721750Y-10275750D02*
X11540750Y-10456750D01*
D13*
X12733000Y-8925000D02*
G75*
G02*
X12433000Y-8925000I-150000J0D01*
G01*
X12433000Y-8925000D02*
G75*
G02*
X12733000Y-8925000I150000J0D01*
G01*
X15233000Y-8925000D02*
G75*
G02*
X14933000Y-8925000I-150000J0D01*
G01*
X14933000Y-8925000D02*
G75*
G02*
X15233000Y-8925000I150000J0D01*
G01*
D11*
X9338777Y-14741484D02*
X9338777Y-14541484D01*
X9338777Y-14541484D02*
X9386396Y-14541484D01*
X9386396Y-14541484D02*
X9414967Y-14551008D01*
X9414967Y-14551008D02*
X9434015Y-14570055D01*
X9434015Y-14570055D02*
X9443539Y-14589103D01*
X9443539Y-14589103D02*
X9453063Y-14627198D01*
X9453063Y-14627198D02*
X9453063Y-14655769D01*
X9453063Y-14655769D02*
X9443539Y-14693865D01*
X9443539Y-14693865D02*
X9434015Y-14712912D01*
X9434015Y-14712912D02*
X9414967Y-14731960D01*
X9414967Y-14731960D02*
X9386396Y-14741484D01*
X9386396Y-14741484D02*
X9338777Y-14741484D01*
X9538777Y-14741484D02*
X9538777Y-14608150D01*
X9538777Y-14646246D02*
X9548301Y-14627198D01*
X9548301Y-14627198D02*
X9557824Y-14617674D01*
X9557824Y-14617674D02*
X9576872Y-14608150D01*
X9576872Y-14608150D02*
X9595920Y-14608150D01*
X9662586Y-14741484D02*
X9662586Y-14608150D01*
X9662586Y-14541484D02*
X9653063Y-14551008D01*
X9653063Y-14551008D02*
X9662586Y-14560531D01*
X9662586Y-14560531D02*
X9672110Y-14551008D01*
X9672110Y-14551008D02*
X9662586Y-14541484D01*
X9662586Y-14541484D02*
X9662586Y-14560531D01*
X9786396Y-14741484D02*
X9767348Y-14731960D01*
X9767348Y-14731960D02*
X9757824Y-14712912D01*
X9757824Y-14712912D02*
X9757824Y-14541484D01*
X9891158Y-14741484D02*
X9872110Y-14731960D01*
X9872110Y-14731960D02*
X9862586Y-14712912D01*
X9862586Y-14712912D02*
X9862586Y-14541484D01*
X10119729Y-14741484D02*
X10119729Y-14541484D01*
X10119729Y-14541484D02*
X10186396Y-14684341D01*
X10186396Y-14684341D02*
X10253063Y-14541484D01*
X10253063Y-14541484D02*
X10253063Y-14741484D01*
X10434015Y-14741484D02*
X10434015Y-14636722D01*
X10434015Y-14636722D02*
X10424491Y-14617674D01*
X10424491Y-14617674D02*
X10405444Y-14608150D01*
X10405444Y-14608150D02*
X10367348Y-14608150D01*
X10367348Y-14608150D02*
X10348301Y-14617674D01*
X10434015Y-14731960D02*
X10414967Y-14741484D01*
X10414967Y-14741484D02*
X10367348Y-14741484D01*
X10367348Y-14741484D02*
X10348301Y-14731960D01*
X10348301Y-14731960D02*
X10338777Y-14712912D01*
X10338777Y-14712912D02*
X10338777Y-14693865D01*
X10338777Y-14693865D02*
X10348301Y-14674817D01*
X10348301Y-14674817D02*
X10367348Y-14665293D01*
X10367348Y-14665293D02*
X10414967Y-14665293D01*
X10414967Y-14665293D02*
X10434015Y-14655769D01*
X10529253Y-14608150D02*
X10529253Y-14808150D01*
X10529253Y-14617674D02*
X10548301Y-14608150D01*
X10548301Y-14608150D02*
X10586396Y-14608150D01*
X10586396Y-14608150D02*
X10605444Y-14617674D01*
X10605444Y-14617674D02*
X10614967Y-14627198D01*
X10614967Y-14627198D02*
X10624491Y-14646246D01*
X10624491Y-14646246D02*
X10624491Y-14703388D01*
X10624491Y-14703388D02*
X10614967Y-14722436D01*
X10614967Y-14722436D02*
X10605444Y-14731960D01*
X10605444Y-14731960D02*
X10586396Y-14741484D01*
X10586396Y-14741484D02*
X10548301Y-14741484D01*
X10548301Y-14741484D02*
X10529253Y-14731960D01*
X10710205Y-14722436D02*
X10719729Y-14731960D01*
X10719729Y-14731960D02*
X10710205Y-14741484D01*
X10710205Y-14741484D02*
X10700682Y-14731960D01*
X10700682Y-14731960D02*
X10710205Y-14722436D01*
X10710205Y-14722436D02*
X10710205Y-14741484D01*
X10710205Y-14617674D02*
X10719729Y-14627198D01*
X10719729Y-14627198D02*
X10710205Y-14636722D01*
X10710205Y-14636722D02*
X10700682Y-14627198D01*
X10700682Y-14627198D02*
X10710205Y-14617674D01*
X10710205Y-14617674D02*
X10710205Y-14636722D01*
D12*
X8897000Y-14979500D02*
X9078000Y-15160500D01*
X9078000Y-14979500D02*
X8897000Y-15160500D01*
D11*
X9443539Y-15161484D02*
X9329253Y-15161484D01*
X9386396Y-15161484D02*
X9386396Y-14961484D01*
X9386396Y-14961484D02*
X9367348Y-14990055D01*
X9367348Y-14990055D02*
X9348301Y-15009103D01*
X9348301Y-15009103D02*
X9329253Y-15018627D01*
X9529253Y-15142436D02*
X9538777Y-15151960D01*
X9538777Y-15151960D02*
X9529253Y-15161484D01*
X9529253Y-15161484D02*
X9519729Y-15151960D01*
X9519729Y-15151960D02*
X9529253Y-15142436D01*
X9529253Y-15142436D02*
X9529253Y-15161484D01*
X9653063Y-15047198D02*
X9634015Y-15037674D01*
X9634015Y-15037674D02*
X9624491Y-15028150D01*
X9624491Y-15028150D02*
X9614967Y-15009103D01*
X9614967Y-15009103D02*
X9614967Y-14999579D01*
X9614967Y-14999579D02*
X9624491Y-14980531D01*
X9624491Y-14980531D02*
X9634015Y-14971008D01*
X9634015Y-14971008D02*
X9653063Y-14961484D01*
X9653063Y-14961484D02*
X9691158Y-14961484D01*
X9691158Y-14961484D02*
X9710205Y-14971008D01*
X9710205Y-14971008D02*
X9719729Y-14980531D01*
X9719729Y-14980531D02*
X9729253Y-14999579D01*
X9729253Y-14999579D02*
X9729253Y-15009103D01*
X9729253Y-15009103D02*
X9719729Y-15028150D01*
X9719729Y-15028150D02*
X9710205Y-15037674D01*
X9710205Y-15037674D02*
X9691158Y-15047198D01*
X9691158Y-15047198D02*
X9653063Y-15047198D01*
X9653063Y-15047198D02*
X9634015Y-15056722D01*
X9634015Y-15056722D02*
X9624491Y-15066246D01*
X9624491Y-15066246D02*
X9614967Y-15085293D01*
X9614967Y-15085293D02*
X9614967Y-15123388D01*
X9614967Y-15123388D02*
X9624491Y-15142436D01*
X9624491Y-15142436D02*
X9634015Y-15151960D01*
X9634015Y-15151960D02*
X9653063Y-15161484D01*
X9653063Y-15161484D02*
X9691158Y-15161484D01*
X9691158Y-15161484D02*
X9710205Y-15151960D01*
X9710205Y-15151960D02*
X9719729Y-15142436D01*
X9719729Y-15142436D02*
X9729253Y-15123388D01*
X9729253Y-15123388D02*
X9729253Y-15085293D01*
X9729253Y-15085293D02*
X9719729Y-15066246D01*
X9719729Y-15066246D02*
X9710205Y-15056722D01*
X9710205Y-15056722D02*
X9691158Y-15047198D01*
X9919729Y-15161484D02*
X9805444Y-15161484D01*
X9862586Y-15161484D02*
X9862586Y-14961484D01*
X9862586Y-14961484D02*
X9843539Y-14990055D01*
X9843539Y-14990055D02*
X9824491Y-15009103D01*
X9824491Y-15009103D02*
X9805444Y-15018627D01*
X10043539Y-14961484D02*
X10062586Y-14961484D01*
X10062586Y-14961484D02*
X10081634Y-14971008D01*
X10081634Y-14971008D02*
X10091158Y-14980531D01*
X10091158Y-14980531D02*
X10100682Y-14999579D01*
X10100682Y-14999579D02*
X10110205Y-15037674D01*
X10110205Y-15037674D02*
X10110205Y-15085293D01*
X10110205Y-15085293D02*
X10100682Y-15123388D01*
X10100682Y-15123388D02*
X10091158Y-15142436D01*
X10091158Y-15142436D02*
X10081634Y-15151960D01*
X10081634Y-15151960D02*
X10062586Y-15161484D01*
X10062586Y-15161484D02*
X10043539Y-15161484D01*
X10043539Y-15161484D02*
X10024491Y-15151960D01*
X10024491Y-15151960D02*
X10014967Y-15142436D01*
X10014967Y-15142436D02*
X10005444Y-15123388D01*
X10005444Y-15123388D02*
X9995920Y-15085293D01*
X9995920Y-15085293D02*
X9995920Y-15037674D01*
X9995920Y-15037674D02*
X10005444Y-14999579D01*
X10005444Y-14999579D02*
X10014967Y-14980531D01*
X10014967Y-14980531D02*
X10024491Y-14971008D01*
X10024491Y-14971008D02*
X10043539Y-14961484D01*
X10195920Y-15161484D02*
X10195920Y-15028150D01*
X10195920Y-15047198D02*
X10205444Y-15037674D01*
X10205444Y-15037674D02*
X10224491Y-15028150D01*
X10224491Y-15028150D02*
X10253063Y-15028150D01*
X10253063Y-15028150D02*
X10272110Y-15037674D01*
X10272110Y-15037674D02*
X10281634Y-15056722D01*
X10281634Y-15056722D02*
X10281634Y-15161484D01*
X10281634Y-15056722D02*
X10291158Y-15037674D01*
X10291158Y-15037674D02*
X10310205Y-15028150D01*
X10310205Y-15028150D02*
X10338777Y-15028150D01*
X10338777Y-15028150D02*
X10357825Y-15037674D01*
X10357825Y-15037674D02*
X10367348Y-15056722D01*
X10367348Y-15056722D02*
X10367348Y-15161484D01*
X10462586Y-15161484D02*
X10462586Y-15028150D01*
X10462586Y-15047198D02*
X10472110Y-15037674D01*
X10472110Y-15037674D02*
X10491158Y-15028150D01*
X10491158Y-15028150D02*
X10519729Y-15028150D01*
X10519729Y-15028150D02*
X10538777Y-15037674D01*
X10538777Y-15037674D02*
X10548301Y-15056722D01*
X10548301Y-15056722D02*
X10548301Y-15161484D01*
X10548301Y-15056722D02*
X10557825Y-15037674D01*
X10557825Y-15037674D02*
X10576872Y-15028150D01*
X10576872Y-15028150D02*
X10605444Y-15028150D01*
X10605444Y-15028150D02*
X10624491Y-15037674D01*
X10624491Y-15037674D02*
X10634015Y-15056722D01*
X10634015Y-15056722D02*
X10634015Y-15161484D01*
X11024491Y-14951960D02*
X10853063Y-15209103D01*
X11281634Y-14961484D02*
X11300682Y-14961484D01*
X11300682Y-14961484D02*
X11319729Y-14971008D01*
X11319729Y-14971008D02*
X11329253Y-14980531D01*
X11329253Y-14980531D02*
X11338777Y-14999579D01*
X11338777Y-14999579D02*
X11348301Y-15037674D01*
X11348301Y-15037674D02*
X11348301Y-15085293D01*
X11348301Y-15085293D02*
X11338777Y-15123388D01*
X11338777Y-15123388D02*
X11329253Y-15142436D01*
X11329253Y-15142436D02*
X11319729Y-15151960D01*
X11319729Y-15151960D02*
X11300682Y-15161484D01*
X11300682Y-15161484D02*
X11281634Y-15161484D01*
X11281634Y-15161484D02*
X11262586Y-15151960D01*
X11262586Y-15151960D02*
X11253063Y-15142436D01*
X11253063Y-15142436D02*
X11243539Y-15123388D01*
X11243539Y-15123388D02*
X11234015Y-15085293D01*
X11234015Y-15085293D02*
X11234015Y-15037674D01*
X11234015Y-15037674D02*
X11243539Y-14999579D01*
X11243539Y-14999579D02*
X11253063Y-14980531D01*
X11253063Y-14980531D02*
X11262586Y-14971008D01*
X11262586Y-14971008D02*
X11281634Y-14961484D01*
X11434015Y-15142436D02*
X11443539Y-15151960D01*
X11443539Y-15151960D02*
X11434015Y-15161484D01*
X11434015Y-15161484D02*
X11424491Y-15151960D01*
X11424491Y-15151960D02*
X11434015Y-15142436D01*
X11434015Y-15142436D02*
X11434015Y-15161484D01*
X11567348Y-14961484D02*
X11586396Y-14961484D01*
X11586396Y-14961484D02*
X11605444Y-14971008D01*
X11605444Y-14971008D02*
X11614967Y-14980531D01*
X11614967Y-14980531D02*
X11624491Y-14999579D01*
X11624491Y-14999579D02*
X11634015Y-15037674D01*
X11634015Y-15037674D02*
X11634015Y-15085293D01*
X11634015Y-15085293D02*
X11624491Y-15123388D01*
X11624491Y-15123388D02*
X11614967Y-15142436D01*
X11614967Y-15142436D02*
X11605444Y-15151960D01*
X11605444Y-15151960D02*
X11586396Y-15161484D01*
X11586396Y-15161484D02*
X11567348Y-15161484D01*
X11567348Y-15161484D02*
X11548301Y-15151960D01*
X11548301Y-15151960D02*
X11538777Y-15142436D01*
X11538777Y-15142436D02*
X11529253Y-15123388D01*
X11529253Y-15123388D02*
X11519729Y-15085293D01*
X11519729Y-15085293D02*
X11519729Y-15037674D01*
X11519729Y-15037674D02*
X11529253Y-14999579D01*
X11529253Y-14999579D02*
X11538777Y-14980531D01*
X11538777Y-14980531D02*
X11548301Y-14971008D01*
X11548301Y-14971008D02*
X11567348Y-14961484D01*
X11700682Y-14961484D02*
X11834015Y-14961484D01*
X11834015Y-14961484D02*
X11748301Y-15161484D01*
X12014967Y-15161484D02*
X11900682Y-15161484D01*
X11957825Y-15161484D02*
X11957825Y-14961484D01*
X11957825Y-14961484D02*
X11938777Y-14990055D01*
X11938777Y-14990055D02*
X11919729Y-15009103D01*
X11919729Y-15009103D02*
X11900682Y-15018627D01*
X12081634Y-14961484D02*
X12205444Y-14961484D01*
X12205444Y-14961484D02*
X12138777Y-15037674D01*
X12138777Y-15037674D02*
X12167348Y-15037674D01*
X12167348Y-15037674D02*
X12186396Y-15047198D01*
X12186396Y-15047198D02*
X12195920Y-15056722D01*
X12195920Y-15056722D02*
X12205444Y-15075769D01*
X12205444Y-15075769D02*
X12205444Y-15123388D01*
X12205444Y-15123388D02*
X12195920Y-15142436D01*
X12195920Y-15142436D02*
X12186396Y-15151960D01*
X12186396Y-15151960D02*
X12167348Y-15161484D01*
X12167348Y-15161484D02*
X12110206Y-15161484D01*
X12110206Y-15161484D02*
X12091158Y-15151960D01*
X12091158Y-15151960D02*
X12081634Y-15142436D01*
X12281634Y-14961484D02*
X12281634Y-14999579D01*
X12357825Y-14961484D02*
X12357825Y-14999579D01*
X12653063Y-15237674D02*
X12643539Y-15228150D01*
X12643539Y-15228150D02*
X12624491Y-15199579D01*
X12624491Y-15199579D02*
X12614968Y-15180531D01*
X12614968Y-15180531D02*
X12605444Y-15151960D01*
X12605444Y-15151960D02*
X12595920Y-15104341D01*
X12595920Y-15104341D02*
X12595920Y-15066246D01*
X12595920Y-15066246D02*
X12605444Y-15018627D01*
X12605444Y-15018627D02*
X12614968Y-14990055D01*
X12614968Y-14990055D02*
X12624491Y-14971008D01*
X12624491Y-14971008D02*
X12643539Y-14942436D01*
X12643539Y-14942436D02*
X12653063Y-14932912D01*
X12710206Y-14961484D02*
X12834015Y-14961484D01*
X12834015Y-14961484D02*
X12767348Y-15037674D01*
X12767348Y-15037674D02*
X12795920Y-15037674D01*
X12795920Y-15037674D02*
X12814968Y-15047198D01*
X12814968Y-15047198D02*
X12824491Y-15056722D01*
X12824491Y-15056722D02*
X12834015Y-15075769D01*
X12834015Y-15075769D02*
X12834015Y-15123388D01*
X12834015Y-15123388D02*
X12824491Y-15142436D01*
X12824491Y-15142436D02*
X12814968Y-15151960D01*
X12814968Y-15151960D02*
X12795920Y-15161484D01*
X12795920Y-15161484D02*
X12738777Y-15161484D01*
X12738777Y-15161484D02*
X12719729Y-15151960D01*
X12719729Y-15151960D02*
X12710206Y-15142436D01*
X13072110Y-15161484D02*
X13072110Y-14961484D01*
X13157825Y-15161484D02*
X13157825Y-15056722D01*
X13157825Y-15056722D02*
X13148301Y-15037674D01*
X13148301Y-15037674D02*
X13129253Y-15028150D01*
X13129253Y-15028150D02*
X13100682Y-15028150D01*
X13100682Y-15028150D02*
X13081634Y-15037674D01*
X13081634Y-15037674D02*
X13072110Y-15047198D01*
X13281634Y-15161484D02*
X13262587Y-15151960D01*
X13262587Y-15151960D02*
X13253063Y-15142436D01*
X13253063Y-15142436D02*
X13243539Y-15123388D01*
X13243539Y-15123388D02*
X13243539Y-15066246D01*
X13243539Y-15066246D02*
X13253063Y-15047198D01*
X13253063Y-15047198D02*
X13262587Y-15037674D01*
X13262587Y-15037674D02*
X13281634Y-15028150D01*
X13281634Y-15028150D02*
X13310206Y-15028150D01*
X13310206Y-15028150D02*
X13329253Y-15037674D01*
X13329253Y-15037674D02*
X13338777Y-15047198D01*
X13338777Y-15047198D02*
X13348301Y-15066246D01*
X13348301Y-15066246D02*
X13348301Y-15123388D01*
X13348301Y-15123388D02*
X13338777Y-15142436D01*
X13338777Y-15142436D02*
X13329253Y-15151960D01*
X13329253Y-15151960D02*
X13310206Y-15161484D01*
X13310206Y-15161484D02*
X13281634Y-15161484D01*
X13462587Y-15161484D02*
X13443539Y-15151960D01*
X13443539Y-15151960D02*
X13434015Y-15132912D01*
X13434015Y-15132912D02*
X13434015Y-14961484D01*
X13614968Y-15151960D02*
X13595920Y-15161484D01*
X13595920Y-15161484D02*
X13557825Y-15161484D01*
X13557825Y-15161484D02*
X13538777Y-15151960D01*
X13538777Y-15151960D02*
X13529253Y-15132912D01*
X13529253Y-15132912D02*
X13529253Y-15056722D01*
X13529253Y-15056722D02*
X13538777Y-15037674D01*
X13538777Y-15037674D02*
X13557825Y-15028150D01*
X13557825Y-15028150D02*
X13595920Y-15028150D01*
X13595920Y-15028150D02*
X13614968Y-15037674D01*
X13614968Y-15037674D02*
X13624491Y-15056722D01*
X13624491Y-15056722D02*
X13624491Y-15075769D01*
X13624491Y-15075769D02*
X13529253Y-15094817D01*
X13700682Y-15151960D02*
X13719730Y-15161484D01*
X13719730Y-15161484D02*
X13757825Y-15161484D01*
X13757825Y-15161484D02*
X13776872Y-15151960D01*
X13776872Y-15151960D02*
X13786396Y-15132912D01*
X13786396Y-15132912D02*
X13786396Y-15123388D01*
X13786396Y-15123388D02*
X13776872Y-15104341D01*
X13776872Y-15104341D02*
X13757825Y-15094817D01*
X13757825Y-15094817D02*
X13729253Y-15094817D01*
X13729253Y-15094817D02*
X13710206Y-15085293D01*
X13710206Y-15085293D02*
X13700682Y-15066246D01*
X13700682Y-15066246D02*
X13700682Y-15056722D01*
X13700682Y-15056722D02*
X13710206Y-15037674D01*
X13710206Y-15037674D02*
X13729253Y-15028150D01*
X13729253Y-15028150D02*
X13757825Y-15028150D01*
X13757825Y-15028150D02*
X13776872Y-15037674D01*
X13853063Y-15237674D02*
X13862587Y-15228150D01*
X13862587Y-15228150D02*
X13881634Y-15199579D01*
X13881634Y-15199579D02*
X13891158Y-15180531D01*
X13891158Y-15180531D02*
X13900682Y-15151960D01*
X13900682Y-15151960D02*
X13910206Y-15104341D01*
X13910206Y-15104341D02*
X13910206Y-15066246D01*
X13910206Y-15066246D02*
X13900682Y-15018627D01*
X13900682Y-15018627D02*
X13891158Y-14990055D01*
X13891158Y-14990055D02*
X13881634Y-14971008D01*
X13881634Y-14971008D02*
X13862587Y-14942436D01*
X13862587Y-14942436D02*
X13853063Y-14932912D01*
X14214968Y-15237674D02*
X14205444Y-15228150D01*
X14205444Y-15228150D02*
X14186396Y-15199579D01*
X14186396Y-15199579D02*
X14176872Y-15180531D01*
X14176872Y-15180531D02*
X14167349Y-15151960D01*
X14167349Y-15151960D02*
X14157825Y-15104341D01*
X14157825Y-15104341D02*
X14157825Y-15066246D01*
X14157825Y-15066246D02*
X14167349Y-15018627D01*
X14167349Y-15018627D02*
X14176872Y-14990055D01*
X14176872Y-14990055D02*
X14186396Y-14971008D01*
X14186396Y-14971008D02*
X14205444Y-14942436D01*
X14205444Y-14942436D02*
X14214968Y-14932912D01*
X14291158Y-15028150D02*
X14291158Y-15161484D01*
X14291158Y-15047198D02*
X14300682Y-15037674D01*
X14300682Y-15037674D02*
X14319730Y-15028150D01*
X14319730Y-15028150D02*
X14348301Y-15028150D01*
X14348301Y-15028150D02*
X14367349Y-15037674D01*
X14367349Y-15037674D02*
X14376872Y-15056722D01*
X14376872Y-15056722D02*
X14376872Y-15161484D01*
X14500682Y-15161484D02*
X14481634Y-15151960D01*
X14481634Y-15151960D02*
X14472111Y-15142436D01*
X14472111Y-15142436D02*
X14462587Y-15123388D01*
X14462587Y-15123388D02*
X14462587Y-15066246D01*
X14462587Y-15066246D02*
X14472111Y-15047198D01*
X14472111Y-15047198D02*
X14481634Y-15037674D01*
X14481634Y-15037674D02*
X14500682Y-15028150D01*
X14500682Y-15028150D02*
X14529253Y-15028150D01*
X14529253Y-15028150D02*
X14548301Y-15037674D01*
X14548301Y-15037674D02*
X14557825Y-15047198D01*
X14557825Y-15047198D02*
X14567349Y-15066246D01*
X14567349Y-15066246D02*
X14567349Y-15123388D01*
X14567349Y-15123388D02*
X14557825Y-15142436D01*
X14557825Y-15142436D02*
X14548301Y-15151960D01*
X14548301Y-15151960D02*
X14529253Y-15161484D01*
X14529253Y-15161484D02*
X14500682Y-15161484D01*
X14624492Y-15028150D02*
X14700682Y-15028150D01*
X14653063Y-14961484D02*
X14653063Y-15132912D01*
X14653063Y-15132912D02*
X14662587Y-15151960D01*
X14662587Y-15151960D02*
X14681634Y-15161484D01*
X14681634Y-15161484D02*
X14700682Y-15161484D01*
X14919730Y-15028150D02*
X14919730Y-15228150D01*
X14919730Y-15037674D02*
X14938777Y-15028150D01*
X14938777Y-15028150D02*
X14976873Y-15028150D01*
X14976873Y-15028150D02*
X14995920Y-15037674D01*
X14995920Y-15037674D02*
X15005444Y-15047198D01*
X15005444Y-15047198D02*
X15014968Y-15066246D01*
X15014968Y-15066246D02*
X15014968Y-15123388D01*
X15014968Y-15123388D02*
X15005444Y-15142436D01*
X15005444Y-15142436D02*
X14995920Y-15151960D01*
X14995920Y-15151960D02*
X14976873Y-15161484D01*
X14976873Y-15161484D02*
X14938777Y-15161484D01*
X14938777Y-15161484D02*
X14919730Y-15151960D01*
X15129253Y-15161484D02*
X15110206Y-15151960D01*
X15110206Y-15151960D02*
X15100682Y-15132912D01*
X15100682Y-15132912D02*
X15100682Y-14961484D01*
X15291158Y-15161484D02*
X15291158Y-15056722D01*
X15291158Y-15056722D02*
X15281634Y-15037674D01*
X15281634Y-15037674D02*
X15262587Y-15028150D01*
X15262587Y-15028150D02*
X15224492Y-15028150D01*
X15224492Y-15028150D02*
X15205444Y-15037674D01*
X15291158Y-15151960D02*
X15272111Y-15161484D01*
X15272111Y-15161484D02*
X15224492Y-15161484D01*
X15224492Y-15161484D02*
X15205444Y-15151960D01*
X15205444Y-15151960D02*
X15195920Y-15132912D01*
X15195920Y-15132912D02*
X15195920Y-15113865D01*
X15195920Y-15113865D02*
X15205444Y-15094817D01*
X15205444Y-15094817D02*
X15224492Y-15085293D01*
X15224492Y-15085293D02*
X15272111Y-15085293D01*
X15272111Y-15085293D02*
X15291158Y-15075769D01*
X15357825Y-15028150D02*
X15434015Y-15028150D01*
X15386396Y-14961484D02*
X15386396Y-15132912D01*
X15386396Y-15132912D02*
X15395920Y-15151960D01*
X15395920Y-15151960D02*
X15414968Y-15161484D01*
X15414968Y-15161484D02*
X15434015Y-15161484D01*
X15576873Y-15151960D02*
X15557825Y-15161484D01*
X15557825Y-15161484D02*
X15519730Y-15161484D01*
X15519730Y-15161484D02*
X15500682Y-15151960D01*
X15500682Y-15151960D02*
X15491158Y-15132912D01*
X15491158Y-15132912D02*
X15491158Y-15056722D01*
X15491158Y-15056722D02*
X15500682Y-15037674D01*
X15500682Y-15037674D02*
X15519730Y-15028150D01*
X15519730Y-15028150D02*
X15557825Y-15028150D01*
X15557825Y-15028150D02*
X15576873Y-15037674D01*
X15576873Y-15037674D02*
X15586396Y-15056722D01*
X15586396Y-15056722D02*
X15586396Y-15075769D01*
X15586396Y-15075769D02*
X15491158Y-15094817D01*
X15757825Y-15161484D02*
X15757825Y-14961484D01*
X15757825Y-15151960D02*
X15738777Y-15161484D01*
X15738777Y-15161484D02*
X15700682Y-15161484D01*
X15700682Y-15161484D02*
X15681634Y-15151960D01*
X15681634Y-15151960D02*
X15672111Y-15142436D01*
X15672111Y-15142436D02*
X15662587Y-15123388D01*
X15662587Y-15123388D02*
X15662587Y-15066246D01*
X15662587Y-15066246D02*
X15672111Y-15047198D01*
X15672111Y-15047198D02*
X15681634Y-15037674D01*
X15681634Y-15037674D02*
X15700682Y-15028150D01*
X15700682Y-15028150D02*
X15738777Y-15028150D01*
X15738777Y-15028150D02*
X15757825Y-15037674D01*
X15834015Y-15237674D02*
X15843539Y-15228150D01*
X15843539Y-15228150D02*
X15862587Y-15199579D01*
X15862587Y-15199579D02*
X15872111Y-15180531D01*
X15872111Y-15180531D02*
X15881634Y-15151960D01*
X15881634Y-15151960D02*
X15891158Y-15104341D01*
X15891158Y-15104341D02*
X15891158Y-15066246D01*
X15891158Y-15066246D02*
X15881634Y-15018627D01*
X15881634Y-15018627D02*
X15872111Y-14990055D01*
X15872111Y-14990055D02*
X15862587Y-14971008D01*
X15862587Y-14971008D02*
X15843539Y-14942436D01*
X15843539Y-14942436D02*
X15834015Y-14932912D01*
X9078000Y-15371000D02*
G75*
G02*
X8878000Y-15371000I-100000J0D01*
G01*
X8878000Y-15371000D02*
G75*
G02*
X9078000Y-15371000I100000J0D01*
G01*
X9319729Y-15262484D02*
X9443539Y-15262484D01*
X9443539Y-15262484D02*
X9376872Y-15338674D01*
X9376872Y-15338674D02*
X9405444Y-15338674D01*
X9405444Y-15338674D02*
X9424491Y-15348198D01*
X9424491Y-15348198D02*
X9434015Y-15357722D01*
X9434015Y-15357722D02*
X9443539Y-15376769D01*
X9443539Y-15376769D02*
X9443539Y-15424388D01*
X9443539Y-15424388D02*
X9434015Y-15443436D01*
X9434015Y-15443436D02*
X9424491Y-15452960D01*
X9424491Y-15452960D02*
X9405444Y-15462484D01*
X9405444Y-15462484D02*
X9348301Y-15462484D01*
X9348301Y-15462484D02*
X9329253Y-15452960D01*
X9329253Y-15452960D02*
X9319729Y-15443436D01*
X9529253Y-15443436D02*
X9538777Y-15452960D01*
X9538777Y-15452960D02*
X9529253Y-15462484D01*
X9529253Y-15462484D02*
X9519729Y-15452960D01*
X9519729Y-15452960D02*
X9529253Y-15443436D01*
X9529253Y-15443436D02*
X9529253Y-15462484D01*
X9662586Y-15262484D02*
X9681634Y-15262484D01*
X9681634Y-15262484D02*
X9700682Y-15272008D01*
X9700682Y-15272008D02*
X9710205Y-15281531D01*
X9710205Y-15281531D02*
X9719729Y-15300579D01*
X9719729Y-15300579D02*
X9729253Y-15338674D01*
X9729253Y-15338674D02*
X9729253Y-15386293D01*
X9729253Y-15386293D02*
X9719729Y-15424388D01*
X9719729Y-15424388D02*
X9710205Y-15443436D01*
X9710205Y-15443436D02*
X9700682Y-15452960D01*
X9700682Y-15452960D02*
X9681634Y-15462484D01*
X9681634Y-15462484D02*
X9662586Y-15462484D01*
X9662586Y-15462484D02*
X9643539Y-15452960D01*
X9643539Y-15452960D02*
X9634015Y-15443436D01*
X9634015Y-15443436D02*
X9624491Y-15424388D01*
X9624491Y-15424388D02*
X9614967Y-15386293D01*
X9614967Y-15386293D02*
X9614967Y-15338674D01*
X9614967Y-15338674D02*
X9624491Y-15300579D01*
X9624491Y-15300579D02*
X9634015Y-15281531D01*
X9634015Y-15281531D02*
X9643539Y-15272008D01*
X9643539Y-15272008D02*
X9662586Y-15262484D01*
X9853063Y-15262484D02*
X9872110Y-15262484D01*
X9872110Y-15262484D02*
X9891158Y-15272008D01*
X9891158Y-15272008D02*
X9900682Y-15281531D01*
X9900682Y-15281531D02*
X9910205Y-15300579D01*
X9910205Y-15300579D02*
X9919729Y-15338674D01*
X9919729Y-15338674D02*
X9919729Y-15386293D01*
X9919729Y-15386293D02*
X9910205Y-15424388D01*
X9910205Y-15424388D02*
X9900682Y-15443436D01*
X9900682Y-15443436D02*
X9891158Y-15452960D01*
X9891158Y-15452960D02*
X9872110Y-15462484D01*
X9872110Y-15462484D02*
X9853063Y-15462484D01*
X9853063Y-15462484D02*
X9834015Y-15452960D01*
X9834015Y-15452960D02*
X9824491Y-15443436D01*
X9824491Y-15443436D02*
X9814967Y-15424388D01*
X9814967Y-15424388D02*
X9805444Y-15386293D01*
X9805444Y-15386293D02*
X9805444Y-15338674D01*
X9805444Y-15338674D02*
X9814967Y-15300579D01*
X9814967Y-15300579D02*
X9824491Y-15281531D01*
X9824491Y-15281531D02*
X9834015Y-15272008D01*
X9834015Y-15272008D02*
X9853063Y-15262484D01*
X10043539Y-15262484D02*
X10062586Y-15262484D01*
X10062586Y-15262484D02*
X10081634Y-15272008D01*
X10081634Y-15272008D02*
X10091158Y-15281531D01*
X10091158Y-15281531D02*
X10100682Y-15300579D01*
X10100682Y-15300579D02*
X10110205Y-15338674D01*
X10110205Y-15338674D02*
X10110205Y-15386293D01*
X10110205Y-15386293D02*
X10100682Y-15424388D01*
X10100682Y-15424388D02*
X10091158Y-15443436D01*
X10091158Y-15443436D02*
X10081634Y-15452960D01*
X10081634Y-15452960D02*
X10062586Y-15462484D01*
X10062586Y-15462484D02*
X10043539Y-15462484D01*
X10043539Y-15462484D02*
X10024491Y-15452960D01*
X10024491Y-15452960D02*
X10014967Y-15443436D01*
X10014967Y-15443436D02*
X10005444Y-15424388D01*
X10005444Y-15424388D02*
X9995920Y-15386293D01*
X9995920Y-15386293D02*
X9995920Y-15338674D01*
X9995920Y-15338674D02*
X10005444Y-15300579D01*
X10005444Y-15300579D02*
X10014967Y-15281531D01*
X10014967Y-15281531D02*
X10024491Y-15272008D01*
X10024491Y-15272008D02*
X10043539Y-15262484D01*
X10195920Y-15462484D02*
X10195920Y-15329150D01*
X10195920Y-15348198D02*
X10205444Y-15338674D01*
X10205444Y-15338674D02*
X10224491Y-15329150D01*
X10224491Y-15329150D02*
X10253063Y-15329150D01*
X10253063Y-15329150D02*
X10272110Y-15338674D01*
X10272110Y-15338674D02*
X10281634Y-15357722D01*
X10281634Y-15357722D02*
X10281634Y-15462484D01*
X10281634Y-15357722D02*
X10291158Y-15338674D01*
X10291158Y-15338674D02*
X10310205Y-15329150D01*
X10310205Y-15329150D02*
X10338777Y-15329150D01*
X10338777Y-15329150D02*
X10357825Y-15338674D01*
X10357825Y-15338674D02*
X10367348Y-15357722D01*
X10367348Y-15357722D02*
X10367348Y-15462484D01*
X10462586Y-15462484D02*
X10462586Y-15329150D01*
X10462586Y-15348198D02*
X10472110Y-15338674D01*
X10472110Y-15338674D02*
X10491158Y-15329150D01*
X10491158Y-15329150D02*
X10519729Y-15329150D01*
X10519729Y-15329150D02*
X10538777Y-15338674D01*
X10538777Y-15338674D02*
X10548301Y-15357722D01*
X10548301Y-15357722D02*
X10548301Y-15462484D01*
X10548301Y-15357722D02*
X10557825Y-15338674D01*
X10557825Y-15338674D02*
X10576872Y-15329150D01*
X10576872Y-15329150D02*
X10605444Y-15329150D01*
X10605444Y-15329150D02*
X10624491Y-15338674D01*
X10624491Y-15338674D02*
X10634015Y-15357722D01*
X10634015Y-15357722D02*
X10634015Y-15462484D01*
X11024491Y-15252960D02*
X10853063Y-15510103D01*
X11281634Y-15262484D02*
X11300682Y-15262484D01*
X11300682Y-15262484D02*
X11319729Y-15272008D01*
X11319729Y-15272008D02*
X11329253Y-15281531D01*
X11329253Y-15281531D02*
X11338777Y-15300579D01*
X11338777Y-15300579D02*
X11348301Y-15338674D01*
X11348301Y-15338674D02*
X11348301Y-15386293D01*
X11348301Y-15386293D02*
X11338777Y-15424388D01*
X11338777Y-15424388D02*
X11329253Y-15443436D01*
X11329253Y-15443436D02*
X11319729Y-15452960D01*
X11319729Y-15452960D02*
X11300682Y-15462484D01*
X11300682Y-15462484D02*
X11281634Y-15462484D01*
X11281634Y-15462484D02*
X11262586Y-15452960D01*
X11262586Y-15452960D02*
X11253063Y-15443436D01*
X11253063Y-15443436D02*
X11243539Y-15424388D01*
X11243539Y-15424388D02*
X11234015Y-15386293D01*
X11234015Y-15386293D02*
X11234015Y-15338674D01*
X11234015Y-15338674D02*
X11243539Y-15300579D01*
X11243539Y-15300579D02*
X11253063Y-15281531D01*
X11253063Y-15281531D02*
X11262586Y-15272008D01*
X11262586Y-15272008D02*
X11281634Y-15262484D01*
X11434015Y-15443436D02*
X11443539Y-15452960D01*
X11443539Y-15452960D02*
X11434015Y-15462484D01*
X11434015Y-15462484D02*
X11424491Y-15452960D01*
X11424491Y-15452960D02*
X11434015Y-15443436D01*
X11434015Y-15443436D02*
X11434015Y-15462484D01*
X11634015Y-15462484D02*
X11519729Y-15462484D01*
X11576872Y-15462484D02*
X11576872Y-15262484D01*
X11576872Y-15262484D02*
X11557825Y-15291055D01*
X11557825Y-15291055D02*
X11538777Y-15310103D01*
X11538777Y-15310103D02*
X11519729Y-15319627D01*
X11824491Y-15462484D02*
X11710206Y-15462484D01*
X11767348Y-15462484D02*
X11767348Y-15262484D01*
X11767348Y-15262484D02*
X11748301Y-15291055D01*
X11748301Y-15291055D02*
X11729253Y-15310103D01*
X11729253Y-15310103D02*
X11710206Y-15319627D01*
X11938777Y-15348198D02*
X11919729Y-15338674D01*
X11919729Y-15338674D02*
X11910206Y-15329150D01*
X11910206Y-15329150D02*
X11900682Y-15310103D01*
X11900682Y-15310103D02*
X11900682Y-15300579D01*
X11900682Y-15300579D02*
X11910206Y-15281531D01*
X11910206Y-15281531D02*
X11919729Y-15272008D01*
X11919729Y-15272008D02*
X11938777Y-15262484D01*
X11938777Y-15262484D02*
X11976872Y-15262484D01*
X11976872Y-15262484D02*
X11995920Y-15272008D01*
X11995920Y-15272008D02*
X12005444Y-15281531D01*
X12005444Y-15281531D02*
X12014967Y-15300579D01*
X12014967Y-15300579D02*
X12014967Y-15310103D01*
X12014967Y-15310103D02*
X12005444Y-15329150D01*
X12005444Y-15329150D02*
X11995920Y-15338674D01*
X11995920Y-15338674D02*
X11976872Y-15348198D01*
X11976872Y-15348198D02*
X11938777Y-15348198D01*
X11938777Y-15348198D02*
X11919729Y-15357722D01*
X11919729Y-15357722D02*
X11910206Y-15367246D01*
X11910206Y-15367246D02*
X11900682Y-15386293D01*
X11900682Y-15386293D02*
X11900682Y-15424388D01*
X11900682Y-15424388D02*
X11910206Y-15443436D01*
X11910206Y-15443436D02*
X11919729Y-15452960D01*
X11919729Y-15452960D02*
X11938777Y-15462484D01*
X11938777Y-15462484D02*
X11976872Y-15462484D01*
X11976872Y-15462484D02*
X11995920Y-15452960D01*
X11995920Y-15452960D02*
X12005444Y-15443436D01*
X12005444Y-15443436D02*
X12014967Y-15424388D01*
X12014967Y-15424388D02*
X12014967Y-15386293D01*
X12014967Y-15386293D02*
X12005444Y-15367246D01*
X12005444Y-15367246D02*
X11995920Y-15357722D01*
X11995920Y-15357722D02*
X11976872Y-15348198D01*
X12205444Y-15462484D02*
X12091158Y-15462484D01*
X12148301Y-15462484D02*
X12148301Y-15262484D01*
X12148301Y-15262484D02*
X12129253Y-15291055D01*
X12129253Y-15291055D02*
X12110206Y-15310103D01*
X12110206Y-15310103D02*
X12091158Y-15319627D01*
X12281634Y-15262484D02*
X12281634Y-15300579D01*
X12357825Y-15262484D02*
X12357825Y-15300579D01*
X12653063Y-15538674D02*
X12643539Y-15529150D01*
X12643539Y-15529150D02*
X12624491Y-15500579D01*
X12624491Y-15500579D02*
X12614968Y-15481531D01*
X12614968Y-15481531D02*
X12605444Y-15452960D01*
X12605444Y-15452960D02*
X12595920Y-15405341D01*
X12595920Y-15405341D02*
X12595920Y-15367246D01*
X12595920Y-15367246D02*
X12605444Y-15319627D01*
X12605444Y-15319627D02*
X12614968Y-15291055D01*
X12614968Y-15291055D02*
X12624491Y-15272008D01*
X12624491Y-15272008D02*
X12643539Y-15243436D01*
X12643539Y-15243436D02*
X12653063Y-15233912D01*
X12719729Y-15281531D02*
X12729253Y-15272008D01*
X12729253Y-15272008D02*
X12748301Y-15262484D01*
X12748301Y-15262484D02*
X12795920Y-15262484D01*
X12795920Y-15262484D02*
X12814968Y-15272008D01*
X12814968Y-15272008D02*
X12824491Y-15281531D01*
X12824491Y-15281531D02*
X12834015Y-15300579D01*
X12834015Y-15300579D02*
X12834015Y-15319627D01*
X12834015Y-15319627D02*
X12824491Y-15348198D01*
X12824491Y-15348198D02*
X12710206Y-15462484D01*
X12710206Y-15462484D02*
X12834015Y-15462484D01*
X13072110Y-15462484D02*
X13072110Y-15262484D01*
X13157825Y-15462484D02*
X13157825Y-15357722D01*
X13157825Y-15357722D02*
X13148301Y-15338674D01*
X13148301Y-15338674D02*
X13129253Y-15329150D01*
X13129253Y-15329150D02*
X13100682Y-15329150D01*
X13100682Y-15329150D02*
X13081634Y-15338674D01*
X13081634Y-15338674D02*
X13072110Y-15348198D01*
X13281634Y-15462484D02*
X13262587Y-15452960D01*
X13262587Y-15452960D02*
X13253063Y-15443436D01*
X13253063Y-15443436D02*
X13243539Y-15424388D01*
X13243539Y-15424388D02*
X13243539Y-15367246D01*
X13243539Y-15367246D02*
X13253063Y-15348198D01*
X13253063Y-15348198D02*
X13262587Y-15338674D01*
X13262587Y-15338674D02*
X13281634Y-15329150D01*
X13281634Y-15329150D02*
X13310206Y-15329150D01*
X13310206Y-15329150D02*
X13329253Y-15338674D01*
X13329253Y-15338674D02*
X13338777Y-15348198D01*
X13338777Y-15348198D02*
X13348301Y-15367246D01*
X13348301Y-15367246D02*
X13348301Y-15424388D01*
X13348301Y-15424388D02*
X13338777Y-15443436D01*
X13338777Y-15443436D02*
X13329253Y-15452960D01*
X13329253Y-15452960D02*
X13310206Y-15462484D01*
X13310206Y-15462484D02*
X13281634Y-15462484D01*
X13462587Y-15462484D02*
X13443539Y-15452960D01*
X13443539Y-15452960D02*
X13434015Y-15433912D01*
X13434015Y-15433912D02*
X13434015Y-15262484D01*
X13614968Y-15452960D02*
X13595920Y-15462484D01*
X13595920Y-15462484D02*
X13557825Y-15462484D01*
X13557825Y-15462484D02*
X13538777Y-15452960D01*
X13538777Y-15452960D02*
X13529253Y-15433912D01*
X13529253Y-15433912D02*
X13529253Y-15357722D01*
X13529253Y-15357722D02*
X13538777Y-15338674D01*
X13538777Y-15338674D02*
X13557825Y-15329150D01*
X13557825Y-15329150D02*
X13595920Y-15329150D01*
X13595920Y-15329150D02*
X13614968Y-15338674D01*
X13614968Y-15338674D02*
X13624491Y-15357722D01*
X13624491Y-15357722D02*
X13624491Y-15376769D01*
X13624491Y-15376769D02*
X13529253Y-15395817D01*
X13700682Y-15452960D02*
X13719730Y-15462484D01*
X13719730Y-15462484D02*
X13757825Y-15462484D01*
X13757825Y-15462484D02*
X13776872Y-15452960D01*
X13776872Y-15452960D02*
X13786396Y-15433912D01*
X13786396Y-15433912D02*
X13786396Y-15424388D01*
X13786396Y-15424388D02*
X13776872Y-15405341D01*
X13776872Y-15405341D02*
X13757825Y-15395817D01*
X13757825Y-15395817D02*
X13729253Y-15395817D01*
X13729253Y-15395817D02*
X13710206Y-15386293D01*
X13710206Y-15386293D02*
X13700682Y-15367246D01*
X13700682Y-15367246D02*
X13700682Y-15357722D01*
X13700682Y-15357722D02*
X13710206Y-15338674D01*
X13710206Y-15338674D02*
X13729253Y-15329150D01*
X13729253Y-15329150D02*
X13757825Y-15329150D01*
X13757825Y-15329150D02*
X13776872Y-15338674D01*
X13853063Y-15538674D02*
X13862587Y-15529150D01*
X13862587Y-15529150D02*
X13881634Y-15500579D01*
X13881634Y-15500579D02*
X13891158Y-15481531D01*
X13891158Y-15481531D02*
X13900682Y-15452960D01*
X13900682Y-15452960D02*
X13910206Y-15405341D01*
X13910206Y-15405341D02*
X13910206Y-15367246D01*
X13910206Y-15367246D02*
X13900682Y-15319627D01*
X13900682Y-15319627D02*
X13891158Y-15291055D01*
X13891158Y-15291055D02*
X13881634Y-15272008D01*
X13881634Y-15272008D02*
X13862587Y-15243436D01*
X13862587Y-15243436D02*
X13853063Y-15233912D01*
X14214968Y-15538674D02*
X14205444Y-15529150D01*
X14205444Y-15529150D02*
X14186396Y-15500579D01*
X14186396Y-15500579D02*
X14176872Y-15481531D01*
X14176872Y-15481531D02*
X14167349Y-15452960D01*
X14167349Y-15452960D02*
X14157825Y-15405341D01*
X14157825Y-15405341D02*
X14157825Y-15367246D01*
X14157825Y-15367246D02*
X14167349Y-15319627D01*
X14167349Y-15319627D02*
X14176872Y-15291055D01*
X14176872Y-15291055D02*
X14186396Y-15272008D01*
X14186396Y-15272008D02*
X14205444Y-15243436D01*
X14205444Y-15243436D02*
X14214968Y-15233912D01*
X14291158Y-15329150D02*
X14291158Y-15462484D01*
X14291158Y-15348198D02*
X14300682Y-15338674D01*
X14300682Y-15338674D02*
X14319730Y-15329150D01*
X14319730Y-15329150D02*
X14348301Y-15329150D01*
X14348301Y-15329150D02*
X14367349Y-15338674D01*
X14367349Y-15338674D02*
X14376872Y-15357722D01*
X14376872Y-15357722D02*
X14376872Y-15462484D01*
X14500682Y-15462484D02*
X14481634Y-15452960D01*
X14481634Y-15452960D02*
X14472111Y-15443436D01*
X14472111Y-15443436D02*
X14462587Y-15424388D01*
X14462587Y-15424388D02*
X14462587Y-15367246D01*
X14462587Y-15367246D02*
X14472111Y-15348198D01*
X14472111Y-15348198D02*
X14481634Y-15338674D01*
X14481634Y-15338674D02*
X14500682Y-15329150D01*
X14500682Y-15329150D02*
X14529253Y-15329150D01*
X14529253Y-15329150D02*
X14548301Y-15338674D01*
X14548301Y-15338674D02*
X14557825Y-15348198D01*
X14557825Y-15348198D02*
X14567349Y-15367246D01*
X14567349Y-15367246D02*
X14567349Y-15424388D01*
X14567349Y-15424388D02*
X14557825Y-15443436D01*
X14557825Y-15443436D02*
X14548301Y-15452960D01*
X14548301Y-15452960D02*
X14529253Y-15462484D01*
X14529253Y-15462484D02*
X14500682Y-15462484D01*
X14624492Y-15329150D02*
X14700682Y-15329150D01*
X14653063Y-15262484D02*
X14653063Y-15433912D01*
X14653063Y-15433912D02*
X14662587Y-15452960D01*
X14662587Y-15452960D02*
X14681634Y-15462484D01*
X14681634Y-15462484D02*
X14700682Y-15462484D01*
X14919730Y-15329150D02*
X14919730Y-15529150D01*
X14919730Y-15338674D02*
X14938777Y-15329150D01*
X14938777Y-15329150D02*
X14976873Y-15329150D01*
X14976873Y-15329150D02*
X14995920Y-15338674D01*
X14995920Y-15338674D02*
X15005444Y-15348198D01*
X15005444Y-15348198D02*
X15014968Y-15367246D01*
X15014968Y-15367246D02*
X15014968Y-15424388D01*
X15014968Y-15424388D02*
X15005444Y-15443436D01*
X15005444Y-15443436D02*
X14995920Y-15452960D01*
X14995920Y-15452960D02*
X14976873Y-15462484D01*
X14976873Y-15462484D02*
X14938777Y-15462484D01*
X14938777Y-15462484D02*
X14919730Y-15452960D01*
X15129253Y-15462484D02*
X15110206Y-15452960D01*
X15110206Y-15452960D02*
X15100682Y-15433912D01*
X15100682Y-15433912D02*
X15100682Y-15262484D01*
X15291158Y-15462484D02*
X15291158Y-15357722D01*
X15291158Y-15357722D02*
X15281634Y-15338674D01*
X15281634Y-15338674D02*
X15262587Y-15329150D01*
X15262587Y-15329150D02*
X15224492Y-15329150D01*
X15224492Y-15329150D02*
X15205444Y-15338674D01*
X15291158Y-15452960D02*
X15272111Y-15462484D01*
X15272111Y-15462484D02*
X15224492Y-15462484D01*
X15224492Y-15462484D02*
X15205444Y-15452960D01*
X15205444Y-15452960D02*
X15195920Y-15433912D01*
X15195920Y-15433912D02*
X15195920Y-15414865D01*
X15195920Y-15414865D02*
X15205444Y-15395817D01*
X15205444Y-15395817D02*
X15224492Y-15386293D01*
X15224492Y-15386293D02*
X15272111Y-15386293D01*
X15272111Y-15386293D02*
X15291158Y-15376769D01*
X15357825Y-15329150D02*
X15434015Y-15329150D01*
X15386396Y-15262484D02*
X15386396Y-15433912D01*
X15386396Y-15433912D02*
X15395920Y-15452960D01*
X15395920Y-15452960D02*
X15414968Y-15462484D01*
X15414968Y-15462484D02*
X15434015Y-15462484D01*
X15576873Y-15452960D02*
X15557825Y-15462484D01*
X15557825Y-15462484D02*
X15519730Y-15462484D01*
X15519730Y-15462484D02*
X15500682Y-15452960D01*
X15500682Y-15452960D02*
X15491158Y-15433912D01*
X15491158Y-15433912D02*
X15491158Y-15357722D01*
X15491158Y-15357722D02*
X15500682Y-15338674D01*
X15500682Y-15338674D02*
X15519730Y-15329150D01*
X15519730Y-15329150D02*
X15557825Y-15329150D01*
X15557825Y-15329150D02*
X15576873Y-15338674D01*
X15576873Y-15338674D02*
X15586396Y-15357722D01*
X15586396Y-15357722D02*
X15586396Y-15376769D01*
X15586396Y-15376769D02*
X15491158Y-15395817D01*
X15757825Y-15462484D02*
X15757825Y-15262484D01*
X15757825Y-15452960D02*
X15738777Y-15462484D01*
X15738777Y-15462484D02*
X15700682Y-15462484D01*
X15700682Y-15462484D02*
X15681634Y-15452960D01*
X15681634Y-15452960D02*
X15672111Y-15443436D01*
X15672111Y-15443436D02*
X15662587Y-15424388D01*
X15662587Y-15424388D02*
X15662587Y-15367246D01*
X15662587Y-15367246D02*
X15672111Y-15348198D01*
X15672111Y-15348198D02*
X15681634Y-15338674D01*
X15681634Y-15338674D02*
X15700682Y-15329150D01*
X15700682Y-15329150D02*
X15738777Y-15329150D01*
X15738777Y-15329150D02*
X15757825Y-15338674D01*
X15834015Y-15538674D02*
X15843539Y-15529150D01*
X15843539Y-15529150D02*
X15862587Y-15500579D01*
X15862587Y-15500579D02*
X15872111Y-15481531D01*
X15872111Y-15481531D02*
X15881634Y-15452960D01*
X15881634Y-15452960D02*
X15891158Y-15405341D01*
X15891158Y-15405341D02*
X15891158Y-15367246D01*
X15891158Y-15367246D02*
X15881634Y-15319627D01*
X15881634Y-15319627D02*
X15872111Y-15291055D01*
X15872111Y-15291055D02*
X15862587Y-15272008D01*
X15862587Y-15272008D02*
X15843539Y-15243436D01*
X15843539Y-15243436D02*
X15834015Y-15233912D01*
M02*
