%TF.GenerationSoftware,KiCad,Pcbnew,8.0.1*%
%TF.CreationDate,2024-06-07T19:00:36+02:00*%
%TF.ProjectId,PCB_Plaque_Basse,5043425f-506c-4617-9175-655f42617373,rev?*%
%TF.SameCoordinates,Original*%
%TF.FileFunction,Legend,Top*%
%TF.FilePolarity,Positive*%
%FSLAX46Y46*%
G04 Gerber Fmt 4.6, Leading zero omitted, Abs format (unit mm)*
G04 Created by KiCad (PCBNEW 8.0.1) date 2024-06-07 19:00:36*
%MOMM*%
%LPD*%
G01*
G04 APERTURE LIST*
%ADD10C,0.100000*%
%ADD11C,0.150000*%
%ADD12C,0.120000*%
G04 APERTURE END LIST*
D10*
X124496666Y-72421704D02*
X124972856Y-72421704D01*
X124401428Y-72707419D02*
X124734761Y-71707419D01*
X124734761Y-71707419D02*
X125068094Y-72707419D01*
X125401428Y-72707419D02*
X125401428Y-72040752D01*
X125401428Y-72231228D02*
X125449047Y-72135990D01*
X125449047Y-72135990D02*
X125496666Y-72088371D01*
X125496666Y-72088371D02*
X125591904Y-72040752D01*
X125591904Y-72040752D02*
X125687142Y-72040752D01*
X126449047Y-72707419D02*
X126449047Y-71707419D01*
X126449047Y-72659800D02*
X126353809Y-72707419D01*
X126353809Y-72707419D02*
X126163333Y-72707419D01*
X126163333Y-72707419D02*
X126068095Y-72659800D01*
X126068095Y-72659800D02*
X126020476Y-72612180D01*
X126020476Y-72612180D02*
X125972857Y-72516942D01*
X125972857Y-72516942D02*
X125972857Y-72231228D01*
X125972857Y-72231228D02*
X126020476Y-72135990D01*
X126020476Y-72135990D02*
X126068095Y-72088371D01*
X126068095Y-72088371D02*
X126163333Y-72040752D01*
X126163333Y-72040752D02*
X126353809Y-72040752D01*
X126353809Y-72040752D02*
X126449047Y-72088371D01*
X127353809Y-72040752D02*
X127353809Y-72707419D01*
X126925238Y-72040752D02*
X126925238Y-72564561D01*
X126925238Y-72564561D02*
X126972857Y-72659800D01*
X126972857Y-72659800D02*
X127068095Y-72707419D01*
X127068095Y-72707419D02*
X127210952Y-72707419D01*
X127210952Y-72707419D02*
X127306190Y-72659800D01*
X127306190Y-72659800D02*
X127353809Y-72612180D01*
X127830000Y-72707419D02*
X127830000Y-72040752D01*
X127830000Y-71707419D02*
X127782381Y-71755038D01*
X127782381Y-71755038D02*
X127830000Y-71802657D01*
X127830000Y-71802657D02*
X127877619Y-71755038D01*
X127877619Y-71755038D02*
X127830000Y-71707419D01*
X127830000Y-71707419D02*
X127830000Y-71802657D01*
X128306190Y-72040752D02*
X128306190Y-72707419D01*
X128306190Y-72135990D02*
X128353809Y-72088371D01*
X128353809Y-72088371D02*
X128449047Y-72040752D01*
X128449047Y-72040752D02*
X128591904Y-72040752D01*
X128591904Y-72040752D02*
X128687142Y-72088371D01*
X128687142Y-72088371D02*
X128734761Y-72183609D01*
X128734761Y-72183609D02*
X128734761Y-72707419D01*
X129353809Y-72707419D02*
X129258571Y-72659800D01*
X129258571Y-72659800D02*
X129210952Y-72612180D01*
X129210952Y-72612180D02*
X129163333Y-72516942D01*
X129163333Y-72516942D02*
X129163333Y-72231228D01*
X129163333Y-72231228D02*
X129210952Y-72135990D01*
X129210952Y-72135990D02*
X129258571Y-72088371D01*
X129258571Y-72088371D02*
X129353809Y-72040752D01*
X129353809Y-72040752D02*
X129496666Y-72040752D01*
X129496666Y-72040752D02*
X129591904Y-72088371D01*
X129591904Y-72088371D02*
X129639523Y-72135990D01*
X129639523Y-72135990D02*
X129687142Y-72231228D01*
X129687142Y-72231228D02*
X129687142Y-72516942D01*
X129687142Y-72516942D02*
X129639523Y-72612180D01*
X129639523Y-72612180D02*
X129591904Y-72659800D01*
X129591904Y-72659800D02*
X129496666Y-72707419D01*
X129496666Y-72707419D02*
X129353809Y-72707419D01*
X129877619Y-72802657D02*
X130639523Y-72802657D01*
X130877619Y-72707419D02*
X130877619Y-71707419D01*
X130877619Y-71707419D02*
X131449047Y-72707419D01*
X131449047Y-72707419D02*
X131449047Y-71707419D01*
X132353809Y-72707419D02*
X132353809Y-72183609D01*
X132353809Y-72183609D02*
X132306190Y-72088371D01*
X132306190Y-72088371D02*
X132210952Y-72040752D01*
X132210952Y-72040752D02*
X132020476Y-72040752D01*
X132020476Y-72040752D02*
X131925238Y-72088371D01*
X132353809Y-72659800D02*
X132258571Y-72707419D01*
X132258571Y-72707419D02*
X132020476Y-72707419D01*
X132020476Y-72707419D02*
X131925238Y-72659800D01*
X131925238Y-72659800D02*
X131877619Y-72564561D01*
X131877619Y-72564561D02*
X131877619Y-72469323D01*
X131877619Y-72469323D02*
X131925238Y-72374085D01*
X131925238Y-72374085D02*
X132020476Y-72326466D01*
X132020476Y-72326466D02*
X132258571Y-72326466D01*
X132258571Y-72326466D02*
X132353809Y-72278847D01*
X132830000Y-72040752D02*
X132830000Y-72707419D01*
X132830000Y-72135990D02*
X132877619Y-72088371D01*
X132877619Y-72088371D02*
X132972857Y-72040752D01*
X132972857Y-72040752D02*
X133115714Y-72040752D01*
X133115714Y-72040752D02*
X133210952Y-72088371D01*
X133210952Y-72088371D02*
X133258571Y-72183609D01*
X133258571Y-72183609D02*
X133258571Y-72707419D01*
X133877619Y-72707419D02*
X133782381Y-72659800D01*
X133782381Y-72659800D02*
X133734762Y-72612180D01*
X133734762Y-72612180D02*
X133687143Y-72516942D01*
X133687143Y-72516942D02*
X133687143Y-72231228D01*
X133687143Y-72231228D02*
X133734762Y-72135990D01*
X133734762Y-72135990D02*
X133782381Y-72088371D01*
X133782381Y-72088371D02*
X133877619Y-72040752D01*
X133877619Y-72040752D02*
X134020476Y-72040752D01*
X134020476Y-72040752D02*
X134115714Y-72088371D01*
X134115714Y-72088371D02*
X134163333Y-72135990D01*
X134163333Y-72135990D02*
X134210952Y-72231228D01*
X134210952Y-72231228D02*
X134210952Y-72516942D01*
X134210952Y-72516942D02*
X134163333Y-72612180D01*
X134163333Y-72612180D02*
X134115714Y-72659800D01*
X134115714Y-72659800D02*
X134020476Y-72707419D01*
X134020476Y-72707419D02*
X133877619Y-72707419D01*
X135163333Y-72707419D02*
X134591905Y-72707419D01*
X134877619Y-72707419D02*
X134877619Y-71707419D01*
X134877619Y-71707419D02*
X134782381Y-71850276D01*
X134782381Y-71850276D02*
X134687143Y-71945514D01*
X134687143Y-71945514D02*
X134591905Y-71993133D01*
D11*
X113865180Y-70998095D02*
X113055657Y-70998095D01*
X113055657Y-70998095D02*
X112960419Y-71045714D01*
X112960419Y-71045714D02*
X112912800Y-71093333D01*
X112912800Y-71093333D02*
X112865180Y-71188571D01*
X112865180Y-71188571D02*
X112865180Y-71379047D01*
X112865180Y-71379047D02*
X112912800Y-71474285D01*
X112912800Y-71474285D02*
X112960419Y-71521904D01*
X112960419Y-71521904D02*
X113055657Y-71569523D01*
X113055657Y-71569523D02*
X113865180Y-71569523D01*
X112912800Y-71998095D02*
X112865180Y-72140952D01*
X112865180Y-72140952D02*
X112865180Y-72379047D01*
X112865180Y-72379047D02*
X112912800Y-72474285D01*
X112912800Y-72474285D02*
X112960419Y-72521904D01*
X112960419Y-72521904D02*
X113055657Y-72569523D01*
X113055657Y-72569523D02*
X113150895Y-72569523D01*
X113150895Y-72569523D02*
X113246133Y-72521904D01*
X113246133Y-72521904D02*
X113293752Y-72474285D01*
X113293752Y-72474285D02*
X113341371Y-72379047D01*
X113341371Y-72379047D02*
X113388990Y-72188571D01*
X113388990Y-72188571D02*
X113436609Y-72093333D01*
X113436609Y-72093333D02*
X113484228Y-72045714D01*
X113484228Y-72045714D02*
X113579466Y-71998095D01*
X113579466Y-71998095D02*
X113674704Y-71998095D01*
X113674704Y-71998095D02*
X113769942Y-72045714D01*
X113769942Y-72045714D02*
X113817561Y-72093333D01*
X113817561Y-72093333D02*
X113865180Y-72188571D01*
X113865180Y-72188571D02*
X113865180Y-72426666D01*
X113865180Y-72426666D02*
X113817561Y-72569523D01*
X113388990Y-73331428D02*
X113341371Y-73474285D01*
X113341371Y-73474285D02*
X113293752Y-73521904D01*
X113293752Y-73521904D02*
X113198514Y-73569523D01*
X113198514Y-73569523D02*
X113055657Y-73569523D01*
X113055657Y-73569523D02*
X112960419Y-73521904D01*
X112960419Y-73521904D02*
X112912800Y-73474285D01*
X112912800Y-73474285D02*
X112865180Y-73379047D01*
X112865180Y-73379047D02*
X112865180Y-72998095D01*
X112865180Y-72998095D02*
X113865180Y-72998095D01*
X113865180Y-72998095D02*
X113865180Y-73331428D01*
X113865180Y-73331428D02*
X113817561Y-73426666D01*
X113817561Y-73426666D02*
X113769942Y-73474285D01*
X113769942Y-73474285D02*
X113674704Y-73521904D01*
X113674704Y-73521904D02*
X113579466Y-73521904D01*
X113579466Y-73521904D02*
X113484228Y-73474285D01*
X113484228Y-73474285D02*
X113436609Y-73426666D01*
X113436609Y-73426666D02*
X113388990Y-73331428D01*
X113388990Y-73331428D02*
X113388990Y-72998095D01*
X155761904Y-68954819D02*
X155761904Y-67954819D01*
X156238094Y-68288152D02*
X156238094Y-68954819D01*
X156238094Y-68383390D02*
X156285713Y-68335771D01*
X156285713Y-68335771D02*
X156380951Y-68288152D01*
X156380951Y-68288152D02*
X156523808Y-68288152D01*
X156523808Y-68288152D02*
X156619046Y-68335771D01*
X156619046Y-68335771D02*
X156666665Y-68431009D01*
X156666665Y-68431009D02*
X156666665Y-68954819D01*
X156999999Y-68288152D02*
X157380951Y-68288152D01*
X157142856Y-67954819D02*
X157142856Y-68811961D01*
X157142856Y-68811961D02*
X157190475Y-68907200D01*
X157190475Y-68907200D02*
X157285713Y-68954819D01*
X157285713Y-68954819D02*
X157380951Y-68954819D01*
X158095237Y-68907200D02*
X157999999Y-68954819D01*
X157999999Y-68954819D02*
X157809523Y-68954819D01*
X157809523Y-68954819D02*
X157714285Y-68907200D01*
X157714285Y-68907200D02*
X157666666Y-68811961D01*
X157666666Y-68811961D02*
X157666666Y-68431009D01*
X157666666Y-68431009D02*
X157714285Y-68335771D01*
X157714285Y-68335771D02*
X157809523Y-68288152D01*
X157809523Y-68288152D02*
X157999999Y-68288152D01*
X157999999Y-68288152D02*
X158095237Y-68335771D01*
X158095237Y-68335771D02*
X158142856Y-68431009D01*
X158142856Y-68431009D02*
X158142856Y-68526247D01*
X158142856Y-68526247D02*
X157666666Y-68621485D01*
X158571428Y-68954819D02*
X158571428Y-68288152D01*
X158571428Y-68478628D02*
X158619047Y-68383390D01*
X158619047Y-68383390D02*
X158666666Y-68335771D01*
X158666666Y-68335771D02*
X158761904Y-68288152D01*
X158761904Y-68288152D02*
X158857142Y-68288152D01*
X158952381Y-69050057D02*
X159714285Y-69050057D01*
X159952381Y-68288152D02*
X159952381Y-69288152D01*
X159952381Y-68335771D02*
X160047619Y-68288152D01*
X160047619Y-68288152D02*
X160238095Y-68288152D01*
X160238095Y-68288152D02*
X160333333Y-68335771D01*
X160333333Y-68335771D02*
X160380952Y-68383390D01*
X160380952Y-68383390D02*
X160428571Y-68478628D01*
X160428571Y-68478628D02*
X160428571Y-68764342D01*
X160428571Y-68764342D02*
X160380952Y-68859580D01*
X160380952Y-68859580D02*
X160333333Y-68907200D01*
X160333333Y-68907200D02*
X160238095Y-68954819D01*
X160238095Y-68954819D02*
X160047619Y-68954819D01*
X160047619Y-68954819D02*
X159952381Y-68907200D01*
X161000000Y-68954819D02*
X160904762Y-68907200D01*
X160904762Y-68907200D02*
X160857143Y-68811961D01*
X160857143Y-68811961D02*
X160857143Y-67954819D01*
X161809524Y-68954819D02*
X161809524Y-68431009D01*
X161809524Y-68431009D02*
X161761905Y-68335771D01*
X161761905Y-68335771D02*
X161666667Y-68288152D01*
X161666667Y-68288152D02*
X161476191Y-68288152D01*
X161476191Y-68288152D02*
X161380953Y-68335771D01*
X161809524Y-68907200D02*
X161714286Y-68954819D01*
X161714286Y-68954819D02*
X161476191Y-68954819D01*
X161476191Y-68954819D02*
X161380953Y-68907200D01*
X161380953Y-68907200D02*
X161333334Y-68811961D01*
X161333334Y-68811961D02*
X161333334Y-68716723D01*
X161333334Y-68716723D02*
X161380953Y-68621485D01*
X161380953Y-68621485D02*
X161476191Y-68573866D01*
X161476191Y-68573866D02*
X161714286Y-68573866D01*
X161714286Y-68573866D02*
X161809524Y-68526247D01*
X162714286Y-68288152D02*
X162714286Y-69288152D01*
X162714286Y-68907200D02*
X162619048Y-68954819D01*
X162619048Y-68954819D02*
X162428572Y-68954819D01*
X162428572Y-68954819D02*
X162333334Y-68907200D01*
X162333334Y-68907200D02*
X162285715Y-68859580D01*
X162285715Y-68859580D02*
X162238096Y-68764342D01*
X162238096Y-68764342D02*
X162238096Y-68478628D01*
X162238096Y-68478628D02*
X162285715Y-68383390D01*
X162285715Y-68383390D02*
X162333334Y-68335771D01*
X162333334Y-68335771D02*
X162428572Y-68288152D01*
X162428572Y-68288152D02*
X162619048Y-68288152D01*
X162619048Y-68288152D02*
X162714286Y-68335771D01*
X163619048Y-68288152D02*
X163619048Y-68954819D01*
X163190477Y-68288152D02*
X163190477Y-68811961D01*
X163190477Y-68811961D02*
X163238096Y-68907200D01*
X163238096Y-68907200D02*
X163333334Y-68954819D01*
X163333334Y-68954819D02*
X163476191Y-68954819D01*
X163476191Y-68954819D02*
X163571429Y-68907200D01*
X163571429Y-68907200D02*
X163619048Y-68859580D01*
X164476191Y-68907200D02*
X164380953Y-68954819D01*
X164380953Y-68954819D02*
X164190477Y-68954819D01*
X164190477Y-68954819D02*
X164095239Y-68907200D01*
X164095239Y-68907200D02*
X164047620Y-68811961D01*
X164047620Y-68811961D02*
X164047620Y-68431009D01*
X164047620Y-68431009D02*
X164095239Y-68335771D01*
X164095239Y-68335771D02*
X164190477Y-68288152D01*
X164190477Y-68288152D02*
X164380953Y-68288152D01*
X164380953Y-68288152D02*
X164476191Y-68335771D01*
X164476191Y-68335771D02*
X164523810Y-68431009D01*
X164523810Y-68431009D02*
X164523810Y-68526247D01*
X164523810Y-68526247D02*
X164047620Y-68621485D01*
X164904763Y-68907200D02*
X165000001Y-68954819D01*
X165000001Y-68954819D02*
X165190477Y-68954819D01*
X165190477Y-68954819D02*
X165285715Y-68907200D01*
X165285715Y-68907200D02*
X165333334Y-68811961D01*
X165333334Y-68811961D02*
X165333334Y-68764342D01*
X165333334Y-68764342D02*
X165285715Y-68669104D01*
X165285715Y-68669104D02*
X165190477Y-68621485D01*
X165190477Y-68621485D02*
X165047620Y-68621485D01*
X165047620Y-68621485D02*
X164952382Y-68573866D01*
X164952382Y-68573866D02*
X164904763Y-68478628D01*
X164904763Y-68478628D02*
X164904763Y-68431009D01*
X164904763Y-68431009D02*
X164952382Y-68335771D01*
X164952382Y-68335771D02*
X165047620Y-68288152D01*
X165047620Y-68288152D02*
X165190477Y-68288152D01*
X165190477Y-68288152D02*
X165285715Y-68335771D01*
X166285715Y-68954819D02*
X165714287Y-68954819D01*
X166000001Y-68954819D02*
X166000001Y-67954819D01*
X166000001Y-67954819D02*
X165904763Y-68097676D01*
X165904763Y-68097676D02*
X165809525Y-68192914D01*
X165809525Y-68192914D02*
X165714287Y-68240533D01*
D10*
X121957419Y-118214285D02*
X120957419Y-118214285D01*
X120957419Y-118214285D02*
X121671704Y-117880952D01*
X121671704Y-117880952D02*
X120957419Y-117547619D01*
X120957419Y-117547619D02*
X121957419Y-117547619D01*
X121957419Y-116928571D02*
X121909800Y-117023809D01*
X121909800Y-117023809D02*
X121862180Y-117071428D01*
X121862180Y-117071428D02*
X121766942Y-117119047D01*
X121766942Y-117119047D02*
X121481228Y-117119047D01*
X121481228Y-117119047D02*
X121385990Y-117071428D01*
X121385990Y-117071428D02*
X121338371Y-117023809D01*
X121338371Y-117023809D02*
X121290752Y-116928571D01*
X121290752Y-116928571D02*
X121290752Y-116785714D01*
X121290752Y-116785714D02*
X121338371Y-116690476D01*
X121338371Y-116690476D02*
X121385990Y-116642857D01*
X121385990Y-116642857D02*
X121481228Y-116595238D01*
X121481228Y-116595238D02*
X121766942Y-116595238D01*
X121766942Y-116595238D02*
X121862180Y-116642857D01*
X121862180Y-116642857D02*
X121909800Y-116690476D01*
X121909800Y-116690476D02*
X121957419Y-116785714D01*
X121957419Y-116785714D02*
X121957419Y-116928571D01*
X121957419Y-115738095D02*
X120957419Y-115738095D01*
X121909800Y-115738095D02*
X121957419Y-115833333D01*
X121957419Y-115833333D02*
X121957419Y-116023809D01*
X121957419Y-116023809D02*
X121909800Y-116119047D01*
X121909800Y-116119047D02*
X121862180Y-116166666D01*
X121862180Y-116166666D02*
X121766942Y-116214285D01*
X121766942Y-116214285D02*
X121481228Y-116214285D01*
X121481228Y-116214285D02*
X121385990Y-116166666D01*
X121385990Y-116166666D02*
X121338371Y-116119047D01*
X121338371Y-116119047D02*
X121290752Y-116023809D01*
X121290752Y-116023809D02*
X121290752Y-115833333D01*
X121290752Y-115833333D02*
X121338371Y-115738095D01*
X121290752Y-114833333D02*
X121957419Y-114833333D01*
X121290752Y-115261904D02*
X121814561Y-115261904D01*
X121814561Y-115261904D02*
X121909800Y-115214285D01*
X121909800Y-115214285D02*
X121957419Y-115119047D01*
X121957419Y-115119047D02*
X121957419Y-114976190D01*
X121957419Y-114976190D02*
X121909800Y-114880952D01*
X121909800Y-114880952D02*
X121862180Y-114833333D01*
X121957419Y-114214285D02*
X121909800Y-114309523D01*
X121909800Y-114309523D02*
X121814561Y-114357142D01*
X121814561Y-114357142D02*
X120957419Y-114357142D01*
X121909800Y-113452380D02*
X121957419Y-113547618D01*
X121957419Y-113547618D02*
X121957419Y-113738094D01*
X121957419Y-113738094D02*
X121909800Y-113833332D01*
X121909800Y-113833332D02*
X121814561Y-113880951D01*
X121814561Y-113880951D02*
X121433609Y-113880951D01*
X121433609Y-113880951D02*
X121338371Y-113833332D01*
X121338371Y-113833332D02*
X121290752Y-113738094D01*
X121290752Y-113738094D02*
X121290752Y-113547618D01*
X121290752Y-113547618D02*
X121338371Y-113452380D01*
X121338371Y-113452380D02*
X121433609Y-113404761D01*
X121433609Y-113404761D02*
X121528847Y-113404761D01*
X121528847Y-113404761D02*
X121624085Y-113880951D01*
X122052657Y-113214285D02*
X122052657Y-112452380D01*
X121909800Y-112261903D02*
X121957419Y-112119046D01*
X121957419Y-112119046D02*
X121957419Y-111880951D01*
X121957419Y-111880951D02*
X121909800Y-111785713D01*
X121909800Y-111785713D02*
X121862180Y-111738094D01*
X121862180Y-111738094D02*
X121766942Y-111690475D01*
X121766942Y-111690475D02*
X121671704Y-111690475D01*
X121671704Y-111690475D02*
X121576466Y-111738094D01*
X121576466Y-111738094D02*
X121528847Y-111785713D01*
X121528847Y-111785713D02*
X121481228Y-111880951D01*
X121481228Y-111880951D02*
X121433609Y-112071427D01*
X121433609Y-112071427D02*
X121385990Y-112166665D01*
X121385990Y-112166665D02*
X121338371Y-112214284D01*
X121338371Y-112214284D02*
X121243133Y-112261903D01*
X121243133Y-112261903D02*
X121147895Y-112261903D01*
X121147895Y-112261903D02*
X121052657Y-112214284D01*
X121052657Y-112214284D02*
X121005038Y-112166665D01*
X121005038Y-112166665D02*
X120957419Y-112071427D01*
X120957419Y-112071427D02*
X120957419Y-111833332D01*
X120957419Y-111833332D02*
X121005038Y-111690475D01*
X121957419Y-111261903D02*
X120957419Y-111261903D01*
X120957419Y-111261903D02*
X120957419Y-111023808D01*
X120957419Y-111023808D02*
X121005038Y-110880951D01*
X121005038Y-110880951D02*
X121100276Y-110785713D01*
X121100276Y-110785713D02*
X121195514Y-110738094D01*
X121195514Y-110738094D02*
X121385990Y-110690475D01*
X121385990Y-110690475D02*
X121528847Y-110690475D01*
X121528847Y-110690475D02*
X121719323Y-110738094D01*
X121719323Y-110738094D02*
X121814561Y-110785713D01*
X121814561Y-110785713D02*
X121909800Y-110880951D01*
X121909800Y-110880951D02*
X121957419Y-111023808D01*
X121957419Y-111023808D02*
X121957419Y-111261903D01*
X121957419Y-109738094D02*
X121957419Y-110309522D01*
X121957419Y-110023808D02*
X120957419Y-110023808D01*
X120957419Y-110023808D02*
X121100276Y-110119046D01*
X121100276Y-110119046D02*
X121195514Y-110214284D01*
X121195514Y-110214284D02*
X121243133Y-110309522D01*
D11*
X154666666Y-64454819D02*
X154666666Y-63454819D01*
X155142856Y-63788152D02*
X155142856Y-64454819D01*
X155142856Y-63883390D02*
X155190475Y-63835771D01*
X155190475Y-63835771D02*
X155285713Y-63788152D01*
X155285713Y-63788152D02*
X155428570Y-63788152D01*
X155428570Y-63788152D02*
X155523808Y-63835771D01*
X155523808Y-63835771D02*
X155571427Y-63931009D01*
X155571427Y-63931009D02*
X155571427Y-64454819D01*
X155904761Y-63788152D02*
X156285713Y-63788152D01*
X156047618Y-63454819D02*
X156047618Y-64311961D01*
X156047618Y-64311961D02*
X156095237Y-64407200D01*
X156095237Y-64407200D02*
X156190475Y-64454819D01*
X156190475Y-64454819D02*
X156285713Y-64454819D01*
X156999999Y-64407200D02*
X156904761Y-64454819D01*
X156904761Y-64454819D02*
X156714285Y-64454819D01*
X156714285Y-64454819D02*
X156619047Y-64407200D01*
X156619047Y-64407200D02*
X156571428Y-64311961D01*
X156571428Y-64311961D02*
X156571428Y-63931009D01*
X156571428Y-63931009D02*
X156619047Y-63835771D01*
X156619047Y-63835771D02*
X156714285Y-63788152D01*
X156714285Y-63788152D02*
X156904761Y-63788152D01*
X156904761Y-63788152D02*
X156999999Y-63835771D01*
X156999999Y-63835771D02*
X157047618Y-63931009D01*
X157047618Y-63931009D02*
X157047618Y-64026247D01*
X157047618Y-64026247D02*
X156571428Y-64121485D01*
X157476190Y-64454819D02*
X157476190Y-63788152D01*
X157476190Y-63978628D02*
X157523809Y-63883390D01*
X157523809Y-63883390D02*
X157571428Y-63835771D01*
X157571428Y-63835771D02*
X157666666Y-63788152D01*
X157666666Y-63788152D02*
X157761904Y-63788152D01*
X157857143Y-64550057D02*
X158619047Y-64550057D01*
X158857143Y-64454819D02*
X158857143Y-63788152D01*
X158857143Y-63454819D02*
X158809524Y-63502438D01*
X158809524Y-63502438D02*
X158857143Y-63550057D01*
X158857143Y-63550057D02*
X158904762Y-63502438D01*
X158904762Y-63502438D02*
X158857143Y-63454819D01*
X158857143Y-63454819D02*
X158857143Y-63550057D01*
X159333333Y-63788152D02*
X159333333Y-64454819D01*
X159333333Y-63883390D02*
X159380952Y-63835771D01*
X159380952Y-63835771D02*
X159476190Y-63788152D01*
X159476190Y-63788152D02*
X159619047Y-63788152D01*
X159619047Y-63788152D02*
X159714285Y-63835771D01*
X159714285Y-63835771D02*
X159761904Y-63931009D01*
X159761904Y-63931009D02*
X159761904Y-64454819D01*
X160000000Y-64550057D02*
X160761904Y-64550057D01*
X161428571Y-64407200D02*
X161333333Y-64454819D01*
X161333333Y-64454819D02*
X161142857Y-64454819D01*
X161142857Y-64454819D02*
X161047619Y-64407200D01*
X161047619Y-64407200D02*
X161000000Y-64359580D01*
X161000000Y-64359580D02*
X160952381Y-64264342D01*
X160952381Y-64264342D02*
X160952381Y-63978628D01*
X160952381Y-63978628D02*
X161000000Y-63883390D01*
X161000000Y-63883390D02*
X161047619Y-63835771D01*
X161047619Y-63835771D02*
X161142857Y-63788152D01*
X161142857Y-63788152D02*
X161333333Y-63788152D01*
X161333333Y-63788152D02*
X161428571Y-63835771D01*
X162380952Y-64454819D02*
X161809524Y-64454819D01*
X162095238Y-64454819D02*
X162095238Y-63454819D01*
X162095238Y-63454819D02*
X162000000Y-63597676D01*
X162000000Y-63597676D02*
X161904762Y-63692914D01*
X161904762Y-63692914D02*
X161809524Y-63740533D01*
D10*
X158404761Y-98457419D02*
X158404761Y-97457419D01*
X158404761Y-97457419D02*
X158738094Y-98171704D01*
X158738094Y-98171704D02*
X159071427Y-97457419D01*
X159071427Y-97457419D02*
X159071427Y-98457419D01*
X159690475Y-98457419D02*
X159595237Y-98409800D01*
X159595237Y-98409800D02*
X159547618Y-98362180D01*
X159547618Y-98362180D02*
X159499999Y-98266942D01*
X159499999Y-98266942D02*
X159499999Y-97981228D01*
X159499999Y-97981228D02*
X159547618Y-97885990D01*
X159547618Y-97885990D02*
X159595237Y-97838371D01*
X159595237Y-97838371D02*
X159690475Y-97790752D01*
X159690475Y-97790752D02*
X159833332Y-97790752D01*
X159833332Y-97790752D02*
X159928570Y-97838371D01*
X159928570Y-97838371D02*
X159976189Y-97885990D01*
X159976189Y-97885990D02*
X160023808Y-97981228D01*
X160023808Y-97981228D02*
X160023808Y-98266942D01*
X160023808Y-98266942D02*
X159976189Y-98362180D01*
X159976189Y-98362180D02*
X159928570Y-98409800D01*
X159928570Y-98409800D02*
X159833332Y-98457419D01*
X159833332Y-98457419D02*
X159690475Y-98457419D01*
X160880951Y-98457419D02*
X160880951Y-97457419D01*
X160880951Y-98409800D02*
X160785713Y-98457419D01*
X160785713Y-98457419D02*
X160595237Y-98457419D01*
X160595237Y-98457419D02*
X160499999Y-98409800D01*
X160499999Y-98409800D02*
X160452380Y-98362180D01*
X160452380Y-98362180D02*
X160404761Y-98266942D01*
X160404761Y-98266942D02*
X160404761Y-97981228D01*
X160404761Y-97981228D02*
X160452380Y-97885990D01*
X160452380Y-97885990D02*
X160499999Y-97838371D01*
X160499999Y-97838371D02*
X160595237Y-97790752D01*
X160595237Y-97790752D02*
X160785713Y-97790752D01*
X160785713Y-97790752D02*
X160880951Y-97838371D01*
X161785713Y-97790752D02*
X161785713Y-98457419D01*
X161357142Y-97790752D02*
X161357142Y-98314561D01*
X161357142Y-98314561D02*
X161404761Y-98409800D01*
X161404761Y-98409800D02*
X161499999Y-98457419D01*
X161499999Y-98457419D02*
X161642856Y-98457419D01*
X161642856Y-98457419D02*
X161738094Y-98409800D01*
X161738094Y-98409800D02*
X161785713Y-98362180D01*
X162404761Y-98457419D02*
X162309523Y-98409800D01*
X162309523Y-98409800D02*
X162261904Y-98314561D01*
X162261904Y-98314561D02*
X162261904Y-97457419D01*
X163166666Y-98409800D02*
X163071428Y-98457419D01*
X163071428Y-98457419D02*
X162880952Y-98457419D01*
X162880952Y-98457419D02*
X162785714Y-98409800D01*
X162785714Y-98409800D02*
X162738095Y-98314561D01*
X162738095Y-98314561D02*
X162738095Y-97933609D01*
X162738095Y-97933609D02*
X162785714Y-97838371D01*
X162785714Y-97838371D02*
X162880952Y-97790752D01*
X162880952Y-97790752D02*
X163071428Y-97790752D01*
X163071428Y-97790752D02*
X163166666Y-97838371D01*
X163166666Y-97838371D02*
X163214285Y-97933609D01*
X163214285Y-97933609D02*
X163214285Y-98028847D01*
X163214285Y-98028847D02*
X162738095Y-98124085D01*
X163404762Y-98552657D02*
X164166666Y-98552657D01*
X164880952Y-98457419D02*
X164404762Y-98457419D01*
X164404762Y-98457419D02*
X164404762Y-97457419D01*
X165404762Y-97457419D02*
X165595238Y-97457419D01*
X165595238Y-97457419D02*
X165690476Y-97505038D01*
X165690476Y-97505038D02*
X165785714Y-97600276D01*
X165785714Y-97600276D02*
X165833333Y-97790752D01*
X165833333Y-97790752D02*
X165833333Y-98124085D01*
X165833333Y-98124085D02*
X165785714Y-98314561D01*
X165785714Y-98314561D02*
X165690476Y-98409800D01*
X165690476Y-98409800D02*
X165595238Y-98457419D01*
X165595238Y-98457419D02*
X165404762Y-98457419D01*
X165404762Y-98457419D02*
X165309524Y-98409800D01*
X165309524Y-98409800D02*
X165214286Y-98314561D01*
X165214286Y-98314561D02*
X165166667Y-98124085D01*
X165166667Y-98124085D02*
X165166667Y-97790752D01*
X165166667Y-97790752D02*
X165214286Y-97600276D01*
X165214286Y-97600276D02*
X165309524Y-97505038D01*
X165309524Y-97505038D02*
X165404762Y-97457419D01*
X166833333Y-98457419D02*
X166500000Y-97981228D01*
X166261905Y-98457419D02*
X166261905Y-97457419D01*
X166261905Y-97457419D02*
X166642857Y-97457419D01*
X166642857Y-97457419D02*
X166738095Y-97505038D01*
X166738095Y-97505038D02*
X166785714Y-97552657D01*
X166785714Y-97552657D02*
X166833333Y-97647895D01*
X166833333Y-97647895D02*
X166833333Y-97790752D01*
X166833333Y-97790752D02*
X166785714Y-97885990D01*
X166785714Y-97885990D02*
X166738095Y-97933609D01*
X166738095Y-97933609D02*
X166642857Y-97981228D01*
X166642857Y-97981228D02*
X166261905Y-97981228D01*
X167214286Y-98171704D02*
X167690476Y-98171704D01*
X167119048Y-98457419D02*
X167452381Y-97457419D01*
X167452381Y-97457419D02*
X167785714Y-98457419D01*
X168642857Y-98457419D02*
X168071429Y-98457419D01*
X168357143Y-98457419D02*
X168357143Y-97457419D01*
X168357143Y-97457419D02*
X168261905Y-97600276D01*
X168261905Y-97600276D02*
X168166667Y-97695514D01*
X168166667Y-97695514D02*
X168071429Y-97743133D01*
D12*
%TO.C,Arduino_Nano1*%
X106840000Y-68320000D02*
X117260000Y-68320000D01*
X106840000Y-76200000D02*
X106840000Y-68320000D01*
X109380000Y-63240000D02*
X109380000Y-68320000D01*
X109380000Y-81280000D02*
X109380000Y-76200000D01*
X109380000Y-81280000D02*
X152820000Y-81280000D01*
X112050000Y-65910000D02*
X112050000Y-63240000D01*
X112050000Y-78610000D02*
X112050000Y-81280000D01*
X117260000Y-68320000D02*
X117260000Y-76200000D01*
X117260000Y-76200000D02*
X106840000Y-76200000D01*
X147610000Y-63240000D02*
X109380000Y-63240000D01*
X147610000Y-65910000D02*
X112050000Y-65910000D01*
X147610000Y-65910000D02*
X147610000Y-63240000D01*
X147610000Y-65910000D02*
X150150000Y-65910000D01*
X150150000Y-65910000D02*
X150150000Y-63240000D01*
X150150000Y-78610000D02*
X112050000Y-78610000D01*
X150150000Y-78610000D02*
X150150000Y-81280000D01*
X152820000Y-63240000D02*
X150150000Y-63240000D01*
X152820000Y-81280000D02*
X152820000Y-63240000D01*
%TO.C,Inter_plaques1*%
X158270000Y-66055000D02*
X158270000Y-66355507D01*
X158270000Y-67144493D02*
X158270000Y-67445000D01*
X162145000Y-66055000D02*
X158270000Y-66055000D01*
X162145000Y-66055000D02*
X162145000Y-66141724D01*
X162145000Y-67358276D02*
X162145000Y-67445000D01*
X162145000Y-67445000D02*
X158270000Y-67445000D01*
X162830000Y-66055000D02*
X163515000Y-66055000D01*
X163515000Y-66055000D02*
X163515000Y-66750000D01*
D10*
%TO.C,Module_SD1*%
X128330000Y-89250000D02*
X147830000Y-89250000D01*
X128330000Y-93750000D02*
X128330000Y-89250000D01*
X148330000Y-89750000D02*
X147830000Y-89250000D01*
X148330000Y-89750000D02*
X148330000Y-93750000D01*
X148330000Y-93750000D02*
X128330000Y-93750000D01*
X123830000Y-141750000D02*
X152830000Y-141750000D01*
X152830000Y-87250000D01*
X123830000Y-87250000D01*
X123830000Y-141750000D01*
D12*
%TO.C,Inter_in_c1*%
X157635000Y-59565000D02*
X158330000Y-59565000D01*
X157635000Y-60250000D02*
X157635000Y-59565000D01*
X157635000Y-60935000D02*
X157635000Y-62810000D01*
X157635000Y-60935000D02*
X157721724Y-60935000D01*
X157635000Y-62810000D02*
X157935507Y-62810000D01*
X158724493Y-62810000D02*
X159025000Y-62810000D01*
X158938276Y-60935000D02*
X159025000Y-60935000D01*
X159025000Y-60935000D02*
X159025000Y-62810000D01*
%TO.C,Module_LORA1*%
D10*
X171330000Y-115750000D02*
X155330000Y-115750000D01*
X155330000Y-99750000D01*
X171330000Y-99750000D01*
X171330000Y-115750000D01*
%TD*%
M02*
