%TF.GenerationSoftware,KiCad,Pcbnew,8.0.1*%
%TF.CreationDate,2024-06-11T18:45:46+02:00*%
%TF.ProjectId,PCB_Plaque_Basse,5043425f-506c-4617-9175-655f42617373,rev?*%
%TF.SameCoordinates,Original*%
%TF.FileFunction,Drillmap*%
%TF.FilePolarity,Positive*%
%FSLAX45Y45*%
G04 Gerber Fmt 4.5, Leading zero omitted, Abs format (unit mm)*
G04 Created by KiCad (PCBNEW 8.0.1) date 2024-06-11 18:45:46*
%MOMM*%
%LPD*%
G01*
G04 APERTURE LIST*
%ADD10C,0.100000*%
%ADD11C,0.200000*%
G04 APERTURE END LIST*
D10*
X10757000Y-12457000D02*
G75*
G02*
X10157000Y-12457000I-300000J0D01*
G01*
X10157000Y-12457000D02*
G75*
G02*
X10757000Y-12457000I300000J0D01*
G01*
X18483000Y-9725000D02*
G75*
G02*
X9083000Y-9725000I-4700000J0D01*
G01*
X9083000Y-9725000D02*
G75*
G02*
X18483000Y-9725000I4700000J0D01*
G01*
X14083000Y-5425000D02*
G75*
G02*
X13483000Y-5425000I-300000J0D01*
G01*
X13483000Y-5425000D02*
G75*
G02*
X14083000Y-5425000I300000J0D01*
G01*
X17407000Y-12457000D02*
G75*
G02*
X16807000Y-12457000I-300000J0D01*
G01*
X16807000Y-12457000D02*
G75*
G02*
X17407000Y-12457000I300000J0D01*
G01*
D11*
D10*
X15865000Y-9565000D02*
X15935000Y-9635000D01*
X15935000Y-9565000D02*
X15865000Y-9635000D01*
X15865000Y-9765000D02*
X15935000Y-9835000D01*
X15935000Y-9765000D02*
X15865000Y-9835000D01*
X15865000Y-9965000D02*
X15935000Y-10035000D01*
X15935000Y-9965000D02*
X15865000Y-10035000D01*
X15865000Y-10165000D02*
X15935000Y-10235000D01*
X15935000Y-10165000D02*
X15865000Y-10235000D01*
X15865000Y-10365000D02*
X15935000Y-10435000D01*
X15935000Y-10365000D02*
X15865000Y-10435000D01*
X15865000Y-10565000D02*
X15935000Y-10635000D01*
X15935000Y-10565000D02*
X15865000Y-10635000D01*
X15865000Y-10765000D02*
X15935000Y-10835000D01*
X15935000Y-10765000D02*
X15865000Y-10835000D01*
X15865000Y-10965000D02*
X15935000Y-11035000D01*
X15935000Y-10965000D02*
X15865000Y-11035000D01*
X17265000Y-9565000D02*
X17335000Y-9635000D01*
X17335000Y-9565000D02*
X17265000Y-9635000D01*
X17265000Y-9765000D02*
X17335000Y-9835000D01*
X17335000Y-9765000D02*
X17265000Y-9835000D01*
X17265000Y-9965000D02*
X17335000Y-10035000D01*
X17335000Y-9965000D02*
X17265000Y-10035000D01*
X17265000Y-10165000D02*
X17335000Y-10235000D01*
X17335000Y-10165000D02*
X17265000Y-10235000D01*
X17265000Y-10365000D02*
X17335000Y-10435000D01*
X17335000Y-10365000D02*
X17265000Y-10435000D01*
X17265000Y-10565000D02*
X17335000Y-10635000D01*
X17335000Y-10565000D02*
X17265000Y-10635000D01*
X17265000Y-10765000D02*
X17335000Y-10835000D01*
X17335000Y-10765000D02*
X17265000Y-10835000D01*
X17265000Y-10965000D02*
X17335000Y-11035000D01*
X17335000Y-10965000D02*
X17265000Y-11035000D01*
X9903250Y-9032250D02*
G75*
G02*
X9803250Y-9032250I-50000J0D01*
G01*
X9803250Y-9032250D02*
G75*
G02*
X9903250Y-9032250I50000J0D01*
G01*
X10157250Y-9032250D02*
G75*
G02*
X10057250Y-9032250I-50000J0D01*
G01*
X10057250Y-9032250D02*
G75*
G02*
X10157250Y-9032250I50000J0D01*
G01*
X10411250Y-9032250D02*
G75*
G02*
X10311250Y-9032250I-50000J0D01*
G01*
X10311250Y-9032250D02*
G75*
G02*
X10411250Y-9032250I50000J0D01*
G01*
X10665250Y-9032250D02*
G75*
G02*
X10565250Y-9032250I-50000J0D01*
G01*
X10565250Y-9032250D02*
G75*
G02*
X10665250Y-9032250I50000J0D01*
G01*
X10919250Y-9032250D02*
G75*
G02*
X10819250Y-9032250I-50000J0D01*
G01*
X10819250Y-9032250D02*
G75*
G02*
X10919250Y-9032250I50000J0D01*
G01*
X11173250Y-9032250D02*
G75*
G02*
X11073250Y-9032250I-50000J0D01*
G01*
X11073250Y-9032250D02*
G75*
G02*
X11173250Y-9032250I50000J0D01*
G01*
X11269000Y-10932250D02*
G75*
G02*
X11169000Y-10932250I-50000J0D01*
G01*
X11169000Y-10932250D02*
G75*
G02*
X11269000Y-10932250I50000J0D01*
G01*
X11382000Y-6464000D02*
G75*
G02*
X11282000Y-6464000I-50000J0D01*
G01*
X11282000Y-6464000D02*
G75*
G02*
X11382000Y-6464000I50000J0D01*
G01*
X11382000Y-7988000D02*
G75*
G02*
X11282000Y-7988000I-50000J0D01*
G01*
X11282000Y-7988000D02*
G75*
G02*
X11382000Y-7988000I50000J0D01*
G01*
X11427250Y-9032250D02*
G75*
G02*
X11327250Y-9032250I-50000J0D01*
G01*
X11327250Y-9032250D02*
G75*
G02*
X11427250Y-9032250I50000J0D01*
G01*
X11523000Y-10932250D02*
G75*
G02*
X11423000Y-10932250I-50000J0D01*
G01*
X11423000Y-10932250D02*
G75*
G02*
X11523000Y-10932250I50000J0D01*
G01*
X11636000Y-6464000D02*
G75*
G02*
X11536000Y-6464000I-50000J0D01*
G01*
X11536000Y-6464000D02*
G75*
G02*
X11636000Y-6464000I50000J0D01*
G01*
X11636000Y-7988000D02*
G75*
G02*
X11536000Y-7988000I-50000J0D01*
G01*
X11536000Y-7988000D02*
G75*
G02*
X11636000Y-7988000I50000J0D01*
G01*
X11681250Y-9032250D02*
G75*
G02*
X11581250Y-9032250I-50000J0D01*
G01*
X11581250Y-9032250D02*
G75*
G02*
X11681250Y-9032250I50000J0D01*
G01*
X11777000Y-10932250D02*
G75*
G02*
X11677000Y-10932250I-50000J0D01*
G01*
X11677000Y-10932250D02*
G75*
G02*
X11777000Y-10932250I50000J0D01*
G01*
X11890000Y-6464000D02*
G75*
G02*
X11790000Y-6464000I-50000J0D01*
G01*
X11790000Y-6464000D02*
G75*
G02*
X11890000Y-6464000I50000J0D01*
G01*
X11890000Y-7988000D02*
G75*
G02*
X11790000Y-7988000I-50000J0D01*
G01*
X11790000Y-7988000D02*
G75*
G02*
X11890000Y-7988000I50000J0D01*
G01*
X12031000Y-10932250D02*
G75*
G02*
X11931000Y-10932250I-50000J0D01*
G01*
X11931000Y-10932250D02*
G75*
G02*
X12031000Y-10932250I50000J0D01*
G01*
X12144000Y-6464000D02*
G75*
G02*
X12044000Y-6464000I-50000J0D01*
G01*
X12044000Y-6464000D02*
G75*
G02*
X12144000Y-6464000I50000J0D01*
G01*
X12144000Y-7988000D02*
G75*
G02*
X12044000Y-7988000I-50000J0D01*
G01*
X12044000Y-7988000D02*
G75*
G02*
X12144000Y-7988000I50000J0D01*
G01*
X12398000Y-6464000D02*
G75*
G02*
X12298000Y-6464000I-50000J0D01*
G01*
X12298000Y-6464000D02*
G75*
G02*
X12398000Y-6464000I50000J0D01*
G01*
X12398000Y-7988000D02*
G75*
G02*
X12298000Y-7988000I-50000J0D01*
G01*
X12298000Y-7988000D02*
G75*
G02*
X12398000Y-7988000I50000J0D01*
G01*
X12652000Y-6464000D02*
G75*
G02*
X12552000Y-6464000I-50000J0D01*
G01*
X12552000Y-6464000D02*
G75*
G02*
X12652000Y-6464000I50000J0D01*
G01*
X12652000Y-7988000D02*
G75*
G02*
X12552000Y-7988000I-50000J0D01*
G01*
X12552000Y-7988000D02*
G75*
G02*
X12652000Y-7988000I50000J0D01*
G01*
X12906000Y-6464000D02*
G75*
G02*
X12806000Y-6464000I-50000J0D01*
G01*
X12806000Y-6464000D02*
G75*
G02*
X12906000Y-6464000I50000J0D01*
G01*
X12906000Y-7988000D02*
G75*
G02*
X12806000Y-7988000I-50000J0D01*
G01*
X12806000Y-7988000D02*
G75*
G02*
X12906000Y-7988000I50000J0D01*
G01*
X12994000Y-9025000D02*
G75*
G02*
X12894000Y-9025000I-50000J0D01*
G01*
X12894000Y-9025000D02*
G75*
G02*
X12994000Y-9025000I50000J0D01*
G01*
X12994000Y-9279000D02*
G75*
G02*
X12894000Y-9279000I-50000J0D01*
G01*
X12894000Y-9279000D02*
G75*
G02*
X12994000Y-9279000I50000J0D01*
G01*
X13160000Y-6464000D02*
G75*
G02*
X13060000Y-6464000I-50000J0D01*
G01*
X13060000Y-6464000D02*
G75*
G02*
X13160000Y-6464000I50000J0D01*
G01*
X13160000Y-7988000D02*
G75*
G02*
X13060000Y-7988000I-50000J0D01*
G01*
X13060000Y-7988000D02*
G75*
G02*
X13160000Y-7988000I50000J0D01*
G01*
X13248000Y-9025000D02*
G75*
G02*
X13148000Y-9025000I-50000J0D01*
G01*
X13148000Y-9025000D02*
G75*
G02*
X13248000Y-9025000I50000J0D01*
G01*
X13248000Y-9279000D02*
G75*
G02*
X13148000Y-9279000I-50000J0D01*
G01*
X13148000Y-9279000D02*
G75*
G02*
X13248000Y-9279000I50000J0D01*
G01*
X13414000Y-6464000D02*
G75*
G02*
X13314000Y-6464000I-50000J0D01*
G01*
X13314000Y-6464000D02*
G75*
G02*
X13414000Y-6464000I50000J0D01*
G01*
X13414000Y-7988000D02*
G75*
G02*
X13314000Y-7988000I-50000J0D01*
G01*
X13314000Y-7988000D02*
G75*
G02*
X13414000Y-7988000I50000J0D01*
G01*
X13502000Y-9025000D02*
G75*
G02*
X13402000Y-9025000I-50000J0D01*
G01*
X13402000Y-9025000D02*
G75*
G02*
X13502000Y-9025000I50000J0D01*
G01*
X13502000Y-9279000D02*
G75*
G02*
X13402000Y-9279000I-50000J0D01*
G01*
X13402000Y-9279000D02*
G75*
G02*
X13502000Y-9279000I50000J0D01*
G01*
X13668000Y-6464000D02*
G75*
G02*
X13568000Y-6464000I-50000J0D01*
G01*
X13568000Y-6464000D02*
G75*
G02*
X13668000Y-6464000I50000J0D01*
G01*
X13668000Y-7988000D02*
G75*
G02*
X13568000Y-7988000I-50000J0D01*
G01*
X13568000Y-7988000D02*
G75*
G02*
X13668000Y-7988000I50000J0D01*
G01*
X13756000Y-9025000D02*
G75*
G02*
X13656000Y-9025000I-50000J0D01*
G01*
X13656000Y-9025000D02*
G75*
G02*
X13756000Y-9025000I50000J0D01*
G01*
X13756000Y-9279000D02*
G75*
G02*
X13656000Y-9279000I-50000J0D01*
G01*
X13656000Y-9279000D02*
G75*
G02*
X13756000Y-9279000I50000J0D01*
G01*
X13922000Y-6464000D02*
G75*
G02*
X13822000Y-6464000I-50000J0D01*
G01*
X13822000Y-6464000D02*
G75*
G02*
X13922000Y-6464000I50000J0D01*
G01*
X13922000Y-7988000D02*
G75*
G02*
X13822000Y-7988000I-50000J0D01*
G01*
X13822000Y-7988000D02*
G75*
G02*
X13922000Y-7988000I50000J0D01*
G01*
X14010000Y-9025000D02*
G75*
G02*
X13910000Y-9025000I-50000J0D01*
G01*
X13910000Y-9025000D02*
G75*
G02*
X14010000Y-9025000I50000J0D01*
G01*
X14010000Y-9279000D02*
G75*
G02*
X13910000Y-9279000I-50000J0D01*
G01*
X13910000Y-9279000D02*
G75*
G02*
X14010000Y-9279000I50000J0D01*
G01*
X14176000Y-6464000D02*
G75*
G02*
X14076000Y-6464000I-50000J0D01*
G01*
X14076000Y-6464000D02*
G75*
G02*
X14176000Y-6464000I50000J0D01*
G01*
X14176000Y-7988000D02*
G75*
G02*
X14076000Y-7988000I-50000J0D01*
G01*
X14076000Y-7988000D02*
G75*
G02*
X14176000Y-7988000I50000J0D01*
G01*
X14264000Y-9025000D02*
G75*
G02*
X14164000Y-9025000I-50000J0D01*
G01*
X14164000Y-9025000D02*
G75*
G02*
X14264000Y-9025000I50000J0D01*
G01*
X14264000Y-9279000D02*
G75*
G02*
X14164000Y-9279000I-50000J0D01*
G01*
X14164000Y-9279000D02*
G75*
G02*
X14264000Y-9279000I50000J0D01*
G01*
X14430000Y-6464000D02*
G75*
G02*
X14330000Y-6464000I-50000J0D01*
G01*
X14330000Y-6464000D02*
G75*
G02*
X14430000Y-6464000I50000J0D01*
G01*
X14430000Y-7988000D02*
G75*
G02*
X14330000Y-7988000I-50000J0D01*
G01*
X14330000Y-7988000D02*
G75*
G02*
X14430000Y-7988000I50000J0D01*
G01*
X14518000Y-9025000D02*
G75*
G02*
X14418000Y-9025000I-50000J0D01*
G01*
X14418000Y-9025000D02*
G75*
G02*
X14518000Y-9025000I50000J0D01*
G01*
X14518000Y-9279000D02*
G75*
G02*
X14418000Y-9279000I-50000J0D01*
G01*
X14418000Y-9279000D02*
G75*
G02*
X14518000Y-9279000I50000J0D01*
G01*
X14684000Y-6464000D02*
G75*
G02*
X14584000Y-6464000I-50000J0D01*
G01*
X14584000Y-6464000D02*
G75*
G02*
X14684000Y-6464000I50000J0D01*
G01*
X14684000Y-7988000D02*
G75*
G02*
X14584000Y-7988000I-50000J0D01*
G01*
X14584000Y-7988000D02*
G75*
G02*
X14684000Y-7988000I50000J0D01*
G01*
X14772000Y-9025000D02*
G75*
G02*
X14672000Y-9025000I-50000J0D01*
G01*
X14672000Y-9025000D02*
G75*
G02*
X14772000Y-9025000I50000J0D01*
G01*
X14772000Y-9279000D02*
G75*
G02*
X14672000Y-9279000I-50000J0D01*
G01*
X14672000Y-9279000D02*
G75*
G02*
X14772000Y-9279000I50000J0D01*
G01*
X14938000Y-6464000D02*
G75*
G02*
X14838000Y-6464000I-50000J0D01*
G01*
X14838000Y-6464000D02*
G75*
G02*
X14938000Y-6464000I50000J0D01*
G01*
X14938000Y-7988000D02*
G75*
G02*
X14838000Y-7988000I-50000J0D01*
G01*
X14838000Y-7988000D02*
G75*
G02*
X14938000Y-7988000I50000J0D01*
G01*
X16100000Y-6573500D02*
G75*
G02*
X16000000Y-6573500I-50000J0D01*
G01*
X16000000Y-6573500D02*
G75*
G02*
X16100000Y-6573500I50000J0D01*
G01*
X16100000Y-6827500D02*
G75*
G02*
X16000000Y-6827500I-50000J0D01*
G01*
X16000000Y-6827500D02*
G75*
G02*
X16100000Y-6827500I50000J0D01*
G01*
X16100000Y-7572500D02*
G75*
G02*
X16000000Y-7572500I-50000J0D01*
G01*
X16000000Y-7572500D02*
G75*
G02*
X16100000Y-7572500I50000J0D01*
G01*
X16100000Y-7826500D02*
G75*
G02*
X16000000Y-7826500I-50000J0D01*
G01*
X16000000Y-7826500D02*
G75*
G02*
X16100000Y-7826500I50000J0D01*
G01*
D11*
X9338777Y-14741484D02*
X9338777Y-14541484D01*
X9338777Y-14541484D02*
X9386396Y-14541484D01*
X9386396Y-14541484D02*
X9414967Y-14551008D01*
X9414967Y-14551008D02*
X9434015Y-14570055D01*
X9434015Y-14570055D02*
X9443539Y-14589103D01*
X9443539Y-14589103D02*
X9453063Y-14627198D01*
X9453063Y-14627198D02*
X9453063Y-14655769D01*
X9453063Y-14655769D02*
X9443539Y-14693865D01*
X9443539Y-14693865D02*
X9434015Y-14712912D01*
X9434015Y-14712912D02*
X9414967Y-14731960D01*
X9414967Y-14731960D02*
X9386396Y-14741484D01*
X9386396Y-14741484D02*
X9338777Y-14741484D01*
X9538777Y-14741484D02*
X9538777Y-14608150D01*
X9538777Y-14646246D02*
X9548301Y-14627198D01*
X9548301Y-14627198D02*
X9557824Y-14617674D01*
X9557824Y-14617674D02*
X9576872Y-14608150D01*
X9576872Y-14608150D02*
X9595920Y-14608150D01*
X9662586Y-14741484D02*
X9662586Y-14608150D01*
X9662586Y-14541484D02*
X9653063Y-14551008D01*
X9653063Y-14551008D02*
X9662586Y-14560531D01*
X9662586Y-14560531D02*
X9672110Y-14551008D01*
X9672110Y-14551008D02*
X9662586Y-14541484D01*
X9662586Y-14541484D02*
X9662586Y-14560531D01*
X9786396Y-14741484D02*
X9767348Y-14731960D01*
X9767348Y-14731960D02*
X9757824Y-14712912D01*
X9757824Y-14712912D02*
X9757824Y-14541484D01*
X9891158Y-14741484D02*
X9872110Y-14731960D01*
X9872110Y-14731960D02*
X9862586Y-14712912D01*
X9862586Y-14712912D02*
X9862586Y-14541484D01*
X10119729Y-14741484D02*
X10119729Y-14541484D01*
X10119729Y-14541484D02*
X10186396Y-14684341D01*
X10186396Y-14684341D02*
X10253063Y-14541484D01*
X10253063Y-14541484D02*
X10253063Y-14741484D01*
X10434015Y-14741484D02*
X10434015Y-14636722D01*
X10434015Y-14636722D02*
X10424491Y-14617674D01*
X10424491Y-14617674D02*
X10405444Y-14608150D01*
X10405444Y-14608150D02*
X10367348Y-14608150D01*
X10367348Y-14608150D02*
X10348301Y-14617674D01*
X10434015Y-14731960D02*
X10414967Y-14741484D01*
X10414967Y-14741484D02*
X10367348Y-14741484D01*
X10367348Y-14741484D02*
X10348301Y-14731960D01*
X10348301Y-14731960D02*
X10338777Y-14712912D01*
X10338777Y-14712912D02*
X10338777Y-14693865D01*
X10338777Y-14693865D02*
X10348301Y-14674817D01*
X10348301Y-14674817D02*
X10367348Y-14665293D01*
X10367348Y-14665293D02*
X10414967Y-14665293D01*
X10414967Y-14665293D02*
X10434015Y-14655769D01*
X10529253Y-14608150D02*
X10529253Y-14808150D01*
X10529253Y-14617674D02*
X10548301Y-14608150D01*
X10548301Y-14608150D02*
X10586396Y-14608150D01*
X10586396Y-14608150D02*
X10605444Y-14617674D01*
X10605444Y-14617674D02*
X10614967Y-14627198D01*
X10614967Y-14627198D02*
X10624491Y-14646246D01*
X10624491Y-14646246D02*
X10624491Y-14703388D01*
X10624491Y-14703388D02*
X10614967Y-14722436D01*
X10614967Y-14722436D02*
X10605444Y-14731960D01*
X10605444Y-14731960D02*
X10586396Y-14741484D01*
X10586396Y-14741484D02*
X10548301Y-14741484D01*
X10548301Y-14741484D02*
X10529253Y-14731960D01*
X10710205Y-14722436D02*
X10719729Y-14731960D01*
X10719729Y-14731960D02*
X10710205Y-14741484D01*
X10710205Y-14741484D02*
X10700682Y-14731960D01*
X10700682Y-14731960D02*
X10710205Y-14722436D01*
X10710205Y-14722436D02*
X10710205Y-14741484D01*
X10710205Y-14617674D02*
X10719729Y-14627198D01*
X10719729Y-14627198D02*
X10710205Y-14636722D01*
X10710205Y-14636722D02*
X10700682Y-14627198D01*
X10700682Y-14627198D02*
X10710205Y-14617674D01*
X10710205Y-14617674D02*
X10710205Y-14636722D01*
D10*
X9008000Y-15035000D02*
X9078000Y-15105000D01*
X9078000Y-15035000D02*
X9008000Y-15105000D01*
D11*
X9376872Y-14961484D02*
X9395920Y-14961484D01*
X9395920Y-14961484D02*
X9414967Y-14971008D01*
X9414967Y-14971008D02*
X9424491Y-14980531D01*
X9424491Y-14980531D02*
X9434015Y-14999579D01*
X9434015Y-14999579D02*
X9443539Y-15037674D01*
X9443539Y-15037674D02*
X9443539Y-15085293D01*
X9443539Y-15085293D02*
X9434015Y-15123388D01*
X9434015Y-15123388D02*
X9424491Y-15142436D01*
X9424491Y-15142436D02*
X9414967Y-15151960D01*
X9414967Y-15151960D02*
X9395920Y-15161484D01*
X9395920Y-15161484D02*
X9376872Y-15161484D01*
X9376872Y-15161484D02*
X9357824Y-15151960D01*
X9357824Y-15151960D02*
X9348301Y-15142436D01*
X9348301Y-15142436D02*
X9338777Y-15123388D01*
X9338777Y-15123388D02*
X9329253Y-15085293D01*
X9329253Y-15085293D02*
X9329253Y-15037674D01*
X9329253Y-15037674D02*
X9338777Y-14999579D01*
X9338777Y-14999579D02*
X9348301Y-14980531D01*
X9348301Y-14980531D02*
X9357824Y-14971008D01*
X9357824Y-14971008D02*
X9376872Y-14961484D01*
X9529253Y-15142436D02*
X9538777Y-15151960D01*
X9538777Y-15151960D02*
X9529253Y-15161484D01*
X9529253Y-15161484D02*
X9519729Y-15151960D01*
X9519729Y-15151960D02*
X9529253Y-15142436D01*
X9529253Y-15142436D02*
X9529253Y-15161484D01*
X9605444Y-14961484D02*
X9738777Y-14961484D01*
X9738777Y-14961484D02*
X9653063Y-15161484D01*
X9853063Y-14961484D02*
X9872110Y-14961484D01*
X9872110Y-14961484D02*
X9891158Y-14971008D01*
X9891158Y-14971008D02*
X9900682Y-14980531D01*
X9900682Y-14980531D02*
X9910205Y-14999579D01*
X9910205Y-14999579D02*
X9919729Y-15037674D01*
X9919729Y-15037674D02*
X9919729Y-15085293D01*
X9919729Y-15085293D02*
X9910205Y-15123388D01*
X9910205Y-15123388D02*
X9900682Y-15142436D01*
X9900682Y-15142436D02*
X9891158Y-15151960D01*
X9891158Y-15151960D02*
X9872110Y-15161484D01*
X9872110Y-15161484D02*
X9853063Y-15161484D01*
X9853063Y-15161484D02*
X9834015Y-15151960D01*
X9834015Y-15151960D02*
X9824491Y-15142436D01*
X9824491Y-15142436D02*
X9814967Y-15123388D01*
X9814967Y-15123388D02*
X9805444Y-15085293D01*
X9805444Y-15085293D02*
X9805444Y-15037674D01*
X9805444Y-15037674D02*
X9814967Y-14999579D01*
X9814967Y-14999579D02*
X9824491Y-14980531D01*
X9824491Y-14980531D02*
X9834015Y-14971008D01*
X9834015Y-14971008D02*
X9853063Y-14961484D01*
X10043539Y-14961484D02*
X10062586Y-14961484D01*
X10062586Y-14961484D02*
X10081634Y-14971008D01*
X10081634Y-14971008D02*
X10091158Y-14980531D01*
X10091158Y-14980531D02*
X10100682Y-14999579D01*
X10100682Y-14999579D02*
X10110205Y-15037674D01*
X10110205Y-15037674D02*
X10110205Y-15085293D01*
X10110205Y-15085293D02*
X10100682Y-15123388D01*
X10100682Y-15123388D02*
X10091158Y-15142436D01*
X10091158Y-15142436D02*
X10081634Y-15151960D01*
X10081634Y-15151960D02*
X10062586Y-15161484D01*
X10062586Y-15161484D02*
X10043539Y-15161484D01*
X10043539Y-15161484D02*
X10024491Y-15151960D01*
X10024491Y-15151960D02*
X10014967Y-15142436D01*
X10014967Y-15142436D02*
X10005444Y-15123388D01*
X10005444Y-15123388D02*
X9995920Y-15085293D01*
X9995920Y-15085293D02*
X9995920Y-15037674D01*
X9995920Y-15037674D02*
X10005444Y-14999579D01*
X10005444Y-14999579D02*
X10014967Y-14980531D01*
X10014967Y-14980531D02*
X10024491Y-14971008D01*
X10024491Y-14971008D02*
X10043539Y-14961484D01*
X10195920Y-15161484D02*
X10195920Y-15028150D01*
X10195920Y-15047198D02*
X10205444Y-15037674D01*
X10205444Y-15037674D02*
X10224491Y-15028150D01*
X10224491Y-15028150D02*
X10253063Y-15028150D01*
X10253063Y-15028150D02*
X10272110Y-15037674D01*
X10272110Y-15037674D02*
X10281634Y-15056722D01*
X10281634Y-15056722D02*
X10281634Y-15161484D01*
X10281634Y-15056722D02*
X10291158Y-15037674D01*
X10291158Y-15037674D02*
X10310205Y-15028150D01*
X10310205Y-15028150D02*
X10338777Y-15028150D01*
X10338777Y-15028150D02*
X10357825Y-15037674D01*
X10357825Y-15037674D02*
X10367348Y-15056722D01*
X10367348Y-15056722D02*
X10367348Y-15161484D01*
X10462586Y-15161484D02*
X10462586Y-15028150D01*
X10462586Y-15047198D02*
X10472110Y-15037674D01*
X10472110Y-15037674D02*
X10491158Y-15028150D01*
X10491158Y-15028150D02*
X10519729Y-15028150D01*
X10519729Y-15028150D02*
X10538777Y-15037674D01*
X10538777Y-15037674D02*
X10548301Y-15056722D01*
X10548301Y-15056722D02*
X10548301Y-15161484D01*
X10548301Y-15056722D02*
X10557825Y-15037674D01*
X10557825Y-15037674D02*
X10576872Y-15028150D01*
X10576872Y-15028150D02*
X10605444Y-15028150D01*
X10605444Y-15028150D02*
X10624491Y-15037674D01*
X10624491Y-15037674D02*
X10634015Y-15056722D01*
X10634015Y-15056722D02*
X10634015Y-15161484D01*
X11024491Y-14951960D02*
X10853063Y-15209103D01*
X11281634Y-14961484D02*
X11300682Y-14961484D01*
X11300682Y-14961484D02*
X11319729Y-14971008D01*
X11319729Y-14971008D02*
X11329253Y-14980531D01*
X11329253Y-14980531D02*
X11338777Y-14999579D01*
X11338777Y-14999579D02*
X11348301Y-15037674D01*
X11348301Y-15037674D02*
X11348301Y-15085293D01*
X11348301Y-15085293D02*
X11338777Y-15123388D01*
X11338777Y-15123388D02*
X11329253Y-15142436D01*
X11329253Y-15142436D02*
X11319729Y-15151960D01*
X11319729Y-15151960D02*
X11300682Y-15161484D01*
X11300682Y-15161484D02*
X11281634Y-15161484D01*
X11281634Y-15161484D02*
X11262586Y-15151960D01*
X11262586Y-15151960D02*
X11253063Y-15142436D01*
X11253063Y-15142436D02*
X11243539Y-15123388D01*
X11243539Y-15123388D02*
X11234015Y-15085293D01*
X11234015Y-15085293D02*
X11234015Y-15037674D01*
X11234015Y-15037674D02*
X11243539Y-14999579D01*
X11243539Y-14999579D02*
X11253063Y-14980531D01*
X11253063Y-14980531D02*
X11262586Y-14971008D01*
X11262586Y-14971008D02*
X11281634Y-14961484D01*
X11434015Y-15142436D02*
X11443539Y-15151960D01*
X11443539Y-15151960D02*
X11434015Y-15161484D01*
X11434015Y-15161484D02*
X11424491Y-15151960D01*
X11424491Y-15151960D02*
X11434015Y-15142436D01*
X11434015Y-15142436D02*
X11434015Y-15161484D01*
X11567348Y-14961484D02*
X11586396Y-14961484D01*
X11586396Y-14961484D02*
X11605444Y-14971008D01*
X11605444Y-14971008D02*
X11614967Y-14980531D01*
X11614967Y-14980531D02*
X11624491Y-14999579D01*
X11624491Y-14999579D02*
X11634015Y-15037674D01*
X11634015Y-15037674D02*
X11634015Y-15085293D01*
X11634015Y-15085293D02*
X11624491Y-15123388D01*
X11624491Y-15123388D02*
X11614967Y-15142436D01*
X11614967Y-15142436D02*
X11605444Y-15151960D01*
X11605444Y-15151960D02*
X11586396Y-15161484D01*
X11586396Y-15161484D02*
X11567348Y-15161484D01*
X11567348Y-15161484D02*
X11548301Y-15151960D01*
X11548301Y-15151960D02*
X11538777Y-15142436D01*
X11538777Y-15142436D02*
X11529253Y-15123388D01*
X11529253Y-15123388D02*
X11519729Y-15085293D01*
X11519729Y-15085293D02*
X11519729Y-15037674D01*
X11519729Y-15037674D02*
X11529253Y-14999579D01*
X11529253Y-14999579D02*
X11538777Y-14980531D01*
X11538777Y-14980531D02*
X11548301Y-14971008D01*
X11548301Y-14971008D02*
X11567348Y-14961484D01*
X11710206Y-14980531D02*
X11719729Y-14971008D01*
X11719729Y-14971008D02*
X11738777Y-14961484D01*
X11738777Y-14961484D02*
X11786396Y-14961484D01*
X11786396Y-14961484D02*
X11805444Y-14971008D01*
X11805444Y-14971008D02*
X11814967Y-14980531D01*
X11814967Y-14980531D02*
X11824491Y-14999579D01*
X11824491Y-14999579D02*
X11824491Y-15018627D01*
X11824491Y-15018627D02*
X11814967Y-15047198D01*
X11814967Y-15047198D02*
X11700682Y-15161484D01*
X11700682Y-15161484D02*
X11824491Y-15161484D01*
X11891158Y-14961484D02*
X12024491Y-14961484D01*
X12024491Y-14961484D02*
X11938777Y-15161484D01*
X12186396Y-14961484D02*
X12148301Y-14961484D01*
X12148301Y-14961484D02*
X12129253Y-14971008D01*
X12129253Y-14971008D02*
X12119729Y-14980531D01*
X12119729Y-14980531D02*
X12100682Y-15009103D01*
X12100682Y-15009103D02*
X12091158Y-15047198D01*
X12091158Y-15047198D02*
X12091158Y-15123388D01*
X12091158Y-15123388D02*
X12100682Y-15142436D01*
X12100682Y-15142436D02*
X12110206Y-15151960D01*
X12110206Y-15151960D02*
X12129253Y-15161484D01*
X12129253Y-15161484D02*
X12167348Y-15161484D01*
X12167348Y-15161484D02*
X12186396Y-15151960D01*
X12186396Y-15151960D02*
X12195920Y-15142436D01*
X12195920Y-15142436D02*
X12205444Y-15123388D01*
X12205444Y-15123388D02*
X12205444Y-15075769D01*
X12205444Y-15075769D02*
X12195920Y-15056722D01*
X12195920Y-15056722D02*
X12186396Y-15047198D01*
X12186396Y-15047198D02*
X12167348Y-15037674D01*
X12167348Y-15037674D02*
X12129253Y-15037674D01*
X12129253Y-15037674D02*
X12110206Y-15047198D01*
X12110206Y-15047198D02*
X12100682Y-15056722D01*
X12100682Y-15056722D02*
X12091158Y-15075769D01*
X12281634Y-14961484D02*
X12281634Y-14999579D01*
X12357825Y-14961484D02*
X12357825Y-14999579D01*
X12653063Y-15237674D02*
X12643539Y-15228150D01*
X12643539Y-15228150D02*
X12624491Y-15199579D01*
X12624491Y-15199579D02*
X12614968Y-15180531D01*
X12614968Y-15180531D02*
X12605444Y-15151960D01*
X12605444Y-15151960D02*
X12595920Y-15104341D01*
X12595920Y-15104341D02*
X12595920Y-15066246D01*
X12595920Y-15066246D02*
X12605444Y-15018627D01*
X12605444Y-15018627D02*
X12614968Y-14990055D01*
X12614968Y-14990055D02*
X12624491Y-14971008D01*
X12624491Y-14971008D02*
X12643539Y-14942436D01*
X12643539Y-14942436D02*
X12653063Y-14932912D01*
X12834015Y-15161484D02*
X12719729Y-15161484D01*
X12776872Y-15161484D02*
X12776872Y-14961484D01*
X12776872Y-14961484D02*
X12757825Y-14990055D01*
X12757825Y-14990055D02*
X12738777Y-15009103D01*
X12738777Y-15009103D02*
X12719729Y-15018627D01*
X13005444Y-14961484D02*
X12967348Y-14961484D01*
X12967348Y-14961484D02*
X12948301Y-14971008D01*
X12948301Y-14971008D02*
X12938777Y-14980531D01*
X12938777Y-14980531D02*
X12919729Y-15009103D01*
X12919729Y-15009103D02*
X12910206Y-15047198D01*
X12910206Y-15047198D02*
X12910206Y-15123388D01*
X12910206Y-15123388D02*
X12919729Y-15142436D01*
X12919729Y-15142436D02*
X12929253Y-15151960D01*
X12929253Y-15151960D02*
X12948301Y-15161484D01*
X12948301Y-15161484D02*
X12986396Y-15161484D01*
X12986396Y-15161484D02*
X13005444Y-15151960D01*
X13005444Y-15151960D02*
X13014968Y-15142436D01*
X13014968Y-15142436D02*
X13024491Y-15123388D01*
X13024491Y-15123388D02*
X13024491Y-15075769D01*
X13024491Y-15075769D02*
X13014968Y-15056722D01*
X13014968Y-15056722D02*
X13005444Y-15047198D01*
X13005444Y-15047198D02*
X12986396Y-15037674D01*
X12986396Y-15037674D02*
X12948301Y-15037674D01*
X12948301Y-15037674D02*
X12929253Y-15047198D01*
X12929253Y-15047198D02*
X12919729Y-15056722D01*
X12919729Y-15056722D02*
X12910206Y-15075769D01*
X13262587Y-15161484D02*
X13262587Y-14961484D01*
X13348301Y-15161484D02*
X13348301Y-15056722D01*
X13348301Y-15056722D02*
X13338777Y-15037674D01*
X13338777Y-15037674D02*
X13319730Y-15028150D01*
X13319730Y-15028150D02*
X13291158Y-15028150D01*
X13291158Y-15028150D02*
X13272110Y-15037674D01*
X13272110Y-15037674D02*
X13262587Y-15047198D01*
X13472110Y-15161484D02*
X13453063Y-15151960D01*
X13453063Y-15151960D02*
X13443539Y-15142436D01*
X13443539Y-15142436D02*
X13434015Y-15123388D01*
X13434015Y-15123388D02*
X13434015Y-15066246D01*
X13434015Y-15066246D02*
X13443539Y-15047198D01*
X13443539Y-15047198D02*
X13453063Y-15037674D01*
X13453063Y-15037674D02*
X13472110Y-15028150D01*
X13472110Y-15028150D02*
X13500682Y-15028150D01*
X13500682Y-15028150D02*
X13519730Y-15037674D01*
X13519730Y-15037674D02*
X13529253Y-15047198D01*
X13529253Y-15047198D02*
X13538777Y-15066246D01*
X13538777Y-15066246D02*
X13538777Y-15123388D01*
X13538777Y-15123388D02*
X13529253Y-15142436D01*
X13529253Y-15142436D02*
X13519730Y-15151960D01*
X13519730Y-15151960D02*
X13500682Y-15161484D01*
X13500682Y-15161484D02*
X13472110Y-15161484D01*
X13653063Y-15161484D02*
X13634015Y-15151960D01*
X13634015Y-15151960D02*
X13624491Y-15132912D01*
X13624491Y-15132912D02*
X13624491Y-14961484D01*
X13805444Y-15151960D02*
X13786396Y-15161484D01*
X13786396Y-15161484D02*
X13748301Y-15161484D01*
X13748301Y-15161484D02*
X13729253Y-15151960D01*
X13729253Y-15151960D02*
X13719730Y-15132912D01*
X13719730Y-15132912D02*
X13719730Y-15056722D01*
X13719730Y-15056722D02*
X13729253Y-15037674D01*
X13729253Y-15037674D02*
X13748301Y-15028150D01*
X13748301Y-15028150D02*
X13786396Y-15028150D01*
X13786396Y-15028150D02*
X13805444Y-15037674D01*
X13805444Y-15037674D02*
X13814968Y-15056722D01*
X13814968Y-15056722D02*
X13814968Y-15075769D01*
X13814968Y-15075769D02*
X13719730Y-15094817D01*
X13891158Y-15151960D02*
X13910206Y-15161484D01*
X13910206Y-15161484D02*
X13948301Y-15161484D01*
X13948301Y-15161484D02*
X13967349Y-15151960D01*
X13967349Y-15151960D02*
X13976872Y-15132912D01*
X13976872Y-15132912D02*
X13976872Y-15123388D01*
X13976872Y-15123388D02*
X13967349Y-15104341D01*
X13967349Y-15104341D02*
X13948301Y-15094817D01*
X13948301Y-15094817D02*
X13919730Y-15094817D01*
X13919730Y-15094817D02*
X13900682Y-15085293D01*
X13900682Y-15085293D02*
X13891158Y-15066246D01*
X13891158Y-15066246D02*
X13891158Y-15056722D01*
X13891158Y-15056722D02*
X13900682Y-15037674D01*
X13900682Y-15037674D02*
X13919730Y-15028150D01*
X13919730Y-15028150D02*
X13948301Y-15028150D01*
X13948301Y-15028150D02*
X13967349Y-15037674D01*
X14043539Y-15237674D02*
X14053063Y-15228150D01*
X14053063Y-15228150D02*
X14072111Y-15199579D01*
X14072111Y-15199579D02*
X14081634Y-15180531D01*
X14081634Y-15180531D02*
X14091158Y-15151960D01*
X14091158Y-15151960D02*
X14100682Y-15104341D01*
X14100682Y-15104341D02*
X14100682Y-15066246D01*
X14100682Y-15066246D02*
X14091158Y-15018627D01*
X14091158Y-15018627D02*
X14081634Y-14990055D01*
X14081634Y-14990055D02*
X14072111Y-14971008D01*
X14072111Y-14971008D02*
X14053063Y-14942436D01*
X14053063Y-14942436D02*
X14043539Y-14932912D01*
D10*
X9078000Y-15334000D02*
G75*
G02*
X8978000Y-15334000I-50000J0D01*
G01*
X8978000Y-15334000D02*
G75*
G02*
X9078000Y-15334000I50000J0D01*
G01*
D11*
X9443539Y-15425484D02*
X9329253Y-15425484D01*
X9386396Y-15425484D02*
X9386396Y-15225484D01*
X9386396Y-15225484D02*
X9367348Y-15254055D01*
X9367348Y-15254055D02*
X9348301Y-15273103D01*
X9348301Y-15273103D02*
X9329253Y-15282627D01*
X9529253Y-15406436D02*
X9538777Y-15415960D01*
X9538777Y-15415960D02*
X9529253Y-15425484D01*
X9529253Y-15425484D02*
X9519729Y-15415960D01*
X9519729Y-15415960D02*
X9529253Y-15406436D01*
X9529253Y-15406436D02*
X9529253Y-15425484D01*
X9662586Y-15225484D02*
X9681634Y-15225484D01*
X9681634Y-15225484D02*
X9700682Y-15235008D01*
X9700682Y-15235008D02*
X9710205Y-15244531D01*
X9710205Y-15244531D02*
X9719729Y-15263579D01*
X9719729Y-15263579D02*
X9729253Y-15301674D01*
X9729253Y-15301674D02*
X9729253Y-15349293D01*
X9729253Y-15349293D02*
X9719729Y-15387388D01*
X9719729Y-15387388D02*
X9710205Y-15406436D01*
X9710205Y-15406436D02*
X9700682Y-15415960D01*
X9700682Y-15415960D02*
X9681634Y-15425484D01*
X9681634Y-15425484D02*
X9662586Y-15425484D01*
X9662586Y-15425484D02*
X9643539Y-15415960D01*
X9643539Y-15415960D02*
X9634015Y-15406436D01*
X9634015Y-15406436D02*
X9624491Y-15387388D01*
X9624491Y-15387388D02*
X9614967Y-15349293D01*
X9614967Y-15349293D02*
X9614967Y-15301674D01*
X9614967Y-15301674D02*
X9624491Y-15263579D01*
X9624491Y-15263579D02*
X9634015Y-15244531D01*
X9634015Y-15244531D02*
X9643539Y-15235008D01*
X9643539Y-15235008D02*
X9662586Y-15225484D01*
X9853063Y-15225484D02*
X9872110Y-15225484D01*
X9872110Y-15225484D02*
X9891158Y-15235008D01*
X9891158Y-15235008D02*
X9900682Y-15244531D01*
X9900682Y-15244531D02*
X9910205Y-15263579D01*
X9910205Y-15263579D02*
X9919729Y-15301674D01*
X9919729Y-15301674D02*
X9919729Y-15349293D01*
X9919729Y-15349293D02*
X9910205Y-15387388D01*
X9910205Y-15387388D02*
X9900682Y-15406436D01*
X9900682Y-15406436D02*
X9891158Y-15415960D01*
X9891158Y-15415960D02*
X9872110Y-15425484D01*
X9872110Y-15425484D02*
X9853063Y-15425484D01*
X9853063Y-15425484D02*
X9834015Y-15415960D01*
X9834015Y-15415960D02*
X9824491Y-15406436D01*
X9824491Y-15406436D02*
X9814967Y-15387388D01*
X9814967Y-15387388D02*
X9805444Y-15349293D01*
X9805444Y-15349293D02*
X9805444Y-15301674D01*
X9805444Y-15301674D02*
X9814967Y-15263579D01*
X9814967Y-15263579D02*
X9824491Y-15244531D01*
X9824491Y-15244531D02*
X9834015Y-15235008D01*
X9834015Y-15235008D02*
X9853063Y-15225484D01*
X10043539Y-15225484D02*
X10062586Y-15225484D01*
X10062586Y-15225484D02*
X10081634Y-15235008D01*
X10081634Y-15235008D02*
X10091158Y-15244531D01*
X10091158Y-15244531D02*
X10100682Y-15263579D01*
X10100682Y-15263579D02*
X10110205Y-15301674D01*
X10110205Y-15301674D02*
X10110205Y-15349293D01*
X10110205Y-15349293D02*
X10100682Y-15387388D01*
X10100682Y-15387388D02*
X10091158Y-15406436D01*
X10091158Y-15406436D02*
X10081634Y-15415960D01*
X10081634Y-15415960D02*
X10062586Y-15425484D01*
X10062586Y-15425484D02*
X10043539Y-15425484D01*
X10043539Y-15425484D02*
X10024491Y-15415960D01*
X10024491Y-15415960D02*
X10014967Y-15406436D01*
X10014967Y-15406436D02*
X10005444Y-15387388D01*
X10005444Y-15387388D02*
X9995920Y-15349293D01*
X9995920Y-15349293D02*
X9995920Y-15301674D01*
X9995920Y-15301674D02*
X10005444Y-15263579D01*
X10005444Y-15263579D02*
X10014967Y-15244531D01*
X10014967Y-15244531D02*
X10024491Y-15235008D01*
X10024491Y-15235008D02*
X10043539Y-15225484D01*
X10195920Y-15425484D02*
X10195920Y-15292150D01*
X10195920Y-15311198D02*
X10205444Y-15301674D01*
X10205444Y-15301674D02*
X10224491Y-15292150D01*
X10224491Y-15292150D02*
X10253063Y-15292150D01*
X10253063Y-15292150D02*
X10272110Y-15301674D01*
X10272110Y-15301674D02*
X10281634Y-15320722D01*
X10281634Y-15320722D02*
X10281634Y-15425484D01*
X10281634Y-15320722D02*
X10291158Y-15301674D01*
X10291158Y-15301674D02*
X10310205Y-15292150D01*
X10310205Y-15292150D02*
X10338777Y-15292150D01*
X10338777Y-15292150D02*
X10357825Y-15301674D01*
X10357825Y-15301674D02*
X10367348Y-15320722D01*
X10367348Y-15320722D02*
X10367348Y-15425484D01*
X10462586Y-15425484D02*
X10462586Y-15292150D01*
X10462586Y-15311198D02*
X10472110Y-15301674D01*
X10472110Y-15301674D02*
X10491158Y-15292150D01*
X10491158Y-15292150D02*
X10519729Y-15292150D01*
X10519729Y-15292150D02*
X10538777Y-15301674D01*
X10538777Y-15301674D02*
X10548301Y-15320722D01*
X10548301Y-15320722D02*
X10548301Y-15425484D01*
X10548301Y-15320722D02*
X10557825Y-15301674D01*
X10557825Y-15301674D02*
X10576872Y-15292150D01*
X10576872Y-15292150D02*
X10605444Y-15292150D01*
X10605444Y-15292150D02*
X10624491Y-15301674D01*
X10624491Y-15301674D02*
X10634015Y-15320722D01*
X10634015Y-15320722D02*
X10634015Y-15425484D01*
X11024491Y-15215960D02*
X10853063Y-15473103D01*
X11281634Y-15225484D02*
X11300682Y-15225484D01*
X11300682Y-15225484D02*
X11319729Y-15235008D01*
X11319729Y-15235008D02*
X11329253Y-15244531D01*
X11329253Y-15244531D02*
X11338777Y-15263579D01*
X11338777Y-15263579D02*
X11348301Y-15301674D01*
X11348301Y-15301674D02*
X11348301Y-15349293D01*
X11348301Y-15349293D02*
X11338777Y-15387388D01*
X11338777Y-15387388D02*
X11329253Y-15406436D01*
X11329253Y-15406436D02*
X11319729Y-15415960D01*
X11319729Y-15415960D02*
X11300682Y-15425484D01*
X11300682Y-15425484D02*
X11281634Y-15425484D01*
X11281634Y-15425484D02*
X11262586Y-15415960D01*
X11262586Y-15415960D02*
X11253063Y-15406436D01*
X11253063Y-15406436D02*
X11243539Y-15387388D01*
X11243539Y-15387388D02*
X11234015Y-15349293D01*
X11234015Y-15349293D02*
X11234015Y-15301674D01*
X11234015Y-15301674D02*
X11243539Y-15263579D01*
X11243539Y-15263579D02*
X11253063Y-15244531D01*
X11253063Y-15244531D02*
X11262586Y-15235008D01*
X11262586Y-15235008D02*
X11281634Y-15225484D01*
X11434015Y-15406436D02*
X11443539Y-15415960D01*
X11443539Y-15415960D02*
X11434015Y-15425484D01*
X11434015Y-15425484D02*
X11424491Y-15415960D01*
X11424491Y-15415960D02*
X11434015Y-15406436D01*
X11434015Y-15406436D02*
X11434015Y-15425484D01*
X11567348Y-15225484D02*
X11586396Y-15225484D01*
X11586396Y-15225484D02*
X11605444Y-15235008D01*
X11605444Y-15235008D02*
X11614967Y-15244531D01*
X11614967Y-15244531D02*
X11624491Y-15263579D01*
X11624491Y-15263579D02*
X11634015Y-15301674D01*
X11634015Y-15301674D02*
X11634015Y-15349293D01*
X11634015Y-15349293D02*
X11624491Y-15387388D01*
X11624491Y-15387388D02*
X11614967Y-15406436D01*
X11614967Y-15406436D02*
X11605444Y-15415960D01*
X11605444Y-15415960D02*
X11586396Y-15425484D01*
X11586396Y-15425484D02*
X11567348Y-15425484D01*
X11567348Y-15425484D02*
X11548301Y-15415960D01*
X11548301Y-15415960D02*
X11538777Y-15406436D01*
X11538777Y-15406436D02*
X11529253Y-15387388D01*
X11529253Y-15387388D02*
X11519729Y-15349293D01*
X11519729Y-15349293D02*
X11519729Y-15301674D01*
X11519729Y-15301674D02*
X11529253Y-15263579D01*
X11529253Y-15263579D02*
X11538777Y-15244531D01*
X11538777Y-15244531D02*
X11548301Y-15235008D01*
X11548301Y-15235008D02*
X11567348Y-15225484D01*
X11700682Y-15225484D02*
X11824491Y-15225484D01*
X11824491Y-15225484D02*
X11757825Y-15301674D01*
X11757825Y-15301674D02*
X11786396Y-15301674D01*
X11786396Y-15301674D02*
X11805444Y-15311198D01*
X11805444Y-15311198D02*
X11814967Y-15320722D01*
X11814967Y-15320722D02*
X11824491Y-15339769D01*
X11824491Y-15339769D02*
X11824491Y-15387388D01*
X11824491Y-15387388D02*
X11814967Y-15406436D01*
X11814967Y-15406436D02*
X11805444Y-15415960D01*
X11805444Y-15415960D02*
X11786396Y-15425484D01*
X11786396Y-15425484D02*
X11729253Y-15425484D01*
X11729253Y-15425484D02*
X11710206Y-15415960D01*
X11710206Y-15415960D02*
X11700682Y-15406436D01*
X11919729Y-15425484D02*
X11957825Y-15425484D01*
X11957825Y-15425484D02*
X11976872Y-15415960D01*
X11976872Y-15415960D02*
X11986396Y-15406436D01*
X11986396Y-15406436D02*
X12005444Y-15377865D01*
X12005444Y-15377865D02*
X12014967Y-15339769D01*
X12014967Y-15339769D02*
X12014967Y-15263579D01*
X12014967Y-15263579D02*
X12005444Y-15244531D01*
X12005444Y-15244531D02*
X11995920Y-15235008D01*
X11995920Y-15235008D02*
X11976872Y-15225484D01*
X11976872Y-15225484D02*
X11938777Y-15225484D01*
X11938777Y-15225484D02*
X11919729Y-15235008D01*
X11919729Y-15235008D02*
X11910206Y-15244531D01*
X11910206Y-15244531D02*
X11900682Y-15263579D01*
X11900682Y-15263579D02*
X11900682Y-15311198D01*
X11900682Y-15311198D02*
X11910206Y-15330246D01*
X11910206Y-15330246D02*
X11919729Y-15339769D01*
X11919729Y-15339769D02*
X11938777Y-15349293D01*
X11938777Y-15349293D02*
X11976872Y-15349293D01*
X11976872Y-15349293D02*
X11995920Y-15339769D01*
X11995920Y-15339769D02*
X12005444Y-15330246D01*
X12005444Y-15330246D02*
X12014967Y-15311198D01*
X12186396Y-15292150D02*
X12186396Y-15425484D01*
X12138777Y-15215960D02*
X12091158Y-15358817D01*
X12091158Y-15358817D02*
X12214967Y-15358817D01*
X12281634Y-15225484D02*
X12281634Y-15263579D01*
X12357825Y-15225484D02*
X12357825Y-15263579D01*
X12653063Y-15501674D02*
X12643539Y-15492150D01*
X12643539Y-15492150D02*
X12624491Y-15463579D01*
X12624491Y-15463579D02*
X12614968Y-15444531D01*
X12614968Y-15444531D02*
X12605444Y-15415960D01*
X12605444Y-15415960D02*
X12595920Y-15368341D01*
X12595920Y-15368341D02*
X12595920Y-15330246D01*
X12595920Y-15330246D02*
X12605444Y-15282627D01*
X12605444Y-15282627D02*
X12614968Y-15254055D01*
X12614968Y-15254055D02*
X12624491Y-15235008D01*
X12624491Y-15235008D02*
X12643539Y-15206436D01*
X12643539Y-15206436D02*
X12653063Y-15196912D01*
X12814968Y-15225484D02*
X12776872Y-15225484D01*
X12776872Y-15225484D02*
X12757825Y-15235008D01*
X12757825Y-15235008D02*
X12748301Y-15244531D01*
X12748301Y-15244531D02*
X12729253Y-15273103D01*
X12729253Y-15273103D02*
X12719729Y-15311198D01*
X12719729Y-15311198D02*
X12719729Y-15387388D01*
X12719729Y-15387388D02*
X12729253Y-15406436D01*
X12729253Y-15406436D02*
X12738777Y-15415960D01*
X12738777Y-15415960D02*
X12757825Y-15425484D01*
X12757825Y-15425484D02*
X12795920Y-15425484D01*
X12795920Y-15425484D02*
X12814968Y-15415960D01*
X12814968Y-15415960D02*
X12824491Y-15406436D01*
X12824491Y-15406436D02*
X12834015Y-15387388D01*
X12834015Y-15387388D02*
X12834015Y-15339769D01*
X12834015Y-15339769D02*
X12824491Y-15320722D01*
X12824491Y-15320722D02*
X12814968Y-15311198D01*
X12814968Y-15311198D02*
X12795920Y-15301674D01*
X12795920Y-15301674D02*
X12757825Y-15301674D01*
X12757825Y-15301674D02*
X12738777Y-15311198D01*
X12738777Y-15311198D02*
X12729253Y-15320722D01*
X12729253Y-15320722D02*
X12719729Y-15339769D01*
X12910206Y-15244531D02*
X12919729Y-15235008D01*
X12919729Y-15235008D02*
X12938777Y-15225484D01*
X12938777Y-15225484D02*
X12986396Y-15225484D01*
X12986396Y-15225484D02*
X13005444Y-15235008D01*
X13005444Y-15235008D02*
X13014968Y-15244531D01*
X13014968Y-15244531D02*
X13024491Y-15263579D01*
X13024491Y-15263579D02*
X13024491Y-15282627D01*
X13024491Y-15282627D02*
X13014968Y-15311198D01*
X13014968Y-15311198D02*
X12900682Y-15425484D01*
X12900682Y-15425484D02*
X13024491Y-15425484D01*
X13262587Y-15425484D02*
X13262587Y-15225484D01*
X13348301Y-15425484D02*
X13348301Y-15320722D01*
X13348301Y-15320722D02*
X13338777Y-15301674D01*
X13338777Y-15301674D02*
X13319730Y-15292150D01*
X13319730Y-15292150D02*
X13291158Y-15292150D01*
X13291158Y-15292150D02*
X13272110Y-15301674D01*
X13272110Y-15301674D02*
X13262587Y-15311198D01*
X13472110Y-15425484D02*
X13453063Y-15415960D01*
X13453063Y-15415960D02*
X13443539Y-15406436D01*
X13443539Y-15406436D02*
X13434015Y-15387388D01*
X13434015Y-15387388D02*
X13434015Y-15330246D01*
X13434015Y-15330246D02*
X13443539Y-15311198D01*
X13443539Y-15311198D02*
X13453063Y-15301674D01*
X13453063Y-15301674D02*
X13472110Y-15292150D01*
X13472110Y-15292150D02*
X13500682Y-15292150D01*
X13500682Y-15292150D02*
X13519730Y-15301674D01*
X13519730Y-15301674D02*
X13529253Y-15311198D01*
X13529253Y-15311198D02*
X13538777Y-15330246D01*
X13538777Y-15330246D02*
X13538777Y-15387388D01*
X13538777Y-15387388D02*
X13529253Y-15406436D01*
X13529253Y-15406436D02*
X13519730Y-15415960D01*
X13519730Y-15415960D02*
X13500682Y-15425484D01*
X13500682Y-15425484D02*
X13472110Y-15425484D01*
X13653063Y-15425484D02*
X13634015Y-15415960D01*
X13634015Y-15415960D02*
X13624491Y-15396912D01*
X13624491Y-15396912D02*
X13624491Y-15225484D01*
X13805444Y-15415960D02*
X13786396Y-15425484D01*
X13786396Y-15425484D02*
X13748301Y-15425484D01*
X13748301Y-15425484D02*
X13729253Y-15415960D01*
X13729253Y-15415960D02*
X13719730Y-15396912D01*
X13719730Y-15396912D02*
X13719730Y-15320722D01*
X13719730Y-15320722D02*
X13729253Y-15301674D01*
X13729253Y-15301674D02*
X13748301Y-15292150D01*
X13748301Y-15292150D02*
X13786396Y-15292150D01*
X13786396Y-15292150D02*
X13805444Y-15301674D01*
X13805444Y-15301674D02*
X13814968Y-15320722D01*
X13814968Y-15320722D02*
X13814968Y-15339769D01*
X13814968Y-15339769D02*
X13719730Y-15358817D01*
X13891158Y-15415960D02*
X13910206Y-15425484D01*
X13910206Y-15425484D02*
X13948301Y-15425484D01*
X13948301Y-15425484D02*
X13967349Y-15415960D01*
X13967349Y-15415960D02*
X13976872Y-15396912D01*
X13976872Y-15396912D02*
X13976872Y-15387388D01*
X13976872Y-15387388D02*
X13967349Y-15368341D01*
X13967349Y-15368341D02*
X13948301Y-15358817D01*
X13948301Y-15358817D02*
X13919730Y-15358817D01*
X13919730Y-15358817D02*
X13900682Y-15349293D01*
X13900682Y-15349293D02*
X13891158Y-15330246D01*
X13891158Y-15330246D02*
X13891158Y-15320722D01*
X13891158Y-15320722D02*
X13900682Y-15301674D01*
X13900682Y-15301674D02*
X13919730Y-15292150D01*
X13919730Y-15292150D02*
X13948301Y-15292150D01*
X13948301Y-15292150D02*
X13967349Y-15301674D01*
X14043539Y-15501674D02*
X14053063Y-15492150D01*
X14053063Y-15492150D02*
X14072111Y-15463579D01*
X14072111Y-15463579D02*
X14081634Y-15444531D01*
X14081634Y-15444531D02*
X14091158Y-15415960D01*
X14091158Y-15415960D02*
X14100682Y-15368341D01*
X14100682Y-15368341D02*
X14100682Y-15330246D01*
X14100682Y-15330246D02*
X14091158Y-15282627D01*
X14091158Y-15282627D02*
X14081634Y-15254055D01*
X14081634Y-15254055D02*
X14072111Y-15235008D01*
X14072111Y-15235008D02*
X14053063Y-15206436D01*
X14053063Y-15206436D02*
X14043539Y-15196912D01*
M02*
