%TF.GenerationSoftware,KiCad,Pcbnew,8.0.1*%
%TF.CreationDate,2024-06-11T18:45:44+02:00*%
%TF.ProjectId,PCB_Plaque_Basse,5043425f-506c-4617-9175-655f42617373,rev?*%
%TF.SameCoordinates,Original*%
%TF.FileFunction,Legend,Top*%
%TF.FilePolarity,Positive*%
%FSLAX46Y46*%
G04 Gerber Fmt 4.6, Leading zero omitted, Abs format (unit mm)*
G04 Created by KiCad (PCBNEW 8.0.1) date 2024-06-11 18:45:44*
%MOMM*%
%LPD*%
G01*
G04 APERTURE LIST*
%ADD10C,0.100000*%
%ADD11C,0.200000*%
%ADD12C,0.150000*%
%ADD13C,0.120000*%
G04 APERTURE END LIST*
D10*
X168256265Y-86967657D02*
X168303884Y-86920038D01*
X168303884Y-86920038D02*
X168399122Y-86872419D01*
X168399122Y-86872419D02*
X168637217Y-86872419D01*
X168637217Y-86872419D02*
X168732455Y-86920038D01*
X168732455Y-86920038D02*
X168780074Y-86967657D01*
X168780074Y-86967657D02*
X168827693Y-87062895D01*
X168827693Y-87062895D02*
X168827693Y-87158133D01*
X168827693Y-87158133D02*
X168780074Y-87300990D01*
X168780074Y-87300990D02*
X168208646Y-87872419D01*
X168208646Y-87872419D02*
X168827693Y-87872419D01*
X169446741Y-86872419D02*
X169541979Y-86872419D01*
X169541979Y-86872419D02*
X169637217Y-86920038D01*
X169637217Y-86920038D02*
X169684836Y-86967657D01*
X169684836Y-86967657D02*
X169732455Y-87062895D01*
X169732455Y-87062895D02*
X169780074Y-87253371D01*
X169780074Y-87253371D02*
X169780074Y-87491466D01*
X169780074Y-87491466D02*
X169732455Y-87681942D01*
X169732455Y-87681942D02*
X169684836Y-87777180D01*
X169684836Y-87777180D02*
X169637217Y-87824800D01*
X169637217Y-87824800D02*
X169541979Y-87872419D01*
X169541979Y-87872419D02*
X169446741Y-87872419D01*
X169446741Y-87872419D02*
X169351503Y-87824800D01*
X169351503Y-87824800D02*
X169303884Y-87777180D01*
X169303884Y-87777180D02*
X169256265Y-87681942D01*
X169256265Y-87681942D02*
X169208646Y-87491466D01*
X169208646Y-87491466D02*
X169208646Y-87253371D01*
X169208646Y-87253371D02*
X169256265Y-87062895D01*
X169256265Y-87062895D02*
X169303884Y-86967657D01*
X169303884Y-86967657D02*
X169351503Y-86920038D01*
X169351503Y-86920038D02*
X169446741Y-86872419D01*
X170161027Y-86967657D02*
X170208646Y-86920038D01*
X170208646Y-86920038D02*
X170303884Y-86872419D01*
X170303884Y-86872419D02*
X170541979Y-86872419D01*
X170541979Y-86872419D02*
X170637217Y-86920038D01*
X170637217Y-86920038D02*
X170684836Y-86967657D01*
X170684836Y-86967657D02*
X170732455Y-87062895D01*
X170732455Y-87062895D02*
X170732455Y-87158133D01*
X170732455Y-87158133D02*
X170684836Y-87300990D01*
X170684836Y-87300990D02*
X170113408Y-87872419D01*
X170113408Y-87872419D02*
X170732455Y-87872419D01*
X171065789Y-86872419D02*
X171684836Y-86872419D01*
X171684836Y-86872419D02*
X171351503Y-87253371D01*
X171351503Y-87253371D02*
X171494360Y-87253371D01*
X171494360Y-87253371D02*
X171589598Y-87300990D01*
X171589598Y-87300990D02*
X171637217Y-87348609D01*
X171637217Y-87348609D02*
X171684836Y-87443847D01*
X171684836Y-87443847D02*
X171684836Y-87681942D01*
X171684836Y-87681942D02*
X171637217Y-87777180D01*
X171637217Y-87777180D02*
X171589598Y-87824800D01*
X171589598Y-87824800D02*
X171494360Y-87872419D01*
X171494360Y-87872419D02*
X171208646Y-87872419D01*
X171208646Y-87872419D02*
X171113408Y-87824800D01*
X171113408Y-87824800D02*
X171065789Y-87777180D01*
X172827693Y-86824800D02*
X171970551Y-88110514D01*
X173113408Y-86967657D02*
X173161027Y-86920038D01*
X173161027Y-86920038D02*
X173256265Y-86872419D01*
X173256265Y-86872419D02*
X173494360Y-86872419D01*
X173494360Y-86872419D02*
X173589598Y-86920038D01*
X173589598Y-86920038D02*
X173637217Y-86967657D01*
X173637217Y-86967657D02*
X173684836Y-87062895D01*
X173684836Y-87062895D02*
X173684836Y-87158133D01*
X173684836Y-87158133D02*
X173637217Y-87300990D01*
X173637217Y-87300990D02*
X173065789Y-87872419D01*
X173065789Y-87872419D02*
X173684836Y-87872419D01*
X174303884Y-86872419D02*
X174399122Y-86872419D01*
X174399122Y-86872419D02*
X174494360Y-86920038D01*
X174494360Y-86920038D02*
X174541979Y-86967657D01*
X174541979Y-86967657D02*
X174589598Y-87062895D01*
X174589598Y-87062895D02*
X174637217Y-87253371D01*
X174637217Y-87253371D02*
X174637217Y-87491466D01*
X174637217Y-87491466D02*
X174589598Y-87681942D01*
X174589598Y-87681942D02*
X174541979Y-87777180D01*
X174541979Y-87777180D02*
X174494360Y-87824800D01*
X174494360Y-87824800D02*
X174399122Y-87872419D01*
X174399122Y-87872419D02*
X174303884Y-87872419D01*
X174303884Y-87872419D02*
X174208646Y-87824800D01*
X174208646Y-87824800D02*
X174161027Y-87777180D01*
X174161027Y-87777180D02*
X174113408Y-87681942D01*
X174113408Y-87681942D02*
X174065789Y-87491466D01*
X174065789Y-87491466D02*
X174065789Y-87253371D01*
X174065789Y-87253371D02*
X174113408Y-87062895D01*
X174113408Y-87062895D02*
X174161027Y-86967657D01*
X174161027Y-86967657D02*
X174208646Y-86920038D01*
X174208646Y-86920038D02*
X174303884Y-86872419D01*
X175018170Y-86967657D02*
X175065789Y-86920038D01*
X175065789Y-86920038D02*
X175161027Y-86872419D01*
X175161027Y-86872419D02*
X175399122Y-86872419D01*
X175399122Y-86872419D02*
X175494360Y-86920038D01*
X175494360Y-86920038D02*
X175541979Y-86967657D01*
X175541979Y-86967657D02*
X175589598Y-87062895D01*
X175589598Y-87062895D02*
X175589598Y-87158133D01*
X175589598Y-87158133D02*
X175541979Y-87300990D01*
X175541979Y-87300990D02*
X174970551Y-87872419D01*
X174970551Y-87872419D02*
X175589598Y-87872419D01*
X176446741Y-87205752D02*
X176446741Y-87872419D01*
X176208646Y-86824800D02*
X175970551Y-87539085D01*
X175970551Y-87539085D02*
X176589598Y-87539085D01*
X155803884Y-87872419D02*
X155803884Y-86872419D01*
X156280074Y-87872419D02*
X156280074Y-86872419D01*
X156280074Y-86872419D02*
X156851502Y-87872419D01*
X156851502Y-87872419D02*
X156851502Y-86872419D01*
X157280074Y-87824800D02*
X157422931Y-87872419D01*
X157422931Y-87872419D02*
X157661026Y-87872419D01*
X157661026Y-87872419D02*
X157756264Y-87824800D01*
X157756264Y-87824800D02*
X157803883Y-87777180D01*
X157803883Y-87777180D02*
X157851502Y-87681942D01*
X157851502Y-87681942D02*
X157851502Y-87586704D01*
X157851502Y-87586704D02*
X157803883Y-87491466D01*
X157803883Y-87491466D02*
X157756264Y-87443847D01*
X157756264Y-87443847D02*
X157661026Y-87396228D01*
X157661026Y-87396228D02*
X157470550Y-87348609D01*
X157470550Y-87348609D02*
X157375312Y-87300990D01*
X157375312Y-87300990D02*
X157327693Y-87253371D01*
X157327693Y-87253371D02*
X157280074Y-87158133D01*
X157280074Y-87158133D02*
X157280074Y-87062895D01*
X157280074Y-87062895D02*
X157327693Y-86967657D01*
X157327693Y-86967657D02*
X157375312Y-86920038D01*
X157375312Y-86920038D02*
X157470550Y-86872419D01*
X157470550Y-86872419D02*
X157708645Y-86872419D01*
X157708645Y-86872419D02*
X157851502Y-86920038D01*
X158327693Y-86872419D02*
X158232455Y-87062895D01*
X159184835Y-87872419D02*
X159184835Y-87348609D01*
X159184835Y-87348609D02*
X159137216Y-87253371D01*
X159137216Y-87253371D02*
X159041978Y-87205752D01*
X159041978Y-87205752D02*
X158851502Y-87205752D01*
X158851502Y-87205752D02*
X158756264Y-87253371D01*
X159184835Y-87824800D02*
X159089597Y-87872419D01*
X159089597Y-87872419D02*
X158851502Y-87872419D01*
X158851502Y-87872419D02*
X158756264Y-87824800D01*
X158756264Y-87824800D02*
X158708645Y-87729561D01*
X158708645Y-87729561D02*
X158708645Y-87634323D01*
X158708645Y-87634323D02*
X158756264Y-87539085D01*
X158756264Y-87539085D02*
X158851502Y-87491466D01*
X158851502Y-87491466D02*
X159089597Y-87491466D01*
X159089597Y-87491466D02*
X159184835Y-87443847D01*
X160041978Y-87824800D02*
X159946740Y-87872419D01*
X159946740Y-87872419D02*
X159756264Y-87872419D01*
X159756264Y-87872419D02*
X159661026Y-87824800D01*
X159661026Y-87824800D02*
X159613407Y-87729561D01*
X159613407Y-87729561D02*
X159613407Y-87348609D01*
X159613407Y-87348609D02*
X159661026Y-87253371D01*
X159661026Y-87253371D02*
X159756264Y-87205752D01*
X159756264Y-87205752D02*
X159946740Y-87205752D01*
X159946740Y-87205752D02*
X160041978Y-87253371D01*
X160041978Y-87253371D02*
X160089597Y-87348609D01*
X160089597Y-87348609D02*
X160089597Y-87443847D01*
X160089597Y-87443847D02*
X159613407Y-87539085D01*
X159946740Y-86824800D02*
X159803883Y-86967657D01*
X160518169Y-87872419D02*
X160518169Y-87205752D01*
X160518169Y-87396228D02*
X160565788Y-87300990D01*
X160565788Y-87300990D02*
X160613407Y-87253371D01*
X160613407Y-87253371D02*
X160708645Y-87205752D01*
X160708645Y-87205752D02*
X160803883Y-87205752D01*
X161280074Y-87872419D02*
X161184836Y-87824800D01*
X161184836Y-87824800D02*
X161137217Y-87777180D01*
X161137217Y-87777180D02*
X161089598Y-87681942D01*
X161089598Y-87681942D02*
X161089598Y-87396228D01*
X161089598Y-87396228D02*
X161137217Y-87300990D01*
X161137217Y-87300990D02*
X161184836Y-87253371D01*
X161184836Y-87253371D02*
X161280074Y-87205752D01*
X161280074Y-87205752D02*
X161422931Y-87205752D01*
X161422931Y-87205752D02*
X161518169Y-87253371D01*
X161518169Y-87253371D02*
X161565788Y-87300990D01*
X161565788Y-87300990D02*
X161613407Y-87396228D01*
X161613407Y-87396228D02*
X161613407Y-87681942D01*
X161613407Y-87681942D02*
X161565788Y-87777180D01*
X161565788Y-87777180D02*
X161518169Y-87824800D01*
X161518169Y-87824800D02*
X161422931Y-87872419D01*
X161422931Y-87872419D02*
X161280074Y-87872419D01*
D11*
X155988720Y-83891112D02*
X155988720Y-82391112D01*
X155988720Y-82391112D02*
X156560149Y-82391112D01*
X156560149Y-82391112D02*
X156703006Y-82462541D01*
X156703006Y-82462541D02*
X156774435Y-82533969D01*
X156774435Y-82533969D02*
X156845863Y-82676826D01*
X156845863Y-82676826D02*
X156845863Y-82891112D01*
X156845863Y-82891112D02*
X156774435Y-83033969D01*
X156774435Y-83033969D02*
X156703006Y-83105398D01*
X156703006Y-83105398D02*
X156560149Y-83176826D01*
X156560149Y-83176826D02*
X155988720Y-83176826D01*
X158345863Y-83748255D02*
X158274435Y-83819684D01*
X158274435Y-83819684D02*
X158060149Y-83891112D01*
X158060149Y-83891112D02*
X157917292Y-83891112D01*
X157917292Y-83891112D02*
X157703006Y-83819684D01*
X157703006Y-83819684D02*
X157560149Y-83676826D01*
X157560149Y-83676826D02*
X157488720Y-83533969D01*
X157488720Y-83533969D02*
X157417292Y-83248255D01*
X157417292Y-83248255D02*
X157417292Y-83033969D01*
X157417292Y-83033969D02*
X157488720Y-82748255D01*
X157488720Y-82748255D02*
X157560149Y-82605398D01*
X157560149Y-82605398D02*
X157703006Y-82462541D01*
X157703006Y-82462541D02*
X157917292Y-82391112D01*
X157917292Y-82391112D02*
X158060149Y-82391112D01*
X158060149Y-82391112D02*
X158274435Y-82462541D01*
X158274435Y-82462541D02*
X158345863Y-82533969D01*
X159488720Y-83105398D02*
X159703006Y-83176826D01*
X159703006Y-83176826D02*
X159774435Y-83248255D01*
X159774435Y-83248255D02*
X159845863Y-83391112D01*
X159845863Y-83391112D02*
X159845863Y-83605398D01*
X159845863Y-83605398D02*
X159774435Y-83748255D01*
X159774435Y-83748255D02*
X159703006Y-83819684D01*
X159703006Y-83819684D02*
X159560149Y-83891112D01*
X159560149Y-83891112D02*
X158988720Y-83891112D01*
X158988720Y-83891112D02*
X158988720Y-82391112D01*
X158988720Y-82391112D02*
X159488720Y-82391112D01*
X159488720Y-82391112D02*
X159631578Y-82462541D01*
X159631578Y-82462541D02*
X159703006Y-82533969D01*
X159703006Y-82533969D02*
X159774435Y-82676826D01*
X159774435Y-82676826D02*
X159774435Y-82819684D01*
X159774435Y-82819684D02*
X159703006Y-82962541D01*
X159703006Y-82962541D02*
X159631578Y-83033969D01*
X159631578Y-83033969D02*
X159488720Y-83105398D01*
X159488720Y-83105398D02*
X158988720Y-83105398D01*
X160131578Y-84033969D02*
X161274435Y-84033969D01*
X161631577Y-83891112D02*
X161631577Y-82391112D01*
X161631577Y-82391112D02*
X162203006Y-82391112D01*
X162203006Y-82391112D02*
X162345863Y-82462541D01*
X162345863Y-82462541D02*
X162417292Y-82533969D01*
X162417292Y-82533969D02*
X162488720Y-82676826D01*
X162488720Y-82676826D02*
X162488720Y-82891112D01*
X162488720Y-82891112D02*
X162417292Y-83033969D01*
X162417292Y-83033969D02*
X162345863Y-83105398D01*
X162345863Y-83105398D02*
X162203006Y-83176826D01*
X162203006Y-83176826D02*
X161631577Y-83176826D01*
X163345863Y-83891112D02*
X163203006Y-83819684D01*
X163203006Y-83819684D02*
X163131577Y-83676826D01*
X163131577Y-83676826D02*
X163131577Y-82391112D01*
X164560149Y-83891112D02*
X164560149Y-83105398D01*
X164560149Y-83105398D02*
X164488720Y-82962541D01*
X164488720Y-82962541D02*
X164345863Y-82891112D01*
X164345863Y-82891112D02*
X164060149Y-82891112D01*
X164060149Y-82891112D02*
X163917291Y-82962541D01*
X164560149Y-83819684D02*
X164417291Y-83891112D01*
X164417291Y-83891112D02*
X164060149Y-83891112D01*
X164060149Y-83891112D02*
X163917291Y-83819684D01*
X163917291Y-83819684D02*
X163845863Y-83676826D01*
X163845863Y-83676826D02*
X163845863Y-83533969D01*
X163845863Y-83533969D02*
X163917291Y-83391112D01*
X163917291Y-83391112D02*
X164060149Y-83319684D01*
X164060149Y-83319684D02*
X164417291Y-83319684D01*
X164417291Y-83319684D02*
X164560149Y-83248255D01*
X165917292Y-82891112D02*
X165917292Y-84391112D01*
X165917292Y-83819684D02*
X165774434Y-83891112D01*
X165774434Y-83891112D02*
X165488720Y-83891112D01*
X165488720Y-83891112D02*
X165345863Y-83819684D01*
X165345863Y-83819684D02*
X165274434Y-83748255D01*
X165274434Y-83748255D02*
X165203006Y-83605398D01*
X165203006Y-83605398D02*
X165203006Y-83176826D01*
X165203006Y-83176826D02*
X165274434Y-83033969D01*
X165274434Y-83033969D02*
X165345863Y-82962541D01*
X165345863Y-82962541D02*
X165488720Y-82891112D01*
X165488720Y-82891112D02*
X165774434Y-82891112D01*
X165774434Y-82891112D02*
X165917292Y-82962541D01*
X167274435Y-82891112D02*
X167274435Y-83891112D01*
X166631577Y-82891112D02*
X166631577Y-83676826D01*
X166631577Y-83676826D02*
X166703006Y-83819684D01*
X166703006Y-83819684D02*
X166845863Y-83891112D01*
X166845863Y-83891112D02*
X167060149Y-83891112D01*
X167060149Y-83891112D02*
X167203006Y-83819684D01*
X167203006Y-83819684D02*
X167274435Y-83748255D01*
X168560149Y-83819684D02*
X168417292Y-83891112D01*
X168417292Y-83891112D02*
X168131578Y-83891112D01*
X168131578Y-83891112D02*
X167988720Y-83819684D01*
X167988720Y-83819684D02*
X167917292Y-83676826D01*
X167917292Y-83676826D02*
X167917292Y-83105398D01*
X167917292Y-83105398D02*
X167988720Y-82962541D01*
X167988720Y-82962541D02*
X168131578Y-82891112D01*
X168131578Y-82891112D02*
X168417292Y-82891112D01*
X168417292Y-82891112D02*
X168560149Y-82962541D01*
X168560149Y-82962541D02*
X168631578Y-83105398D01*
X168631578Y-83105398D02*
X168631578Y-83248255D01*
X168631578Y-83248255D02*
X167917292Y-83391112D01*
X168917292Y-84033969D02*
X170060149Y-84033969D01*
X170917291Y-83105398D02*
X171131577Y-83176826D01*
X171131577Y-83176826D02*
X171203006Y-83248255D01*
X171203006Y-83248255D02*
X171274434Y-83391112D01*
X171274434Y-83391112D02*
X171274434Y-83605398D01*
X171274434Y-83605398D02*
X171203006Y-83748255D01*
X171203006Y-83748255D02*
X171131577Y-83819684D01*
X171131577Y-83819684D02*
X170988720Y-83891112D01*
X170988720Y-83891112D02*
X170417291Y-83891112D01*
X170417291Y-83891112D02*
X170417291Y-82391112D01*
X170417291Y-82391112D02*
X170917291Y-82391112D01*
X170917291Y-82391112D02*
X171060149Y-82462541D01*
X171060149Y-82462541D02*
X171131577Y-82533969D01*
X171131577Y-82533969D02*
X171203006Y-82676826D01*
X171203006Y-82676826D02*
X171203006Y-82819684D01*
X171203006Y-82819684D02*
X171131577Y-82962541D01*
X171131577Y-82962541D02*
X171060149Y-83033969D01*
X171060149Y-83033969D02*
X170917291Y-83105398D01*
X170917291Y-83105398D02*
X170417291Y-83105398D01*
X172560149Y-83891112D02*
X172560149Y-83105398D01*
X172560149Y-83105398D02*
X172488720Y-82962541D01*
X172488720Y-82962541D02*
X172345863Y-82891112D01*
X172345863Y-82891112D02*
X172060149Y-82891112D01*
X172060149Y-82891112D02*
X171917291Y-82962541D01*
X172560149Y-83819684D02*
X172417291Y-83891112D01*
X172417291Y-83891112D02*
X172060149Y-83891112D01*
X172060149Y-83891112D02*
X171917291Y-83819684D01*
X171917291Y-83819684D02*
X171845863Y-83676826D01*
X171845863Y-83676826D02*
X171845863Y-83533969D01*
X171845863Y-83533969D02*
X171917291Y-83391112D01*
X171917291Y-83391112D02*
X172060149Y-83319684D01*
X172060149Y-83319684D02*
X172417291Y-83319684D01*
X172417291Y-83319684D02*
X172560149Y-83248255D01*
X173203006Y-83819684D02*
X173345863Y-83891112D01*
X173345863Y-83891112D02*
X173631577Y-83891112D01*
X173631577Y-83891112D02*
X173774434Y-83819684D01*
X173774434Y-83819684D02*
X173845863Y-83676826D01*
X173845863Y-83676826D02*
X173845863Y-83605398D01*
X173845863Y-83605398D02*
X173774434Y-83462541D01*
X173774434Y-83462541D02*
X173631577Y-83391112D01*
X173631577Y-83391112D02*
X173417292Y-83391112D01*
X173417292Y-83391112D02*
X173274434Y-83319684D01*
X173274434Y-83319684D02*
X173203006Y-83176826D01*
X173203006Y-83176826D02*
X173203006Y-83105398D01*
X173203006Y-83105398D02*
X173274434Y-82962541D01*
X173274434Y-82962541D02*
X173417292Y-82891112D01*
X173417292Y-82891112D02*
X173631577Y-82891112D01*
X173631577Y-82891112D02*
X173774434Y-82962541D01*
X174417292Y-83819684D02*
X174560149Y-83891112D01*
X174560149Y-83891112D02*
X174845863Y-83891112D01*
X174845863Y-83891112D02*
X174988720Y-83819684D01*
X174988720Y-83819684D02*
X175060149Y-83676826D01*
X175060149Y-83676826D02*
X175060149Y-83605398D01*
X175060149Y-83605398D02*
X174988720Y-83462541D01*
X174988720Y-83462541D02*
X174845863Y-83391112D01*
X174845863Y-83391112D02*
X174631578Y-83391112D01*
X174631578Y-83391112D02*
X174488720Y-83319684D01*
X174488720Y-83319684D02*
X174417292Y-83176826D01*
X174417292Y-83176826D02*
X174417292Y-83105398D01*
X174417292Y-83105398D02*
X174488720Y-82962541D01*
X174488720Y-82962541D02*
X174631578Y-82891112D01*
X174631578Y-82891112D02*
X174845863Y-82891112D01*
X174845863Y-82891112D02*
X174988720Y-82962541D01*
X176274435Y-83819684D02*
X176131578Y-83891112D01*
X176131578Y-83891112D02*
X175845864Y-83891112D01*
X175845864Y-83891112D02*
X175703006Y-83819684D01*
X175703006Y-83819684D02*
X175631578Y-83676826D01*
X175631578Y-83676826D02*
X175631578Y-83105398D01*
X175631578Y-83105398D02*
X175703006Y-82962541D01*
X175703006Y-82962541D02*
X175845864Y-82891112D01*
X175845864Y-82891112D02*
X176131578Y-82891112D01*
X176131578Y-82891112D02*
X176274435Y-82962541D01*
X176274435Y-82962541D02*
X176345864Y-83105398D01*
X176345864Y-83105398D02*
X176345864Y-83248255D01*
X176345864Y-83248255D02*
X175631578Y-83391112D01*
X155988720Y-86306028D02*
X155988720Y-84806028D01*
X156703006Y-86306028D02*
X156703006Y-84806028D01*
X156703006Y-84806028D02*
X157560149Y-86306028D01*
X157560149Y-86306028D02*
X157560149Y-84806028D01*
X158203007Y-86234600D02*
X158417293Y-86306028D01*
X158417293Y-86306028D02*
X158774435Y-86306028D01*
X158774435Y-86306028D02*
X158917293Y-86234600D01*
X158917293Y-86234600D02*
X158988721Y-86163171D01*
X158988721Y-86163171D02*
X159060150Y-86020314D01*
X159060150Y-86020314D02*
X159060150Y-85877457D01*
X159060150Y-85877457D02*
X158988721Y-85734600D01*
X158988721Y-85734600D02*
X158917293Y-85663171D01*
X158917293Y-85663171D02*
X158774435Y-85591742D01*
X158774435Y-85591742D02*
X158488721Y-85520314D01*
X158488721Y-85520314D02*
X158345864Y-85448885D01*
X158345864Y-85448885D02*
X158274435Y-85377457D01*
X158274435Y-85377457D02*
X158203007Y-85234600D01*
X158203007Y-85234600D02*
X158203007Y-85091742D01*
X158203007Y-85091742D02*
X158274435Y-84948885D01*
X158274435Y-84948885D02*
X158345864Y-84877457D01*
X158345864Y-84877457D02*
X158488721Y-84806028D01*
X158488721Y-84806028D02*
X158845864Y-84806028D01*
X158845864Y-84806028D02*
X159060150Y-84877457D01*
X159631578Y-85877457D02*
X160345864Y-85877457D01*
X159488721Y-86306028D02*
X159988721Y-84806028D01*
X159988721Y-84806028D02*
X160488721Y-86306028D01*
X161845863Y-86306028D02*
X161345863Y-85591742D01*
X160988720Y-86306028D02*
X160988720Y-84806028D01*
X160988720Y-84806028D02*
X161560149Y-84806028D01*
X161560149Y-84806028D02*
X161703006Y-84877457D01*
X161703006Y-84877457D02*
X161774435Y-84948885D01*
X161774435Y-84948885D02*
X161845863Y-85091742D01*
X161845863Y-85091742D02*
X161845863Y-85306028D01*
X161845863Y-85306028D02*
X161774435Y-85448885D01*
X161774435Y-85448885D02*
X161703006Y-85520314D01*
X161703006Y-85520314D02*
X161560149Y-85591742D01*
X161560149Y-85591742D02*
X160988720Y-85591742D01*
X162488720Y-86306028D02*
X162488720Y-84806028D01*
X163131578Y-85877457D02*
X163845864Y-85877457D01*
X162988721Y-86306028D02*
X163488721Y-84806028D01*
X163488721Y-84806028D02*
X163988721Y-86306028D01*
X164488720Y-86306028D02*
X164488720Y-84806028D01*
X164488720Y-84806028D02*
X165345863Y-86306028D01*
X165345863Y-86306028D02*
X165345863Y-84806028D01*
X166060149Y-86306028D02*
X166060149Y-84806028D01*
X166060149Y-84806028D02*
X166917292Y-86306028D01*
X166917292Y-86306028D02*
X166917292Y-84806028D01*
X167631578Y-85520314D02*
X168131578Y-85520314D01*
X168345864Y-86306028D02*
X167631578Y-86306028D01*
X167631578Y-86306028D02*
X167631578Y-84806028D01*
X167631578Y-84806028D02*
X168345864Y-84806028D01*
X169774436Y-86306028D02*
X168917293Y-86306028D01*
X169345864Y-86306028D02*
X169345864Y-84806028D01*
X169345864Y-84806028D02*
X169203007Y-85020314D01*
X169203007Y-85020314D02*
X169060150Y-85163171D01*
X169060150Y-85163171D02*
X168917293Y-85234600D01*
D12*
X156738095Y-73454819D02*
X156738095Y-72454819D01*
X157214285Y-72788152D02*
X157214285Y-73454819D01*
X157214285Y-72883390D02*
X157261904Y-72835771D01*
X157261904Y-72835771D02*
X157357142Y-72788152D01*
X157357142Y-72788152D02*
X157499999Y-72788152D01*
X157499999Y-72788152D02*
X157595237Y-72835771D01*
X157595237Y-72835771D02*
X157642856Y-72931009D01*
X157642856Y-72931009D02*
X157642856Y-73454819D01*
X157976190Y-72788152D02*
X158357142Y-72788152D01*
X158119047Y-72454819D02*
X158119047Y-73311961D01*
X158119047Y-73311961D02*
X158166666Y-73407200D01*
X158166666Y-73407200D02*
X158261904Y-73454819D01*
X158261904Y-73454819D02*
X158357142Y-73454819D01*
X159071428Y-73407200D02*
X158976190Y-73454819D01*
X158976190Y-73454819D02*
X158785714Y-73454819D01*
X158785714Y-73454819D02*
X158690476Y-73407200D01*
X158690476Y-73407200D02*
X158642857Y-73311961D01*
X158642857Y-73311961D02*
X158642857Y-72931009D01*
X158642857Y-72931009D02*
X158690476Y-72835771D01*
X158690476Y-72835771D02*
X158785714Y-72788152D01*
X158785714Y-72788152D02*
X158976190Y-72788152D01*
X158976190Y-72788152D02*
X159071428Y-72835771D01*
X159071428Y-72835771D02*
X159119047Y-72931009D01*
X159119047Y-72931009D02*
X159119047Y-73026247D01*
X159119047Y-73026247D02*
X158642857Y-73121485D01*
X159547619Y-73454819D02*
X159547619Y-72788152D01*
X159547619Y-72978628D02*
X159595238Y-72883390D01*
X159595238Y-72883390D02*
X159642857Y-72835771D01*
X159642857Y-72835771D02*
X159738095Y-72788152D01*
X159738095Y-72788152D02*
X159833333Y-72788152D01*
X159928572Y-73550057D02*
X160690476Y-73550057D01*
X160928572Y-73454819D02*
X160928572Y-72454819D01*
X160928572Y-72454819D02*
X161309524Y-72454819D01*
X161309524Y-72454819D02*
X161404762Y-72502438D01*
X161404762Y-72502438D02*
X161452381Y-72550057D01*
X161452381Y-72550057D02*
X161500000Y-72645295D01*
X161500000Y-72645295D02*
X161500000Y-72788152D01*
X161500000Y-72788152D02*
X161452381Y-72883390D01*
X161452381Y-72883390D02*
X161404762Y-72931009D01*
X161404762Y-72931009D02*
X161309524Y-72978628D01*
X161309524Y-72978628D02*
X160928572Y-72978628D01*
X161928572Y-73454819D02*
X161928572Y-72788152D01*
X161928572Y-72454819D02*
X161880953Y-72502438D01*
X161880953Y-72502438D02*
X161928572Y-72550057D01*
X161928572Y-72550057D02*
X161976191Y-72502438D01*
X161976191Y-72502438D02*
X161928572Y-72454819D01*
X161928572Y-72454819D02*
X161928572Y-72550057D01*
X162547619Y-73454819D02*
X162452381Y-73407200D01*
X162452381Y-73407200D02*
X162404762Y-73311961D01*
X162404762Y-73311961D02*
X162404762Y-72454819D01*
X163309524Y-73407200D02*
X163214286Y-73454819D01*
X163214286Y-73454819D02*
X163023810Y-73454819D01*
X163023810Y-73454819D02*
X162928572Y-73407200D01*
X162928572Y-73407200D02*
X162880953Y-73311961D01*
X162880953Y-73311961D02*
X162880953Y-72931009D01*
X162880953Y-72931009D02*
X162928572Y-72835771D01*
X162928572Y-72835771D02*
X163023810Y-72788152D01*
X163023810Y-72788152D02*
X163214286Y-72788152D01*
X163214286Y-72788152D02*
X163309524Y-72835771D01*
X163309524Y-72835771D02*
X163357143Y-72931009D01*
X163357143Y-72931009D02*
X163357143Y-73026247D01*
X163357143Y-73026247D02*
X162880953Y-73121485D01*
X164309524Y-73454819D02*
X163738096Y-73454819D01*
X164023810Y-73454819D02*
X164023810Y-72454819D01*
X164023810Y-72454819D02*
X163928572Y-72597676D01*
X163928572Y-72597676D02*
X163833334Y-72692914D01*
X163833334Y-72692914D02*
X163738096Y-72740533D01*
D10*
X124496666Y-72421704D02*
X124972856Y-72421704D01*
X124401428Y-72707419D02*
X124734761Y-71707419D01*
X124734761Y-71707419D02*
X125068094Y-72707419D01*
X125401428Y-72707419D02*
X125401428Y-72040752D01*
X125401428Y-72231228D02*
X125449047Y-72135990D01*
X125449047Y-72135990D02*
X125496666Y-72088371D01*
X125496666Y-72088371D02*
X125591904Y-72040752D01*
X125591904Y-72040752D02*
X125687142Y-72040752D01*
X126449047Y-72707419D02*
X126449047Y-71707419D01*
X126449047Y-72659800D02*
X126353809Y-72707419D01*
X126353809Y-72707419D02*
X126163333Y-72707419D01*
X126163333Y-72707419D02*
X126068095Y-72659800D01*
X126068095Y-72659800D02*
X126020476Y-72612180D01*
X126020476Y-72612180D02*
X125972857Y-72516942D01*
X125972857Y-72516942D02*
X125972857Y-72231228D01*
X125972857Y-72231228D02*
X126020476Y-72135990D01*
X126020476Y-72135990D02*
X126068095Y-72088371D01*
X126068095Y-72088371D02*
X126163333Y-72040752D01*
X126163333Y-72040752D02*
X126353809Y-72040752D01*
X126353809Y-72040752D02*
X126449047Y-72088371D01*
X127353809Y-72040752D02*
X127353809Y-72707419D01*
X126925238Y-72040752D02*
X126925238Y-72564561D01*
X126925238Y-72564561D02*
X126972857Y-72659800D01*
X126972857Y-72659800D02*
X127068095Y-72707419D01*
X127068095Y-72707419D02*
X127210952Y-72707419D01*
X127210952Y-72707419D02*
X127306190Y-72659800D01*
X127306190Y-72659800D02*
X127353809Y-72612180D01*
X127830000Y-72707419D02*
X127830000Y-72040752D01*
X127830000Y-71707419D02*
X127782381Y-71755038D01*
X127782381Y-71755038D02*
X127830000Y-71802657D01*
X127830000Y-71802657D02*
X127877619Y-71755038D01*
X127877619Y-71755038D02*
X127830000Y-71707419D01*
X127830000Y-71707419D02*
X127830000Y-71802657D01*
X128306190Y-72040752D02*
X128306190Y-72707419D01*
X128306190Y-72135990D02*
X128353809Y-72088371D01*
X128353809Y-72088371D02*
X128449047Y-72040752D01*
X128449047Y-72040752D02*
X128591904Y-72040752D01*
X128591904Y-72040752D02*
X128687142Y-72088371D01*
X128687142Y-72088371D02*
X128734761Y-72183609D01*
X128734761Y-72183609D02*
X128734761Y-72707419D01*
X129353809Y-72707419D02*
X129258571Y-72659800D01*
X129258571Y-72659800D02*
X129210952Y-72612180D01*
X129210952Y-72612180D02*
X129163333Y-72516942D01*
X129163333Y-72516942D02*
X129163333Y-72231228D01*
X129163333Y-72231228D02*
X129210952Y-72135990D01*
X129210952Y-72135990D02*
X129258571Y-72088371D01*
X129258571Y-72088371D02*
X129353809Y-72040752D01*
X129353809Y-72040752D02*
X129496666Y-72040752D01*
X129496666Y-72040752D02*
X129591904Y-72088371D01*
X129591904Y-72088371D02*
X129639523Y-72135990D01*
X129639523Y-72135990D02*
X129687142Y-72231228D01*
X129687142Y-72231228D02*
X129687142Y-72516942D01*
X129687142Y-72516942D02*
X129639523Y-72612180D01*
X129639523Y-72612180D02*
X129591904Y-72659800D01*
X129591904Y-72659800D02*
X129496666Y-72707419D01*
X129496666Y-72707419D02*
X129353809Y-72707419D01*
X129877619Y-72802657D02*
X130639523Y-72802657D01*
X130877619Y-72707419D02*
X130877619Y-71707419D01*
X130877619Y-71707419D02*
X131449047Y-72707419D01*
X131449047Y-72707419D02*
X131449047Y-71707419D01*
X132353809Y-72707419D02*
X132353809Y-72183609D01*
X132353809Y-72183609D02*
X132306190Y-72088371D01*
X132306190Y-72088371D02*
X132210952Y-72040752D01*
X132210952Y-72040752D02*
X132020476Y-72040752D01*
X132020476Y-72040752D02*
X131925238Y-72088371D01*
X132353809Y-72659800D02*
X132258571Y-72707419D01*
X132258571Y-72707419D02*
X132020476Y-72707419D01*
X132020476Y-72707419D02*
X131925238Y-72659800D01*
X131925238Y-72659800D02*
X131877619Y-72564561D01*
X131877619Y-72564561D02*
X131877619Y-72469323D01*
X131877619Y-72469323D02*
X131925238Y-72374085D01*
X131925238Y-72374085D02*
X132020476Y-72326466D01*
X132020476Y-72326466D02*
X132258571Y-72326466D01*
X132258571Y-72326466D02*
X132353809Y-72278847D01*
X132830000Y-72040752D02*
X132830000Y-72707419D01*
X132830000Y-72135990D02*
X132877619Y-72088371D01*
X132877619Y-72088371D02*
X132972857Y-72040752D01*
X132972857Y-72040752D02*
X133115714Y-72040752D01*
X133115714Y-72040752D02*
X133210952Y-72088371D01*
X133210952Y-72088371D02*
X133258571Y-72183609D01*
X133258571Y-72183609D02*
X133258571Y-72707419D01*
X133877619Y-72707419D02*
X133782381Y-72659800D01*
X133782381Y-72659800D02*
X133734762Y-72612180D01*
X133734762Y-72612180D02*
X133687143Y-72516942D01*
X133687143Y-72516942D02*
X133687143Y-72231228D01*
X133687143Y-72231228D02*
X133734762Y-72135990D01*
X133734762Y-72135990D02*
X133782381Y-72088371D01*
X133782381Y-72088371D02*
X133877619Y-72040752D01*
X133877619Y-72040752D02*
X134020476Y-72040752D01*
X134020476Y-72040752D02*
X134115714Y-72088371D01*
X134115714Y-72088371D02*
X134163333Y-72135990D01*
X134163333Y-72135990D02*
X134210952Y-72231228D01*
X134210952Y-72231228D02*
X134210952Y-72516942D01*
X134210952Y-72516942D02*
X134163333Y-72612180D01*
X134163333Y-72612180D02*
X134115714Y-72659800D01*
X134115714Y-72659800D02*
X134020476Y-72707419D01*
X134020476Y-72707419D02*
X133877619Y-72707419D01*
X135163333Y-72707419D02*
X134591905Y-72707419D01*
X134877619Y-72707419D02*
X134877619Y-71707419D01*
X134877619Y-71707419D02*
X134782381Y-71850276D01*
X134782381Y-71850276D02*
X134687143Y-71945514D01*
X134687143Y-71945514D02*
X134591905Y-71993133D01*
D12*
X113865180Y-70998095D02*
X113055657Y-70998095D01*
X113055657Y-70998095D02*
X112960419Y-71045714D01*
X112960419Y-71045714D02*
X112912800Y-71093333D01*
X112912800Y-71093333D02*
X112865180Y-71188571D01*
X112865180Y-71188571D02*
X112865180Y-71379047D01*
X112865180Y-71379047D02*
X112912800Y-71474285D01*
X112912800Y-71474285D02*
X112960419Y-71521904D01*
X112960419Y-71521904D02*
X113055657Y-71569523D01*
X113055657Y-71569523D02*
X113865180Y-71569523D01*
X112912800Y-71998095D02*
X112865180Y-72140952D01*
X112865180Y-72140952D02*
X112865180Y-72379047D01*
X112865180Y-72379047D02*
X112912800Y-72474285D01*
X112912800Y-72474285D02*
X112960419Y-72521904D01*
X112960419Y-72521904D02*
X113055657Y-72569523D01*
X113055657Y-72569523D02*
X113150895Y-72569523D01*
X113150895Y-72569523D02*
X113246133Y-72521904D01*
X113246133Y-72521904D02*
X113293752Y-72474285D01*
X113293752Y-72474285D02*
X113341371Y-72379047D01*
X113341371Y-72379047D02*
X113388990Y-72188571D01*
X113388990Y-72188571D02*
X113436609Y-72093333D01*
X113436609Y-72093333D02*
X113484228Y-72045714D01*
X113484228Y-72045714D02*
X113579466Y-71998095D01*
X113579466Y-71998095D02*
X113674704Y-71998095D01*
X113674704Y-71998095D02*
X113769942Y-72045714D01*
X113769942Y-72045714D02*
X113817561Y-72093333D01*
X113817561Y-72093333D02*
X113865180Y-72188571D01*
X113865180Y-72188571D02*
X113865180Y-72426666D01*
X113865180Y-72426666D02*
X113817561Y-72569523D01*
X113388990Y-73331428D02*
X113341371Y-73474285D01*
X113341371Y-73474285D02*
X113293752Y-73521904D01*
X113293752Y-73521904D02*
X113198514Y-73569523D01*
X113198514Y-73569523D02*
X113055657Y-73569523D01*
X113055657Y-73569523D02*
X112960419Y-73521904D01*
X112960419Y-73521904D02*
X112912800Y-73474285D01*
X112912800Y-73474285D02*
X112865180Y-73379047D01*
X112865180Y-73379047D02*
X112865180Y-72998095D01*
X112865180Y-72998095D02*
X113865180Y-72998095D01*
X113865180Y-72998095D02*
X113865180Y-73331428D01*
X113865180Y-73331428D02*
X113817561Y-73426666D01*
X113817561Y-73426666D02*
X113769942Y-73474285D01*
X113769942Y-73474285D02*
X113674704Y-73521904D01*
X113674704Y-73521904D02*
X113579466Y-73521904D01*
X113579466Y-73521904D02*
X113484228Y-73474285D01*
X113484228Y-73474285D02*
X113436609Y-73426666D01*
X113436609Y-73426666D02*
X113388990Y-73331428D01*
X113388990Y-73331428D02*
X113388990Y-72998095D01*
X155238094Y-71454819D02*
X155238094Y-70454819D01*
X155714284Y-70788152D02*
X155714284Y-71454819D01*
X155714284Y-70883390D02*
X155761903Y-70835771D01*
X155761903Y-70835771D02*
X155857141Y-70788152D01*
X155857141Y-70788152D02*
X155999998Y-70788152D01*
X155999998Y-70788152D02*
X156095236Y-70835771D01*
X156095236Y-70835771D02*
X156142855Y-70931009D01*
X156142855Y-70931009D02*
X156142855Y-71454819D01*
X156476189Y-70788152D02*
X156857141Y-70788152D01*
X156619046Y-70454819D02*
X156619046Y-71311961D01*
X156619046Y-71311961D02*
X156666665Y-71407200D01*
X156666665Y-71407200D02*
X156761903Y-71454819D01*
X156761903Y-71454819D02*
X156857141Y-71454819D01*
X157571427Y-71407200D02*
X157476189Y-71454819D01*
X157476189Y-71454819D02*
X157285713Y-71454819D01*
X157285713Y-71454819D02*
X157190475Y-71407200D01*
X157190475Y-71407200D02*
X157142856Y-71311961D01*
X157142856Y-71311961D02*
X157142856Y-70931009D01*
X157142856Y-70931009D02*
X157190475Y-70835771D01*
X157190475Y-70835771D02*
X157285713Y-70788152D01*
X157285713Y-70788152D02*
X157476189Y-70788152D01*
X157476189Y-70788152D02*
X157571427Y-70835771D01*
X157571427Y-70835771D02*
X157619046Y-70931009D01*
X157619046Y-70931009D02*
X157619046Y-71026247D01*
X157619046Y-71026247D02*
X157142856Y-71121485D01*
X158047618Y-71454819D02*
X158047618Y-70788152D01*
X158047618Y-70978628D02*
X158095237Y-70883390D01*
X158095237Y-70883390D02*
X158142856Y-70835771D01*
X158142856Y-70835771D02*
X158238094Y-70788152D01*
X158238094Y-70788152D02*
X158333332Y-70788152D01*
X158428571Y-71550057D02*
X159190475Y-71550057D01*
X159999999Y-71359580D02*
X159952380Y-71407200D01*
X159952380Y-71407200D02*
X159809523Y-71454819D01*
X159809523Y-71454819D02*
X159714285Y-71454819D01*
X159714285Y-71454819D02*
X159571428Y-71407200D01*
X159571428Y-71407200D02*
X159476190Y-71311961D01*
X159476190Y-71311961D02*
X159428571Y-71216723D01*
X159428571Y-71216723D02*
X159380952Y-71026247D01*
X159380952Y-71026247D02*
X159380952Y-70883390D01*
X159380952Y-70883390D02*
X159428571Y-70692914D01*
X159428571Y-70692914D02*
X159476190Y-70597676D01*
X159476190Y-70597676D02*
X159571428Y-70502438D01*
X159571428Y-70502438D02*
X159714285Y-70454819D01*
X159714285Y-70454819D02*
X159809523Y-70454819D01*
X159809523Y-70454819D02*
X159952380Y-70502438D01*
X159952380Y-70502438D02*
X159999999Y-70550057D01*
X160857142Y-71454819D02*
X160857142Y-70931009D01*
X160857142Y-70931009D02*
X160809523Y-70835771D01*
X160809523Y-70835771D02*
X160714285Y-70788152D01*
X160714285Y-70788152D02*
X160523809Y-70788152D01*
X160523809Y-70788152D02*
X160428571Y-70835771D01*
X160857142Y-71407200D02*
X160761904Y-71454819D01*
X160761904Y-71454819D02*
X160523809Y-71454819D01*
X160523809Y-71454819D02*
X160428571Y-71407200D01*
X160428571Y-71407200D02*
X160380952Y-71311961D01*
X160380952Y-71311961D02*
X160380952Y-71216723D01*
X160380952Y-71216723D02*
X160428571Y-71121485D01*
X160428571Y-71121485D02*
X160523809Y-71073866D01*
X160523809Y-71073866D02*
X160761904Y-71073866D01*
X160761904Y-71073866D02*
X160857142Y-71026247D01*
X161333333Y-70788152D02*
X161333333Y-71788152D01*
X161333333Y-70835771D02*
X161428571Y-70788152D01*
X161428571Y-70788152D02*
X161619047Y-70788152D01*
X161619047Y-70788152D02*
X161714285Y-70835771D01*
X161714285Y-70835771D02*
X161761904Y-70883390D01*
X161761904Y-70883390D02*
X161809523Y-70978628D01*
X161809523Y-70978628D02*
X161809523Y-71264342D01*
X161809523Y-71264342D02*
X161761904Y-71359580D01*
X161761904Y-71359580D02*
X161714285Y-71407200D01*
X161714285Y-71407200D02*
X161619047Y-71454819D01*
X161619047Y-71454819D02*
X161428571Y-71454819D01*
X161428571Y-71454819D02*
X161333333Y-71407200D01*
X162000000Y-71550057D02*
X162761904Y-71550057D01*
X162857143Y-70454819D02*
X163190476Y-71454819D01*
X163190476Y-71454819D02*
X163523809Y-70454819D01*
X164000000Y-71454819D02*
X163904762Y-71407200D01*
X163904762Y-71407200D02*
X163857143Y-71359580D01*
X163857143Y-71359580D02*
X163809524Y-71264342D01*
X163809524Y-71264342D02*
X163809524Y-70978628D01*
X163809524Y-70978628D02*
X163857143Y-70883390D01*
X163857143Y-70883390D02*
X163904762Y-70835771D01*
X163904762Y-70835771D02*
X164000000Y-70788152D01*
X164000000Y-70788152D02*
X164142857Y-70788152D01*
X164142857Y-70788152D02*
X164238095Y-70835771D01*
X164238095Y-70835771D02*
X164285714Y-70883390D01*
X164285714Y-70883390D02*
X164333333Y-70978628D01*
X164333333Y-70978628D02*
X164333333Y-71264342D01*
X164333333Y-71264342D02*
X164285714Y-71359580D01*
X164285714Y-71359580D02*
X164238095Y-71407200D01*
X164238095Y-71407200D02*
X164142857Y-71454819D01*
X164142857Y-71454819D02*
X164000000Y-71454819D01*
X164904762Y-71454819D02*
X164809524Y-71407200D01*
X164809524Y-71407200D02*
X164761905Y-71311961D01*
X164761905Y-71311961D02*
X164761905Y-70454819D01*
X165809524Y-71454819D02*
X165238096Y-71454819D01*
X165523810Y-71454819D02*
X165523810Y-70454819D01*
X165523810Y-70454819D02*
X165428572Y-70597676D01*
X165428572Y-70597676D02*
X165333334Y-70692914D01*
X165333334Y-70692914D02*
X165238096Y-70740533D01*
D10*
X117286190Y-106388890D02*
X117143333Y-106341271D01*
X117143333Y-106341271D02*
X117095714Y-106293652D01*
X117095714Y-106293652D02*
X117048095Y-106198414D01*
X117048095Y-106198414D02*
X117048095Y-106055557D01*
X117048095Y-106055557D02*
X117095714Y-105960319D01*
X117095714Y-105960319D02*
X117143333Y-105912700D01*
X117143333Y-105912700D02*
X117238571Y-105865080D01*
X117238571Y-105865080D02*
X117619523Y-105865080D01*
X117619523Y-105865080D02*
X117619523Y-106865080D01*
X117619523Y-106865080D02*
X117286190Y-106865080D01*
X117286190Y-106865080D02*
X117190952Y-106817461D01*
X117190952Y-106817461D02*
X117143333Y-106769842D01*
X117143333Y-106769842D02*
X117095714Y-106674604D01*
X117095714Y-106674604D02*
X117095714Y-106579366D01*
X117095714Y-106579366D02*
X117143333Y-106484128D01*
X117143333Y-106484128D02*
X117190952Y-106436509D01*
X117190952Y-106436509D02*
X117286190Y-106388890D01*
X117286190Y-106388890D02*
X117619523Y-106388890D01*
X116619523Y-105865080D02*
X116619523Y-106865080D01*
X116619523Y-106865080D02*
X116286190Y-106150795D01*
X116286190Y-106150795D02*
X115952857Y-106865080D01*
X115952857Y-106865080D02*
X115952857Y-105865080D01*
X115476666Y-105865080D02*
X115476666Y-106865080D01*
X115476666Y-106865080D02*
X115095714Y-106865080D01*
X115095714Y-106865080D02*
X115000476Y-106817461D01*
X115000476Y-106817461D02*
X114952857Y-106769842D01*
X114952857Y-106769842D02*
X114905238Y-106674604D01*
X114905238Y-106674604D02*
X114905238Y-106531747D01*
X114905238Y-106531747D02*
X114952857Y-106436509D01*
X114952857Y-106436509D02*
X115000476Y-106388890D01*
X115000476Y-106388890D02*
X115095714Y-106341271D01*
X115095714Y-106341271D02*
X115476666Y-106341271D01*
X113952857Y-105865080D02*
X114524285Y-105865080D01*
X114238571Y-105865080D02*
X114238571Y-106865080D01*
X114238571Y-106865080D02*
X114333809Y-106722223D01*
X114333809Y-106722223D02*
X114429047Y-106626985D01*
X114429047Y-106626985D02*
X114524285Y-106579366D01*
X121957419Y-118214285D02*
X120957419Y-118214285D01*
X120957419Y-118214285D02*
X121671704Y-117880952D01*
X121671704Y-117880952D02*
X120957419Y-117547619D01*
X120957419Y-117547619D02*
X121957419Y-117547619D01*
X121957419Y-116928571D02*
X121909800Y-117023809D01*
X121909800Y-117023809D02*
X121862180Y-117071428D01*
X121862180Y-117071428D02*
X121766942Y-117119047D01*
X121766942Y-117119047D02*
X121481228Y-117119047D01*
X121481228Y-117119047D02*
X121385990Y-117071428D01*
X121385990Y-117071428D02*
X121338371Y-117023809D01*
X121338371Y-117023809D02*
X121290752Y-116928571D01*
X121290752Y-116928571D02*
X121290752Y-116785714D01*
X121290752Y-116785714D02*
X121338371Y-116690476D01*
X121338371Y-116690476D02*
X121385990Y-116642857D01*
X121385990Y-116642857D02*
X121481228Y-116595238D01*
X121481228Y-116595238D02*
X121766942Y-116595238D01*
X121766942Y-116595238D02*
X121862180Y-116642857D01*
X121862180Y-116642857D02*
X121909800Y-116690476D01*
X121909800Y-116690476D02*
X121957419Y-116785714D01*
X121957419Y-116785714D02*
X121957419Y-116928571D01*
X121957419Y-115738095D02*
X120957419Y-115738095D01*
X121909800Y-115738095D02*
X121957419Y-115833333D01*
X121957419Y-115833333D02*
X121957419Y-116023809D01*
X121957419Y-116023809D02*
X121909800Y-116119047D01*
X121909800Y-116119047D02*
X121862180Y-116166666D01*
X121862180Y-116166666D02*
X121766942Y-116214285D01*
X121766942Y-116214285D02*
X121481228Y-116214285D01*
X121481228Y-116214285D02*
X121385990Y-116166666D01*
X121385990Y-116166666D02*
X121338371Y-116119047D01*
X121338371Y-116119047D02*
X121290752Y-116023809D01*
X121290752Y-116023809D02*
X121290752Y-115833333D01*
X121290752Y-115833333D02*
X121338371Y-115738095D01*
X121290752Y-114833333D02*
X121957419Y-114833333D01*
X121290752Y-115261904D02*
X121814561Y-115261904D01*
X121814561Y-115261904D02*
X121909800Y-115214285D01*
X121909800Y-115214285D02*
X121957419Y-115119047D01*
X121957419Y-115119047D02*
X121957419Y-114976190D01*
X121957419Y-114976190D02*
X121909800Y-114880952D01*
X121909800Y-114880952D02*
X121862180Y-114833333D01*
X121957419Y-114214285D02*
X121909800Y-114309523D01*
X121909800Y-114309523D02*
X121814561Y-114357142D01*
X121814561Y-114357142D02*
X120957419Y-114357142D01*
X121909800Y-113452380D02*
X121957419Y-113547618D01*
X121957419Y-113547618D02*
X121957419Y-113738094D01*
X121957419Y-113738094D02*
X121909800Y-113833332D01*
X121909800Y-113833332D02*
X121814561Y-113880951D01*
X121814561Y-113880951D02*
X121433609Y-113880951D01*
X121433609Y-113880951D02*
X121338371Y-113833332D01*
X121338371Y-113833332D02*
X121290752Y-113738094D01*
X121290752Y-113738094D02*
X121290752Y-113547618D01*
X121290752Y-113547618D02*
X121338371Y-113452380D01*
X121338371Y-113452380D02*
X121433609Y-113404761D01*
X121433609Y-113404761D02*
X121528847Y-113404761D01*
X121528847Y-113404761D02*
X121624085Y-113880951D01*
X122052657Y-113214285D02*
X122052657Y-112452380D01*
X121909800Y-112261903D02*
X121957419Y-112119046D01*
X121957419Y-112119046D02*
X121957419Y-111880951D01*
X121957419Y-111880951D02*
X121909800Y-111785713D01*
X121909800Y-111785713D02*
X121862180Y-111738094D01*
X121862180Y-111738094D02*
X121766942Y-111690475D01*
X121766942Y-111690475D02*
X121671704Y-111690475D01*
X121671704Y-111690475D02*
X121576466Y-111738094D01*
X121576466Y-111738094D02*
X121528847Y-111785713D01*
X121528847Y-111785713D02*
X121481228Y-111880951D01*
X121481228Y-111880951D02*
X121433609Y-112071427D01*
X121433609Y-112071427D02*
X121385990Y-112166665D01*
X121385990Y-112166665D02*
X121338371Y-112214284D01*
X121338371Y-112214284D02*
X121243133Y-112261903D01*
X121243133Y-112261903D02*
X121147895Y-112261903D01*
X121147895Y-112261903D02*
X121052657Y-112214284D01*
X121052657Y-112214284D02*
X121005038Y-112166665D01*
X121005038Y-112166665D02*
X120957419Y-112071427D01*
X120957419Y-112071427D02*
X120957419Y-111833332D01*
X120957419Y-111833332D02*
X121005038Y-111690475D01*
X121957419Y-111261903D02*
X120957419Y-111261903D01*
X120957419Y-111261903D02*
X120957419Y-111023808D01*
X120957419Y-111023808D02*
X121005038Y-110880951D01*
X121005038Y-110880951D02*
X121100276Y-110785713D01*
X121100276Y-110785713D02*
X121195514Y-110738094D01*
X121195514Y-110738094D02*
X121385990Y-110690475D01*
X121385990Y-110690475D02*
X121528847Y-110690475D01*
X121528847Y-110690475D02*
X121719323Y-110738094D01*
X121719323Y-110738094D02*
X121814561Y-110785713D01*
X121814561Y-110785713D02*
X121909800Y-110880951D01*
X121909800Y-110880951D02*
X121957419Y-111023808D01*
X121957419Y-111023808D02*
X121957419Y-111261903D01*
X121957419Y-109738094D02*
X121957419Y-110309522D01*
X121957419Y-110023808D02*
X120957419Y-110023808D01*
X120957419Y-110023808D02*
X121100276Y-110119046D01*
X121100276Y-110119046D02*
X121195514Y-110214284D01*
X121195514Y-110214284D02*
X121243133Y-110309522D01*
X161074761Y-93707419D02*
X161074761Y-92707419D01*
X161074761Y-92707419D02*
X161408094Y-93421704D01*
X161408094Y-93421704D02*
X161741427Y-92707419D01*
X161741427Y-92707419D02*
X161741427Y-93707419D01*
X162360475Y-93707419D02*
X162265237Y-93659800D01*
X162265237Y-93659800D02*
X162217618Y-93612180D01*
X162217618Y-93612180D02*
X162169999Y-93516942D01*
X162169999Y-93516942D02*
X162169999Y-93231228D01*
X162169999Y-93231228D02*
X162217618Y-93135990D01*
X162217618Y-93135990D02*
X162265237Y-93088371D01*
X162265237Y-93088371D02*
X162360475Y-93040752D01*
X162360475Y-93040752D02*
X162503332Y-93040752D01*
X162503332Y-93040752D02*
X162598570Y-93088371D01*
X162598570Y-93088371D02*
X162646189Y-93135990D01*
X162646189Y-93135990D02*
X162693808Y-93231228D01*
X162693808Y-93231228D02*
X162693808Y-93516942D01*
X162693808Y-93516942D02*
X162646189Y-93612180D01*
X162646189Y-93612180D02*
X162598570Y-93659800D01*
X162598570Y-93659800D02*
X162503332Y-93707419D01*
X162503332Y-93707419D02*
X162360475Y-93707419D01*
X163550951Y-93707419D02*
X163550951Y-92707419D01*
X163550951Y-93659800D02*
X163455713Y-93707419D01*
X163455713Y-93707419D02*
X163265237Y-93707419D01*
X163265237Y-93707419D02*
X163169999Y-93659800D01*
X163169999Y-93659800D02*
X163122380Y-93612180D01*
X163122380Y-93612180D02*
X163074761Y-93516942D01*
X163074761Y-93516942D02*
X163074761Y-93231228D01*
X163074761Y-93231228D02*
X163122380Y-93135990D01*
X163122380Y-93135990D02*
X163169999Y-93088371D01*
X163169999Y-93088371D02*
X163265237Y-93040752D01*
X163265237Y-93040752D02*
X163455713Y-93040752D01*
X163455713Y-93040752D02*
X163550951Y-93088371D01*
X164455713Y-93040752D02*
X164455713Y-93707419D01*
X164027142Y-93040752D02*
X164027142Y-93564561D01*
X164027142Y-93564561D02*
X164074761Y-93659800D01*
X164074761Y-93659800D02*
X164169999Y-93707419D01*
X164169999Y-93707419D02*
X164312856Y-93707419D01*
X164312856Y-93707419D02*
X164408094Y-93659800D01*
X164408094Y-93659800D02*
X164455713Y-93612180D01*
X165074761Y-93707419D02*
X164979523Y-93659800D01*
X164979523Y-93659800D02*
X164931904Y-93564561D01*
X164931904Y-93564561D02*
X164931904Y-92707419D01*
X165836666Y-93659800D02*
X165741428Y-93707419D01*
X165741428Y-93707419D02*
X165550952Y-93707419D01*
X165550952Y-93707419D02*
X165455714Y-93659800D01*
X165455714Y-93659800D02*
X165408095Y-93564561D01*
X165408095Y-93564561D02*
X165408095Y-93183609D01*
X165408095Y-93183609D02*
X165455714Y-93088371D01*
X165455714Y-93088371D02*
X165550952Y-93040752D01*
X165550952Y-93040752D02*
X165741428Y-93040752D01*
X165741428Y-93040752D02*
X165836666Y-93088371D01*
X165836666Y-93088371D02*
X165884285Y-93183609D01*
X165884285Y-93183609D02*
X165884285Y-93278847D01*
X165884285Y-93278847D02*
X165408095Y-93374085D01*
X166074762Y-93802657D02*
X166836666Y-93802657D01*
X167550952Y-93707419D02*
X167074762Y-93707419D01*
X167074762Y-93707419D02*
X167074762Y-92707419D01*
X168074762Y-92707419D02*
X168265238Y-92707419D01*
X168265238Y-92707419D02*
X168360476Y-92755038D01*
X168360476Y-92755038D02*
X168455714Y-92850276D01*
X168455714Y-92850276D02*
X168503333Y-93040752D01*
X168503333Y-93040752D02*
X168503333Y-93374085D01*
X168503333Y-93374085D02*
X168455714Y-93564561D01*
X168455714Y-93564561D02*
X168360476Y-93659800D01*
X168360476Y-93659800D02*
X168265238Y-93707419D01*
X168265238Y-93707419D02*
X168074762Y-93707419D01*
X168074762Y-93707419D02*
X167979524Y-93659800D01*
X167979524Y-93659800D02*
X167884286Y-93564561D01*
X167884286Y-93564561D02*
X167836667Y-93374085D01*
X167836667Y-93374085D02*
X167836667Y-93040752D01*
X167836667Y-93040752D02*
X167884286Y-92850276D01*
X167884286Y-92850276D02*
X167979524Y-92755038D01*
X167979524Y-92755038D02*
X168074762Y-92707419D01*
X169503333Y-93707419D02*
X169170000Y-93231228D01*
X168931905Y-93707419D02*
X168931905Y-92707419D01*
X168931905Y-92707419D02*
X169312857Y-92707419D01*
X169312857Y-92707419D02*
X169408095Y-92755038D01*
X169408095Y-92755038D02*
X169455714Y-92802657D01*
X169455714Y-92802657D02*
X169503333Y-92897895D01*
X169503333Y-92897895D02*
X169503333Y-93040752D01*
X169503333Y-93040752D02*
X169455714Y-93135990D01*
X169455714Y-93135990D02*
X169408095Y-93183609D01*
X169408095Y-93183609D02*
X169312857Y-93231228D01*
X169312857Y-93231228D02*
X168931905Y-93231228D01*
X169884286Y-93421704D02*
X170360476Y-93421704D01*
X169789048Y-93707419D02*
X170122381Y-92707419D01*
X170122381Y-92707419D02*
X170455714Y-93707419D01*
X171312857Y-93707419D02*
X170741429Y-93707419D01*
X171027143Y-93707419D02*
X171027143Y-92707419D01*
X171027143Y-92707419D02*
X170931905Y-92850276D01*
X170931905Y-92850276D02*
X170836667Y-92945514D01*
X170836667Y-92945514D02*
X170741429Y-92993133D01*
X114415832Y-83095080D02*
X114415832Y-84095080D01*
X114415832Y-84095080D02*
X114082499Y-83380795D01*
X114082499Y-83380795D02*
X113749166Y-84095080D01*
X113749166Y-84095080D02*
X113749166Y-83095080D01*
X113272975Y-83095080D02*
X113272975Y-84095080D01*
X113272975Y-84095080D02*
X112892023Y-84095080D01*
X112892023Y-84095080D02*
X112796785Y-84047461D01*
X112796785Y-84047461D02*
X112749166Y-83999842D01*
X112749166Y-83999842D02*
X112701547Y-83904604D01*
X112701547Y-83904604D02*
X112701547Y-83761747D01*
X112701547Y-83761747D02*
X112749166Y-83666509D01*
X112749166Y-83666509D02*
X112796785Y-83618890D01*
X112796785Y-83618890D02*
X112892023Y-83571271D01*
X112892023Y-83571271D02*
X113272975Y-83571271D01*
X112272975Y-84095080D02*
X112272975Y-83285557D01*
X112272975Y-83285557D02*
X112225356Y-83190319D01*
X112225356Y-83190319D02*
X112177737Y-83142700D01*
X112177737Y-83142700D02*
X112082499Y-83095080D01*
X112082499Y-83095080D02*
X111892023Y-83095080D01*
X111892023Y-83095080D02*
X111796785Y-83142700D01*
X111796785Y-83142700D02*
X111749166Y-83190319D01*
X111749166Y-83190319D02*
X111701547Y-83285557D01*
X111701547Y-83285557D02*
X111701547Y-84095080D01*
X110701547Y-83095080D02*
X111272975Y-83095080D01*
X110987261Y-83095080D02*
X110987261Y-84095080D01*
X110987261Y-84095080D02*
X111082499Y-83952223D01*
X111082499Y-83952223D02*
X111177737Y-83856985D01*
X111177737Y-83856985D02*
X111272975Y-83809366D01*
D13*
%TO.C,Inter_Pile1*%
X159170000Y-74395000D02*
X160500000Y-74395000D01*
X159170000Y-75725000D02*
X159170000Y-74395000D01*
X159170000Y-76995000D02*
X159170000Y-79595000D01*
X159170000Y-76995000D02*
X161830000Y-76995000D01*
X159170000Y-79595000D02*
X161830000Y-79595000D01*
X161830000Y-76995000D02*
X161830000Y-79595000D01*
%TO.C,Arduino_Nano1*%
X106840000Y-68320000D02*
X117260000Y-68320000D01*
X106840000Y-76200000D02*
X106840000Y-68320000D01*
X109380000Y-63240000D02*
X109380000Y-68320000D01*
X109380000Y-81280000D02*
X109380000Y-76200000D01*
X109380000Y-81280000D02*
X152820000Y-81280000D01*
X112050000Y-65910000D02*
X112050000Y-63240000D01*
X112050000Y-78610000D02*
X112050000Y-81280000D01*
X117260000Y-68320000D02*
X117260000Y-76200000D01*
X117260000Y-76200000D02*
X106840000Y-76200000D01*
X147610000Y-63240000D02*
X109380000Y-63240000D01*
X147610000Y-65910000D02*
X112050000Y-65910000D01*
X147610000Y-65910000D02*
X147610000Y-63240000D01*
X147610000Y-65910000D02*
X150150000Y-65910000D01*
X150150000Y-65910000D02*
X150150000Y-63240000D01*
X150150000Y-78610000D02*
X112050000Y-78610000D01*
X150150000Y-78610000D02*
X150150000Y-81280000D01*
X152820000Y-63240000D02*
X150150000Y-63240000D01*
X152820000Y-81280000D02*
X152820000Y-63240000D01*
%TO.C,Inter_Cap_Vol1*%
X159170000Y-67005000D02*
X159170000Y-64405000D01*
X161830000Y-64405000D02*
X159170000Y-64405000D01*
X161830000Y-67005000D02*
X159170000Y-67005000D01*
X161830000Y-67005000D02*
X161830000Y-64405000D01*
X161830000Y-68275000D02*
X161830000Y-69605000D01*
X161830000Y-69605000D02*
X160500000Y-69605000D01*
D10*
%TO.C,BMP1*%
X111310000Y-108322500D02*
X120310000Y-108322500D01*
X111310000Y-110322500D02*
X111310000Y-108322500D01*
X120810000Y-108822500D02*
X120310000Y-108322500D01*
X120810000Y-108822500D02*
X120810000Y-110322500D01*
X120810000Y-110322500D02*
X111310000Y-110322500D01*
X121010000Y-123922500D02*
X111010000Y-123922500D01*
X111010000Y-108122500D01*
X121010000Y-108122500D01*
X121010000Y-123922500D01*
%TO.C,Module_SD1*%
X128330000Y-89250000D02*
X147830000Y-89250000D01*
X128330000Y-93750000D02*
X128330000Y-89250000D01*
X148330000Y-89750000D02*
X147830000Y-89250000D01*
X148330000Y-89750000D02*
X148330000Y-93750000D01*
X148330000Y-93750000D02*
X128330000Y-93750000D01*
X123830000Y-141750000D02*
X152830000Y-141750000D01*
X152830000Y-87250000D01*
X123830000Y-87250000D01*
X123830000Y-141750000D01*
%TO.C,Module_LORA1*%
X174000000Y-111000000D02*
X158000000Y-111000000D01*
X158000000Y-95000000D01*
X174000000Y-95000000D01*
X174000000Y-111000000D01*
%TO.C,MPU1*%
X97562500Y-89322500D02*
X116812500Y-89322500D01*
X97562500Y-91322500D02*
X97562500Y-89322500D01*
X117312500Y-89822500D02*
X116812500Y-89322500D01*
X117312500Y-89822500D02*
X117312500Y-91322500D01*
X117312500Y-91322500D02*
X97562500Y-91322500D01*
X117712500Y-104922500D02*
X97312500Y-104922500D01*
X97312500Y-89122500D01*
X117712500Y-89122500D01*
X117712500Y-104922500D01*
%TD*%
M02*
